<?xml version="1.0" encoding="utf-8"?>
<!-- Generator: Adobe Illustrator 24.0.1, SVG Export Plug-In . SVG Version: 6.00 Build 0)  -->
<svg version="1.1" id="Layer_1" xmlns="http://www.w3.org/2000/svg" xmlns:xlink="http://www.w3.org/1999/xlink" x="0px" y="0px"
	 viewBox="0 0 425.3 139.7" style="enable-background:new 0 0 425.3 139.7;" xml:space="preserve">
<style type="text/css">
	.st0{fill:#FFFFFF;}
</style>
<g>
	<path class="st0" d="M36.1,57.6c-0.1,0.2-0.1,0.3,0,0.4c0,0.1,0,0.2,0,0.3c-0.6,0.3-1.3,0.6-1.9,0.8c-0.6,0.3-1.2,0.5-1.9,0.8
		c-0.6,0.3-1.3,0.6-1.8,0.8c-0.6,0.2-1.2,0.5-1.8,0.7c-0.3,0.1-0.5,0.3-0.5,0.4c-0.6,0.5-1.3,0.7-1.9,0.4c-0.5,0.5-1,0.8-1.5,0.9
		c-0.5,0.1-1,0.4-1.5,0.7c-0.3,0.1-0.6,0.2-0.8,0.3c-0.3,0.1-0.5,0.2-0.8,0.3c-0.3,0.2-0.5,0.4-0.7,0.6c-0.1,0.2-0.2,0.5-0.1,0.9
		c-0.1,0.1-0.1,0.3-0.2,0.4c-0.1,0.2-0.1,0.3-0.2,0.4c-0.2,0.2-0.2,0.3-0.2,0.4c0,0.8-0.3,1.3-1,1.7c-0.2,0.2-0.4,0.5-0.4,0.9
		c0.1,0.5,0.1,1.1,0,1.6c-0.1,0.5-0.3,1-0.4,1.5c-0.1,0.2-0.2,0.4-0.4,0.5c-0.1,0.2-0.4,0.3-0.7,0.3c-0.1,0-0.1,0.1-0.2,0.3
		c-0.1,0.2-0.1,0.3,0,0.4c0.3,0.4,0.4,0.7,0.2,0.9c-0.1,0.3-0.4,0.5-0.7,0.7c0.2,0.2,0.3,0.5,0.2,0.7c-0.1,0.2-0.2,0.5-0.4,0.7
		c-0.1,0.1-0.2,0.4-0.4,0.7c0.1,0.6-0.1,1-0.7,1.3c-0.1,0.1-0.2,0.3-0.2,0.6c0,0.3-0.1,0.6-0.2,0.9c-0.1,0.3-0.2,0.6-0.3,0.8
		c-0.1,0.3-0.1,0.5-0.3,0.8c-0.1,0.2-0.2,0.4-0.2,0.5c-0.1,0.4-0.2,0.7-0.2,1.1c0,0.4-0.2,0.7-0.4,1.1c-0.3,0.4-0.4,0.9-0.3,1.5
		c0,0.8-0.1,1.5-0.4,2.1c-0.3,0.6-0.6,1.2-1.1,1.8c-0.1,0.2-0.1,0.4,0,0.5c0,0.1,0,0.2,0,0.4c-0.1,0.4-0.2,0.8-0.2,1.2
		c0,0.4-0.1,0.7-0.1,1.1c-0.1,0.1-0.1,0.1-0.1,0.1c0,0,0,0.1-0.1,0.1c-0.6,0.4-1,0.9-0.9,1.3c0,0.5,0,0.9,0,1.4
		c-0.2,0.6-0.3,1.2-0.4,1.8c-0.1,0.6-0.1,1.2-0.3,1.8c0,0.2-0.1,0.4-0.4,0.4c-0.5,0.1-0.7,0.4-0.8,1v0.3c-0.5,0.7-0.7,1.4-0.6,2.1
		s0.1,1.4,0,2.2c0,0.3,0,0.5,0,0.7c0,0.2-0.1,0.4-0.1,0.7c-0.1,0.1-0.2,0.1-0.4,0.3c-0.1,0.1-0.1,0.2-0.1,0.3
		c0.1,0.2,0.2,0.4,0.3,0.6s0.2,0.4,0.3,0.5c0,0.1,0,0.2-0.1,0.4c-0.1,0.1-0.1,0.2-0.1,0.4c-0.1-0.1-0.2-0.1-0.3-0.1s-0.2,0-0.3-0.1
		c-0.1,0-0.1-0.1-0.1-0.2c0-0.1,0-0.1-0.1-0.1c-0.5,0-0.9-0.2-1.1-0.5c-0.2-0.4-0.5-0.7-0.8-1c-0.1-0.3-0.3-0.6-0.5-0.9
		c-0.2-0.3-0.3-0.7-0.4-1.2c-0.2-0.7-0.3-1.4-0.4-2.2s-0.2-1.6-0.3-2.4c-0.2-1.9-0.2-3.9,0-5.8C3.7,94.4,3.8,93,4,91.5
		c0.2-1.5,0.3-2.9,0.4-4.3C4.7,85.6,5,84,5.3,82.5c0.3-1.6,0.6-3.1,1.1-4.6c0.3-1.3,0.6-2.5,1-3.6c0.4-1.1,0.7-2.3,1.1-3.4
		c0.1-0.5,0.2-1.1,0.4-1.6C9,68.6,9.2,68,9.3,67.4c0-0.4-0.1-0.7-0.3-0.8c-0.5-0.3-0.9-0.6-1.4-0.9c-0.5-0.3-1-0.6-1.5-0.9H5.9
		c-0.1,0-0.1,0-0.1-0.1c-0.3-0.6-0.6-1.1-0.8-1.6c-0.2-0.5-0.5-1-0.8-1.6C4.2,61.2,4,61,3.8,60.8c-0.2-0.2-0.4-0.3-0.7-0.4
		c-0.6-0.7-1-1.5-1.1-2.3c-0.2-0.8-0.3-1.6-0.4-2.5c0-0.1-0.1-0.3-0.2-0.5c-0.1-0.3-0.1-0.5-0.1-0.7c0-0.2,0-0.4-0.1-0.7v-0.4
		c-0.1-0.3-0.1-0.5-0.1-0.7c0.1-0.2,0.3-0.3,0.8-0.4c-0.2-0.2-0.4-0.4-0.6-0.5c0.1-0.3,0.2-0.7,0.4-1.3h0.2c0.2,0.5,0.4,0.9,0.7,1.3
		c0.3,0.4,0.3,0.9,0.1,1.6c0.5,0.6,1,1.2,1.3,1.8c0.4,0.6,0.9,1,1.5,1.2c0.5,0.1,1,0.2,1.5,0.3c0.5,0.1,1,0.1,1.6,0.1
		c0.8,0.1,1.7,0,2.5-0.2c0.8-0.2,1.7-0.5,2.5-1c0.2-0.1,0.4-0.3,0.5-0.7c0.4-0.8,0.7-1.6,1-2.5c0.3-0.8,0.6-1.6,0.9-2.4
		c0.5-0.9,0.9-1.9,1.3-2.8c0.4-0.9,0.9-1.9,1.3-2.9c0.2-0.4,0.4-0.7,0.6-1c0.2-0.3,0.4-0.7,0.5-1.2c0.4-0.6,0.7-1.3,0.9-2.1
		c0.3-0.7,0.6-1.4,0.9-2.1c0.3-0.8,0.6-1.5,0.9-2.1c0.3-0.6,0.7-1.3,1-1.9c0.1-0.3,0.2-0.6,0.3-0.8c0.1-0.3,0.2-0.6,0.4-1.1
		c-0.5,0.3-0.9,0.6-1.2,0.8c-0.4,0.3-0.7,0.5-1.1,0.7c-0.8,0.5-1.6,1-2.5,1.6c-0.8,0.6-1.6,1.3-2.3,2c-0.7,0.6-1.4,1.3-2.1,1.9
		c-0.7,0.6-1.4,1.2-2,1.9c-0.6,0.5-1.3,1-1.9,1.5c-0.6,0.5-1.3,1-1.9,1.5c-0.3,0.3-0.6,0.5-1.1,0.7c-0.4,0.2-0.9,0.4-1.3,0.6
		c-0.1,0.1-0.2,0.1-0.3,0.2c-0.1,0.1-0.2,0.1-0.3,0.2c-0.2,0.1-0.4,0.1-0.5,0.2c-0.2,0.1-0.3,0.1-0.4,0c-0.6-0.2-1.3-0.5-1.9-0.9
		c-0.6-0.4-1.2-0.8-1.7-1.5c-0.2-0.3-0.3-0.6-0.4-0.9C1.1,42.3,1,42,0.9,41.7c0-0.3-0.1-0.4-0.2-0.4C0.2,41.1,0,40.9,0,40.5
		c0-0.4,0-0.8,0-1.1c0-0.3,0.1-0.6,0.3-0.9c0.2-0.3,0.5-0.5,1-0.6c0.1,0,0.2-0.1,0.2-0.2c0-0.1,0.1-0.2,0.2-0.4
		c0.1-0.2,0.2-0.5,0.3-0.7c0.1-0.2,0.2-0.4,0.3-0.6c0.4-0.5,0.8-0.8,1.2-1.1c0.5-0.3,0.9-0.5,1.4-0.8c0.9-0.6,1.7-1.2,2.6-1.9
		c0.8-0.7,1.7-1.4,2.6-2c0.5-0.3,1-0.6,1.4-0.9c0.4-0.3,0.8-0.7,1.2-1c0.4-0.3,0.7-0.6,1.2-0.9c0.4-0.3,0.8-0.6,1.2-0.9
		c1-0.7,2.1-1.4,3.2-2.2c1.1-0.7,2.2-1.4,3.3-2.1c1.3-0.9,2.7-1.7,4-2.5c1.3-0.8,2.7-1.6,4-2.4c0.4-0.2,0.7-0.4,1-0.6
		c0.3-0.1,0.6-0.3,1-0.6c0.4-0.4,0.7-0.6,0.8-0.7c0.1-0.1,0.5-0.1,1.2-0.3c0.5-0.2,1-0.4,1.5-0.6c0.4-0.2,0.9-0.5,1.3-0.7
		c0.5-0.2,0.9-0.3,1.4-0.5c0.5-0.1,0.9-0.3,1.4-0.5c0.5-0.1,0.9-0.3,1.4-0.4c0.4-0.2,0.9-0.3,1.4-0.4c0.6-0.1,1.2-0.2,1.8-0.4
		c0.6-0.1,1.2-0.3,1.8-0.4c0.3-0.1,0.7-0.2,1.3-0.4c1.2-0.2,2.3-0.3,3.5-0.4c1.2-0.1,2.3-0.1,3.4,0c0.7,0,1.4,0,2.1,0
		c0.7,0,1.4,0.1,2.1,0.2c0.8,0.1,1.6,0.3,2.4,0.4c0.8,0.1,1.5,0.5,2.2,1.1c0.3,0.2,0.6,0.3,0.9,0.4c0.3,0.1,0.6,0.2,0.9,0.3
		c0.6,0.4,1.2,0.7,1.8,1.1c0.6,0.4,1.1,0.7,1.7,1.1c1.1,0.9,2.1,1.8,3,2.7v0.1c0,0.1,0,0.1,0.1,0.2c0.3,1.1,0.7,2.2,1.3,3.1
		c0.6,1,1,2,1.1,3.2c0,0.2,0,0.5-0.1,0.8c-0.1,0.3-0.1,0.6,0,0.9c-0.1,0.3-0.1,0.6,0,1c0,0.4,0,0.7-0.1,1c0,0.9-0.2,1.6-0.7,2.3
		c-0.4,0.6-0.9,1.3-1.4,1.9c-0.5,0.8-1,1.5-1.5,2.2c-0.5,0.7-1,1.4-1.5,2v0.2c-0.6,0.2-1.1,0.7-1.3,1.3c-0.2,0.6-0.6,1.1-1.2,1.5
		c-0.4,0.2-0.7,0.5-1.1,0.8c-0.4,0.3-0.7,0.6-1,0.9c-0.8,0.5-1.6,1-2.2,1.5c-0.6,0.6-1.3,1.1-2,1.6c-0.7,0.5-1.4,0.9-2,1.4
		c-0.6,0.4-1.3,0.9-2,1.4c-0.6,0.4-1.2,0.7-1.7,0.9c-0.6,0.3-1.1,0.5-1.7,0.8c-0.2,0.1-0.4,0.3-0.6,0.4c-0.2,0.2-0.4,0.4-0.7,0.5
		c-0.6,0.5-1.3,0.9-2,1.2c-0.7,0.4-1.4,0.8-2.2,1.2c-0.8,0.5-1.6,1-2.3,1.5c-0.7,0.5-1.5,1-2.3,1.5c-0.3,0.2-0.6,0.4-1,0.5
		s-0.7,0.4-1.1,0.6c-0.2,0.1-0.4,0.2-0.6,0.2c-0.2,0-0.4,0.1-0.6,0.2c-0.3,0-0.4,0-0.4,0.1c-0.2,0.5-0.4,0.8-0.8,0.7
		c-0.4-0.1-0.7-0.1-1,0H36.1z M5.9,99.9c-0.1-0.1-0.1-0.2-0.1-0.4c0-0.1,0-0.3,0-0.4c0.1-0.8,0.1-1.6,0.1-2.4c0-0.8,0.1-1.5,0.2-2.3
		c0.1-0.6,0.2-1.3,0.3-1.9c0.1-0.6,0.2-1.3,0.4-2c0-0.6,0.1-1,0.2-1.3c0-0.6,0.1-1,0.2-1.3c0.1-0.2,0.2-0.5,0.3-0.7
		c0.1-0.2,0.2-0.4,0.2-0.7c0.3-1.2,0.6-2.3,0.9-3.5c0.3-1.2,0.6-2.3,0.9-3.5c0.4-1.9,0.8-3.7,1.3-5.5c0.4-0.9,0.7-1.8,0.9-2.7
		c0.3-0.9,0.6-1.8,1-2.8c0.1-0.6-0.1-0.9-0.6-1.1c-0.1,0.3-0.2,0.5-0.3,0.7c-0.1,0.1-0.1,0.3-0.3,0.5c-0.2,0.3-0.3,0.7-0.4,1.2
		c-0.1,0.2-0.1,0.4-0.2,0.5c-0.1,0.2-0.2,0.4-0.2,0.5c-0.2,0.5-0.4,0.9-0.6,1.3c-0.2,0.4-0.2,0.9-0.1,1.3c-0.3,0.4-0.5,0.6-0.5,0.9
		c-0.2,0.6-0.4,1.3-0.5,1.9c-0.2,0.6-0.4,1.3-0.6,1.9c-0.1,0.5-0.3,1.1-0.4,1.6c-0.2,0.5-0.3,1.1-0.4,1.6C7.1,82,7,82.6,6.9,83.1
		c-0.1,0.6-0.2,1.2-0.3,1.8c-0.1,0.8-0.3,1.5-0.5,2.2c-0.2,0.7-0.3,1.5-0.2,2.2c0,0.1,0,0.1,0,0.1c0,0,0,0.1,0,0.2
		c-0.1,0.1-0.1,0.3-0.1,0.4c0,0.2-0.1,0.4-0.2,0.5c0.1,0.6,0,1.1-0.2,1.6c-0.2,0.5-0.2,1,0,1.5c0,0.1-0.1,0.2-0.4,0.4
		c0,0.2,0,0.4-0.1,0.6c-0.1,0.2-0.1,0.4-0.1,0.5c0,0.5,0,1.1,0,1.6c0,0.5,0,1,0,1.5c0,0.5,0,0.8,0.1,1.1c0.1,0.3-0.1,0.5-0.4,0.8
		c0,0.1,0,0.1,0,0.1c0,0,0,0.1,0,0.1c0.2,0.6,0.2,1.1,0,1.7c0,0.9,0.2,1.4,0.7,1.5c0.2-0.2,0.3-0.5,0.3-0.7
		c-0.1-0.2-0.1-0.5-0.2-0.7c-0.1-0.3-0.1-0.5-0.1-0.7c0-0.2,0.1-0.5,0.4-0.7v-0.3c-0.1,0-0.3-0.1-0.6-0.2c0.3-0.1,0.5-0.2,0.6-0.3
		C5.6,100,5.7,99.9,5.9,99.9z M9.7,87.8c0.2-0.4,0.4-0.7,0.5-1c0-0.1,0-0.2,0-0.4c0-0.1,0-0.2,0-0.4c-0.1,0.1-0.2,0.1-0.3,0.1
		c-0.1,0-0.2,0.1-0.2,0.1c-0.1,0.3-0.2,0.6-0.3,1.1c0,0.1,0,0.2,0.1,0.4H9.7z M11.6,82.3l-0.2-0.2c-0.4,0.1-0.5,0.2-0.5,0.3
		c-0.2,0.2-0.3,0.4-0.3,0.6c0.1,0.1,0.2,0.1,0.4,0.1c0.1-0.1,0.2-0.2,0.3-0.4C11.4,82.5,11.5,82.4,11.6,82.3z M11.3,80.9
		c0.8-0.2,1.2-0.7,1.4-1.5c0-0.1,0-0.2,0-0.3c0-0.1,0-0.2,0-0.3c0-0.1,0-0.2,0-0.4c0-0.1,0-0.2,0-0.4c-0.1,0.1-0.3,0.2-0.4,0.2
		c-0.2,0-0.3,0.1-0.3,0.2c-0.1,0.5-0.3,0.9-0.4,1.3C11.6,80.1,11.4,80.5,11.3,80.9z M13.8,74.2c0.2-0.1,0.3-0.1,0.4-0.3
		c0.1-0.1,0.2-0.3,0.2-0.4c0-0.2,0.1-0.3,0.2-0.4h-0.2c-0.1,0-0.1,0-0.1,0c0,0-0.1,0-0.1,0c-0.2,0.2-0.4,0.5-0.4,0.7V74.2z
		 M14.7,72.5c0.1-0.2,0.2-0.4,0.4-0.6c0.1-0.3,0.2-0.5,0.2-0.7c0-0.2,0.1-0.4,0.2-0.6c0.2-0.5,0.3-1,0.4-1.5c-0.1,0-0.2,0-0.2,0
		c0,0-0.1,0-0.2,0c-0.2,0.6-0.4,1.2-0.5,1.7c-0.2,0.5-0.4,1-0.5,1.6L14.7,72.5z M19,49.5c-0.2,0.5-0.4,0.9-0.5,1.2
		c-0.1,0.3-0.2,0.6-0.5,0.9c0.6-0.4,0.9-0.7,1.1-1C19.2,50.4,19.1,50,19,49.5z M28.8,54c0.8-0.2,1.7-0.4,2.6-0.6
		c0.9-0.2,1.8-0.6,2.6-1.1c-0.1-0.2-0.2-0.3-0.4-0.4c-0.1-0.1-0.2-0.2-0.4-0.3l-0.2,0.2c0.1,0.1,0.1,0.2,0.1,0.5
		c-0.4-0.1-0.8-0.2-1.2-0.2c-0.4-0.1-0.8,0.1-1.1,0.5c-0.3,0.3-0.6,0.5-1,0.7c-0.4,0.2-0.7,0.2-1.1,0.1c-0.1,0-0.2,0.1-0.4,0.2
		c-0.9,0.5-1.8,1-2.7,1.5c-0.2,0.1-0.3,0.2-0.5,0.3c-0.1,0.1-0.3,0.2-0.4,0.3c0,0.1,0,0.1,0,0.1c0,0,0,0.1,0,0.1
		c0.1-0.1,0.2-0.1,0.3-0.1c0.1,0,0.1,0,0.3-0.1c0.5-0.2,1-0.4,1.5-0.6c0.4-0.2,0.9-0.4,1.4-0.5c0.3-0.1,0.5-0.1,0.6-0.2
		C28.8,54.5,28.8,54.3,28.8,54z M28.4,48.6c0.1,0,0.2,0,0.3,0c0.1,0,0.2,0,0.3,0c0.8-0.4,1.6-0.7,2.3-1c0.7-0.3,1.5-0.7,2.2-1
		c1.1-0.6,2.2-1.2,3.3-1.8c1.1-0.6,2.2-1.2,3.2-1.8c1.1-0.6,2.1-1.1,3-1.6c0.9-0.5,1.9-1.1,2.8-1.7c1.1-0.6,2.2-1.3,3.3-2.1
		c1.1-0.7,2.2-1.5,3.3-2.2c1-0.6,2-1.3,2.9-1.9c0.9-0.6,1.9-1.3,2.9-2c1.6-1.1,3-2.3,4.1-3.4c1.1-0.9,2.1-2.1,3-3.4
		c0.4-0.5,0.7-1.1,1-1.8c0.3-0.6,0.5-1.3,0.8-2c0.4-0.6,0.2-1.1-0.4-1.2c-0.5-0.1-0.9-0.3-1.4-0.4c-0.5-0.2-1-0.3-1.6-0.4
		c-0.8-0.2-1.6-0.4-2.2-0.6C61,18,60.3,17.9,59.4,18c-1,0-2,0-3-0.1c-1-0.1-2,0.1-3,0.4c-0.5,0.1-1,0.2-1.5,0.2
		c-0.5,0-1,0.1-1.5,0.2c-0.9,0.2-1.8,0.4-2.7,0.6c-0.9,0.2-1.8,0.4-2.7,0.7c-0.4,0.1-0.8,0.3-1.2,0.4c-0.4,0.2-0.8,0.4-1.3,0.6
		c-0.2,0.2-0.3,0.4-0.3,0.5c-0.1,0.4-0.2,0.8-0.3,1.2c-0.1,0.4-0.2,0.8-0.4,1.1c-0.4,0.6-0.7,1.3-0.8,1.9c-0.1,0.6-0.4,1.2-0.9,1.8
		c-0.4,0.4-0.6,0.6-0.8,0.9c-0.2,0.4-0.5,0.7-0.7,1.1c-0.3,0.4-0.5,0.7-0.7,1.1c-0.4,0.6-0.6,1.2-0.8,1.8c-0.2,0.6-0.4,1.2-0.7,1.7
		c-0.1,0.2-0.3,0.5-0.8,0.9c-0.2,0.2-0.4,0.5-0.5,0.7c-0.2,0.2-0.4,0.5-0.5,0.7c-0.1,0.3-0.2,0.5-0.4,0.6c-0.1,0.2-0.2,0.5-0.2,0.7
		c0,0.2-0.1,0.4-0.2,0.6c-0.3,0.4-0.5,0.7-0.7,1c-0.2,0.3-0.4,0.6-0.7,1c0,0.1,0.1,0.3,0.4,0.5c-0.1,0.1-0.3,0.2-0.4,0.4
		c-0.2,0.1-0.3,0.2-0.3,0.4c-0.1,0.3-0.2,0.5-0.4,0.7c-0.2,0.2-0.4,0.4-0.5,0.6c-0.2,0.2-0.3,0.3-0.3,0.4c-0.1,0.5-0.3,0.9-0.5,1.4
		c-0.2,0.5-0.5,0.9-0.7,1.3c-0.3,0.4-0.5,0.8-0.6,1.2C28.8,47.7,28.6,48.1,28.4,48.6z M33.8,51c0,0.2-0.1,0.3-0.2,0.4
		c0.2,0.1,0.3,0.1,0.5,0.1c0.1,0,0.3,0,0.5,0c0.4-0.1,0.7-0.2,1.1-0.3c0.4-0.1,0.8-0.1,1.1-0.3c0.1-0.1,0.2-0.1,0.4-0.2
		c0.1-0.1,0.2-0.2,0.4-0.3c0.1-0.1,0.1-0.1,0.1-0.3c-0.1-0.1,0-0.2,0.1-0.4c-0.3,0-0.5,0-0.6,0.1c-0.3,0.3-0.5,0.5-0.7,0.5
		c-0.4,0.1-0.8,0.2-1.2,0.3C34.7,50.8,34.2,50.9,33.8,51z M38.2,49.7c0.5-0.1,0.7-0.2,0.8-0.3c0.3-0.1,0.6-0.2,0.8-0.4
		c0.3-0.1,0.5-0.3,0.8-0.5c0.2-0.1,0.4-0.3,0.4-0.5c-0.3,0-0.5,0-0.6,0.1c-0.4,0.2-0.8,0.4-1.1,0.6c-0.3,0.2-0.6,0.4-0.9,0.5
		c-0.1,0.1-0.1,0.1-0.1,0.2C38.3,49.5,38.3,49.6,38.2,49.7z M60.4,35.4c0,0.1,0,0.2,0.1,0.2c0.2,0,0.4,0,0.6,0
		c0.1,0,0.3-0.1,0.6-0.1c-0.2-0.3-0.4-0.4-0.6-0.4C60.9,34.9,60.7,35.1,60.4,35.4z M65,29.6c-0.4,0.3-0.6,0.6-0.9,0.8
		c-0.2,0.2-0.5,0.5-0.8,0.8C64.3,31.6,64.8,31.1,65,29.6z"/>
	<path class="st0" d="M87.8,58.5c0.1,0.7,0.1,1.4,0,2.1s-0.1,1.4-0.1,2.1c0,0.2,0,0.4,0,0.6c0,0.2,0,0.4,0,0.6
		c-0.1,0.5-0.2,1-0.3,1.5c-0.1,0.5-0.3,1-0.5,1.5c-0.2,0.5-0.4,0.9-0.6,1.3c-0.2,0.4-0.2,0.9,0,1.4c0.3,0.6,0.3,1.1-0.1,1.5
		c-0.4,0.4-0.6,0.9-0.9,1.3c-0.3,0.6-0.6,1.2-0.8,1.8c-0.3,0.6-0.5,1.2-0.8,1.8c-0.1,0.1-0.2,0.2-0.3,0.4c-0.1,0.1-0.2,0.2-0.3,0.4
		c-0.4,0.6-0.8,1.2-1.1,1.8c-0.4,0.6-0.7,1.2-1.1,1.8c-0.4,0.5-0.7,0.9-1.1,1.4c-0.4,0.5-0.7,0.9-1.1,1.4c-0.1,0.1-0.2,0.3-0.2,0.4
		c0,0.2-0.1,0.4-0.2,0.6c-0.1,0.1-0.3,0.2-0.8,0.4c0.3,0.3,0.5,0.6,0.7,0.8c-0.6,0.7-1.3,1.4-1.9,2.1c-0.6,0.7-1.2,1.4-1.9,2.1
		c-0.5,0.6-1.1,1.3-1.6,2c-0.5,0.7-1.1,1.3-1.6,2c-0.4,0.4-0.8,0.8-1.2,1.2c-0.4,0.4-0.8,0.7-1.3,1.1c-0.4,0.3-0.7,0.6-1.1,0.9
		c-0.4,0.3-0.7,0.6-1.1,0.9c-0.6,0.5-1.3,1-2,1.5c-0.7,0.4-1.4,1-1.9,1.5c-0.6,0.6-1.3,0.9-2.1,1c-0.7,0.1-1.4,0.3-2.1,0.7
		c-0.2,0.1-0.5,0.1-0.8,0.1c-0.3-0.1-0.6-0.1-0.9-0.3c-0.8-0.3-1.4-0.6-2-1.1c-0.3-0.2-0.6-0.4-1-0.4c-0.4,0-0.7-0.2-1-0.6
		c-0.4-0.5-0.8-0.9-1.3-1.4c-0.4-0.5-0.9-0.9-1.4-1.4c-0.5-0.6-1-1.3-1.3-2.1c-0.4-0.7-0.7-1.4-1.1-2.2c-0.4-0.7-0.7-1.5-1-2.3
		c-0.1-0.4-0.2-0.7-0.3-1.1c-0.1-0.4-0.1-0.7-0.2-1.1c0-0.8,0-1.6,0-2.4c0-0.8,0-1.6,0.1-2.4s0.3-1.7,0.5-2.6
		c0.2-0.9,0.4-1.7,0.7-2.6c0-0.1,0.1-0.2,0.2-0.3c0.1-0.1,0.2-0.2,0.2-0.2c0.1-0.3,0.1-0.5,0-0.7c0-0.2,0-0.4,0-0.5
		c0.5-1.8,1.1-3.4,1.8-5c0.2-0.5,0.4-1,0.6-1.5c0.2-0.5,0.5-1,0.7-1.5c0.2-0.5,0.4-1,0.6-1.5c0.2-0.5,0.4-1,0.7-1.5
		c0.4-0.8,0.7-1.5,1.1-2.2c0.4-0.7,0.7-1.4,1.1-2.1c1-1.9,2-3.8,3.1-5.6c0.3-0.5,0.6-0.9,0.8-1.4c0.3-0.4,0.5-0.9,0.8-1.4
		c0.1-0.1,0.2-0.3,0.3-0.4c0.1-0.2,0.1-0.3,0-0.4c-0.3-0.4-0.6-0.6-1.1-0.6c-0.3,0.1-0.6,0.1-0.9,0.2c-0.3,0.1-0.6,0.2-0.9,0.3
		c-0.3-0.4-0.6-0.6-1-0.7c-0.4,0-0.9,0.1-1.6,0.4c-0.5,0.2-1.2,0.3-1.9,0.3c-0.7,0-1.4-0.1-2-0.4c0.2-0.1,0.4-0.2,0.6-0.3
		c0.1-0.1,0.3-0.1,0.4-0.1c0.5,0,1-0.1,1.3-0.4c0.3-0.2,0.6-0.6,0.9-1.1c0.1-0.1,0.2-0.2,0.3-0.3c0.1-0.1,0.2-0.1,0.3-0.3
		c1.2-0.5,2.3-0.9,3.4-1.3c1.1-0.4,2.2-0.8,3.3-1.2c0.6-0.2,1.3-0.4,1.8-0.6c0.6-0.2,1.2-0.4,1.8-0.6c0.3-0.2,0.6-0.4,0.9-0.6
		c0.3-0.2,0.4-0.6,0.1-1.1c0.9-0.5,1.6-1.1,2.1-1.9c0.5-0.8,1.1-1.6,1.8-2.2c0.5-0.5,0.9-0.9,1.3-1.4c0.4-0.5,0.8-0.9,1.3-1.4
		c0.3-0.2,0.6-0.3,1-0.2c0.4,0.1,0.6,0.3,0.8,0.6c0.1,0.1,0.3,0.2,0.7,0.4c0.3,0.1,0.6,0.1,1,0.1c0.4,0,0.7,0.1,1,0.1
		c0,0.1-0.1,0.1-0.2,0.3c0.2,0.2,0.5,0.4,0.9,0.8c0.4,0.3,0.7,0.6,1.1,0.8c0.4,0.2,0.6,0.6,0.7,1.2c0,0.1,0.1,0.2,0.2,0.4
		c0.5,0.3,0.7,0.6,0.6,0.9c-0.1,0.3-0.1,0.6-0.3,1c-0.2,0.4-0.5,0.8-0.7,1.2c-0.2,0.4-0.4,0.9-0.5,1.3c-0.1,0.2,0,0.5,0.4,0.7
		c0.8,0.5,1.5,1,2.2,1.5c0.7,0.5,1.5,1,2.3,1.5c0.6,0.4,1.1,0.8,1.4,1.2c0.4,0.5,0.7,0.9,1.1,1.4c0.1,0.1,0.2,0.3,0.2,0.4
		c0,0.2,0,0.4,0.1,0.6c0.3-0.1,0.5-0.1,0.5,0.2c0.1,0.2,0.1,0.5,0.2,0.9c0.2,0.7,0.4,1.4,0.7,2.1C87.5,57.1,87.7,57.8,87.8,58.5z
		 M84.4,61.4c0-0.4,0.1-0.8,0.3-1.3c0.2-0.4,0-0.7-0.5-0.9c-0.1-0.8-0.3-1.5-0.4-2.2c-0.1-0.7-0.3-1.3-0.3-2
		c-0.1-0.5-0.2-0.9-0.4-1.2c-0.2-0.4-0.5-0.7-1-1.1v1.6c-0.2-0.2-0.4-0.4-0.4-0.5c-0.2-0.4-0.3-0.8-0.4-1.2
		c-0.1-0.4-0.4-0.8-0.7-1.2c-0.3-0.4-0.7-0.7-1.2-1c-0.5-0.3-1-0.5-1.6-0.7c-0.6-0.2-1.2-0.3-1.7-0.4c-0.6,0-1,0-1.5,0.2
		c-0.2,0.1-0.3,0.2-0.4,0.4c-0.5,0.6-1.1,1.3-1.6,1.8c-0.5,0.6-1,1.2-1.5,1.8c-0.6,0.8-1.2,1.5-1.7,2.3c-0.6,0.8-1.1,1.5-1.7,2.3
		c-0.3,0.3-0.5,0.6-0.7,0.9c-0.2,0.3-0.4,0.6-0.7,0.9c-0.3,0.5-0.6,1-0.9,1.5c-0.3,0.5-0.6,1-0.9,1.5c-0.5,0.8-0.9,1.5-1.3,2.2
		c-0.4,0.7-0.9,1.5-1.3,2.3c-0.2,0.4-0.5,0.7-0.7,1c-0.2,0.3-0.4,0.7-0.6,1c-0.5,0.9-0.9,1.7-1.3,2.6c-0.4,0.9-0.8,1.7-1.2,2.5
		c-0.3,0.6-0.5,1.2-0.7,1.8c-0.2,0.6-0.5,1.2-0.7,1.8c-0.2,0.3-0.3,0.6-0.4,1.1c-0.1,0.4-0.4,0.6-1.1,0.4c-0.1,0.7-0.1,1.4,0,2.1
		c0.1,0.7-0.3,1.3-1.1,1.8V84c-0.1,0.6-0.2,1.3-0.4,2c-0.1,0.7-0.2,1.4-0.4,2c-0.1,0.3-0.1,0.6-0.2,0.9c-0.1,0.3-0.1,0.6-0.1,0.9
		c0,0.7,0,1.4,0,2.1c0,0.7,0.1,1.4,0.1,2.1c0.1,0.6,0.4,0.9,1,0.7c0.6-0.3,1.3-0.6,1.9-0.8c0.6-0.2,1.2-0.5,1.8-0.9
		c0.7-0.5,1.4-1,2.1-1.5s1.4-1,2-1.5c0.6-0.5,1.3-1,1.8-1.5c0.6-0.5,1.2-1,1.8-1.5c0.3-0.3,0.6-0.6,0.8-0.8c0.2-0.3,0.5-0.6,0.8-0.9
		c0-0.2,0.1-0.5,0.4-0.7c0.2-0.2,0.5-0.3,0.8-0.3h0.9c-0.1-0.2-0.1-0.3-0.1-0.5c0-0.1-0.1-0.3-0.1-0.5c0.1-0.1,0.3-0.3,0.5-0.4
		c0.2-0.2,0.4-0.4,0.7-0.5c0.2-0.2,0.4-0.3,0.7-0.5c0.3-0.1,0.4-0.3,0.4-0.5c0-0.6,0.1-0.9,0.4-0.8c0.3,0.1,0.6,0.1,1.1,0
		c-0.4,0.6-0.7,1.1-0.9,1.5c0.1,0.1,0.2,0.2,0.3,0.2c0.3-0.2,0.6-0.5,0.8-0.7c0.3-0.2,0.5-0.5,0.7-0.7c0.4-0.7,0.9-1.3,1.5-1.8
		c0.6-0.5,1.1-1.1,1.5-1.8c0.3-0.5,0.7-0.9,1.1-1.2c0.5-0.4,0.8-0.8,1-1.4c0.1-0.2,0.2-0.5,0.4-0.7c0.3-0.5,0.6-0.9,0.9-1.4
		c0.3-0.4,0.6-0.9,0.9-1.4c0.2-0.3,0.3-0.6,0.5-1c0.1-0.4,0.3-0.7,0.4-1c0.2-0.5,0.4-1,0.6-1.5c0.1,0,0.3-0.1,0.6-0.2
		c-0.1-0.1-0.1-0.1-0.1-0.1c0,0-0.1,0-0.1-0.1C83,67.3,83,67,83,66.8c0-0.2,0.1-0.4,0.2-0.6c0.1-0.2,0.1-0.4,0.3-0.6
		c0.1-0.2,0.2-0.4,0.4-0.6c0.1-0.6,0.3-1.3,0.4-1.8C84.4,62.6,84.5,62,84.4,61.4z M56,49.5c0.6-0.4,1.3-0.7,1.9-1
		c-0.5-0.2-0.9-0.1-1.4,0.1C56.1,48.9,56,49.2,56,49.5z M72.6,80.2c0.5-0.6,1-1.2,1.5-1.8c0.5-0.6,1-1.2,1.5-1.8c0.1,0,0.1,0,0.1,0
		c0,0,0.1,0,0.1,0c-0.1,0.3-0.2,0.6-0.4,0.9c-0.1,0.3-0.3,0.6-0.6,0.8c-0.3,0.4-0.6,0.7-1,1c-0.4,0.3-0.7,0.6-1,0.9
		C72.7,80.4,72.6,80.4,72.6,80.2z M79.4,70.7c0,0.2-0.1,0.6-0.4,1.1c-0.2,0.5-0.5,1.1-0.9,1.7c-0.4,0.6-0.8,1.2-1.2,1.7
		c-0.4,0.5-0.8,0.8-1.1,1c0.6-0.9,1.3-1.9,1.8-2.8C78.2,72.5,78.8,71.6,79.4,70.7z M82.1,60.5c0-0.4,0-0.7,0-1.1c0-0.4,0-0.7,0-1.1
		c0.1,0.1,0.2,0.1,0.4,0.1c-0.1,0.4-0.1,0.7-0.1,1.1s0,0.7-0.1,1.1H82.1z"/>
	<path class="st0" d="M118.4,55.8c-0.4,0.4-0.8,0.6-1.1,0.9c-0.3,0.2-0.6,0.5-0.9,0.8c-0.1,0.1-0.2,0.3-0.3,0.4
		c-0.1,0.1-0.2,0.3-0.3,0.4c-0.6,0.8-1.3,1.5-2,2.3c-0.7,0.8-1.3,1.5-2,2.3c-0.1,0.2-0.3,0.3-0.5,0.4c-0.2,0.1-0.4,0.2-0.5,0.4
		c-0.4,0.4-0.7,0.7-1,1.1c-0.3,0.4-0.7,0.7-1,1.1c-0.2,0.3-0.6,0.6-1.1,1c-0.3,0.5-0.6,1-1,1.5c-0.4,0.5-0.7,1.1-1.1,1.6
		c-0.6,1-1.3,2-1.9,2.9c-0.6,0.9-1.2,1.9-1.9,2.9c-0.4,0.6-0.4,1.3-0.2,2c0.2,0.7,0.6,1.2,1.1,1.7c0.7,0.5,1.3,1,1.8,1.6
		c0.9,1.1,1.8,2,2.8,2.9c1,0.9,2.1,1.7,3.2,2.4c1.5,0.9,2.9,1.9,4.4,2.8c1.4,0.9,2.9,1.8,4.3,2.8c1,0.6,2,1.3,2.9,2
		c0.9,0.7,1.8,1.4,2.7,2.2c0.5,0.4,0.8,0.9,1.1,1.4c0.3,0.5,0.6,1,0.9,1.5c0.2,0.2,0.2,0.3,0.1,0.4c-0.3,0.3-0.6,0.6-0.8,0.9
		c-0.2,0.3-0.5,0.5-0.8,0.7c-0.9,0.3-1.9,0.5-2.8,0.7c-0.9,0.2-1.9,0.3-2.9,0.3c-0.7,0-1.4,0.1-2.1,0.3s-1.4,0.1-2.1-0.3
		c-0.1-0.1-0.3-0.2-0.5-0.1c-0.2,0-0.4,0-0.6,0l-6.9,0.5c-0.6,0.1-1.2,0.1-1.7,0.1c-0.6,0-1.1,0-1.7,0c-0.5-0.1-1-0.2-1.5-0.3
		c-0.5-0.1-1-0.3-1.5-0.4c-0.3-0.1-0.6-0.2-0.8-0.1c-0.2,0-0.5,0-0.8,0c-0.5-0.1-0.9-0.1-1.4-0.2c-0.4-0.1-0.9-0.1-1.4-0.3
		c-0.2,0-0.3,0-0.4-0.1c-0.8-0.6-1.7-1.1-2.8-1.3c-1-0.2-2-0.7-2.8-1.3c-0.8-0.5-1.5-1-2.2-1.5c-0.7-0.5-1.5-0.9-2.3-1.4
		c-0.5-0.3-1-0.7-1.4-1.1c-0.4-0.4-0.7-1-1-1.7c0.3,0.2,0.6,0.3,0.9,0.5c0.3,0.1,0.6,0.3,0.9,0.4c0.5,0.1,1.1,0.2,1.6,0.3
		c0.6,0.1,1.1,0.1,1.6,0.3c1,0.1,2,0.2,2.9,0.3c0.9,0.1,1.9,0.2,2.9,0.3c1.8,0.1,3.6,0.1,5.5,0c1.5-0.1,2.9-0.3,4.4-0.5
		c1.4-0.2,2.9-0.4,4.4-0.6c0.4-0.1,0.8-0.1,1.2-0.1c0.4,0,0.8,0,1.3-0.1c0.1-0.1,0.3-0.1,0.4-0.1c0.2,0,0.4-0.1,0.7-0.2
		c-0.2-0.2-0.4-0.3-0.5-0.4c-0.1-0.1-0.3-0.2-0.4-0.4c-1-0.8-2-1.6-3-2.4c-1-0.8-2-1.6-3-2.4c-0.9-0.8-1.9-1.6-2.8-2.4
		c-0.9-0.8-1.7-1.7-2.4-2.7c-0.6-0.8-1.2-1.6-1.9-2.3c-0.7-0.7-1.1-1.6-1.2-2.6c-0.1-0.3-0.2-0.6-0.4-0.8c-0.2-0.3-0.4-0.5-0.4-0.8
		c-0.3-0.9-0.5-1.8-0.6-2.7c-0.1-0.9-0.4-1.8-0.7-2.6c-0.4-0.9-0.4-1.8,0-2.5c0.3-0.7,0.7-1.4,1.2-2c0.5-0.8,1.1-1.5,1.6-2.2
		c0.6-0.7,1.1-1.5,1.7-2.2c0.5-0.6,1-1.2,1.5-1.8c0.5-0.6,1.1-1.2,1.6-1.8c0.5-0.6,0.9-1.3,1.4-1.9c0.5-0.6,1-1.3,1.5-1.8l9.8-10.6
		c0.5-0.5,1-1.1,1.5-1.6c0.5-0.5,1-1,1.5-1.5c1.2-1.1,2.4-1.2,3.8-0.4c0.4,0.2,0.7,0.4,1,0.6c0.3,0.2,0.7,0.4,1,0.7
		c0.1,0.1,0.2,0.2,0.4,0.2c1.3-0.1,2.3,0.2,3.1,0.8c0.8,0.7,1.4,1.5,2,2.4c0.4,0.6,0.8,1.3,1.1,1.8c0.1,0.2,0,0.4-0.1,0.6
		c-0.1,0.4-0.2,0.8-0.4,1.2c-0.2,0.4-0.2,0.9,0.1,1.3l-0.2,0.4c-0.5,0.8-0.8,1.6-1,2.4c-0.2,0.8-0.5,1.6-0.9,2.5
		c-0.1,0.2-0.2,0.4-0.3,0.6c-0.1,0.2-0.2,0.3-0.5,0.3c-0.2,0-0.3,0.1-0.3,0.4c-0.5,1-0.9,2-1.4,3.1c-0.4,1.1-0.9,2.1-1.4,3.2
		c-0.4,0.8-0.7,1.6-1,2.5c-0.3,0.8-0.6,1.6-0.9,2.5c-0.1,0.2-0.3,0.4-0.4,0.6c-0.5,0.3-0.9,0.7-1.1,1.3c-0.2,0.6-0.5,1.1-0.8,1.6
		c-0.2,0.5-0.5,1.1-0.7,1.6c-0.2,0.6-0.5,1.1-0.7,1.5c-0.3,0.5-0.6,1-0.8,1.5c-0.3,0.6-0.5,1.1-0.7,1.6c-0.2,0.4-0.4,0.8-0.5,1.2
		c-0.2,0.4-0.2,0.9-0.1,1.3c0.1,0.6-0.2,0.7-0.9,0.4c-0.8-0.4-1.4-0.8-1.8-1.3c-0.4-0.5-0.6-1.1-0.8-1.7c-0.1-0.6-0.2-1.2-0.2-1.9
		c0-0.6,0.1-1.3,0.1-2c0.1-1.4,0.4-2.8,0.8-4.2c0.4-1.4,0.9-2.7,1.4-4.1c0.5-1.2,1-2.3,1.5-3.5c0.4-1.2,0.9-2.3,1.4-3.5
		c0.1-0.3,0.2-0.6,0.2-0.9C118.2,56.6,118.3,56.3,118.4,55.8z"/>
	<path class="st0" d="M147.2,30.1c-0.3-0.5-0.7-0.7-1.3-0.5c-0.6,0.2-1,0.3-1.3,0.4c-0.5,0.2-0.9,0.4-1.4,0.4
		c-0.4,0.1-0.9,0.1-1.4,0.3c-0.4,0.1-0.7,0.1-1,0.2c-0.3,0.1-0.7,0.2-1,0.3c-0.2,0.1-0.4,0.2-0.6,0.2c-1.2-0.2-2.3-0.2-3.4,0.2
		c-1.1,0.4-2.2,0.6-3.4,0.7c-0.6,0.1-1.2,0.1-1.8,0.3c-0.6,0.1-1.1-0.1-1.7-0.5c-0.1-0.2-0.3-0.2-0.6-0.1c-1.2,0.3-2.3,0.6-3.5,0.9
		c-1.1,0.3-2.3,0.6-3.5,0.9c-0.8,0.2-1.6,0.3-2.4,0.4c-0.8,0.1-1.6,0.2-2.4,0.4c-0.6,0.1-1.3,0.2-1.8,0.4c-0.6,0.1-1.2,0.2-1.8,0.4
		l-1-1c0.7-1.6,1.7-2.8,3-3.7c1.3-0.8,2.7-1.5,4.2-2c1.1-0.4,2.2-0.7,3.3-1.1c1.1-0.4,2.2-0.7,3.4-1c1.5-0.4,3.1-0.8,4.6-1.1
		c1.6-0.3,3.1-0.6,4.6-1c1.1-0.2,2.2-0.5,3.3-0.7c1.1-0.3,2.2-0.5,3.3-0.7c1.2-0.2,2.3-0.4,3.4-0.6c1.1-0.1,2.2-0.3,3.4-0.6
		c1.2-0.2,2.3-0.5,3.5-0.7c1.1-0.2,2.3-0.5,3.5-0.7c0.6-0.1,1-0.5,1.2-1.1l5.8-13.2c0.4-0.8,0.8-1.7,1.2-2.5
		c0.4-0.8,0.8-1.7,1.2-2.5c0.3-0.6,0.6-1,1.1-1.1c0.4-0.1,0.9-0.2,1.4,0c0.5,0.1,1,0.2,1.5,0.3c0.5,0.1,1,0.1,1.5,0.3
		c0.1,0.1,0.2,0.1,0.4,0.1c0.1,0,0.2,0.1,0.4,0.2c0.6,0.4,1.2,0.8,1.8,1.1c0.6,0.4,1.1,0.8,1.5,1.4c0.2,0.3,0.4,0.6,0.6,0.9
		c0.2,0.3,0.4,0.6,0.6,0.9c0.1,0.3,0.2,0.6,0.2,1c0,0.4-0.1,0.8-0.4,1.2v0.4c0.5,0.7,0.6,1.3,0.3,1.8c-0.3,0.5-0.8,1-1.4,1.5
		l-0.2,0.1c-0.5,0.8-0.9,1.6-1.4,2.4c-0.5,0.8-0.9,1.6-1.4,2.4c-0.4,0.7-0.8,1.4-1.4,1.9c-0.1,0.6,0.3,0.9,1.1,0.9
		c2.1-0.1,4.1-0.2,6.2-0.4c2.1-0.1,4.1,0.1,6.2,0.5c0.6,0.1,1.3,0.2,2.1,0.2c0.7,0,1.4,0.1,2.1,0.3c0.5,0.1,1,0.3,1.5,0.6
		c0.6,0.3,1.1,0.7,1.5,1.1c0.5,0.4,0.9,0.9,1.2,1.5c0.3,0.6,0.5,1.2,0.5,1.8c0,0.5,0,1,0.1,1.5c0.1,0.5,0.1,1,0,1.5
		c-0.1,0.4-0.2,0.7-0.5,1.1c-0.3,0.4-0.5,0.6-0.8,0.7c-0.7,0.2-1.4,0.4-2.1,0.5c-0.7,0.1-1.4,0.2-2.1,0.2c-0.8,0.1-1.6,0.1-2.5,0
		c-0.8,0-1.6-0.2-2.4-0.4c-1.9-0.5-3.9-0.8-5.9-0.7c-2,0.1-4.1,0-6.1-0.1c-0.8,0-1.7,0-2.6,0.1c-0.9,0.1-1.8,0.2-2.8,0.3
		c0,0.1-0.1,0.5-0.4,1.3c-0.3,0.7-0.6,1.5-0.9,2.4c-0.3,0.9-0.6,1.7-0.9,2.5c-0.3,0.8-0.5,1.3-0.5,1.5c-0.1,0.4-0.3,0.7-0.7,1
		c-0.3,0.3-0.5,0.7-0.4,1.2c0.1,0.1,0,0.2-0.3,0.4c-0.2,0.1-0.4,0.2-0.6,0.4c0.2,0.6,0.2,1,0.2,1.1c-0.1,0.2-0.3,0.4-0.8,0.7
		c-0.1,0.2-0.4,0.4-0.7,0.8c-0.1,0.1-0.3,0.2-0.4,0.4c-0.2,0.1-0.3,0.2-0.4,0.4c-0.1,0.1,0,0.3,0.1,0.4c0.1,0.2,0.2,0.4,0.4,0.5
		c-0.1,0.2-0.2,0.4-0.3,0.8c-0.1,0.4-0.2,0.7-0.4,1.1c-0.1,0.4-0.2,0.7-0.4,1.1c-0.1,0.4-0.4,0.7-0.9,1c-0.1,0.1-0.2,0.3-0.2,0.5
		c0,0.2,0,0.4,0,0.5c-0.4,0.4-0.7,0.8-1,1.1c-0.3,0.3-0.6,0.7-0.9,1c-0.2,0.3-0.2,0.5-0.1,0.7c0.2,0.6,0.2,1,0.2,1.1
		c-0.1,0.1-0.4,0.4-1,0.7c0.2,0.5,0.3,0.9,0.1,1.1c-0.1,0.2-0.4,0.4-0.7,0.6c-0.3,0.1-0.6,0.3-1,0.4c-0.3,0.1-0.6,0.3-0.7,0.6
		c0.3,0.1,0.6,0.1,0.8,0.1c0.3,0,0.6,0,0.9,0c-0.8,0.5-1.4,1-1.7,1.5c-0.3,0.5-0.3,1.1,0,1.6c-0.3,0.3-0.5,0.5-0.7,0.7
		c-0.2,0.2-0.4,0.4-0.7,0.5c0.1,0.1,0.2,0.2,0.3,0.4s0.2,0.2,0.3,0.4c0.2,0.5,0.1,0.8-0.4,0.8c-0.4,0-0.8,0.1-1.1,0.3
		c0.2,0.4,0.4,0.7,0.5,1c-0.3,0.1-0.6,0.3-0.8,0.4c-0.3,0.1-0.5,0.3-0.8,0.4c-0.2,0.1-0.4,0.3-0.4,0.4l0.4,0.3
		c0.5,0.1,0.9,0.2,1.1,0.3c-0.6,0-0.9,0.2-1,0.5c-0.1,0.3-0.2,0.7-0.2,1.1c-0.1,0.5-0.3,1-0.4,1.5c-0.2,0.5-0.3,1-0.4,1.5
		c-0.1,0.1-0.1,0.3-0.1,0.4c0,0.1,0,0.3-0.1,0.4c0,0.2-0.1,0.6-0.2,1.1c-0.2,0-0.4,0-0.5,0c-0.2,0-0.4,0-0.5,0c-0.1,0-0.1,0-0.2,0
		c-0.1,0-0.2,0-0.3,0c0.2,0.3,0.4,0.5,0.5,0.7c0.2,0.2,0.4,0.4,0.5,0.7c-0.2,0.2-0.4,0.5-0.6,0.8c-0.2,0.3-0.4,0.6-0.5,0.9
		c-0.1,0.2-0.1,0.5,0,0.7c0.1,0.3,0.2,0.5,0.4,0.7c0,0.1,0.1,0.2,0.2,0.4c0.1,0.1,0.1,0.2,0.1,0.4c-0.2,0.5-0.4,0.9-0.5,1.4
		c-0.2,0.5-0.4,0.9-0.6,1.4c-0.1,0.1-0.2,0.2-0.4,0.3c-0.2,0.1-0.5,0.1-0.7,0.2c0.1,0.1,0.1,0.3,0.1,0.4c0,0.1,0.1,0.3,0.2,0.4
		c-0.2,0.1-0.4,0.2-0.6,0.3s-0.4,0.1-0.5,0.2c0.4,0.8,0.5,1.5,0.4,2.1c-0.1,0.7-0.3,1.3-0.5,2c-0.1,0.5-0.3,0.9-0.4,1.3
		c-0.2,0.4-0.3,0.8-0.4,1.3c-0.2,0.9-0.3,1.8-0.4,2.6c-0.1,0.9-0.2,1.7-0.4,2.5c-0.1,0.5-0.2,0.9-0.4,1.4c-0.1,0.4-0.2,0.9-0.4,1.3
		c-0.1,0.1-0.2,0.2-0.3,0.3c-0.1,0.1-0.3,0.1-0.4,0.3c-0.3,0.3-0.5,0.6-0.7,0.8c-0.2,0.2-0.2,0.6-0.2,1.1c0.1,0.5,0,1-0.2,1.5
		c-0.2,0.6-0.3,1.1-0.4,1.7c-0.1,0.2-0.1,0.4-0.2,0.5c-0.1,0.2-0.1,0.4-0.1,0.5c0.1,0.5,0.1,1,0.3,1.5c0.1,0.5,0.1,1,0,1.5
		c-0.1,0.4-0.2,0.7-0.2,1.1c0,0.4-0.1,0.7-0.2,1c-0.2,0.7-0.3,1.3-0.1,1.9c0.1,0.6,0.4,1.1,0.9,1.5c0.1,0.1,0.2,0.2,0.3,0.3
		c0.1,0.1,0.2,0.2,0.4,0.5c-0.9,0.3-1.7,0.2-2.2-0.3c-0.6-0.5-1.1-0.8-1.7-1c-0.3-0.1-0.5-0.4-0.7-0.8c-0.1-0.4-0.3-0.8-0.4-1.1
		c-0.1-0.3-0.4-0.5-0.7-0.7c-0.4-0.2-0.4-0.5,0-0.8c-0.2-0.5-0.5-1-0.7-1.5c-0.2-0.5-0.4-0.9-0.4-1.4c-0.1-1.1-0.2-2.1-0.2-3.2
		c0-1.1,0-2.1,0-3.1c0-0.6,0.1-1.3,0.2-1.8c0.1-0.6,0.2-1.2,0.4-1.8c0.1-0.5,0.2-1.1,0.2-1.6c0-0.5,0.1-1.1,0.2-1.6
		c0.3-1.4,0.6-2.8,0.8-4.2c0.2-1.4,0.5-2.8,0.8-4.2c0.7-3,1.5-6.1,2.4-9.2c0.3-1.1,0.6-2.1,1-3.1c0.4-1,0.7-2.1,1.1-3.1
		c0.7-2.1,1.4-4.1,2.1-6.1s1.4-4.1,2.1-6.1c0.3-0.8,0.6-1.5,0.9-2.2c0.3-0.7,0.6-1.5,0.9-2.2c0.4-1.1,0.8-2.1,1.2-3.2
		c0.4-1.1,0.8-2.1,1.2-3.1c0.5-1.2,1-2.4,1.5-3.6c0.5-1.2,1-2.4,1.5-3.6c0.1-0.2,0.2-0.6,0.5-1.4c0.3-0.7,0.5-1.5,0.7-2.3
		c0.2-0.8,0.4-1.5,0.5-2.2c0.1-0.6,0.1-1-0.1-1c-0.5-0.1-0.9-0.1-1.4-0.1c-0.4,0-0.8-0.2-1.2-0.5c-0.1-0.1-0.3-0.1-0.6,0
		C147.8,29.9,147.5,30,147.2,30.1z M144.4,24.5c0-0.2,0-0.3-0.1-0.4c-0.4,0-0.7,0-1,0.1l-2.7,0.5c-0.5,0.1-1.1,0.2-1.6,0.2
		c-0.5,0-1,0.1-1.6,0.2c-0.7,0.1-1.3,0.2-2,0.4c-0.7,0.1-1.3,0.3-2,0.4c-1.5,0.3-3,0.6-4.4,0.8c-1.4,0.3-2.9,0.6-4.4,0.9
		c-1.1,0.3-2.1,0.6-3.2,1c-1.1,0.4-2.1,0.7-3.2,1c-0.7,0.2-1.3,0.5-1.9,0.9c-0.6,0.4-0.9,0.7-1.1,1.1c0.8-0.3,1.7-0.6,2.6-0.8
		c0.9-0.2,1.7-0.5,2.6-0.8c1.2-0.3,2.5-0.6,3.7-0.9c1.2-0.3,2.4-0.6,3.7-0.9c1.2-0.3,2.4-0.5,3.6-0.7c1.2-0.2,2.4-0.4,3.6-0.7
		c1.1-0.3,2.2-0.6,3.3-0.8c1.1-0.2,2.2-0.4,3.4-0.5c0.5-0.1,0.9-0.2,1.4-0.4C143.4,24.8,143.9,24.6,144.4,24.5z M128.2,29.4
		c-0.4,0.1-0.8,0.2-1.2,0.3c-0.4,0.1-0.8,0.1-1.2,0.2c0,0.1,0,0.2,0,0.3c0,0.1,0,0.1,0,0.3c0.4-0.1,0.7-0.2,1.1-0.2
		c0.4,0,0.8-0.1,1.2-0.2V29.4z M152,25.6c-0.2-0.1-0.4-0.2-0.6-0.3c-0.2-0.1-0.4-0.1-0.5,0c-0.6,0.1-1.3,0.3-2,0.4
		c-0.7,0.2-1.3,0.4-2,0.5c-0.5,0.1-1,0.2-1.5,0.2c-0.5,0-1,0.1-1.5,0.2c-1.1,0.2-2.1,0.3-3.2,0.5c-1.1,0.1-2.2,0.3-3.3,0.4
		c-0.2,0.1-0.5,0.1-0.7,0.2c-0.2,0.1-0.5,0.1-0.8,0.2l-4.8,0.8c-0.3,0.1-0.6,0.1-0.8,0.1c-0.3,0-0.5,0.1-0.8,0.1
		c-0.1,0.1-0.2,0.2-0.3,0.4c-0.1,0.1-0.2,0.3-0.3,0.5c0.5,0.2,0.8,0.3,1.1,0.3c0.2,0,0.6-0.2,1.1-0.4c0.3-0.2,0.6-0.3,1-0.3
		c0.4,0,0.7-0.1,1.1-0.1c0.5-0.1,0.9,0,1.4,0.1c0.4,0.1,0.8-0.1,1-0.6c1-0.1,2-0.2,2.9-0.3c0.9-0.1,1.8-0.2,2.6-0.5
		c1.1-0.4,2.1-0.6,3.1-0.5c1,0.1,2.1-0.1,3.1-0.5c0.9-0.4,1.8-0.6,2.8-0.7c1-0.1,1.9-0.2,2.9-0.3c0.2-0.1,0.4-0.2,0.7-0.5
		c0-0.1,0-0.1-0.1-0.2l-0.2-0.2c-0.4,0-0.7,0-0.8,0.1c-0.1,0.1-0.2,0.1-0.3,0.2C152.1,25.5,152.1,25.5,152,25.6z M132.2,103.3
		c0.1-0.6,0.2-1.1,0.3-1.7c0.1-0.5,0.1-1.1,0.2-1.8c0.2,0.3,0.3,0.5,0.4,0.7s0.2,0.4,0.3,0.5c0.1-0.1,0.2-0.1,0.4-0.1
		c0-0.3,0-0.6,0-0.9s-0.1-0.5-0.2-0.6c-0.3-0.1-0.5-0.3-0.7-0.4c-0.1-0.2-0.3-0.4-0.4-0.7c-0.1,0.1-0.2,0.2-0.4,0.3
		c-0.1,0.1-0.2,0.1-0.2,0.3c0,0.3,0,0.5,0,0.7c0,0.2,0,0.5,0,0.7c-0.1,0.5-0.1,0.9-0.1,1.3c0,0.4-0.1,0.8-0.2,1.2
		C131.7,102.8,131.9,102.9,132.2,103.3z M141,69.5c-0.1,0.3-0.1,0.5-0.1,0.7c0,0.2,0,0.4-0.1,0.7c0.1,0.1,0.3,0.1,0.4,0.1
		c0.1-0.2,0.2-0.5,0.2-0.7c0-0.2,0.1-0.5,0.2-0.7L141,69.5c0-0.1,0-0.3,0-0.4c0-0.2,0-0.4,0-0.5c0.6,0.1,1.1,0.2,1.7,0.4
		c-0.1-0.5-0.2-0.8-0.3-1.1c-0.1-0.2-0.1-0.4-0.2-0.6c0.2-0.2,0.3-0.4,0.4-0.6c0.1-0.1,0.2-0.3,0.4-0.5c-0.4-0.2-0.6-0.4-0.9-0.6
		c0.2-0.5,0.4-1.1,0.6-1.6c0.2-0.5,0.4-1.1,0.5-1.7c0.1,0.1,0.1,0.1,0.3,0.1c-0.1,0.4-0.2,0.7-0.3,1.1c-0.1,0.4-0.2,0.7-0.3,1.1
		c-0.1,0.1-0.1,0.3-0.1,0.4c0,0.1,0,0.3-0.1,0.4c0.1-0.1,0.3-0.2,0.4-0.3c0.2-0.1,0.3-0.2,0.4-0.3c0.3-0.5,0.6-1.1,0.9-1.7
		c0.3-0.6,0.6-1.2,0.9-1.9c-0.3,0.1-0.5,0.2-0.7,0.3c-0.2,0.1-0.4,0.2-0.7,0.3c-0.1-0.1-0.1-0.1-0.1-0.1c0,0,0-0.1-0.1-0.1
		c0.2-0.2,0.4-0.4,0.8-0.6c0.1-0.1,0.3-0.2,0.4-0.4c0.2-0.1,0.3-0.3,0.4-0.4c0.3-0.6,0.5-1.3,0.7-2c0.2-0.7,0.4-1.4,0.7-2.1
		c-0.1-0.1-0.3-0.1-0.5-0.1c-0.2,0-0.5-0.1-0.7-0.2c0.4-0.8,0.9-1.7,1.4-2.6c0.2,0.2,0.3,0.4,0.4,0.6c1.3-1,1.7-2,1.2-2.9
		c-0.1,0.1-0.3,0.2-0.4,0.3c-0.2,0.1-0.3,0.1-0.4,0.3l-0.2-0.1c0.5-1.1,0.9-2.2,1.4-3.3c0.4-1.1,0.9-2.2,1.4-3.3h0.3
		c0,0.3,0,0.5,0,0.7c0,0.2,0,0.4,0,0.7c0.1,0,0.1,0,0.1,0c0,0,0.1,0,0.1,0c0.2-0.3,0.5-0.6,0.7-0.9c0.2-0.3,0.4-0.7,0.6-1
		c0.1-0.1,0-0.1,0-0.3c-0.1-0.1-0.2-0.2-0.3-0.2c-0.1-0.1-0.4,0-0.9,0.3c-0.1-0.4-0.2-0.6-0.2-0.7c0.3-0.9,0.6-1.8,0.9-2.7
		c0.3-0.9,0.6-1.8,0.9-2.7c0.1-0.3,0.2-0.6,0.2-0.9c0-0.3,0.1-0.6,0.1-0.9c0.1-0.1,0-0.1,0-0.2s-0.2-0.1-0.3-0.1
		c-0.3,0-0.5,0.1-0.5,0.3c-0.4,0.6-0.8,1.3-1.1,2.2c-0.6,1.4-1.2,2.8-1.8,4.3c-0.6,1.4-1.2,2.9-1.8,4.3c-0.4,0.9-0.7,1.9-1.1,2.7
		c-0.4,0.9-0.8,1.8-1.1,2.7c-0.4,0.9-0.7,1.9-1.1,2.8c-0.4,0.9-0.8,1.8-1.1,2.7l-0.8,2.1c-0.2,0.6-0.5,1.3-0.8,1.9
		c-0.3,0.6-0.5,1.2-0.8,1.9c-0.8,2.4-1.6,4.9-2.4,7.4c-0.3,0.8-0.6,1.6-0.8,2.4c-0.2,0.8-0.5,1.6-0.7,2.4c-0.2,0.8-0.3,1.5-0.4,2.3
		c-0.1,0.8-0.4,1.5-0.7,2.1c-0.4,0.8-0.6,1.7-0.7,2.6c0,0.9-0.2,1.7-0.5,2.6c-0.4,0.8-0.5,1.7-0.6,2.6c0,0.9-0.2,1.9-0.5,2.7
		c-0.3,0.8-0.4,1.7-0.4,2.6c0,0.9-0.1,1.7-0.5,2.6c-0.1,0.2-0.1,0.4,0,0.6s0.1,0.5,0.1,0.8c0.2-0.2,0.4-0.4,0.5-0.6
		c0.1-0.2,0.3-0.4,0.4-0.5c0.2,1.1-0.2,1.7-1.3,1.8c0.3,0.1,0.6,0.2,0.8,0.3c0.3,0.1,0.5,0.2,0.9,0.3c0.5-0.9,0.9-1.9,0.9-2.8
		c0.1-0.9-0.2-1.8-0.7-2.6c0.9-0.6,1.7-1.1,2.3-1.6c-0.3-0.2-0.6-0.5-0.8-0.7c-0.2-0.2-0.2-0.5,0.2-1c0.1-0.2,0-0.4-0.1-0.7
		c-0.3-0.3-0.4-0.6-0.3-0.8c0.1-0.2,0.3-0.4,0.5-0.5c0-0.3,0-0.6,0-0.8c0-0.2,0-0.5,0-0.7c-0.1-0.1-0.2-0.1-0.3-0.2
		c-0.1-0.1-0.2-0.1-0.4-0.3c0.4-0.1,0.7-0.2,1-0.3c0.3-0.1,0.5-0.1,0.6-0.3c0.3-0.5,0.5-1.1,0.7-1.6c0.2-0.6,0.5-1.1,0.7-1.7
		c-0.2,0-0.4,0-0.5,0c-0.2,0-0.4,0-0.5,0c0-0.1,0-0.2-0.1-0.3c0.2-0.1,0.4-0.2,0.6-0.4c0.2-0.1,0.4-0.2,0.6-0.4
		c-0.1-0.6-0.1-1.2,0-1.8c0-0.6-0.3-1.1-1.1-1.5c0.5-0.1,0.8-0.1,0.9,0c0.1,0.1,0.2,0.2,0.3,0.4c0.1,0.1,0.2,0.2,0.3,0.4
		c-0.1-0.5-0.1-0.9,0-1.1c0.1-0.2,0.3-0.5,0.8-1c0.1-0.1,0.1-0.1,0.1-0.1c0,0,0-0.1,0.1-0.1c0.2-0.8,0.5-1.6,0.7-2.3
		c0.2-0.7,0.5-1.5,0.7-2.2l-0.2-0.4c-0.1,0.1-0.2,0.2-0.4,0.2c-0.1,0-0.2,0.1-0.4,0.2c-0.1-0.1-0.1-0.1-0.1-0.1c0,0-0.1,0-0.1-0.1
		c0.2-0.4,0.4-0.7,0.6-1C140.6,70.2,140.8,69.9,141,69.5z M133.5,102.1c-0.1,0.1-0.3,0.1-0.4,0.1c-0.1,0.4-0.2,0.7-0.3,1
		c-0.1,0.3,0.2,0.6,0.8,0.9c0-0.4,0-0.7,0-1C133.6,102.8,133.5,102.4,133.5,102.1z M136.8,93.2c0.1,0,0.1,0,0.1,0c0,0,0.1,0,0.1,0
		c0.2-0.5,0.4-0.9,0.5-1.3c0.2-0.4,0.3-0.8,0.4-1.3c0-0.1-0.1-0.4-0.4-0.7c-0.1,0.1-0.2,0.2-0.4,0.3c-0.1,0.1-0.2,0.1-0.3,0.3
		c-0.1,0.4-0.2,0.7-0.3,1.1c-0.1,0.4-0.2,0.7-0.2,1.1c-0.1,0.1,0,0.2,0,0.4C136.7,92.9,136.7,93.1,136.8,93.2z M139,85.3l-0.2-0.2
		c-0.1,0.2-0.3,0.4-0.4,0.5c-0.2,0.2-0.3,0.3-0.3,0.4c0.4,0.5,0.4,0.9,0,1.3c-0.3,0.4-0.5,0.8-0.7,1.2c0,0.1,0,0.3,0,0.4
		c0,0.2,0,0.3,0,0.4c0,0.1,0.1,0.1,0.2,0.1c0.1,0,0.2,0,0.3,0c0.2-0.1,0.4-0.3,0.5-0.4c0.2-0.2,0.3-0.3,0.3-0.4
		c0.1-0.6,0.2-1.1,0.2-1.7C138.9,86.4,138.9,85.8,139,85.3z M149.6,53.4c-0.1,0.3-0.2,0.6-0.4,1c-0.1,0.4-0.3,0.7-0.4,1
		c-0.4,0.7-0.8,1.4-1.2,2c-0.5,0.6-0.8,1.4-0.9,2.2c-0.1,0.4-0.2,0.7-0.3,1.1c-0.1,0.4-0.2,0.7-0.4,1c-0.8,1.3-1.4,2.6-1.8,4
		c-0.4,1.4-0.8,2.8-1.2,4.2c-0.2,0.6-0.3,1.2-0.4,1.8c-0.1,0.6-0.4,1.1-0.8,1.7c-0.2,0.3-0.4,0.6-0.5,1.1c-0.1,0.4-0.2,0.8-0.4,1.1
		c-0.1,0.6-0.2,1.3-0.3,1.9c-0.1,0.6-0.2,1.2-0.4,1.9c-0.2,0.6-0.4,1.3-0.5,2s-0.5,1.3-1.4,1.7c0.1,0.3,0.2,0.6,0.4,0.9
		c0.1,0.3,0.3,0.6,0.4,1.1c0.4-0.6,0.6-1,0.6-1.3c0.5-1.3,0.9-2.7,1.3-4c0.4-1.3,0.9-2.7,1.3-4l1.6-4.8c0.1-0.4,0.2-0.7,0.4-1.1
		c0.1-0.4,0.3-0.7,0.5-1.1c0.2-0.5,0.4-0.9,0.7-1.3c0.3-0.4,0.4-0.8,0.5-1.3c0.1-0.6,0.2-1.3,0.4-1.9c0.1-0.6,0.4-1.3,1-1.8
		c0.1-0.1,0.1-0.1,0.1-0.2c0-0.1,0-0.1,0.1-0.2c0.1-0.2,0.1-0.5,0.2-0.7c0.1-0.2,0.1-0.5,0.3-0.9c-0.1-0.3-0.1-0.8,0.2-1.5
		c0.2-0.7,0.6-1.2,1-1.7c0.5-0.5,0.7-1.1,0.7-1.7c0-0.6,0.1-1.2,0.2-1.9C150.1,53.6,150,53.5,149.6,53.4z M142.6,79.6
		c0.4-0.4,0.9-0.7,1.5-1.1c-0.6-0.1-1-0.1-1.3,0C142.6,78.6,142.5,79,142.6,79.6z M144.4,58.8c0.1-0.4,0.2-0.8,0.4-1.1
		c0.1-0.4,0.3-0.7,0.4-1.1c0.1,0.1,0.2,0.1,0.3,0.1c0.1,0,0.1,0,0.3,0.1l-0.8,2.1c-0.1,0-0.2,0-0.3,0
		C144.6,58.8,144.5,58.8,144.4,58.8z M148.5,23.5c-0.6,0.1-1.1,0.2-1.7,0.3c-0.5,0.1-1.1,0.1-1.7,0.3v0.3c0.5,0.2,0.8,0.4,1,0.4
		c0.5-0.2,0.9-0.3,1.3-0.5c0.4-0.1,0.7-0.3,1.1-0.5V23.5z M151,53.1c0-0.6,0.1-1.3,0.4-1.9c0.2-0.6,0.5-1.2,0.8-1.8
		c0.3-0.6,0.6-1.2,0.8-1.8c0.2-0.6,0.4-1.2,0.4-1.9c-0.5,0.7-1,1.6-1.4,2.6c-0.3,0.6-0.6,1.3-0.8,1.8c-0.2,0.6-0.5,1.2-0.8,1.8
		C149.7,52.6,150,53,151,53.1z"/>
	<path class="st0" d="M214.1,51c-0.1,0.6,0,1.2,0.2,1.8c0.2,0.6,0.3,1.2,0.2,1.8c-0.1,0.9-0.3,1.9-0.4,2.8c-0.2,0.9-0.4,1.8-0.5,2.8
		c-0.2,0.8-0.5,1.6-0.8,2.5c-0.3,0.8-0.6,1.6-0.9,2.5c-0.1,0.3-0.3,0.5-0.5,0.7c-0.2,0.2-0.4,0.4-0.4,0.6c-0.2,1-0.7,1.9-1.3,2.6
		c-0.6,0.7-1.2,1.5-1.7,2.2c-0.6,0.8-1.3,1.6-1.9,2.4c-0.6,0.8-1.3,1.6-1.9,2.4c-0.8,0.9-1.6,1.8-2.5,2.6c-0.8,0.9-1.6,1.8-2.5,2.6
		c-0.4,0.5-0.8,0.9-1.3,1.4s-0.9,0.9-1.4,1.4c-0.3,0.3-0.7,0.6-1.1,0.8c-0.4,0.3-0.9,0.5-1.3,0.8c-0.2,0.1-0.3,0.3-0.5,0.5
		c-0.1,0.2-0.3,0.4-0.5,0.6c-0.1,0.1-0.2,0.3-0.3,0.4c-0.1,0.2-0.2,0.3-0.3,0.3c-0.8,0.1-1.5,0.5-1.9,1.2c-0.5,0.7-1.1,1.2-1.8,1.5
		c-0.5,0.2-1,0.5-1.5,0.8c-0.5,0.3-1,0.5-1.6,0.7c-0.6,0.2-1.2,0.5-1.7,1c-0.5,0.5-1,0.9-1.6,1.1c-0.9,0.4-1.8,0.8-2.7,1.1
		c-0.9,0.3-1.8,0.6-2.7,0.9c-1.1,0.3-2.1,0.6-3.1,1c-1,0.4-2,0.6-3.1,0.9c-0.9,0.2-1.8,0.3-2.7,0.4c-0.9,0.1-1.9,0.2-2.8,0.2
		c-0.8,0.1-1.2,0.4-1.3,1.1c-0.1,0.7-0.3,1.4-0.5,2c-0.2,0.6-0.5,1.3-0.7,1.9c-0.1,0.2-0.1,0.4,0,0.6c0,0.2,0,0.4,0,0.6
		c0,0.3,0,0.5-0.1,0.7c-0.1,0.3-0.2,0.6-0.3,0.8s-0.2,0.5-0.3,0.9c0.1,0,0,0-0.1,0c-0.1,0-0.3,0-0.4,0c-0.1,0.1-0.2,0.1-0.4,0.3
		c-0.1,0.1-0.1,0.2-0.1,0.3c0.2,0.4,0.3,0.7,0.2,1.1c-0.1,0.4-0.2,0.7-0.4,1.1c-0.1,0.2,0,0.4,0.2,0.6c-0.5,0.8-0.9,1.5-1.3,2.1
		c0.6,0.5,0.8,0.9,0.8,1.2c-0.1,0.3-0.4,0.8-1.1,1.5c0.1,0.1,0.2,0.3,0.4,0.4c0.1,0.1,0.1,0.1,0.2,0.1c0.1,0,0.1,0.1,0.3,0.2
		c-0.2,0.4-0.5,0.7-0.7,1.1c-0.2,0.4-0.4,0.7-0.6,1c0.1,0.4,0.1,0.7,0.1,1.1c0,0.4,0,0.7,0,1.1c0,0.5-0.1,1.1-0.2,1.6
		c-0.1,0.5-0.2,1.1-0.3,1.6c-0.1,0.7-0.2,1.4-0.2,2.1c0,0.7-0.1,1.4-0.1,2.1c-0.1,0.3-0.1,0.6-0.2,1c-0.1,0.4-0.1,0.8-0.2,1.2
		c0.5,0.5,0.7,1.1,0.6,1.8c-0.1,0.8-0.1,1.6-0.2,2.4c0.1,0.2,0.1,0.4,0,0.6c0,0.2,0,0.4,0.1,0.4c0.2,0.1,0.4,0.2,0.7,0.2
		s0.5-0.1,0.7-0.2c0.6-0.5,1.2-0.9,1.8-1.4c0.6-0.5,1.2-0.9,1.8-1.4c0.2-0.2,0.5-0.3,0.7-0.5c0.2-0.1,0.5-0.3,0.7-0.5
		c0.1,0.4,0.2,0.7,0.4,1.1c0.1,0.4,0.1,0.6,0,0.9c-0.4,0.9-0.8,1.8-1.3,2.7c-0.5,0.9-1,1.7-1.6,2.6c-0.1,0.3-0.4,0.5-0.8,0.6
		s-0.8,0.2-1.1,0.4c-0.4,0.2-0.8,0.4-1.1,0.5c-0.3,0.1-0.6,0-0.9-0.4c-0.1-0.1-0.3-0.2-0.4-0.1c-0.1,0-0.3,0-0.4,0
		c-1.1,0-2-0.4-2.6-1.3c-0.3-0.5-0.6-0.9-1.1-1.2c-0.4-0.3-0.8-0.7-1.1-1.2c-0.5-0.8-0.9-1.5-1.3-2.3c-0.4-0.8-0.7-1.6-0.9-2.5
		c-0.3-1.5-0.5-3-0.7-4.5c-0.2-1.5-0.3-3.1-0.4-4.6c-0.1-1.4,0-2.7,0.1-4.1c0.1-1.4,0.3-2.8,0.4-4.1c0.2-1.3,0.5-2.7,0.8-3.9
		c0.3-1.3,0.6-2.6,0.9-3.9c0.3-1.2,0.6-2.3,0.9-3.4c0.3-1.1,0.6-2.2,0.9-3.4c0.1-0.3,0.2-0.6,0.3-0.8c0.1-0.3,0.2-0.5,0.3-0.7
		c0-0.2,0-0.3,0.1-0.4l-0.2-0.4c-1.1-0.8-2.2-1.7-3.3-2.9c-1.1-1.1-2-2.3-2.6-3.5c-0.4-0.8-0.6-1.6-0.9-2.4
		c-0.2-0.8-0.4-1.6-0.6-2.5c-0.3-1.3-0.2-2.6,0.1-3.8c0.4-1.2,0.9-2.3,1.5-3.5c0.1-0.1,0.1-0.2,0.3-0.3c0.1-0.1,0.3-0.2,0.4-0.4
		c-0.1,0.7-0.1,1.4,0,1.9c0,0.6,0,1.2-0.1,1.8c0,0.4,0,0.7-0.1,1.1c-0.1,0.4-0.2,0.7-0.2,1.1c0,0.4,0,0.7,0.1,1.1
		c0.1,0.4,0.3,0.6,0.8,0.8c0.2,0.2,0.3,0.3,0.3,0.4c0.2,0.5,0.3,0.9,0.4,1.4c0.1,0.5,0.3,0.9,0.4,1.3c0.2,0.3,0.5,0.6,0.8,0.9
		c0.3,0.3,0.7,0.5,1,0.7c1,0.4,2.3,0.2,3.8-0.6c0.2-0.2,0.4-0.4,0.6-0.5c0.2-0.2,0.4-0.4,0.5-0.7c0.6-1.4,1.2-2.8,1.8-4.3
		c0.5-1.5,1.1-2.9,1.6-4.4c0.3-0.7,0.5-1.4,0.7-2.2c0.2-0.7,0.5-1.5,0.7-2.2c0.4-0.9,0.7-1.7,1.1-2.6c0.4-0.8,0.7-1.6,1-2.5
		c0.2-0.4,0.3-0.8,0.5-1.2c0.1-0.4,0.3-0.8,0.4-1.2c0.8-1.6,1.5-3.2,2.2-4.8c0.7-1.6,1.5-3.2,2.3-4.8c0.5-1.2,1.2-2.6,2.2-4.3
		c0.9-1.7,1.7-3.1,2.2-4.2c0.4-0.8,0.8-1.5,1.2-2.2c0.4-0.7,0.7-1.5,1.1-2.2c0.2-0.4,0.5-0.7,0.7-1c0.2-0.3,0.4-0.6,0.5-0.8
		c0.9,0.1,1.7,0.2,2.4,0.3c0.7,0.1,1.4,0.1,2.1,0.3c0.2,0.1,0.5,0.1,0.7,0.2c0.2,0.1,0.4,0.2,0.7,0.3c0.3,0.1,0.5,0.3,0.7,0.5
		c0.2,0.2,0.4,0.4,0.7,0.5c0.3,0.1,0.6,0.2,0.9,0.4c0.3,0.1,0.4,0.4,0.4,0.8c0,0.2,0.1,0.4,0.3,0.4c0.9,0.4,1.1,1,0.8,2
		c0,0.1,0,0.2,0,0.3c0,0.1,0,0.2,0,0.2c0.6,0.3,0.8,0.6,0.8,1c-0.1,0.4-0.1,0.7-0.3,1.1c-0.6,0.9-1.4,2.1-2.3,3.6
		c-0.9,1.5-1.9,3-2.9,4.4c-1.1,1.7-2.3,3.5-3.6,5.4c-0.1,0.1-0.2,0.3-0.2,0.5c0,0.2,0,0.4-0.1,0.7c0.1,0.1,0.2,0.1,0.2,0.1
		c0,0,0.1,0.1,0.2,0.1c0.4-0.6,0.9-1.1,1.4-1.7c0.2-0.3,0.5-0.6,0.7-0.8c0.2-0.3,0.5-0.6,0.7-0.9c-0.1,0.3-0.1,0.5-0.2,0.7
		c-0.1,0.2-0.1,0.4-0.2,0.6c0.5,0,1-0.1,1.5-0.4c0.5-0.3,0.9-0.7,1.1-1.1c0.5-1.5,1.4-2.7,2.8-3.6c0.5-0.3,0.9-0.7,1.2-1.1
		c0.3-0.4,0.7-0.8,1-1.2c0.6-0.6,1.2-1.3,1.8-2c0.6-0.7,1.2-1.3,2-1.8c1.2-0.8,2.2-1.6,3.2-2.6c0.9-1,2.1-1.7,3.4-2.1h0.2
		c0.1,0,0.1,0,0.2-0.1c0.1-0.8,0.5-1.3,1-1.4c0.6-0.1,1-0.3,1.5-0.6c0.1-0.1,0.2-0.2,0.4-0.4c-0.1-0.1-0.2-0.1-0.4-0.2
		c-0.1-0.1-0.2-0.1-0.4,0c-0.4,0.2-0.8,0.5-1.2,0.7c-0.4,0.2-0.8,0.5-1.3,0.8c-0.5,0.2-0.9,0.5-1.3,0.7c-0.4,0.2-0.8,0.5-1.2,0.7
		c1.6-1.3,3.3-2.4,5.1-3.3c1.8-0.9,3.7-1.5,5.8-1.8c2.2-0.2,3.5,0.8,3.8,3c0.1,0.2,0.1,0.4,0.3,0.6c0.1,0.2,0.2,0.4,0.4,0.5
		c0.5,0.5,1,1.1,1.4,1.7C214,49.4,214.1,50.1,214.1,51z M151.2,122.9c0.1-0.1,0.2-0.2,0.4-0.3c0.1-0.1,0.2-0.2,0.2-0.3
		c-0.1-0.2-0.1-0.4-0.2-0.5c-0.1-0.2-0.2-0.4-0.3-0.6c-0.1,0.1-0.1,0.1-0.2,0.1c-0.1,0-0.2,0.1-0.3,0.1c0.1,0.2,0.2,0.5,0.3,0.7
		C151,122.4,151.1,122.6,151.2,122.9z M155,106.3c0.3-1,0.6-2,0.8-2.9c0.3-0.9,0.5-1.9,0.8-2.8c0.1-0.4,0.2-0.8,0.4-1.1
		c0.1-0.4,0.3-0.7,0.4-1.1c0.1-0.2,0-0.5-0.2-0.7c-0.2-0.2-0.3-0.5-0.4-0.7c-0.1-0.1-0.2-0.1-0.4-0.1c-0.2,0.1-0.4,0.1-0.4,0.3
		c-0.2,0.4-0.3,0.8-0.5,1.2c-0.1,0.4-0.3,0.8-0.5,1.2c-0.3,1-0.5,2-0.7,2.9c-0.2,1-0.4,1.9-0.7,2.9c-0.2,0.8-0.5,1.6-0.7,2.4
		c-0.2,0.8-0.4,1.5-0.5,2.3c-0.1,0.7-0.3,1.4-0.6,2c-0.3,0.6-0.4,1.3-0.3,2.1c0,0.3-0.1,0.6-0.2,0.9c-0.1,0.3,0,0.6,0.5,0.9
		c-0.6,0.4-0.9,0.8-0.8,1.2c0,0.4,0.2,0.8,0.5,1.2c-0.4,0.5-0.6,0.8-0.6,1.1c0,0.3,0.3,0.7,0.7,1.3c0.1-0.2,0.1-0.3,0.2-0.5
		c0.1-0.1,0.1-0.3,0.1-0.4c0.1-0.6,0.2-1.3,0.2-1.9c0-0.6,0.2-1.3,0.5-1.9c0.4-0.9,0.6-1.9,0.8-2.8c0.2-0.9,0.4-1.8,0.6-2.8
		c0.1-0.6,0.3-1.3,0.5-2C154.7,107.7,154.9,107,155,106.3z M157,113.2c0.1-0.4,0.2-0.7,0.3-1.1s0.2-0.7,0.2-1.1
		c-0.1-0.1-0.2-0.1-0.2-0.1c0,0-0.1-0.1-0.2-0.1c-0.2,0.4-0.5,0.7-0.7,1c-0.3,0.3-0.5,0.6-0.6,1c-0.1,0.5-0.2,0.9-0.2,1.4
		c0,0.4,0,0.9,0,1.4c0,0.1,0.1,0.4,0.2,0.7c0.1-0.1,0.2-0.2,0.3-0.3c0.1-0.1,0.2-0.1,0.2-0.3c0.1-0.4,0.2-0.8,0.4-1.2
		C156.8,114.1,156.9,113.7,157,113.2z M157.1,104.5c0.1-0.4,0.3-0.8,0.4-1.1c0.2-0.3,0.3-0.6,0.4-0.9c0-0.2-0.1-0.5-0.4-0.7
		c0-0.1,0-0.1-0.1-0.1c-0.1,0-0.2,0-0.2,0.1c-0.2,0.1-0.3,0.5-0.4,1.2C156.9,103.7,156.9,104.2,157.1,104.5z M165.5,76.6
		c0.4-0.9,0.8-1.8,1.1-2.6c0.3-0.9,0.7-1.8,1-2.6c0.1-0.4,0.3-0.8,0.5-1.2c0.2-0.4,0.3-0.8,0.2-1.4c-0.1-0.1-0.1-0.3,0-0.5
		c0.1-0.2,0.3-0.4,0.4-0.5c0.1-0.2,0.1-0.3,0.3-0.5c0.1-0.1,0.2-0.3,0.4-0.4c0.2-0.5,0.4-1,0.6-1.5c0.2-0.5,0.4-1,0.6-1.5
		c0.4-0.9,0.7-1.7,1.1-2.6c0.4-0.8,0.7-1.7,1.1-2.5c0.1-0.1,0.1-0.2,0-0.4c-0.1-0.1-0.1-0.3-0.1-0.5c-0.1,0.1-0.3,0.2-0.4,0.3
		c-0.1,0.1-0.3,0.2-0.4,0.3c-0.3,0.6-0.6,1.3-0.9,1.9c-0.3,0.6-0.6,1.3-0.9,1.9c-0.5,1.2-1.1,2.3-1.6,3.4c-0.5,1.1-1,2.2-1.5,3.4
		c-0.3,0.6-0.6,1.3-0.9,1.9c-0.3,0.6-0.6,1.3-0.8,1.9c-0.4,1-0.8,2-1.1,3c-0.4,1-0.7,2-1.1,3c-0.4,1.1-0.8,2.1-1.2,3.2
		c-0.4,1.1-0.9,2.1-1.3,3.1c-0.1,0.3-0.2,0.5-0.3,0.7c-0.1,0.2-0.1,0.4-0.3,0.6c-0.1,0.4-0.3,0.7-0.4,1.1c-0.2,0.4-0.4,0.8-0.5,1.3
		c0.5-0.1,0.9-0.2,1.2-0.2c0.4,0,0.6-0.1,0.7-0.3c0.4-0.7,0.8-1.4,1.1-2.2c0.3-0.7,0.6-1.5,0.9-2.2c0.1-0.4,0.2-0.8,0.3-1.2
		c0.1-0.4,0.2-0.8,0.3-1.2c0.4-0.9,0.8-1.7,1.2-2.6C164.8,78.3,165.2,77.4,165.5,76.6z M189.1,81.2c0.8-0.2,1.1-0.7,0.8-1.6
		c-0.8,0.6-1.6,1.2-2.3,1.8c-0.7,0.6-1.5,1.1-2.2,1.7c-0.9,0.8-1.9,1.5-2.9,2.2s-2,1.3-3.2,1.8c-0.2,0.1-0.4,0.2-0.6,0.3
		c-0.2,0.1-0.4,0.2-0.5,0.4c-0.9,0.9-1.9,1.6-3.1,2c-1.2,0.4-2.3,0.8-3.5,1.3c-0.8,0.3-1.5,0.6-2.3,1c-0.8,0.4-1.6,0.7-2.4,1.1
		c0.1,0.1,0.2,0.1,0.3,0.2c0.1,0.1,0.1,0.1,0.3,0c0.5-0.1,1-0.2,1.5-0.4c0.5-0.1,1-0.3,1.5-0.4c0.2-0.1,0.5-0.2,0.7-0.4
		c0.2-0.1,0.5-0.3,0.7-0.4c0.6-0.4,1.2-0.5,1.9-0.6c0.7,0,1.2-0.4,1.5-1c0.1-0.1,0.2-0.2,0.3-0.1c0.1,0,0.3,0,0.4,0
		c0.2-0.1,0.4-0.1,0.6-0.1c0.2,0,0.4-0.1,0.7-0.2c0.6-0.4,1.3-0.7,1.9-1.1c0.6-0.4,1.2-0.8,1.8-1.3c0.2-0.2,0.5-0.4,0.9-0.5
		c0.4-0.1,0.7-0.2,1.1-0.3c0.3-0.1,0.6-0.3,0.9-0.5c0.3-0.2,0.5-0.5,0.6-1h0.2c0.6-0.6,1.3-1.2,2-1.7c0.7-0.6,1.4-1.1,2-1.6
		C188.6,81.5,188.8,81.3,189.1,81.2z M171.9,88.1c0.2,0.5,0.4,0.7,0.6,0.7c0.2,0,0.5-0.1,0.7-0.3c0.2-0.1,0.4-0.2,0.6-0.3
		c0.2-0.1,0.4-0.1,0.7-0.3c0.4-0.1,0.6-0.2,0.8-0.4c0.7-0.2,1.2-0.4,1.4-0.5c0.5-0.4,0.9-0.7,1.3-1.1c0.4-0.4,0.8-0.7,1.3-1
		c1.3-1,2.7-2,4.1-2.9c1.4-1,2.7-2,4.1-2.9c0.4-0.3,0.8-0.6,1.1-1c0.3-0.4,0.6-0.7,0.9-1c-0.1-0.1-0.1-0.2-0.3-0.4
		c-2.8,2.2-5.5,4.2-8.4,6.2C178.1,85,175.1,86.7,171.9,88.1z M205,50.8c0.5-0.3,0.8-0.7,0.9-1.2c0.1-0.5,0-1-0.3-1.5
		c-0.1-0.3-0.3-0.6-0.4-0.8c-0.1-0.3-0.3-0.5-0.5-0.8c-0.2,0.1-0.5,0.3-0.8,0.4c-0.3,0.1-0.6,0.3-0.9,0.5c-0.5,0.4-1,0.8-1.5,1.3
		c-0.5,0.4-1,0.8-1.5,1.1c-0.8,0.4-1.5,0.8-2.1,1.2c-0.6,0.5-1,1.1-1.5,1.9c-0.1,0.1-0.2,0.2-0.4,0.2c-0.2,0-0.4,0.1-0.5,0.2
		c-0.4,0.2-0.7,0.3-1.1,0.5c-0.4,0.1-0.7,0.3-1.1,0.6c0.2,0.2,0.3,0.3,0.4,0.4c0.1,0.1,0.2,0.2,0.3,0.4c-0.6,0.6-1.1,1.2-1.6,1.8
		c-0.5,0.6-1.1,1.2-1.7,1.8c-0.7,0.7-1.4,1.4-2.1,2.2c-0.7,0.8-1.3,1.6-1.9,2.4c-0.8,1.3-1.7,2.5-2.8,3.7c-1,1.2-1.9,2.4-2.7,3.8
		c-0.6,1.1-1.4,2.2-2.2,3.2c-0.8,1-1.5,2-2.2,3.1c-0.8,1.2-1.6,2.4-2.3,3.6c-0.7,1.2-1.4,2.5-2.2,3.7c-0.1,0.1-0.1,0.3-0.1,0.4
		s0,0.4-0.1,0.7c1.3-0.6,2.6-1.2,3.8-1.8c1.2-0.6,2.4-1.2,3.6-1.8c1.9-1.1,3.7-2.3,5.3-3.7s3.3-2.8,5-4.2c2.8-2.4,5.4-5,7.7-7.9
		c1.3-1.6,2.5-3.2,3.6-5c1.1-1.7,2-3.6,2.9-5.5c0.2-0.5,0.4-1,0.6-1.5c0.2-0.5,0.1-1.1-0.4-1.8c-0.1-0.1-0.1-0.4,0-0.7
		C204.7,51.1,204.8,50.9,205,50.8z M181.5,64.1c-0.3,0.3-0.6,0.6-0.9,0.9c-0.3,0.3-0.6,0.7-1,1c0.8,0.1,1.3,0,1.6-0.4
		C181.5,65.1,181.6,64.6,181.5,64.1z M192.4,77.9c0.3-0.3,0.6-0.6,0.9-0.8c0.3-0.3,0.6-0.5,0.9-0.8c-0.2-0.2-0.3-0.3-0.4-0.4
		c-0.6,0.5-1.2,1.1-1.7,1.6c-0.5,0.5-1.1,1-1.6,1.5c0.1,0.1,0.2,0.3,0.4,0.4s0.2,0.2,0.4,0.2c0.3-0.1,0.6-0.2,0.8-0.4
		c0.2-0.1,0.5-0.3,0.8-0.5C192.6,78.2,192.4,78,192.4,77.9z M190.9,52.7c0.6-0.5,1.3-1.1,1.9-1.6c0.6-0.6,1.3-1.1,1.9-1.5
		c0.3-0.2,0.6-0.4,0.8-0.6c0.3-0.2,0.5-0.3,0.8-0.4c-0.9,0.8-1.8,1.5-2.7,2.2c-0.9,0.7-1.8,1.5-2.6,2.3
		C191.1,52.9,191,52.8,190.9,52.7z M195.2,75.7c0.4-0.6,0.8-1.2,1.2-1.8c0.4-0.6,0.8-1.3,1.3-2l-1.1,0.2c-0.4,0.5-0.8,1-1.2,1.5
		c-0.4,0.5-0.7,1-1.1,1.5c-0.1,0.1-0.1,0.2,0,0.4c0.1,0.1,0.1,0.3,0.2,0.3C194.8,75.9,195.1,75.8,195.2,75.7z M196.7,48.3
		c-0.1,0.1-0.1,0.1-0.1,0.1c0,0-0.1,0-0.1,0.1L196.7,48.3L196.7,48.3z M196.6,48.3c0.1-0.1,0.1-0.1,0.1-0.1c0,0,0.1,0,0.1-0.1
		L196.6,48.3L196.6,48.3z"/>
	<path class="st0" d="M254.7,58.5c0.1,0.7,0.1,1.4,0,2.1s-0.1,1.4-0.1,2.1c0,0.2,0,0.4,0,0.6c0,0.2,0,0.4,0,0.6
		c-0.1,0.5-0.2,1-0.3,1.5c-0.1,0.5-0.3,1-0.5,1.5c-0.2,0.5-0.4,0.9-0.6,1.3c-0.2,0.4-0.2,0.9,0,1.4c0.3,0.6,0.3,1.1-0.1,1.5
		c-0.4,0.4-0.6,0.9-0.9,1.3c-0.3,0.6-0.6,1.2-0.8,1.8c-0.3,0.6-0.5,1.2-0.8,1.8c-0.1,0.1-0.2,0.2-0.3,0.4c-0.1,0.1-0.2,0.2-0.3,0.4
		c-0.4,0.6-0.8,1.2-1.1,1.8c-0.4,0.6-0.7,1.2-1.1,1.8c-0.4,0.5-0.7,0.9-1.1,1.4c-0.4,0.5-0.7,0.9-1.1,1.4c-0.1,0.1-0.2,0.3-0.2,0.4
		c0,0.2-0.1,0.4-0.2,0.6c-0.1,0.1-0.3,0.2-0.8,0.4c0.3,0.3,0.5,0.6,0.7,0.8c-0.6,0.7-1.3,1.4-1.9,2.1c-0.6,0.7-1.2,1.4-1.9,2.1
		c-0.5,0.6-1.1,1.3-1.6,2c-0.5,0.7-1.1,1.3-1.6,2c-0.4,0.4-0.8,0.8-1.2,1.2c-0.4,0.4-0.8,0.7-1.3,1.1c-0.4,0.3-0.7,0.6-1.1,0.9
		c-0.4,0.3-0.7,0.6-1.1,0.9c-0.6,0.5-1.3,1-2,1.5c-0.7,0.4-1.3,1-1.9,1.5c-0.6,0.6-1.3,0.9-2.1,1c-0.7,0.1-1.4,0.3-2.1,0.7
		c-0.2,0.1-0.5,0.1-0.8,0.1c-0.3-0.1-0.6-0.1-0.9-0.3c-0.8-0.3-1.4-0.6-2-1.1c-0.3-0.2-0.6-0.4-1-0.4c-0.4,0-0.7-0.2-1-0.6
		c-0.4-0.5-0.8-0.9-1.3-1.4c-0.4-0.5-0.9-0.9-1.4-1.4c-0.5-0.6-1-1.3-1.3-2.1c-0.4-0.7-0.7-1.4-1.1-2.2c-0.4-0.7-0.7-1.5-1-2.3
		c-0.1-0.4-0.2-0.7-0.3-1.1c-0.1-0.4-0.1-0.7-0.2-1.1c0-0.8,0-1.6,0-2.4c0-0.8,0-1.6,0.1-2.4c0.1-0.8,0.3-1.7,0.5-2.6
		c0.2-0.9,0.4-1.7,0.7-2.6c0-0.1,0.1-0.2,0.2-0.3c0.1-0.1,0.2-0.2,0.2-0.2c0.1-0.3,0.1-0.5,0-0.7c0-0.2,0-0.4,0-0.5
		c0.5-1.8,1.1-3.4,1.8-5c0.2-0.5,0.4-1,0.6-1.5c0.2-0.5,0.5-1,0.7-1.5c0.2-0.5,0.4-1,0.6-1.5c0.2-0.5,0.4-1,0.7-1.5
		c0.4-0.8,0.7-1.5,1.1-2.2c0.4-0.7,0.7-1.4,1.1-2.1c1-1.9,2-3.8,3.1-5.6c0.3-0.5,0.6-0.9,0.8-1.4c0.3-0.4,0.5-0.9,0.8-1.4
		c0.1-0.1,0.2-0.3,0.3-0.4c0.1-0.2,0.1-0.3,0-0.4c-0.3-0.4-0.6-0.6-1.1-0.6c-0.3,0.1-0.6,0.1-0.9,0.2c-0.3,0.1-0.6,0.2-0.9,0.3
		c-0.3-0.4-0.6-0.6-1-0.7c-0.4,0-0.9,0.1-1.6,0.4c-0.5,0.2-1.2,0.3-1.9,0.3c-0.7,0-1.4-0.1-2-0.4c0.2-0.1,0.4-0.2,0.6-0.3
		c0.1-0.1,0.3-0.1,0.4-0.1c0.5,0,1-0.1,1.3-0.4c0.3-0.2,0.6-0.6,0.9-1.1c0.1-0.1,0.2-0.2,0.3-0.3c0.1-0.1,0.2-0.1,0.3-0.3
		c1.2-0.5,2.3-0.9,3.4-1.3c1.1-0.4,2.2-0.8,3.3-1.2c0.6-0.2,1.3-0.4,1.8-0.6c0.6-0.2,1.2-0.4,1.8-0.6c0.3-0.2,0.6-0.4,0.9-0.6
		c0.3-0.2,0.4-0.6,0.1-1.1c0.9-0.5,1.6-1.1,2.1-1.9c0.5-0.8,1.1-1.6,1.8-2.2c0.5-0.5,0.9-0.9,1.3-1.4c0.4-0.5,0.8-0.9,1.3-1.4
		c0.3-0.2,0.6-0.3,1-0.2c0.4,0.1,0.6,0.3,0.8,0.6c0.1,0.1,0.3,0.2,0.7,0.4c0.3,0.1,0.6,0.1,1,0.1c0.4,0,0.7,0.1,1,0.1
		c0,0.1-0.1,0.1-0.2,0.3c0.2,0.2,0.5,0.4,0.9,0.8c0.4,0.3,0.7,0.6,1.1,0.8c0.4,0.2,0.6,0.6,0.7,1.2c0,0.1,0.1,0.2,0.2,0.4
		c0.5,0.3,0.7,0.6,0.6,0.9c-0.1,0.3-0.1,0.6-0.3,1c-0.2,0.4-0.5,0.8-0.7,1.2c-0.2,0.4-0.4,0.9-0.5,1.3c-0.1,0.2,0,0.5,0.4,0.7
		c0.8,0.5,1.5,1,2.2,1.5c0.7,0.5,1.5,1,2.3,1.5c0.6,0.4,1.1,0.8,1.4,1.2c0.4,0.5,0.7,0.9,1.1,1.4c0.1,0.1,0.2,0.3,0.2,0.4
		c0,0.2,0,0.4,0.1,0.6c0.3-0.1,0.5-0.1,0.5,0.2c0.1,0.2,0.1,0.5,0.2,0.9c0.2,0.7,0.4,1.4,0.7,2.1C254.4,57.1,254.6,57.8,254.7,58.5z
		 M251.4,61.4c0-0.4,0.1-0.8,0.3-1.3s0-0.7-0.5-0.9c-0.1-0.8-0.3-1.5-0.4-2.2c-0.1-0.7-0.2-1.3-0.3-2c-0.1-0.5-0.2-0.9-0.4-1.2
		s-0.5-0.7-1-1.1v1.6c-0.2-0.2-0.4-0.4-0.4-0.5c-0.2-0.4-0.3-0.8-0.4-1.2c-0.1-0.4-0.4-0.8-0.7-1.2c-0.3-0.4-0.7-0.7-1.2-1
		c-0.5-0.3-1-0.5-1.6-0.7c-0.6-0.2-1.2-0.3-1.7-0.4c-0.6,0-1,0-1.5,0.2c-0.2,0.1-0.3,0.2-0.4,0.4c-0.5,0.6-1.1,1.3-1.6,1.8
		c-0.5,0.6-1,1.2-1.5,1.8c-0.6,0.8-1.2,1.5-1.7,2.3c-0.6,0.8-1.1,1.5-1.7,2.3c-0.3,0.3-0.5,0.6-0.7,0.9c-0.2,0.3-0.4,0.6-0.7,0.9
		c-0.3,0.5-0.6,1-0.9,1.5c-0.3,0.5-0.6,1-0.9,1.5c-0.5,0.8-0.9,1.5-1.3,2.2c-0.4,0.7-0.9,1.5-1.3,2.3c-0.2,0.4-0.5,0.7-0.7,1
		c-0.2,0.3-0.4,0.7-0.6,1c-0.5,0.9-0.9,1.7-1.3,2.6c-0.4,0.9-0.8,1.7-1.2,2.5c-0.3,0.6-0.5,1.2-0.7,1.8c-0.2,0.6-0.5,1.2-0.7,1.8
		c-0.2,0.3-0.3,0.6-0.4,1.1c-0.1,0.4-0.4,0.6-1.1,0.4c-0.1,0.7-0.1,1.4,0,2.1c0.1,0.7-0.3,1.3-1.1,1.8V84c-0.1,0.6-0.2,1.3-0.4,2
		c-0.1,0.7-0.2,1.4-0.4,2c-0.1,0.3-0.1,0.6-0.2,0.9s-0.1,0.6-0.1,0.9c0,0.7,0,1.4,0,2.1c0,0.7,0.1,1.4,0.1,2.1
		c0.1,0.6,0.4,0.9,1,0.7c0.6-0.3,1.3-0.6,1.9-0.8c0.6-0.2,1.2-0.5,1.8-0.9c0.7-0.5,1.4-1,2.1-1.5s1.4-1,2-1.5c0.6-0.5,1.3-1,1.8-1.5
		c0.6-0.5,1.2-1,1.8-1.5c0.3-0.3,0.6-0.6,0.8-0.8c0.2-0.3,0.5-0.6,0.8-0.9c0-0.2,0.1-0.5,0.4-0.7c0.2-0.2,0.5-0.3,0.8-0.3h0.9
		c-0.1-0.2-0.1-0.3-0.1-0.5c0-0.1-0.1-0.3-0.1-0.5c0.1-0.1,0.3-0.3,0.5-0.4c0.2-0.2,0.4-0.4,0.7-0.5c0.2-0.2,0.4-0.3,0.7-0.5
		c0.3-0.1,0.4-0.3,0.4-0.5c0-0.6,0.1-0.9,0.4-0.8c0.3,0.1,0.6,0.1,1.1,0c-0.4,0.6-0.7,1.1-0.9,1.5c0.1,0.1,0.2,0.2,0.3,0.2
		c0.3-0.2,0.6-0.5,0.8-0.7c0.3-0.2,0.5-0.5,0.7-0.7c0.4-0.7,0.9-1.3,1.5-1.8c0.6-0.5,1.1-1.1,1.5-1.8c0.3-0.5,0.7-0.9,1.1-1.2
		c0.5-0.4,0.8-0.8,1-1.4c0.1-0.2,0.2-0.5,0.4-0.7c0.3-0.5,0.6-0.9,0.9-1.4c0.3-0.4,0.6-0.9,0.9-1.4c0.2-0.3,0.3-0.6,0.5-1
		c0.1-0.4,0.3-0.7,0.4-1c0.2-0.5,0.4-1,0.6-1.5c0.1,0,0.3-0.1,0.6-0.2c-0.1-0.1-0.1-0.1-0.1-0.1c0,0-0.1,0-0.1-0.1
		c0.1-0.2,0.1-0.5,0.1-0.7c0-0.2,0.1-0.4,0.2-0.6c0.1-0.2,0.1-0.4,0.3-0.6c0.1-0.2,0.2-0.4,0.4-0.6c0.1-0.6,0.3-1.3,0.4-1.8
		C251.4,62.6,251.4,62,251.4,61.4z M222.9,49.5c0.6-0.4,1.3-0.7,1.9-1c-0.5-0.2-0.9-0.1-1.4,0.1C223.1,48.9,222.9,49.2,222.9,49.5z
		 M239.6,80.2c0.5-0.6,1-1.2,1.5-1.8c0.5-0.6,1-1.2,1.5-1.8c0.1,0,0.1,0,0.1,0c0,0,0.1,0,0.1,0c-0.1,0.3-0.2,0.6-0.4,0.9
		c-0.1,0.3-0.3,0.6-0.6,0.8c-0.3,0.4-0.6,0.7-1,1c-0.4,0.3-0.7,0.6-1,0.9C239.6,80.4,239.6,80.4,239.6,80.2z M246.4,70.7
		c0,0.2-0.1,0.6-0.4,1.1c-0.2,0.5-0.5,1.1-0.9,1.7c-0.4,0.6-0.8,1.2-1.2,1.7c-0.4,0.5-0.8,0.8-1.1,1c0.6-0.9,1.3-1.9,1.8-2.8
		C245.2,72.5,245.8,71.6,246.4,70.7z M249.1,60.5c0-0.4,0-0.7,0-1.1c0-0.4,0-0.7,0-1.1c0.1,0.1,0.2,0.1,0.4,0.1
		c-0.1,0.4-0.1,0.7-0.1,1.1s0,0.7-0.1,1.1H249.1z"/>
	<path class="st0" d="M313.1,40.6c0.2,0.5,0.6,1,1,1.5s0.6,1,0.6,1.6c0,0.3,0,0.5-0.1,0.6c-0.3,0.4-0.6,0.9-0.8,1.5
		c-0.2,0.6-0.4,1.1-0.6,1.6c0,0.1,0,0.1-0.1,0.2l-0.8,0.8c-0.3,0.5-0.6,0.9-0.9,1.4c-0.3,0.5-0.6,0.9-0.9,1.4
		c-0.1,0.2-0.4,0.6-0.8,1.2c-0.4,0.6-0.9,1.1-1.5,1.8c-0.5,0.6-1,1.2-1.5,1.8c-0.4,0.6-0.7,1-0.8,1.2l-0.4,0.5v0.2l-0.2,0.5
		c-0.1,0.3-0.2,0.6-0.4,1c-0.1,0.4-0.4,0.7-0.9,0.8l-0.2,0.6c-0.1,0.1-0.2,0.3-0.4,0.4c-0.1,0.2-0.2,0.4-0.4,0.6c0,0.1,0,0.1,0,0.3
		c0,0.1,0,0.3,0,0.4c-0.3,0-0.6,0-0.8,0c-0.2,0-0.3,0.3-0.2,0.7l-0.3,0.4c-0.1,0.1-0.1,0.2-0.2,0.3c-0.1,0.1-0.1,0.2-0.1,0.2
		c0.2,0.3,0.3,0.6,0.2,0.8c-0.1,0.3-0.2,0.5-0.3,0.7c-0.1,0.2-0.2,0.4-0.3,0.7c-0.1,0.2-0.1,0.5,0,0.8c-0.3,0-0.5,0-0.7,0
		c-0.2,0-0.4,0-0.6,0c0,0.1,0,0.1-0.1,0.2c0.4,0.2,0.6,0.4,0.9,0.5c-0.1,0.4-0.2,0.8-0.4,1.2c-0.1,0.4-0.3,0.7-0.5,1.1
		c-0.1,0.1-0.3,0.2-0.5,0.2c-0.2,0-0.5,0.1-0.8,0.1c0.1,0.1,0.2,0.3,0.4,0.4c0.1,0.2,0.3,0.4,0.5,0.5c0,0.1,0,0.2-0.1,0.2
		c-0.5,0.2-0.8,0.5-0.9,0.8c-0.1,0.3-0.1,0.8,0,1.4c0.1,0.5-0.1,1-0.4,1.5c-0.3,0.5-0.6,1-0.8,1.5c-0.1,0.1-0.1,0.2-0.2,0.3
		c-0.1,0.1-0.1,0.2-0.1,0.3c0.2,0.5,0,0.9-0.6,1.1c-0.4,0.3-0.6,0.6-0.3,1.1c0.1,0.1,0.2,0.4,0.2,0.8c-0.1,0.9-0.6,1.2-1.6,0.9
		c0,0.1,0,0.1,0,0.1c0,0,0,0.1,0,0.1c0.4,0.2,0.6,0.4,0.9,0.6c-0.1,0.1-0.2,0.3-0.2,0.4c0,0.1-0.1,0.3-0.2,0.4
		c-0.2,0.2-0.4,0.4-0.8,0.5c0.1,0.1,0.2,0.3,0.4,0.4c0.1,0.1,0.2,0.3,0.4,0.4c-0.1,0.2-0.2,0.5-0.4,0.7c-0.1,0.2-0.2,0.4-0.4,0.7
		c-0.5,1.4-0.9,2.9-1,4.3c-0.1,1.5-0.4,2.9-0.7,4.4c-0.1,0.5-0.2,1-0.2,1.5c0,0.5-0.1,1.1-0.4,1.6c-0.3,0.4-0.4,0.9-0.4,1.5
		c0.1,0.6,0,1.1-0.1,1.7c-0.1,0.4-0.2,0.8-0.4,1.2c-0.1,0.4-0.2,0.8-0.4,1.2c-0.1,0.4-0.2,0.6-0.2,0.8c0,0.5,0.1,1,0.3,1.5
		c0.1,0.5,0.2,1,0.3,1.5c0.1,0.5,0.2,1,0.4,1.5c0.1,0.3,0.3,0.5,0.5,0.7c0.2,0.1,0.5,0.3,0.8,0.5c0.1,0.1,0.2,0.2,0.4,0.1
		c0.1,0,0.3,0,0.4,0c-0.4,0.9-1.3,1.1-2.6,0.7c-0.3-0.1-0.6-0.3-0.8-0.5c-0.3-0.2-0.5-0.4-0.8-0.5c-1-0.5-1.8-1.2-2.3-2
		c-0.6-0.8-1.1-1.7-1.5-2.6c-0.6-1.2-0.9-2.5-1-3.8c-0.1-1.5-0.1-3,0-4.5c0.1-1.5,0.1-3,0.2-4.5c0.1-0.2,0.1-0.5,0.1-0.7
		c0-0.2,0.2-0.3,0.7-0.3c0.1,0,0.1-0.1,0.2-0.2c0.1-0.1,0.1-0.2,0.2-0.4c0-0.1-0.1-0.1-0.2-0.1c-0.1,0-0.2-0.1-0.3-0.1
		c-0.1-0.1-0.1-0.2-0.2-0.3c-0.1-0.1-0.1-0.1-0.1-0.3c0.1-0.8,0.2-1.5,0.4-2.3c0.1-0.8,0.3-1.5,0.4-2.3c0.1-0.3,0.1-0.6,0.1-0.8
		c0-0.2,0.1-0.5,0.1-0.7c0.2-1,0.4-2,0.7-3.1s0.5-2.1,0.8-3.1c0.1-0.2,0.1-0.4,0.2-0.6c0.1-0.2,0.1-0.4,0.3-0.6c0.1,0,0.2,0,0.2,0
		c0,0,0.1,0,0.1,0c-0.1,0.2-0.2,0.4-0.2,0.6c0,0.1,0,0.2,0,0.4c0,0.1,0,0.2,0,0.4c0.1-0.1,0.2-0.2,0.3-0.2c0.1,0,0.2-0.1,0.2-0.2
		c0.4-0.5,0.3-1-0.3-1.3c-0.1-0.1-0.2-0.1-0.3-0.3c-0.1-0.1-0.1-0.2,0-0.4c0.4-1.2,0.7-2.5,1.1-3.7c0.4-1.2,0.8-2.5,1.2-3.7
		c0.2-0.8,0.5-1.5,0.8-2.2c0.3-0.7,0.5-1.4,0.8-2.2c0.5-1,0.9-2,1.3-2.9c0.4-0.9,0.8-1.9,1.3-2.9c0.4-1,0.8-2,1.2-3
		c0.4-1,0.8-1.9,1.3-2.9c0.3-0.6,0.6-1.3,0.9-1.9c0.3-0.6,0.7-1.3,1-1.9c-0.1,0.1-0.2,0.1-0.3,0.1s-0.2,0.1-0.2,0.2
		c-1.2,1-2.3,2-3.3,3c-0.9,0.9-1.9,1.7-2.8,2.6c-0.9,0.9-1.8,1.7-2.7,2.6c-0.4,0.4-0.7,0.8-1,1.3c-0.3,0.4-0.6,0.9-0.9,1.4
		c-0.5,0.5-0.9,1.1-1.3,1.6c-0.4,0.5-0.8,1-1.3,1.5c-0.2,0.4-0.4,0.6-0.5,0.7c-0.5,0.6-1,1.3-1.5,1.9c-0.5,0.6-1,1.3-1.5,1.9
		c-0.1,0.2-0.2,0.4-0.3,0.6c-0.1,0.2-0.1,0.4-0.3,0.6l-0.8,1.6c-0.5,0.8-1,1.5-1.5,2.3s-1.1,1.5-1.6,2.3c-0.3,0.5-0.6,0.9-1,1.4
		c-0.4,0.5-0.7,0.9-1,1.4c-0.2,0.4-0.4,0.7-0.6,1.1c-0.1,0.4-0.3,0.8-0.6,1.2c-0.4,0.7-0.8,1.4-1.3,2.1c-0.4,0.7-0.9,1.4-1.3,2.2
		c-0.6,1.1-1.2,2.2-1.8,3.4c-0.5,1.1-1.1,2.3-1.7,3.5c-0.3,0.5-0.6,1-0.9,1.5c-0.3,0.5-0.6,1-0.8,1.5c-0.3,0.7-0.7,1.2-1.3,1.6
		c-0.6,0.4-1.1,0.8-1.6,1.2c-0.2,0.2-0.5,0.3-0.8,0.4c-0.3,0.1-0.7,0.1-1.1-0.2c-0.6-0.4-1.3-0.7-2-1c-0.7-0.3-1.2-0.7-1.7-1.2
		c-0.3-0.3-0.6-0.6-0.8-0.9c-0.2-0.3-0.4-0.6-0.5-1c-0.6-1.2-1-2.4-1-3.6c0-1.2,0-2.4,0-3.7c0.1-0.8,0.2-1.5,0.4-2.2
		c0.2-0.7,0.3-1.4,0.4-2.2c0.1-0.9,0.3-1.7,0.5-2.5c0.5-1.6,1-3.2,1.5-4.8c0.5-1.6,1-3.2,1.6-4.7c0.5-1.2,1-2.5,1.5-3.7
		c0.6-1.2,1.1-2.4,1.7-3.6c0.8-1.5,1.5-3.1,2.3-4.6c0.8-1.6,1.6-3.1,2.4-4.6c0.6-1.3,1.3-2.6,2-3.8s1.4-2.5,2.2-3.7
		c0.2-0.5,0.6-0.8,1-1.1c0.4-0.2,0.9-0.2,1.5,0c0,0.8,0.4,1.1,1.1,0.9c0.5-0.2,1-0.3,1.5-0.3c0.5,0,0.9,0.2,1.3,0.7
		c-0.4,0.1-0.7,0.1-1.2,0c-0.4-0.1-0.9,0.1-1.4,0.6c0.5,0.1,0.8,0.2,1.1,0.4c0.3,0.1,0.6,0.1,0.9,0c0.5-0.2,0.9-0.2,1.3,0
		c0.4,0.2,0.8,0.4,1.3,0.5c0.3,0.1,0.6,0.2,0.9,0.5c0.3,0.3,0.6,0.6,0.9,1.1c0.3,0.4,0.5,0.8,0.6,1.2c0.1,0.4,0.2,0.8,0.1,1.1
		c-0.1,0.5-0.3,0.9-0.5,1.3c-0.2,0.4-0.5,0.8-0.7,1.2c-0.5,0.6-0.9,1.3-1.3,2c-0.4,0.7-0.9,1.4-1.3,2.1c-0.5,0.7-0.9,1.4-1.3,2.2
		c-0.4,0.7-0.9,1.4-1.5,2.1c-0.5,0.5-0.8,1-1.1,1.5c-0.2,0.6-0.5,1.1-0.8,1.6c-0.1,0.1-0.2,0.2-0.4,0.4c-0.1,0.1-0.2,0.2-0.4,0.4
		c-0.1,0.1-0.2,0.2-0.3,0.3c-0.1,0.1-0.1,0.1-0.1,0.3c0,0.8-0.2,1.4-0.7,1.8c-0.5,0.4-0.9,0.8-1.4,1.2c-0.3,0.2-0.5,0.7-0.6,1.3
		c-0.1,0.6,0,1.1,0.3,1.4c-0.9,0.4-1.4,1-1.7,1.8c-0.2,0.8-0.5,1.5-0.8,2.3l-0.2,0.4c-0.3,0.6-0.6,1.3-0.9,1.8
		c-0.3,0.6-0.6,1.2-0.9,1.8c-0.1,0.2-0.2,0.3-0.3,0.5c-0.1,0.1-0.1,0.3-0.2,0.4c0,0.1,0,0.2,0,0.4c0,0.1,0,0.2,0,0.4
		c0.1,0,0.1,0,0.1,0c0,0,0.1,0,0.1,0c0.4-0.6,0.7-1.2,1-1.8c0.3-0.6,0.7-1.2,1.2-1.6c0.5-0.5,0.8-1,1.1-1.6c0.2-0.6,0.5-1.1,0.9-1.6
		c0.5-0.6,1-1.3,1.5-2c0.5-0.7,0.9-1.4,1.4-2c0.1-0.2,0.3-0.3,0.5-0.4c0.2-0.1,0.4-0.2,0.5-0.2c0.1-0.3,0.2-0.6,0.3-0.9
		c0.1-0.3,0.2-0.6,0.4-0.8c1.1-1.2,2.1-2.4,3-3.7c0.9-1.3,1.9-2.6,2.9-3.8h0.1c-0.1,0,0.1-0.1,0.4-0.2c-0.4,0.6-0.7,1.2-0.9,1.8
		c-0.3,0.6-0.6,1.1-0.9,1.5c-0.3,0.5-0.6,0.9-1.1,1.4c-0.4,0.5-0.8,1-1.1,1.5c-0.2,0.3-0.4,0.6-0.6,1c-0.1,0.4-0.3,0.7-0.5,1.1
		c0.1,0.2,0.2,0.3,0.4,0.4c0.2-0.1,0.4-0.2,0.5-0.3c0.2-0.1,0.3-0.2,0.4-0.4c0.9-1.1,1.7-2.2,2.6-3.3c0.8-1.1,1.7-2.2,2.6-3.3
		c0.5-0.6,1.1-1.1,1.6-1.7c0.6-0.5,1.1-1.1,1.6-1.6c0.3-0.3,0.6-0.6,0.8-1c0.2-0.4,0.5-0.7,0.8-1.1l0.1-0.2c0-0.1,0-0.1,0.1-0.1
		c0.5,0.1,0.8,0,1.1-0.2c0.3-0.2,0.6-0.4,0.8-0.7c0.2-0.3,0.5-0.6,0.7-0.9c0.2-0.3,0.5-0.6,0.7-0.7c0.4-0.2,0.8-0.5,1.1-0.8
		c0.3-0.3,0.6-0.6,0.9-0.9c0.1-0.1,0.2-0.3,0.3-0.5c0.1-0.2,0.1-0.4,0.3-0.5c0.5-0.2,0.8-0.4,1.1-0.6c0.5-0.4,0.9-0.8,1.2-1.3
		c0.3-0.5,0.6-1,0.8-1.6c0.1-0.1,0.1-0.2,0.2-0.2c0.1,0,0.1-0.1,0.2-0.1c0.8-0.5,1.6-1.1,2.3-1.9c0.2-0.3,0.5-0.6,0.8-0.8
		c0.3-0.2,0.6-0.5,0.9-0.7c0.1-0.1,0.1-0.1,0.1-0.2c0.1-0.1,0.1-0.1,0.1-0.2c0-0.1,0.1-0.1,0.1-0.2v-0.1c0.1-0.2,0.2-0.5,0.3-0.7
		c0.1-0.2,0.2-0.4,0.3-0.5c0.1-0.2,0.2-0.3,0.3-0.4l0.3-0.3c0.4-0.4,0.6-0.8,0.7-1.3c0.2-0.4,0.4-0.8,0.7-1.1c0.3-0.3,0.7-0.6,1-0.9
		c0.3-0.3,0.7-0.3,1.3-0.1c0.6,0.1,1.3,0.3,2.2,0.4s1.5,0.5,1.9,1.1c0.3,0.4,0.6,0.7,0.8,1c0.3,0.3,0.7,0.5,1.2,0.7
		C313.1,40.5,313.1,40.5,313.1,40.6z M273.4,74.6c0.3-0.5,0.6-0.9,0.9-1.4c0.3-0.4,0.6-0.9,0.9-1.4c-0.1-0.1-0.1-0.1-0.2-0.1
		c-0.1,0-0.1-0.1-0.2-0.1c-0.4,0.4-0.8,0.8-1.1,1.2c-0.4,0.4-0.7,0.9-1.1,1.3c0,0.1,0,0.1,0,0.3c0,0.1,0.1,0.2,0.1,0.2
		C273.1,74.7,273.3,74.7,273.4,74.6z M286.1,95.3c0.2-0.2,0.4-0.4,0.4-0.4c0.1-0.3,0.2-0.6,0.3-1c0.1-0.4,0.1-0.7,0.1-1
		c0.1-0.5,0.1-1,0.2-1.5c0.1-0.5-0.1-1-0.6-1.5c-0.1,0.5-0.2,0.9-0.3,1.4c-0.1,0.4-0.2,0.9-0.3,1.4c-0.1-0.3-0.1-0.7-0.3-1.1h-0.4
		c0,0.2,0,0.5,0,0.8c0,0.3,0.1,0.5,0.2,0.6c0.3,0.3,0.5,0.6,0.5,0.8c0,0.3,0,0.5-0.1,0.8c-0.1,0.1,0,0.2,0,0.3
		S286.1,95.2,286.1,95.3z M304.2,50.9c0.1-0.1,0.2-0.3,0.1-0.5c0-0.2-0.1-0.3-0.1-0.4c-0.2,0-0.4,0-0.5,0c-0.2,0-0.3,0-0.4,0.1
		c-0.3,0.2-0.5,0.5-0.7,0.7c-0.2,0.3-0.4,0.5-0.5,0.8c-0.4,0.8-0.8,1.5-1.1,2.3c-0.4,0.8-0.7,1.5-1.1,2.3c-0.3,0.6-0.6,1.3-1,2
		c-0.4,0.7-0.7,1.4-1,2.1c-0.3,0.6-0.6,1.3-0.9,2c-0.3,0.7-0.6,1.4-0.8,2c-0.1,0.2-0.2,0.4-0.4,0.6c-0.1,0.2-0.2,0.4-0.4,0.6
		c-0.3,0.8-0.6,1.6-0.9,2.5c-0.3,0.8-0.6,1.6-0.9,2.5c-0.3,0.8-0.6,1.6-1,2.5c-0.4,0.8-0.7,1.6-1,2.5c-0.2,0.6-0.3,1.2-0.5,1.8
		c-0.1,0.6-0.3,1.2-0.4,1.8c-0.2,0.6-0.5,0.8-1,0.7c0.2-0.5,0.4-1,0.5-1.5c0.2-0.5,0.3-1.1,0.4-1.6c0.1-0.4,0.2-0.8,0.2-1.2
		c0-0.4,0.1-0.8,0.2-1.2c0.1-0.4,0.3-0.8,0.4-1.1c0.2-0.3,0.4-0.7,0.5-1c0.1-0.2,0.2-0.5,0.1-0.7c0-0.3,0-0.5,0.1-0.7
		c0.2-0.6,0.5-1.1,0.7-1.7c0.2-0.5,0.5-1.1,0.7-1.8c0.2-0.5,0.3-0.9,0.4-1.4c0.1-0.4,0.3-0.9,0.5-1.3c0.4-0.8,0.8-1.5,1.1-2.2
		c0.4-0.7,0.6-1.5,0.7-2.3c0.1-0.3,0.2-0.5,0.3-0.7c0.1-0.2,0.3-0.4,0.4-0.6c0.2-0.5,0.4-0.9,0.6-1.3c0.2-0.4,0.4-0.8,0.6-1.3
		c-0.2,0-0.3-0.1-0.4-0.2c-0.2,0.3-0.4,0.6-0.5,1c-0.1,0.4-0.3,0.6-0.6,0.7c-0.4,0.3-0.6,0.6-0.6,1.1c0.1,0.4,0,0.8-0.2,1.1h-0.6
		c-0.1,0.4-0.1,0.8-0.1,1.1c0,0.3,0,0.7-0.1,1.1c-0.7-0.3-1.1-0.4-1.4-0.2c-0.3,0.1-0.6,0.6-0.9,1.3c-0.3,0.7,0.1,1.3,1.1,1.8
		c-0.1,0.2-0.3,0.6-0.5,1.2c-0.2-0.2-0.4-0.4-0.5-0.5c-0.5,0.2-0.8,0.4-1.1,0.6c-0.1,0.1-0.2,0.4-0.4,0.7c0.3,0,0.5,0,0.7,0.1
		c0.2,0,0.4,0.1,0.7,0.2c-0.3,0.1-0.5,0.1-0.7,0.1c-0.2,0-0.3,0.1-0.5,0.1c0.1,0.1,0.3,0.2,0.4,0.4c0.1,0.1,0.3,0.3,0.5,0.4
		c-0.3,0.1-0.6,0.2-0.8,0.3s-0.4,0.2-0.6,0.4c-0.3,0.2-0.6,0.6-0.8,1.1c0,0.1,0.1,0.3,0.3,0.4c0.2-0.1,0.3-0.2,0.5-0.4
		c0.1-0.1,0.3-0.2,0.4-0.4l0.3-0.3c-0.1,0.4-0.2,0.8-0.3,1.1c-0.2,0.4-0.3,0.7-0.4,1.1c-0.1,0.4-0.2,0.7-0.3,1.1
		c-0.1,0.4-0.2,0.7-0.3,1.1c-0.2,0.6-0.3,1.2-0.5,1.7c-0.2,0.6-0.3,1.1-0.6,1.6c-0.1,0.3-0.3,0.6-0.5,0.8c-0.2,0.2-0.4,0.5-0.5,0.8
		c-0.2,0.3-0.5,0.6-0.7,0.9c-0.2,0.3-0.5,0.6-0.7,0.9l0.3,0.3c0.1-0.1,0.2-0.1,0.4-0.1c0.1,0,0.2-0.1,0.4-0.2v0.4
		c-0.1,0.9-0.3,1.8-0.4,2.6c-0.2,0.9-0.3,1.8-0.4,2.6c-0.1,0.6-0.2,1.3-0.4,1.9c-0.1,0.6-0.2,1.3-0.4,1.9c0.5,0.2,0.8,0.4,1.1,0.4
		c0.2,1,0.2,1.9-0.1,2.7c-0.3,0.8-0.4,1.7-0.3,2.6c0.1,0.6,0,1.2-0.1,1.7c-0.1,0.6-0.2,1.1-0.3,1.7c0,0.2,0.1,0.4,0.2,0.6
		c0.2-0.2,0.4-0.4,0.4-0.5c0.1-0.3,0.2-0.6,0.3-0.8c0.1-0.3,0.2-0.5,0.4-0.7c0.2-0.4,0.2-0.6,0.2-0.9c0-0.2-0.3-0.4-0.8-0.6
		c0.5-0.2,0.9-0.3,0.9-0.3c0.2-0.5,0.3-0.9,0.4-1.4s0.3-0.8,0.6-1.1c0.3-0.2,0.5-0.5,0.7-0.7c0.2-0.2,0.3-0.5,0.4-0.9
		c0-0.2,0-0.4,0-0.6c0-0.2,0-0.4,0-0.6c-0.1,0.1-0.2,0.2-0.4,0.4c-0.1,0.1-0.2,0.3-0.4,0.4l-0.3,0.1c0-0.2,0-0.4,0.1-0.7
		s0.1-0.5,0.2-0.7c0-0.2,0-0.4-0.2-0.5c-0.1-0.1-0.5-0.1-1-0.1c0.1-0.3,0.2-0.6,0.4-0.8c0.1-0.2,0.2-0.5,0.4-0.8
		c0.1,0.4,0.2,0.6,0.3,0.8c0.1,0.2,0.2,0.5,0.3,0.7c0.2-0.3,0.3-0.5,0.4-0.6c0.1-0.2,0.2-0.3,0.4-0.5v1.7c0.5-0.5,0.7-0.9,0.7-1.1
		s-0.2-0.5-0.5-0.9c-0.1-0.1-0.2-0.3-0.2-0.5s0-0.5,0.1-0.7c0.1-0.2,0.1-0.3,0.3-0.5c0.1-0.2,0.2-0.4,0.3-0.6c0.1-0.1,0.1-0.3,0-0.4
		c-0.1-0.2-0.1-0.3-0.2-0.4c-0.1,0-0.1,0-0.1,0c0,0-0.1,0-0.1,0c-0.1,0.2-0.2,0.3-0.3,0.5c-0.1,0.1-0.1,0.3-0.3,0.6
		c-0.3-0.5-0.4-0.8-0.4-1c0-0.2,0.2-0.5,0.4-0.9c0.5-0.6,0.9-1.3,1.4-2c0.4-0.7,0.9-1.5,1.5-2.3h-1.5c0.2-0.5,0.5-1.1,0.7-1.6
		c0.2-0.5,0.4-1,0.7-1.5c0-0.1,0.1-0.2,0.4-0.2c0.5-0.1,0.7,0,0.8,0.2c0.1,0.3,0.1,0.5,0,0.8l0.4,0.2c0.2-0.4,0.5-0.8,0.9-1.2
		c0.3-0.9,0.5-1.9,0.7-2.8c0.2-0.9,0.5-1.8,1-2.7c0.3-0.6,0.5-1.3,0.7-1.9c0.2-0.6,0.5-1.3,0.7-1.9c0.3-0.8,0.6-1.6,1-2.3
		c0.4-0.7,0.7-1.5,1-2.3c0.2-0.5,0.3-1,0.5-1.5c0.1-0.5,0.3-1,0.6-1.5c0.3-0.6,0.6-1.3,1-2c0.4-0.7,0.7-1.4,1-2c0-0.1,0-0.1,0-0.2
		c0-0.1,0-0.2,0-0.3c-0.4,0.5-0.7,0.9-1.2,1.3c-0.4,0.4-0.6,0.9-0.5,1.6c0,0.1-0.1,0.2-0.2,0.4c-0.2,0.5-0.5,0.9-0.7,1.3
		c-0.2,0.4-0.5,0.8-0.7,1.2c-0.2,0.3-0.4,0.6-0.5,0.8c-0.2,0.2-0.4,0.5-0.5,0.8c-0.1,0.2-0.3,0.5-0.4,0.7c-0.2,0.2-0.2,0.4-0.2,0.6
		c0.1,0.4,0.1,0.6,0.1,0.8c-0.1,0.2-0.2,0.3-0.4,0.4c-0.2,0.1-0.4,0.2-0.6,0.4c-0.2,0.1-0.4,0.3-0.5,0.4c0.1-0.5,0.2-0.9,0.4-1.3
		c0.1-0.4,0.3-0.8,0.5-1.1c0.3-0.6,0.6-1.2,0.9-1.8c0.3-0.6,0.6-1.1,1.1-1.6c0.4-0.5,0.5-0.9,0.2-1.2c0.1-0.1,0.2-0.2,0.4-0.4
		c0.1-0.1,0.2-0.3,0.3-0.4c0.5-1.2,1.1-2.3,1.6-3.5C302.9,53,303.5,51.9,304.2,50.9z M289.7,80.9c-0.1-0.1-0.2-0.2-0.3-0.3
		s-0.1-0.2-0.3-0.3c0.3-0.3,0.5-0.5,0.7-0.6c0.2,0.1,0.4,0.2,0.6,0.4c0.2,0.1,0.4,0.2,0.6,0.3c0.4,0.1,0.5,0.3,0.6,0.5
		c0,0.2,0,0.5,0,0.8c-0.2-0.1-0.4-0.2-0.4-0.3c-0.3-0.2-0.5-0.3-0.7-0.2c-0.2,0.1-0.4,0.4-0.5,0.7c-0.1,0.5-0.2,0.9-0.4,1.4
		c-0.1,0.4-0.3,0.9-0.4,1.4c-0.1,0.4-0.2,0.7-0.2,1c0,0.3-0.1,0.7-0.2,1c-0.1,0.5-0.3,0.9-0.4,1.4c-0.1,0.5-0.3,0.9-0.4,1.4
		c-0.1-0.2-0.1-0.7,0-1.5c0.1-0.8,0.3-1.7,0.4-2.6c0.2-0.9,0.4-1.8,0.7-2.7S289.5,81.3,289.7,80.9z M292.9,86.2
		c0.3-0.1,0.6-0.2,0.8-0.4c0.2-0.1,0.5-0.2,0.8-0.4c-0.3-0.1-0.5-0.2-0.7-0.4c-0.2-0.1-0.4-0.3-0.7-0.4c0.1-0.1,0.1-0.2,0.1-0.4
		s0-0.3,0.1-0.4l-0.2-0.3c-0.2,0.1-0.5,0.2-0.7,0.4c-0.2,0.1-0.5,0.3-0.7,0.4c-0.1-0.1-0.1-0.2-0.2-0.3c-0.1-0.1-0.1-0.1-0.2-0.3
		c-0.1,0-0.1,0-0.1,0c0,0-0.1,0-0.1,0c0.1,0.2,0.1,0.4,0.1,0.6c0,0.2,0.1,0.4,0.2,0.6c0.1,0.1,0.1,0.1,0.3,0.1c0.1,0,0.2,0,0.4,0
		c0.6-0.2,0.9,0.1,0.9,0.8V86.2z M292.3,82.6c0.3,0.1,0.5,0.2,0.7,0.3c0.2,0.1,0.4,0.2,0.7,0.3c0.1,0.1,0.1,0.1,0.2,0
		c0.1,0,0.2,0,0.2,0c0.1-0.2,0.1-0.4,0-0.5c-0.2-0.5-0.5-0.7-0.9-0.7C292.9,82,292.6,82.2,292.3,82.6z M293.3,89.1
		c-0.2-0.1-0.4-0.2-0.4-0.3c-0.1,0.2-0.2,0.3-0.3,0.5c-0.1,0.1-0.1,0.3-0.2,0.4c-0.1,0.1,0,0.1,0.1,0.2c0.1,0.1,0.2,0.1,0.3,0.3
		L293.3,89.1z M293.8,80.2c0.1-0.4,0.2-0.7,0.4-1c0.1-0.3,0.2-0.7,0.4-1.1c-0.5,0.2-0.8,0.5-1.1,0.9c-0.3,0.4-0.3,0.8-0.2,1.1
		c0,0.2,0.1,0.3,0.4,0.3c0,0.1,0,0.1,0.1,0C293.8,80.3,293.8,80.2,293.8,80.2z M295.6,71.2c0.3,0.2,0.4,0.4,0.4,0.7
		c0,0.3-0.2,0.6-0.6,0.8c-0.3,0.2-0.5,0.5-0.5,0.7c0,0.3-0.1,0.5-0.2,0.8c-0.1,0.3-0.2,0.6-0.3,1c-0.1,0.4-0.1,0.7-0.3,1.1
		c-0.5-0.6-0.6-1.3-0.3-2.3C294.2,73.1,294.8,72.1,295.6,71.2z M294.8,62.7c-0.1,0.2-0.2,0.4-0.3,0.4c-0.1,0.1-0.2,0.2-0.3,0.4
		c-0.1,0.1-0.2,0.3-0.3,0.4l-0.2-0.4c0.1-0.2,0.1-0.5,0.2-0.7C294.1,62.7,294.4,62.6,294.8,62.7z M296,76.7c0.1-0.6,0.4-1.2,0.7-1.6
		c0.4-0.4,0.5-1,0.2-1.6c-0.3,0.5-0.6,1-0.9,1.5c-0.3,0.5-0.6,1.1-0.9,1.6c0.1,0,0.2,0,0.4,0C295.7,76.6,295.8,76.7,296,76.7z
		 M297.1,68c-0.5-0.3-0.7-0.5-0.7-0.7c0-0.2,0.4-0.6,1.2-1.3c-0.1,0.4-0.2,0.8-0.3,1.1C297.3,67.4,297.2,67.7,297.1,68z M300.3,52.5
		c-0.1-0.1-0.2-0.2-0.3-0.2c-0.4,0.1-0.6,0.3-0.7,0.6c-0.1,0.3-0.3,0.6-0.4,0.9c0,0.2,0.1,0.4,0.3,0.4c0.1,0.1,0.3,0.1,0.4-0.1
		c0.1-0.3,0.2-0.6,0.4-0.8C300.1,53.1,300.2,52.8,300.3,52.5z M300.2,66.8c0.6,0,0.9-0.3,0.9-1c-0.1-0.1-0.1-0.1-0.1-0.2
		c0-0.1-0.1-0.1-0.1-0.2c-0.2,0.2-0.5,0.4-0.9,0.8c-0.1,0,0,0.1,0,0.3C300.1,66.7,300.2,66.8,300.2,66.8z M303.6,49.5
		c0.4-0.1,0.8-0.5,1.2-1.1c0.4-0.6,0.6-1.1,0.4-1.5c-0.4,0.1-0.8,0.5-1.1,1.1C303.8,48.5,303.6,49.1,303.6,49.5z"/>
	<path class="st0" d="M346.6,81.8c0.2-0.3,0.5-0.5,0.9-0.7c0.4-0.1,0.8-0.1,1.4,0.2l-1.5,1.5c-0.6,0.6-1.2,1.3-1.8,1.8
		c-0.6,0.6-1.1,1.2-1.7,1.8c-0.1,0.1-0.2,0.2-0.4,0.2c-0.1,0-0.3,0.1-0.4,0.2c-0.1,0.1-0.2,0.2-0.3,0.4c-0.1,0.1-0.2,0.2-0.3,0.4
		l-0.8,0.8c0-0.1-0.1,0-0.3,0.2c-0.5,0.9-1.1,1.7-1.9,2.2c-0.8,0.6-1.5,1.2-2.2,1.9c-0.7,0.6-1.4,1.3-2.2,2c-0.8,0.7-1.5,1.3-2.3,2
		c-0.1,0.1-0.2,0.1-0.3,0.2s-0.2,0.1-0.3,0.2c-0.4,0.2-0.8,0.4-1.4,0.8c-0.6,0.4-1.2,0.7-1.8,1.1c-0.6,0.4-1.2,0.8-1.8,1.2
		c-0.6,0.4-1,0.7-1.3,0.8c-0.6,0.5-1.3,0.8-2,1.1s-1.4,0.4-2.2,0.5c-0.8,0.1-1.5,0.2-2.3,0.2c-0.8,0-1.5-0.3-2.1-0.8
		c-0.5-0.4-0.9-0.3-1.1,0.2c-0.2,0.4-0.4,0.6-0.7,0.6c-0.3,0-0.7,0-1-0.1c-0.4,0-0.7-0.1-0.9-0.2c-0.3-0.1-0.4-0.5-0.5-0.9
		c-0.1,0-0.1,0-0.1,0c0,0-0.1,0-0.1,0c0,0.1,0,0.2,0,0.4c0,0.1,0,0.3,0,0.6c-0.3-0.3-0.5-0.6-0.7-0.8c-0.2-0.3-0.4-0.5-0.6-0.8
		c0-0.1,0-0.1-0.1-0.2c0-0.1,0-0.1-0.1-0.2v-0.1l-0.3-0.5c-0.3-1.1-0.7-1.9-1.3-2.5c-0.2-0.2-0.4-0.4-0.5-0.7
		c-0.1-0.3-0.2-0.5-0.3-0.8c-0.2-0.3-0.4-0.6-0.6-0.9c-0.2-0.3-0.4-0.6-0.6-0.9c-0.2-0.3-0.3-0.6-0.4-0.9c-0.1-0.3-0.2-0.6-0.3-1
		c-0.2-0.8-0.4-1.6-0.6-2.4s-0.2-1.6,0-2.4c0.1-0.6,0.1-1.1,0.2-1.7c0.1-0.5,0.2-1.1,0.2-1.7c0.1-0.1,0.1-0.1,0.1-0.3
		c-0.1-1,0.1-1.9,0.4-2.8c0.4-0.9,0.7-1.7,1-2.5c0.1-0.2,0.2-0.3,0.5-0.4c-0.5-0.7-0.4-1.2,0.5-1.5c0.2-0.2,0.3-0.4,0.3-0.5
		c-0.2-0.6,0-1.1,0.5-1.3l0.2-0.7c0.2-0.1,0.5-0.1,0.7-0.3c0.2-0.1,0.2-0.4-0.1-0.9c-0.1-0.1,0-0.2,0.2-0.5c0.2-0.3,0.4-0.5,0.6-0.6
		c0.1-0.1,0.2-0.2,0.3-0.3c0.1-0.1,0.1-0.2,0-0.4l0.8-0.5c-0.1-0.2-0.3-0.4-0.5-0.6c0.8,0,1.1-0.2,0.8-0.7c0.3-0.3,0.5-0.6,0.7-0.8
		c0.2-0.3,0.4-0.5,0.7-0.8c0.1-0.2,0.2-0.5,0.4-0.7c0.1-0.2,0.3-0.5,0.4-0.8c0.1,0,0.1,0,0.1,0c0,0,0.1,0,0.1,0
		c0.6-0.3,1-0.5,1.1-0.7c0.1-0.1,0.1-0.5,0-1.1c0.1-0.1,0.2-0.1,0.4-0.1c0.1,0,0.3,0,0.4-0.1c-0.1-0.1-0.2-0.2-0.4-0.4
		c-0.1-0.1-0.2-0.3-0.4-0.5c0.9-1.1,1.8-2.3,2.9-3.7c-0.1,0.4-0.2,0.6-0.3,0.7c0.1,0,0.1,0,0.1,0c0,0,0.1,0,0.1,0
		c0.1-0.2,0.2-0.4,0.4-0.5c0.1-0.2,0.3-0.4,0.4-0.7c0.5-0.1,0.6-0.5,0.5-1.1c-0.1-0.4,0.1-0.8,0.6-1.2c0.5-0.5,0.9-0.8,1.4-0.9h0.4
		c-0.2-0.5-0.1-0.9,0.2-1.1c0.3-0.2,0.6-0.5,0.7-0.8c0.5-0.7,1-1.3,1.6-1.9c0.6-0.6,1.2-1.2,1.8-1.8c0.6-0.7,1.2-1.4,1.9-2
		c0.7-0.6,1.2-1.3,1.7-2.1c0.6-0.9,1.2-1.7,1.9-2.3c0.7-0.7,1.5-1.3,2.3-2c0.1-0.1,0.3-0.2,0.4-0.3s0.4-0.2,0.5-0.3
		c0.2-0.1,0.4-0.1,0.5-0.1l2.4,1.1c0.1,0,0.1,0,0.2,0c0.1,0,0.1,0,0.2,0c0.3,0.1,0.6,0.2,0.8,0.4c0.2,0.1,0.4,0.3,0.6,0.6
		c0.2,0.2,0.4,0.4,0.6,0.6c0.2,0.2,0.5,0.3,0.7,0.4c0.6,0.4,1.1,0.9,1.4,1.4c0.3,0.5,0.6,1.1,0.9,1.8c0,0.1,0,0.1,0.1,0.2
		c0.1,0.4,0.2,0.7,0.2,1.1c0,0.4,0.1,0.8,0.3,1.2c0.3,0.6,0.5,1.3,0.7,1.8c0.1,0.6,0.4,1.2,0.7,1.8c0.3,0.6,0.3,1.3,0.1,1.9
		c-0.2,0.6-0.2,1.3,0,1.9c0,0.1,0,0.1-0.1,0.2s-0.1,0.2-0.2,0.3c0.5,0.4,0.7,0.7,0.4,1c-0.2,0.3-0.4,0.7-0.5,1
		c-0.1,0.4-0.1,0.7-0.2,1c-0.1,0.3-0.1,0.7-0.3,1c-0.1,0.3-0.2,0.6-0.2,0.8c0,0.3-0.2,0.5-0.5,0.7c-0.1,0.1-0.2,0.3-0.2,0.4
		c0,0.1,0,0.3-0.1,0.4c-0.3,0.6-0.6,1.1-1,1.7c-0.5,0.9-1.1,1.8-1.7,2.5c-0.4,0.5-0.7,1.1-1.1,1.6c-0.4,0.5-0.7,1-1.1,1.5
		c-0.3,0.5-0.6,0.9-0.9,1.2c-0.3,0.4-0.6,0.8-0.9,1.2c-0.2,0.3-0.4,0.7-0.6,1.1c-0.1,0.3-0.3,0.5-0.4,0.5c-0.6,0.3-1,0.7-1.4,1.2
		c-0.3,0.5-0.7,1-1.1,1.5c-0.3,0.3-0.6,0.6-1.1,0.9c-0.4,0.3-0.8,0.6-1.1,0.9c-0.3,0.2-0.6,0.5-0.8,0.7c-0.3,0.2-0.5,0.5-0.8,0.7
		c-0.4,0.3-0.7,0.6-1.1,0.8c-0.4,0.2-0.8,0.5-1.2,0.8c-0.1,0-0.2,0-0.3,0.1c-0.8,0.6-1.7,1.1-2.6,1.4c-0.9,0.3-1.9,0.5-2.8,0.8
		c-0.4,0.1-0.6,0.2-0.8,0.2h-0.1c-0.8,0.2-1.8,0.3-3.1,0.4c-1.3,0.1-2.3,0-3.1-0.2l-0.1-0.1l-0.5,0.3c0.1,0.6-0.1,1.1-0.8,1.4
		c-0.1,0.1-0.2,0.1-0.2,0.3c0,0.1-0.1,0.2-0.1,0.4c-0.1,0.1-0.2,0.2-0.2,0.3c0,0.1-0.1,0.2-0.2,0.3c-0.3,0.3-0.3,0.5-0.1,0.6
		c0.2,0.1,0.4,0.2,0.5,0.3c-0.1,0.3-0.2,0.6-0.3,0.9c-0.1,0.3-0.1,0.6-0.2,0.9c-0.1,0.2-0.2,0.4-0.4,0.4c-0.5,0.5-0.6,1.1-0.2,1.8
		c0.2,0.3,0.1,0.6-0.1,1c-0.2,0.4-0.2,0.8,0.2,1.1c0.2,0.1,0.3,0.3,0.4,0.7l0.3,0.5c0.1,0.3,0.1,0.6,0.1,0.9c0,0.3,0.1,0.6,0.3,0.9
		c0.4,0.5,0.8,0.9,1.5,1c1.2,0.2,2.5,0.1,4-0.3c1.5-0.4,2.7-0.9,3.7-1.5c0.5-0.4,1.2-0.8,1.9-1.3c0.8-0.5,1.6-1,2.4-1.6
		c0.8-0.6,1.6-1.1,2.3-1.7c0.7-0.6,1.4-1,1.9-1.4c1.3-1,2.6-2,3.8-3.1c1.2-1.1,2.5-2.1,3.7-3.2c1.1-0.9,2.1-1.9,3.1-2.8
		c1-0.9,2-1.9,3-2.9c0.9-0.8,1.7-1.5,2.6-2.3c0.9-0.8,1.7-1.6,2.5-2.4c0.2-0.2,0.4-0.4,0.6-0.6c0.2-0.2,0.4-0.5,0.5-0.7
		c0.1,0.1,0.1,0.1,0.2,0.1c0.1,0,0.1,0.1,0.2,0.2c-1.4,1.5-2.8,3-4.3,4.5c-1.4,1.5-2.8,2.9-4.2,4.4c-0.1,0.2-0.2,0.3-0.3,0.5
		c-0.1,0.1-0.2,0.3-0.3,0.4c-0.4,0.4-0.7,0.8-1.1,1.2c-0.4,0.4-0.7,0.7-1.1,1.1c-0.1,0.1-0.1,0.1-0.2,0.1c-0.1,0-0.1,0.1-0.2,0.1
		c-0.1,0.1-0.2,0.1-0.2,0.2c0,0.1-0.1,0.1-0.2,0.3c0.1,0,0.2,0,0.4,0.1c0.1,0.1,0.3,0.1,0.4,0c0.2-0.1,0.3-0.2,0.5-0.4
		c0.1-0.1,0.3-0.3,0.5-0.4c0.9-0.7,1.7-1.4,2.6-2.2C345,83.5,345.8,82.7,346.6,81.8z M309.5,80.9C309.5,80.8,309.6,80.8,309.5,80.9
		c0.1-0.1,0.1-0.1,0.1-0.2c-0.1-0.4-0.2-0.6-0.4-0.9c-0.1-0.1-0.1-0.1-0.3-0.1c0,0.1,0,0.2-0.1,0.4c-0.1,0.1-0.1,0.2,0,0.4
		C308.9,80.5,309.1,80.6,309.5,80.9z M309.8,79c0.2-0.1,0.5-0.3,0.7-0.4c-0.5-0.5-0.4-0.9,0.2-1.4c0.1-0.1,0.1-0.1,0-0.3
		c0-0.1,0-0.2,0-0.4c-0.1,0-0.1,0-0.1,0c0,0-0.1,0-0.1,0c-0.3,0.5-0.6,0.9-0.8,1.4c-0.2,0.4-0.5,0.9-0.8,1.4l0.2,0.2
		C309.4,79.2,309.6,79.1,309.8,79z M310.6,87.1c0.2-0.1,0.3-0.3,0.3-0.7c0-0.3,0-0.6-0.1-0.8c-0.1,0.2-0.2,0.4-0.3,0.6
		c-0.1,0.2-0.1,0.4-0.3,0.6c0,0.1,0,0.1,0,0.2c0,0.1,0,0.1,0,0.2C310.5,87.2,310.6,87.2,310.6,87.1z M310.6,75.8
		c0.1,0.1,0.3,0.2,0.4,0.3c0.2,0.1,0.4,0.2,0.5,0.3c0.1-0.2,0.2-0.4,0.3-0.5c0.1-0.2,0.2-0.4,0.2-0.6c0.1-0.1,0.1-0.3,0-0.5
		c0-0.2,0-0.4,0-0.6c0.1,0.1,0.2,0.1,0.2,0.1c0,0,0.1,0.1,0.2,0.1c0.3-0.3,0.5-0.6,0.7-0.8c0.2-0.3,0.4-0.5,0.7-0.8
		c0.1-0.1,0.1-0.2,0.1-0.2c0,0,0.1-0.1,0.1-0.2c0-0.1,0-0.1-0.1-0.2c-0.1-0.1-0.2-0.1-0.2,0c-0.1,0-0.3,0.1-0.4,0.3
		c-0.1,0.1-0.1,0.2-0.1,0.3c0,0.1-0.1,0.2-0.1,0.3c-0.1,0-0.1-0.1-0.3-0.2c0.1-0.2,0.2-0.5,0.4-0.7c0.1-0.2,0.3-0.4,0.6-0.5
		c0.5-0.2,0.8-0.4,0.9-0.5c0.1-0.1,0-0.4-0.3-1l0.5-0.3c0.2-0.1,0.5-0.2,0.7-0.4c0.3-0.1,0.4-0.2,0.5-0.4c0.1-0.6,0.3-1,0.6-1.2
		c0.4-0.2,0.7-0.5,1-0.7c-0.1-0.6-0.2-1-0.3-1.1c0.4-0.2,0.8-0.5,1.1-0.8c0.2-0.2,0.4-0.4,0.6-0.6c0.2-0.2,0.4-0.5,0.5-0.7
		c0.4-0.5,0.3-0.8-0.4-1.1c-1.9,1.9-3.5,3.9-4.8,6.2C313.2,71.3,311.9,73.6,310.6,75.8z M311.5,84.6c0.3-0.5,0.5-1.1,0.7-1.6
		c0.2-0.5,0.5-1.1,0.7-1.6c-0.1,0-0.2-0.1-0.2-0.2c-0.2,0.1-0.4,0.2-0.4,0.4c-0.1,0.4-0.3,0.7-0.5,1c-0.2,0.3-0.4,0.7-0.6,1
		c-0.1,0.2-0.2,0.5-0.2,1H311.5z M314,74.6c0.2-0.3,0.4-0.5,0.8-0.7c0.4-0.2,0.4-0.5,0.3-1.1c-0.3,0-0.5,0-0.5,0.1
		c-0.2,0.2-0.4,0.5-0.6,0.7c-0.1,0.2-0.3,0.5-0.5,0.7c-0.2,0.2-0.1,0.3,0.1,0.3C313.7,74.8,313.9,74.8,314,74.6z M315,77.3
		c0.4-0.5,0.7-0.9,1-1.3c0.3-0.4,0.6-0.8,1-1.3c-0.5,0.1-1,0.3-1.4,0.8C315.1,76,314.9,76.6,315,77.3z M325.5,69.3
		c-0.4,0.5-0.8,1.1-1.1,1.6c-0.4,0.6-0.7,1.1-1.1,1.6c-0.1,0.1-0.1,0.1-0.3,0.2c-0.1,0.1-0.2,0.1-0.3,0c-0.3-0.1-0.5,0-0.5,0.1
		c-0.1,0.1-0.1,0.3-0.2,0.6c0,0.2-0.1,0.4-0.2,0.8c-0.1,0.2-0.2,0.5-0.4,0.7c-0.1,0.2-0.2,0.4-0.4,0.7l-0.4,0.4
		c-0.1,0.2-0.3,0.4-0.4,0.5c-0.2,0.2-0.3,0.4-0.4,0.6c-0.3,0.6-0.5,1.2-0.7,1.8c-0.2,0.6-0.6,1.1-1.1,1.6l-0.2,0.2l-1.1,1.7
		c0.5,0,1,0.1,1.5,0.2c0.5,0.1,1,0.1,1.5-0.1c0.3-0.1,0.6-0.2,0.8-0.3c0.2-0.1,0.5-0.1,0.8-0.3c0.4-0.1,0.6-0.1,0.8-0.1
		c0.2,0,0.4-0.1,0.6-0.2c0.2-0.1,0.4-0.2,0.6-0.3c0.2-0.1,0.4-0.1,0.7-0.3c0.1,0,0.2-0.1,0.4-0.2l2.6-1.8c0.3-0.2,0.6-0.3,0.9-0.5
		c0.3-0.1,0.6-0.3,0.9-0.6c0.8-0.6,1.6-1.2,2.2-1.9c0.7-0.7,1.3-1.4,1.8-2.2l0.4-0.4c0.4-0.5,0.8-0.9,1.2-1.4
		c0.4-0.5,0.7-0.9,1.1-1.4c0.5-0.6,0.9-1.2,1.4-1.8c0.5-0.6,0.9-1.2,1.4-1.8c0.1-0.1,0.2-0.3,0.2-0.4c0.1-0.1,0.1-0.3,0.1-0.4
		c0-0.2,0.1-0.3,0.2-0.4c0.9-1.4,1.6-2.8,2.3-4.3c0.6-1.5,1.1-3,1.3-4.8c0.1-0.6,0.2-1.2,0.1-1.8c0-0.6,0-1.2,0-1.8
		c0-0.1,0-0.3-0.1-0.4c-0.1-0.2-0.2-0.3-0.3-0.3c-0.3,0-0.6,0.1-0.8,0.4c-0.1,0.1-0.4,0.4-0.7,0.7c-0.4,0.4-0.6,0.6-0.7,0.6
		c-0.2,0.2-0.5,0.4-0.7,0.6c-0.2,0.2-0.4,0.4-0.7,0.5c-0.4,0.2-0.7,0.5-1,0.8c-0.3,0.3-0.6,0.6-1.1,0.8c-0.5,0.3-0.9,0.7-1.2,1.1
		c-0.4,0.5-0.7,0.9-1.1,1.3c-0.2,0.2-0.4,0.3-0.6,0.5c-0.2,0.1-0.5,0.3-0.7,0.4c-0.2,0.2-0.4,0.4-0.4,0.5c-0.3,0.4-0.5,0.8-0.7,1.2
		c-0.2,0.4-0.5,0.8-0.7,1.2c-0.3,0.4-0.6,0.8-1,1.2c-0.4,0.4-0.7,0.7-1.1,1.1c-0.5,0.5-0.9,1.1-1.3,1.7c-0.4,0.6-1,1-1.8,1.2
		c0,0.2,0,0.3,0,0.5C325.5,69.1,325.5,69.2,325.5,69.3z M321.1,61.3c-0.6-0.1-1.1,0.3-1.4,1.1c0.2,0.1,0.5,0.3,0.9,0.5
		c-0.1-0.1-0.1-0.2-0.1-0.4c0-0.1-0.1-0.3-0.1-0.4c0.1,0,0.2,0,0.4,0c0.1,0,0.2,0,0.4,0c0.1,0,0.3-0.1,0.5-0.4
		c-0.1-0.1-0.2-0.1-0.2-0.2C321.3,61.4,321.2,61.3,321.1,61.3z M321.8,60c-0.1,0.1-0.2,0.2-0.4,0.3c-0.1,0.1-0.3,0.3-0.4,0.4
		c0.2,0.2,0.4,0.4,0.8,0.6c0,0.1,0.1,0.2,0.2,0.2c0.1-0.2,0.2-0.3,0.3-0.5c0.1-0.1,0.2-0.3,0.3-0.6c-0.1-0.1-0.1-0.1-0.3-0.2
		c-0.1-0.1-0.2-0.1-0.3-0.2C321.9,60,321.8,60,321.8,60z M323.4,58.7c-0.1,0.1-0.2,0.3-0.4,0.4c-0.1,0.2-0.3,0.3-0.4,0.4
		c0,0.1,0,0.2,0.1,0.3c0.1-0.1,0.2-0.1,0.4-0.1c0.1,0,0.2-0.1,0.3-0.2c0.1-0.1,0.2-0.2,0.2-0.4c0-0.1,0-0.3,0.1-0.4
		C323.5,58.7,323.4,58.7,323.4,58.7z M330.1,78.5c0.1-0.1,0.2-0.3,0.2-0.6c0-0.3,0.1-0.5,0.1-0.7c-0.5,0-0.8,0.2-1,0.7
		c-0.1,0.2-0.3,0.4-0.4,0.5c-0.2,0.2-0.3,0.4-0.4,0.5l-1.1,0.8l0.3,0.3c0.4-0.2,0.8-0.5,1.2-0.7C329.4,79,329.8,78.8,330.1,78.5z
		 M331.4,77c0.1,0,0.2-0.1,0.4-0.4c0.1-0.1,0.1-0.1,0-0.2c-0.1-0.1-0.1-0.1-0.2-0.1c-0.2-0.1-0.4-0.1-0.6,0.1
		c-0.1,0.1-0.2,0.2-0.2,0.3c0,0.1-0.1,0.2-0.2,0.3C330.9,77.1,331.2,77,331.4,77z M360.9,66v0.4c-0.2,0.3-0.4,0.6-0.5,1
		c-0.2,0.4-0.4,0.6-0.7,0.7c-0.4,0.2-0.6,0.4-0.7,0.6c-0.1,0.2-0.3,0.5-0.6,0.8c-0.3,0.4-0.6,0.7-0.9,1.1c-0.3,0.4-0.6,0.8-0.9,1.2
		c-0.1,0.2-0.2,0.5-0.3,0.7c-0.1,0.3-0.2,0.5-0.3,0.7c-0.3,0.5-0.6,0.9-1,1.2c-0.4,0.4-0.7,0.8-1,1.2c-0.3,0.3-0.6,0.6-0.8,0.8
		s-0.5,0.5-0.7,0.9c-0.1,0.3-0.3,0.6-0.6,0.8c-0.3,0.2-0.6,0.5-0.8,0.8l-0.3,0.3c-0.1,0.5-0.4,0.9-0.7,1.1c-0.4,0.2-0.8,0.4-1.2,0.7
		c-0.4-0.4-0.5-0.6-0.5-0.7c0-0.1,0.2-0.3,0.6-0.6c0.1-0.1,0.2-0.3,0.4-0.4c0.1-0.2,0.3-0.3,0.4-0.4c0.2-0.2,0.4-0.4,0.6-0.5
		c0.2-0.2,0.4-0.4,0.7-0.5c0.3-0.4,0.6-0.7,1-1c0.4-0.3,0.7-0.7,1-1c0.3-0.4,0.6-0.7,0.8-1c0.3-0.3,0.5-0.7,0.8-1
		c0.3-0.5,0.6-0.9,0.8-1.4c0.2-0.4,0.5-0.9,0.8-1.3c0.2-0.3,0.5-0.6,0.8-0.8c0.3-0.2,0.6-0.5,0.9-0.8l-0.3-0.2
		c0.1-0.1,0.1-0.3,0.1-0.5c0-0.2,0.1-0.3,0.1-0.3c0.6,0,0.9-0.2,0.9-0.6c-0.1-0.4,0-0.7,0.1-1c0.1-0.2,0.2-0.4,0.2-0.6
		c0.1,0,0.1,0,0.1,0c0,0,0.1,0,0.1,0c-0.1-0.1-0.2-0.2-0.3-0.3c-0.1-0.1-0.1-0.2-0.3-0.3c-1,1.4-2,2.8-3,4.1c-1,1.3-2.1,2.6-3.3,3.8
		l-0.2-0.2c0.1-0.1,0.2-0.2,0.2-0.4c0-0.1,0.1-0.2,0.2-0.4c0.6-0.8,1.3-1.6,1.9-2.4s1.2-1.6,1.9-2.3c0.5-0.7,0.9-1.4,1.2-2
		c0.1-0.3,0.3-0.6,0.5-0.8c0.2-0.3,0.4-0.5,0.6-0.7c0.2-0.2,0.5-0.5,0.7-0.7l0.5,0.5c0.1,0.1,0.3,0.2,0.4,0.4
		c0.2,0.1,0.3,0.3,0.4,0.4c0,0.1,0,0.2,0,0.4C360.9,65.7,360.9,65.9,360.9,66z"/>
	<path class="st0" d="M425.3,24.6c-0.3,0.6-0.5,1.3-0.5,2c0,0.7-0.3,1.3-0.9,1.8c-0.4,0.4-0.8,0.9-1.1,1.3c-0.3,0.5-0.7,0.9-1,1.4
		c-0.2,0.4-0.5,0.7-0.7,1c-0.2,0.3-0.5,0.6-0.7,1c-0.3,0.4-0.5,0.7-0.7,1.1s-0.4,0.7-0.7,1.1l-1.1,1.3c0,0.1,0,0.1-0.1,0.1
		c-0.1,0.5-0.2,1-0.4,1.5s-0.4,0.8-0.7,1l-0.8,0.8l-1.3,1.8c-0.1,0.1-0.2,0.3-0.4,0.5c-0.1,0.1-0.1,0.2-0.1,0.2c0,0-0.1,0.1-0.1,0.2
		c-0.5,0.7-1,1.3-1.6,1.8v0.2h-0.3c-0.1,0.1-0.2,0.1-0.4,0.2c-0.1,0.1-0.2,0.1-0.4,0.2c-0.2,0-0.4,0.1-0.5,0.4
		c-0.2,1.1-0.7,2.1-1.7,3.1c-0.2,0.2-0.4,0.5-0.6,0.7c-0.1,0.2-0.2,0.6,0,1c0,0.1-0.1,0.3-0.2,0.5c-0.1,0.2-0.3,0.4-0.5,0.7
		c-0.2,0.2-0.4,0.4-0.7,0.6c-0.2,0.2-0.4,0.3-0.4,0.4c-0.1,0.1-0.2,0.3-0.3,0.5c-0.1,0.2-0.2,0.4-0.3,0.6c0.4,0.2,0.5,0.5,0.3,0.7
		c-0.1,0.2-0.3,0.4-0.4,0.6c-0.2,0.4-0.4,0.7-0.7,1c-0.3,0.3-0.5,0.7-0.8,1c-0.1-0.2-0.2-0.5-0.2-0.8c0-0.3-0.3-0.3-0.9,0
		c0.1,0.3,0.2,0.6,0.4,0.8c0.1,0.3,0.3,0.5,0.5,0.8c-0.2,0-0.3,0-0.5-0.1c-0.1-0.1-0.3-0.1-0.4,0c-0.1,0.1-0.2,0.2-0.4,0.3
		c-0.1,0.1-0.2,0.2-0.1,0.3c0,0.4,0,0.6-0.1,0.8c-0.1,0.2-0.3,0.4-0.7,0.5c-0.2,0.1-0.4,0.3-0.5,0.7c-0.1,0.3-0.2,0.6-0.4,0.9
		c-0.2,0.3-0.3,0.6-0.5,0.8c-0.1,0.3-0.3,0.5-0.6,0.8h0.8c-0.3,0.4-0.6,0.8-0.9,1.2c-0.3,0.4-0.6,0.8-0.9,1.2
		c-0.1,0.1-0.2,0.2-0.2,0.3c0.2,0.8-0.2,1.4-1.1,1.7c0.5,0.4,0.7,0.6,0.8,0.6c-0.4,0.5-0.8,1.1-1.2,1.6c-0.4,0.5-0.7,1.1-1.1,1.6
		c-0.2,0.2-0.3,0.6-0.4,1.1c-0.1,0.7-0.4,1.3-0.7,1.9c-0.4,0.6-0.5,1.3-0.5,2c0,0.2-0.1,0.5-0.4,0.7c-0.2,0.2-0.4,0.5-0.6,0.7
		c0.2,0.2,0.3,0.3,0.4,0.4c-0.3,0.5-0.6,1-1.1,1.5c-0.4,0.5-0.4,1.1,0.2,1.9c-0.9,0.6-1.5,1.2-1.8,2c-0.4,0.7-0.4,1.4-0.1,2
		c-0.3,0.8-0.5,1.3-0.5,1.8c0,0.1,0.1,0.1,0.4,0.2c0.2,0.1,0.4,0.1,0.6,0.3c-0.3,0.1-0.6,0.2-0.8,0.4c-0.3,0.1-0.6,0.3-1.1,0.4
		c0.2,0.1,0.4,0.2,0.6,0.3c0.2,0.1,0.3,0.1,0.4,0.2c-0.2,0.5-0.3,0.9-0.5,1.3c-0.1,0.4-0.3,0.8-0.4,1.2c0.1,0,0.1,0,0.1,0.1
		c-0.1,0.2-0.1,0.4-0.1,0.6c0,0.2-0.1,0.4-0.2,0.6c-0.1,0.2-0.2,0.5-0.4,0.7c-0.1,0.2-0.2,0.4-0.2,0.7c-0.1,0.9,0.3,1.4,1.1,1.5
		c-0.3,0.1-0.6,0.2-0.9,0.4c-0.3,0.1-0.6,0.3-0.9,0.4v0.3h1.2c-0.2,0.8-0.4,1.5-0.5,2.2c-0.2,0.7-0.4,1.5-0.6,2.3
		c0.1,0.1,0.2,0.1,0.4,0.1c0.1,0,0.2,0.1,0.4,0.2c-0.5,0.3-0.7,0.5-0.7,0.6c0,0.1,0.3,0.5,0.9,1.1c-0.4,0.1-0.8,0.1-1.1,0.2
		c-0.3,0.1-0.7,0.1-1.1,0.2c0.1,0.1,0.1,0.2,0.1,0.4c0.1-0.1,0.3-0.1,0.4,0c0.2,0,0.3,0,0.4,0c0.6-0.2,0.9,0,0.7,0.6
		c-0.2,0.8-0.2,1.7,0,2.6c0.2,0.9,0.2,1.7,0,2.6c-0.1,0.3,0,0.6,0,1c0.1,0.4,0.2,0.7,0.2,1c0,0.1,0,0.1,0.1,0.2
		c0.1,0.1,0.1,0.1,0,0.2c-0.2,0.4-0.3,0.6-0.1,0.8c0.2,0.2,0.4,0.4,0.7,0.5c0.2,0.1,0.4,0.3,0.5,0.5c0.1,0.2,0.2,0.4,0.4,0.6
		c-0.2,0.1-0.3,0.2-0.5,0.4c-0.1,0.1-0.3,0.2-0.5,0.2c-0.3,0-0.6,0-1-0.1c-0.4-0.1-0.6-0.2-0.9-0.4c-0.6-0.5-1.3-1.1-2-1.6
		c-0.7-0.6-1.2-1.2-1.7-2.1c-1.1-1.8-1.8-3.8-2.1-5.8c-0.2-1.4-0.4-2.8-0.4-4.2c0-1.4,0.1-2.8,0.2-4.2c0.1-1.2,0.2-2.5,0.3-3.7
		c0.1-1.2,0.2-2.5,0.4-3.7c0.2-1.5,0.5-3,0.7-4.4c0.2-1.4,0.5-2.9,0.9-4.4c0.4-1.5,0.8-3,1.2-4.5c0.4-1.5,0.9-3,1.4-4.5
		c0.3-0.8,0.6-1.6,0.8-2.4c0.3-0.8,0.5-1.6,0.8-2.4c0.1-0.1,0.1-0.3,0-0.4c-0.1-0.2-0.1-0.3-0.2-0.4c-0.1,0-0.1,0-0.1,0
		c0,0-0.1,0-0.2,0c0.1,0.5-0.1,0.9-0.5,1.1c-0.4,0.2-0.7,0.5-1,0.7c-0.5,0.5-0.9,0.9-1.4,1.3c-0.5,0.4-0.9,0.9-1.4,1.3
		c-0.2,0.2-0.5,0.4-0.7,0.6c-0.2,0.2-0.4,0.4-0.7,0.6c-0.5,0.5-0.9,0.9-1.4,1.4c-0.5,0.4-0.9,0.9-1.4,1.4c-0.8,0.9-1.7,1.8-2.6,2.7
		c-0.9,0.9-1.7,1.8-2.4,2.9c-0.1,0.1-0.1,0.2-0.3,0.4c-0.1,0.1-0.2,0.2-0.4,0.4c-0.1,0.1-0.2,0.2-0.4,0.4c-0.1,0.1-0.2,0.2-0.2,0.4
		c0,0.7-0.2,1.2-0.7,1.6c-0.4,0.4-0.8,0.8-1.2,1.3c-0.5,0.6-1,1.2-1.5,1.8c-0.5,0.6-1,1.2-1.5,1.8l-5.3,6.9
		c-0.2,0.2-0.4,0.5-0.5,0.7c-0.2,0.2-0.4,0.5-0.5,0.8c-0.7,1.1-1.4,2.2-2.2,3.3c-0.8,1.1-1.6,2-2.6,2.8c-0.6,0.5-1,0.7-1.4,0.7
		c-0.3,0-0.8-0.2-1.5-0.6c-0.2-0.2-0.5-0.3-0.7-0.4c-0.2-0.1-0.5-0.1-0.9,0.1c-0.1,0.1-0.3,0.1-0.6,0c-0.3-0.1-0.5-0.3-0.7-0.4
		c-2.1-1.4-3.3-3.2-3.7-5.4c-0.1-0.6-0.2-1.2-0.2-1.7s0-1.1,0-1.7c0.1-0.8,0.1-1.5,0.1-2.2c0-0.7,0.1-1.5,0.3-2.2
		c0.1-0.8,0.3-1.6,0.5-2.4c0.2-0.8,0.5-1.6,0.7-2.4c0.4-1.3,0.8-2.5,1.3-3.6c0.4-0.9,0.8-1.8,1.2-2.7c0.4-0.9,0.8-1.8,1.3-2.6
		c0.6-1.2,1.2-2.3,1.8-3.5c0.6-1.2,1.2-2.3,1.8-3.5c0.4-0.6,0.7-1.1,1.1-1.7c0.4-0.5,0.7-1.1,1.1-1.7c0.4-0.5,0.7-1.1,1-1.6
		c0.3-0.5,0.7-1.1,1-1.6c0.6-0.9,1.3-1.8,1.9-2.7c0.6-0.9,1.2-1.8,1.9-2.6c0.9-1.1,1.9-2.2,2.8-3.3c0.9-1.1,1.9-2.1,2.9-3.1
		c1-1,2-2,3.1-2.9c1.1-0.9,2.3-1.7,3.6-2.2c0.5-0.2,1-0.4,1.5-0.5c0.5-0.1,1-0.2,1.5-0.2c0.5,0,0.9,0.2,1.2,0.7
		c0.3,0.3,0.6,0.6,0.8,0.9c0.3,0.3,0.6,0.4,1.1,0.4c0.1,0,0.2,0,0.2,0.1c1,0.5,2,1.1,3,1.7c1,0.6,1.8,1.4,2.5,2.5V49
		c0.7,0.8,1.4,1.7,2.1,2.6s1.4,1.8,2.2,2.6c0.1-0.1,0.3-0.2,0.5-0.4c0.3-0.6,0.6-1.2,0.9-1.8c0.3-0.6,0.6-1.2,0.9-1.8
		c0.2-0.5,0.5-0.9,0.7-1.4c0.2-0.4,0.4-0.9,0.7-1.4c0.4-0.7,0.8-1.4,1.2-2.2c0.4-0.7,0.8-1.5,1.2-2.2h-0.2c0.3-0.5,0.6-0.9,0.8-1.3
		c0.3-0.4,0.5-0.8,0.8-1.3c0.2-0.4,0.4-0.8,0.6-1.1c0.2-0.4,0.4-0.7,0.7-1.1c0.5-0.8,1-1.6,1.5-2.4c0.5-0.8,1-1.5,1.5-2.3
		c1.2-2,2.4-4,3.6-5.9c1.2-1.9,2.4-3.9,3.6-5.8c0.5-0.8,0.9-1.5,1.4-2.3c0.4-0.8,0.9-1.5,1.4-2.3c0.2-0.4,0.6-0.7,1.1-0.7
		c0.5-0.1,0.9,0.1,1.4,0.6c0.3,0.3,0.6,0.4,0.8,0.4c0.2,0,0.5-0.1,0.7-0.2l1.3,0.8l-0.2,0.7c0.8-0.2,1.5-0.1,2,0.4
		c0.5,0.5,1,1,1.5,1.5C424.6,21.6,425.2,23,425.3,24.6L425.3,24.6z M350.8,84.5c1-0.7,1-1.3,0.1-1.8c-0.1,0.3-0.2,0.6-0.2,0.9
		c0,0.3-0.1,0.6-0.2,0.9C350.5,84.4,350.6,84.5,350.8,84.5z M352.2,83.4c0.1,0.1,0.1,0.1,0.1,0.1c0,0,0,0.1,0.1,0.1
		c0.2-0.1,0.4-0.1,0.7,0c0.3,0,0.4,0,0.5-0.1c0.3-0.5,0.5-1,0.7-1.5c0.2-0.5,0.4-1.1,0.5-1.6l-0.1-0.2l-0.1-0.1
		c0.2-0.1,0.4-0.2,0.6-0.4c0.2-0.1,0.3-0.3,0.3-0.4c-0.1-0.5-0.1-0.8,0.1-1c0.2-0.2,0.5-0.3,0.7-0.4c0.1-0.2,0.1-0.5,0-0.7
		c0-0.3,0-0.4,0.1-0.4c0.6-0.1,0.9-0.4,0.9-0.9c0-0.5,0.2-0.8,0.7-1.1c-0.7-0.5-1.2-0.7-1.4-0.6c-0.2,0.1-0.4,0.3-0.5,0.8
		c-0.2,0.9-0.5,1.7-0.9,2.4c-0.2,0.5-0.5,0.9-0.8,1.3c-0.3,0.4-0.6,0.8-0.8,1.3c-0.1,0.2-0.2,0.4-0.1,0.6c0,0.2,0,0.4,0,0.6
		L352.2,83.4z M380.7,67c2.3-2.3,4.8-4.6,7.4-6.9c0.6-0.5,1.2-0.9,1.8-1.4c0.6-0.4,1.2-0.9,1.9-1.4c0.3-0.2,0.5-0.4,0.6-0.6
		c0.1-0.2,0-0.5-0.4-0.8c-0.3-0.3-0.5-0.6-0.7-0.8c-0.2-0.2-0.5-0.5-0.7-0.8c-0.5-0.6-1.1-1.1-1.6-1.7s-1.1-1.1-1.7-1.7
		c-0.1,0.3-0.2,0.5-0.4,0.7c-0.1,0.2-0.2,0.4-0.4,0.7c-0.2,0.3-0.4,0.5-0.6,0.5c-0.6,0.3-1.2,0.5-1.8,0.7c-0.6,0.2-1.2,0.4-1.8,0.7
		c-0.6,0.4-1.3,0.7-2,1.1c-0.7,0.4-1.3,0.8-1.9,1.2c-0.9,0.8-1.7,1.7-2.6,2.6c-0.9,0.9-1.7,1.8-2.5,2.6c-0.3,0.3-0.6,0.6-0.8,0.8
		c-0.2,0.2-0.5,0.5-0.7,0.8c-0.5,0.5-0.9,1.1-1.4,1.6c-0.4,0.6-0.9,1.1-1.4,1.7c-0.7,1-1.4,2-2,2.9c-0.6,0.9-1.3,1.9-1.9,2.8
		c-0.4,0.5-0.6,1-0.9,1.5c-0.2,0.5-0.6,0.9-1.1,1.1c-0.6,0.4-1,0.8-1.1,1.3c-0.2,0.5-0.4,1-0.5,1.5c-0.3,0.6-0.6,1.1-0.9,1.5
		c-0.3,0.4-0.7,0.8-1.3,1.1c-0.1,0.1-0.2,0.1-0.2,0.3c0,0.1,0,0.2-0.1,0.4c-0.2,0.6-0.4,1.3-0.4,1.9c-0.1,0.6-0.4,1.1-1.1,1.3
		c-0.2,0.4-0.3,0.8-0.4,1.1c-0.1,0.3-0.2,0.6-0.4,0.9c-0.1,0.1-0.1,0.2-0.2,0.3c-0.1,0.1-0.1,0.1,0,0.3c0,1.2-0.4,2-1.3,2.5
		c-0.1,0.5-0.2,0.9-0.3,1.3c-0.1,0.4-0.2,0.8-0.3,1.2c-0.1,0.1-0.2,0.2-0.3,0.4c-0.1,0.1-0.3,0.3-0.4,0.4c-0.1,0.1-0.2,0.2-0.3,0.4
		c-0.1,0.1-0.1,0.2,0,0.4c0.2,0.5,0.2,0.9,0,1.2c-0.2,0.3-0.4,0.6-0.6,0.9c-0.1,0.1-0.1,0.2-0.3,0.3c-0.1,0.1-0.1,0.1-0.1,0.3
		c0,0.4,0,0.7,0,1.1c0,0.4,0.1,0.7,0.1,1.1c0,0.2,0.1,0.3,0.4,0.4c0.1,0.1,0.3,0.1,0.4-0.1c0.3-0.3,0.6-0.6,0.8-0.8
		c0.3-0.3,0.5-0.5,0.7-0.8c1.2-1.6,2.4-3.2,3.7-4.8c1.2-1.6,2.4-3.3,3.7-4.8c1.5-1.9,3-3.7,4.6-5.5c1.5-1.8,3-3.7,4.6-5.5
		c0.5-0.6,1.1-1.3,1.7-1.8c0.6-0.6,1.2-1.2,1.8-1.8c0.5-0.5,0.9-0.9,1.3-1.4c0.4-0.4,0.8-0.9,1.3-1.3c0.4-0.4,0.7-0.8,1.1-1.1
		c0.4-0.3,0.8-0.7,1.2-1c0.1-0.1,0.2-0.1,0.2-0.3C380.5,67.2,380.6,67.1,380.7,67z M356.3,72.1c-0.3,0.1-0.5,0.1-0.7,0.2
		c-0.2,0.1-0.4,0.1-0.7,0.2c0,0.1,0,0.1,0,0.2c0,0.1,0,0.1,0,0.2c0.2,0,0.4,0,0.6,0c0.2,0,0.4,0,0.6,0c0.1,0,0.3-0.1,0.4-0.4
		c0-0.1,0-0.1-0.1-0.3C356.4,72.1,356.3,72.1,356.3,72.1z M357.7,69.9c-0.3,0.1-0.6,0.3-0.9,0.4c-0.3,0.2-0.6,0.3-0.9,0.4
		c0,0.1,0,0.2,0.1,0.4c0.2,0.1,0.4,0.1,0.6,0.1c0.2,0,0.4,0.1,0.6,0.1l0.2-0.7c0.3,0,0.5-0.1,0.6-0.2c0.2-0.2,0.2-0.3,0.2-0.4
		c-0.1-0.1-0.1-0.1-0.2-0.2C357.8,69.8,357.7,69.8,357.7,69.9z M383.9,65.6c0.1-0.1,0.1-0.1,0.1-0.2c0-0.1,0-0.2,0.1-0.3
		c-0.3-0.1-0.5-0.1-0.6-0.1c-0.2,0.1-0.4,0.3-0.6,0.4c-0.1,0.1-0.3,0.3-0.5,0.4c0,0.1,0,0.2,0.1,0.3c0.2-0.1,0.5-0.2,0.7-0.2
		C383.4,65.8,383.7,65.8,383.9,65.6z M388.3,61.8c0.1-0.1,0.3-0.2,0.5-0.2c0.2,0,0.4-0.1,0.7-0.2c-0.6-0.3-1.2-0.3-1.9,0
		c-0.7,0.3-1.3,0.9-1.9,1.8c0.6-0.2,1-0.3,1-0.3c0.1-0.5,0.4-0.7,0.7-0.7C387.7,62.1,388,62,388.3,61.8z M387.2,87.6
		c0.1-0.2,0.1-0.5,0-0.8c0-0.1-0.2-0.3-0.5-0.6c-0.1,0.3-0.1,0.6-0.1,0.8c0,0.2,0,0.4,0,0.6c0,0.2-0.1,0.5-0.2,0.7
		c-0.1,0.2,0,0.4,0.3,0.6c0.1-0.2,0.2-0.4,0.3-0.6C387.1,88,387.2,87.8,387.2,87.6z M389.5,78.1c-0.4-0.5-0.7-0.8-1-1.1
		c-0.2-0.2-0.5-0.4-0.7-0.4c-0.4,0.2-0.6,0.5-0.6,0.7c-0.1,0.1,0,0.3,0,0.4s0.2,0.3,0.3,0.4c0.3,0.1,0.6,0.2,0.9,0.2
		c0.3,0,0.7,0,1,0.1V78.1z M387.9,85.6c0.1-0.4,0.2-0.7,0.2-1c0-0.2,0.1-0.5,0.1-0.8c-0.2-0.1-0.4-0.2-0.5-0.2
		c-0.1,0.2-0.1,0.5-0.2,0.7c-0.1,0.2-0.1,0.4-0.2,0.7c0,0.1,0.1,0.2,0.2,0.3C387.6,85.4,387.7,85.5,387.9,85.6z M394.5,63.9
		c0.2-0.2,0.4-0.5,0.6-0.7c0.2-0.3,0.4-0.5,0.7-0.8c-0.5-0.2-0.9-0.3-1-0.4c0.1-0.3,0.2-0.6,0.4-0.9c0.1-0.3,0.2-0.6,0.4-1
		c-0.4,0.2-0.8,0.6-1.2,1.1c-0.5,0.6-0.9,1.2-1.3,1.9c-0.4,0.7-0.7,1.4-0.9,2.1c-0.2,0.7-0.2,1.2-0.1,1.5c-0.8,0.3-1,0.9-0.6,1.9
		c-0.6,0.2-0.9,0.3-1.1,0.4c-0.1,0.1-0.3,0.4-0.4,1c-0.2,0.7-0.5,1.4-0.7,2.1c-0.2,0.7-0.5,1.4-0.7,2.2c-0.1,0.1-0.1,0.2,0,0.4
		c0.1,0.1,0.1,0.3,0.2,0.4c0,0.1-0.1,0.3-0.4,0.7c0.2,0.1,0.4,0.1,0.6,0.2c0.2,0.1,0.4,0.2,0.6,0.2c0.1,0,0.2-0.1,0.4-0.2
		c0.1-0.1,0.2-0.2,0.2-0.4c-0.1-0.5-0.1-0.8,0.2-1c0.1-0.1,0.2-0.3,0.3-0.5c0.1-0.2,0.1-0.5,0.3-0.7c-0.2,0-0.4,0-0.6,0
		c-0.2,0-0.3,0-0.4,0c0.1-0.2,0.1-0.4,0.2-0.6c0.1-0.2,0.1-0.4,0.2-0.7c0.2-0.1,0.6-0.3,1.1-0.5c-0.1-0.2-0.2-0.3-0.3-0.5
		c-0.1-0.1-0.1-0.3-0.2-0.4l0.7-0.7l-0.5-0.5c0.5-0.2,1-0.4,1.3-0.5c0-0.5-0.1-1-0.2-1.6c0.4,0.1,0.8,0.2,1.1,0.3
		c-0.1-0.4-0.2-0.6-0.4-0.9c0.1-0.1,0.3-0.2,0.4-0.4c0.2-0.1,0.3-0.3,0.4-0.4c0.1-0.1,0.1-0.1,0.1-0.2c0-0.1,0-0.1,0.1-0.3
		c0-0.1,0-0.2,0.1-0.3c-0.4-0.3-0.4-0.5-0.3-0.6s0.3-0.2,0.4-0.3c0.1-0.1,0.2-0.2,0.4-0.2c0.1,0,0.3-0.1,0.4-0.2
		C394.5,64,394.4,63.9,394.5,63.9z M390.2,59.3c-0.3,0.2-0.6,0.4-0.9,0.5c-0.3,0.2-0.6,0.4-0.9,0.5c0.5,0.1,0.8,0.1,1,0
		C389.7,60.3,389.9,59.9,390.2,59.3z M392.5,75.5c0.3-0.1,0.6-0.2,0.8-0.3c0.3-0.1,0.5-0.2,0.8-0.3c-0.3-0.4-0.6-0.5-0.8-0.4
		C393.2,74.5,392.9,74.8,392.5,75.5z M401.1,62.5c0.1,0.1,0.1,0.1,0.3,0.1c-0.1,0-0.2,0-0.4,0.1C401.1,62.6,401.1,62.5,401.1,62.5z"
		/>
</g>
</svg>
