<?xml version="1.0" encoding="utf-8"?>
<!-- Generator: Adobe Illustrator 25.0.0, SVG Export Plug-In . SVG Version: 6.00 Build 0)  -->
<svg version="1.1" id="Layer_1" xmlns="http://www.w3.org/2000/svg" xmlns:xlink="http://www.w3.org/1999/xlink" x="0px" y="0px"
	 viewBox="0 0 1309.3 498.3" style="enable-background:new 0 0 1309.3 498.3;" xml:space="preserve">
<style type="text/css">
	.st0{fill:#FFFFFF;}
</style>
<g>
	<g>
		<g>
			<path class="st0" d="M200.3,70.2c0.8,2.3,1.2,4.6,1.1,6.8s-0.3,4.4-0.5,6.7c0,0.3,0,0.6-0.1,0.6s-0.1,0.3-0.1,0.6
				c-0.2,2.4-0.3,4.7-0.4,6.8c0,2.1-0.2,4.3-0.4,6.5c-0.2,1.6-0.6,3.1-1,4.7s-0.8,3.1-1.2,4.7c-0.1,1.4-0.4,2.8-1,4.4
				c-0.3,2.8-1.4,4.6-3.2,5.6c-1.3,0.6-2.4,1.8-3.1,3.8c-0.3,1.4-0.7,2.6-1.4,3.5s-1.5,1.8-2.3,2.3c-1.3,0.9-2.4,2.1-3.4,3.4
				c-0.9,1.3-2,2.6-3.1,3.9c-1.6,2.1-3.4,3.4-5.6,3.7c-0.6,1.1-1.2,2.1-1.9,3.1c-0.6,1-1.6,1.2-3,0.6c-0.9,1.2-1.9,1.7-3,1.3
				c-1-0.4-2.1-0.3-3.1,0.1c0.4-2.4,1.1-4.4,2.2-5.9c1.1-1.5,2.2-3.3,3.2-5.4l-3.3,0.2c0.6-0.7,1.2-1.4,1.7-2.1
				c0.5-0.7,0.9-1.2,1.4-1.6c0.8-0.4,1.4-0.9,1.8-1.6s0.8-1.4,1.3-2.1c0.6-1.1,1.2-2,1.9-2.8c0.6-0.8,1.1-1.7,1.4-2.8
				c1.2-2.1,2.4-4.2,3.4-6.2c1.1-2,2.1-4.1,3.2-6.2c0.3-0.9,0.5-1.8,0.7-2.7c0.2-0.9,0.4-1.8,0.7-2.7c0.1-0.3,0.1-0.8-0.2-1.3
				s-0.4-1-0.5-1.5c0.1-0.9,0.2-1.6,0.2-2.3c0-0.7,0.2-1.3,0.5-1.8c0.4-3.8-0.5-5.2-2.8-4.2c-1,0.4-2,0.8-3.1,1.3
				c-1.1,0.5-2,0.9-2.9,1.3c-1.3,0.6-2.8,1.3-4.3,2.1c-1.6,0.8-3.3,1.1-5.2,1.1c-0.4-0.2-0.6-0.1-0.9,0.2s-0.4,0.6-0.6,0.9
				c-0.8,0.7-1.5,1.3-2.1,1.8c-0.6,0.5-1.3,0.9-2.1,1.3c-1,0.4-2,0.9-3.1,1.5s-2,1.2-2.8,2c-1,0.7-1.9,1.4-2.8,2.1s-1.7,1.4-2.3,2.3
				c-0.6,0.9-1.4,1.5-2.4,1.9c-1,0.4-2,0.8-3,1.2c-2.6,1.2-4.8,2.8-6.3,5c-0.3,0.7-0.8,1.2-1.6,1.5s-1.3,0.8-1.6,1.5
				c-1,1.1-2.1,1.8-3.3,2.1c-1.3,0.3-2.2,1.3-2.8,2.8c0-0.2-0.2,0-0.7,0.6c-0.8,0.4-1.7,0.9-2.5,1.4c-0.8,0.6-1.6,1.1-2.4,1.7l0.1,1
				c-0.5,0.9-0.8,1.4-0.9,1.6c-0.8,0.6-1.6,1-2.5,1.4c-0.8,0.4-1.7,0.9-2.5,1.4c-2.3,1.7-4.7,3.4-7.3,5.1l-0.2,0.3
				c-0.7,2.1-1.9,3.7-3.4,4.9c-1.5,1.2-3,2.5-4.5,4c-1.3,1.3-2.4,2.7-3.3,4.3s-1.9,2.9-3.1,3.8c-0.9,1.2-1.9,2.3-2.9,3.2
				s-2,1.9-3.1,3c-0.3,0.4-0.6,0.8-0.9,1.3c-0.3,0.5-0.6,1.1-0.9,1.8c-0.3,0.9-0.7,1.6-1.2,2.1c-0.9,1.4-1.6,2.4-2.1,2.9
				c-1.3,0.8-2.2,2.2-2.6,4.2c-0.6,1.9-1.1,3.7-1.6,5.3c-0.5,1.6-0.9,3.2-1.4,4.8c-0.9,2.4-0.4,4.2,1.3,5.3c0.7,0.3,1.3,0.6,2,0.8
				s1.2,0.5,1.7,0.8c0.3-0.4,0.6-0.8,0.8-1.2s0.5-0.9,0.8-1.4c1.5,1.8,2.9,2.7,4.4,2.7c1.4,0,3-0.4,4.7-1.2c0.3-0.4,0.7-0.6,1-0.6
				s0.7-0.1,1-0.3c1.7-0.8,3.3-1.6,5-2.4s3.4-1.7,5.2-2.6c1.5-0.6,3-1.2,4.5-1.7c1.5-0.5,3.1-1,4.8-1.4c0.5,0,0.8-0.1,1-0.3
				c1.3-1.1,2.6-1.9,3.8-2.3s2.8,0,4.6,1.2l-0.2-2.5c1-0.4,2.1-0.8,3.2-1.1c1.2-0.3,2.4-0.7,3.8-1.1c0.4,0.3,0.7,0.7,1,1.1
				c0.3,0.4,0.6,0.9,1,1.3c0.6-0.4,1.5-0.8,2.5-1.2c1.5-0.8,1.4-1.7-0.2-2.8c0.6-0.4,1.2-0.7,1.6-0.9c0.4-0.2,0.9,0.2,1.5,1.2
				c0.2,0.8,0.9,1.1,2.1,0.6c1.5-0.4,3-0.9,4.5-1.3c1.5-0.4,3.1-0.8,4.8-1.1c2.4-0.3,4.6-0.5,6.9-0.4c1.4-0.1,2.7-0.2,3.9-0.2
				c1.3-0.1,2.6-0.6,3.9-1.5c0.2-0.2,0.4-0.2,0.6-0.2c0.3,0.1,0.5,0.1,0.6,0.1c1.7,0.2,3.5,0.3,5.4,0.2c1.9-0.1,3.7-0.1,5.6,0.2
				c0.7,0,1.4,0,2.1,0.1s1.5,0.2,2.3,0.4s1.6,0.1,2.2-0.1c0.6-0.2,1-0.7,1.3-1.6c1.1-1.9,2.2-2.1,3.6-0.5c1.3,1.3,2.6,2.6,3.9,4
				s2.5,2.8,3.5,4.2c1.3,2,2.6,3.8,3.8,5.5c1.2,1.7,2.2,3.7,3.1,6.1c0.6,2,1.3,4.1,2,6.1c0.7,2.1,1.5,4.2,2.3,6.4
				c0.4,0.7,0.6,1.2,0.6,1.8c-1.1,1.4-1.3,2.8-0.6,4.1c0.7,1.3,1.1,2.7,1.1,4c0.1,1,0.2,2.1,0.3,3.2c0.1,1.1,0.3,2.1,0.3,2.9
				c0.1,1.7,0.2,3.5,0.2,5.4c0,1.9,0.1,3.7,0.2,5.6c0.4,6.4-0.6,12.1-3,17c-0.6,1.1-1,2.2-1.2,3.4c-0.2,1.2-0.5,2.4-0.9,3.6
				c-0.9,1.8-1.7,3.5-2.5,5.1s-1.9,3-3.3,3.9c-0.5,0.4-0.9,0.8-1.2,1.4c-0.6,1.2-1.1,2.5-1.6,3.7c-0.4,1.2-1.1,2.3-1.9,3.2
				s-1.6,1.8-2.5,2.6c-0.9,0.8-1.7,1.7-2.5,2.6c-0.8,0.9-1.5,1.8-2.1,2.8c-0.6,1-1.2,1.9-1.9,2.8l-5.5,6.2c-0.3,0.4-0.7,1.2-1.1,2.6
				c-1.4,0.1-2.6,0.8-3.7,2c-1.9,2.8-4.5,5-7.8,6.6c-0.5,0-0.8,0.2-0.7,0.6c-1.2,2.1-2.6,3.5-4.1,4.2c-1.5,0.7-3.1,1.6-4.7,2.7
				c-0.5,0.5-0.7,0.7-0.7,0.6c-0.9,1.9-2.1,2.9-3.6,3c-1.5,0.1-2.9,0.6-4.2,1.5c-0.4-1-0.8-1.8-1.2-2.5c-0.8,0.7-2,1.5-3.7,2.3
				c0.7,0.5,1.6,1.2,2.7,2.1c-1,1.1-1.9,2.1-2.8,3c-0.9,0.9-1.8,1.6-2.8,2.2c-0.3,0.2-0.8,0.3-1.3,0.3c-0.9-0.5-1.7-0.1-2.5,1.2
				c-0.8,0.7-1.5,1.4-2.2,2c-0.6,0.6-1.6,0.9-2.8,0.8c-0.4-0.1-0.7-0.1-1,0.2c-0.3,0.3-0.6,0.6-1,1c-1.3,0.9-2.7,1.9-4.2,2.9
				s-3.1,1.7-5,2c-0.3,0-0.7,0.2-1.1,0.7c-0.4,0.5-0.8,0.9-1.1,1.2c-1.1,1.1-1.8,1.7-2.2,1.8c-0.3,0.1-1.1,0-2.3-0.2
				c-0.9,2.1-2.3,3.3-4.4,3.6c-1.5,0.3-3,0.8-4.5,1.6c-1.5,0.8-3.2,1.4-5,1.8c-2,0.5-3.6,0.4-4.9-0.2c-1.4-0.8-2.7-0.9-3.7-0.4
				s-2.2,1.1-3.3,1.9c-0.8,0.7-1.7,1.1-2.6,1.2c-0.9,0.1-1.8,0.1-2.7,0.2c-1.6-0.2-3-0.1-4.3,0.5c-1.3,0.4-2.6,0.6-3.8,0.5
				c-1.2-0.1-2.5-0.2-3.8-0.3c-1.4-0.1-2.8-0.1-4.2-0.1c-1.4,0-3-0.1-4.8-0.3c-2.2-0.2-4.3-0.5-6.3-0.9s-3.9-1-5.8-1.7
				c-0.9-0.3-1.7-0.6-2.6-0.9c-0.9-0.3-1.8-0.8-2.7-1.6c-0.4-0.8-1.1-1.4-2.2-1.8s-2-0.9-2.9-1.5c-1.8-1.2-3.6-2.4-5.6-3.4
				c-1.9-1-3.7-2.1-5.3-3.4c-1.4-0.8-2.6-1.8-3.5-3.1c-0.9-1.3-2.1-2.6-3.6-3.9c-0.4-0.5-0.6-1.1-0.8-1.7s-0.4-1.3-0.8-2
				c-0.5-0.5-1.1-1-1.8-1.5c-0.6-0.6-1.1-1.3-1.5-2.3c-1.1-1.6-2.2-3.4-3.1-5.2c-1-1.8-2-3.6-3.2-5.4c-0.2-0.3-0.3-0.8-0.5-1.4
				c-0.1-0.6-0.3-1-0.5-1.4c-1.7-2.3-2.9-4.8-3.7-7.6s-1.5-5.6-2.2-8.4c-0.6-1.7-1.1-3.4-1.5-5.1c-0.4-1.8-0.7-3.6-1-5.4
				c-0.6-3.9-0.9-7.8-1-11.8c-0.1-4,0.2-8,0.8-11.9c0.3-1.4,0.6-2.6,1.2-3.8c0.5-1.1,0.9-2.4,1.2-3.8c0.3-0.7,0.5-1.4,0.6-2.1
				s0.3-1.4,0.6-2.1c0.6-1.7,1.7-3,3.3-3.8c-0.3,0.9-0.6,1.8-0.8,2.9c-0.3,1-0.6,2.1-0.8,3.1c1.9,1.2,2.9,2.8,2.7,4.7
				c-0.1,1.9-0.3,3.8-0.5,5.6c-0.1,0.9-0.2,1.7-0.2,2.4s0,1.6,0,2.4c0.2,0.8,0.3,1.7,0.2,2.7s-0.1,1.9-0.1,2.9
				c0.1,2.4,0.2,4.6,0.2,6.8s0.2,4.3,0.7,6.5c0.3,1.7,0.7,3.3,1.2,4.9c0.5,1.6,1.1,3,1.7,4.4c0.1,1,0.4,1.8,1.2,2.2
				c2,1.8,3.9,3.5,5.8,5.3s4,3,6.2,3.7c1.6,0.6,3.1,1.3,4.7,2.1c1.6,0.8,3.2,1.5,5,2.1c1.2,0.6,2.5,1,3.9,1.3
				c1.4,0.3,2.8,0.5,4.1,0.8c1.9,0.2,3.7,0.4,5.4,0.4c1.7,0.1,3.5,0.2,5.4,0.4c0.5,0.1,1.1,0.3,1.8,0.4c0.7,0.1,1.3,0.2,1.8,0.1
				c1.9,0.2,3.6,0.5,5.2,0.7c1.5,0.2,3,0.2,4.3-0.3c2.2-0.5,4.3-0.6,6.4-0.3c2.1,0.3,3.9,0.1,5.6-0.7c1-0.2,2-0.4,3-0.4
				c1-0.1,2-0.1,3.1-0.2c1.8-0.3,3.5-0.7,4.9-1.3c1.4-0.6,3-1,4.7-1.3c1.5-0.4,3.1-0.8,4.7-1c1.6-0.3,3-1.1,4.3-2.5
				c0.1-0.5,0.4-0.8,0.7-0.8c1.4,0.3,2.6,0,3.7-0.9c1.1-0.8,2.2-1.5,3.6-1.9c1.2-0.4,2.3-1,3.5-1.6c1.2-0.7,2.3-1.4,3.4-2.1
				c1.6-1,3.2-2,4.8-3c1.6-1,3.2-2,4.8-3c0.8-0.4,1.6-0.7,2.4-0.9c0.8-0.2,1.2-1,1.5-2.4c0.7,0.3,1.3,0.4,1.7,0.3
				c0.4-0.1,0.8-0.4,1.1-0.8c0.3-0.5,0.6-0.9,0.9-1.2c0.3-0.4,0.6-0.6,1-0.8c1.5-0.8,3-1.9,4.6-3.4c1.4-1.3,2.9-2.4,4.2-3.5
				s2.7-2.1,4-3.2c1.3-1.3,2.6-2.5,4.1-3.8c1.4-1.3,2.8-2.6,4.1-3.8l4.3-4.1c0.3-0.4,0.6-0.6,0.8-0.8c0.2-0.2,0.5-0.5,0.8-0.8
				c1.3-1.3,2.5-2.5,3.6-3.7c1.1-1.2,2.1-2.5,3.1-3.9c0.8-0.9,1.6-1.8,2.4-2.7c0.8-0.9,1.6-1.9,2.4-3c1.7-2.5,3.4-5.1,4.9-7.7
				c1.5-2.7,3.1-5.5,4.8-8.5c0.8-1.4,1.4-2.9,1.9-4.5s1.1-3.1,1.9-4.7c0.2-0.2,0.2-0.4,0.2-0.6c0-0.2,0.1-0.5,0.2-0.7
				c1.2-2.5,1.9-5,2.2-7.7s0.4-5.4,0.4-8.3c-0.2-3.2-1.1-5.6-2.8-7.2c-0.9-1.1-1.8-2.3-2.6-3.6c-0.8-1.2-1.4-2.8-1.7-4.6
				c-0.3-1.4-0.7-2.2-1.3-2.5c-0.6-0.3-1.5-0.4-2.7-0.4c-0.5,0-1.1-0.1-1.7-0.3c-0.6-0.2-1.4-0.5-2.2-0.8c-3,1.7-6.4,2.2-10.4,1.4
				c-0.5-0.3-1.3-0.3-2.3,0.1s-1.9,0.8-2.7,1.2c-0.7,0.2-1.2,0.4-1.6,0.5c-0.4,0.1-1,0.3-1.6,0.5s-1.3,0.3-1.9,0.2
				c-0.6-0.1-1.1-0.1-1.7,0c-0.9,0.1-1.4,0.2-1.5,0.4c-0.5,0.2-1,0.4-1.5,0.7c-0.5,0.3-0.9,0.4-1.2,0.5c-0.8,0.4-1.7,0.5-2.5,0.4
				c-0.9-0.1-1.7,0.5-2.4,1.9c-0.2,0.2-0.5,0.3-1,0.3c-1.6-0.2-3-0.1-4.3,0.3c-1.3,0.4-2.7,1.1-4,2c-0.7,0.4-1.4,0.8-2.1,1.1
				c-0.7,0.4-1.5,0.6-2.4,0.7c-1.4,0.1-2.7,0.6-4,1.5c-1.3,0.9-2.7,1.3-4,1c-0.2-0.2-0.3-0.1-0.5,0s-0.2,0.4-0.2,0.5
				c-1,0.9-1.9,1.6-2.7,2c-0.5,0.4-1.1,0.6-1.9,0.8s-1.4,0.6-1.8,1.5c-0.2,0.2-0.3,0.3-0.5,0.3c-1.2,0.1-2.2,0.4-3,0.8
				s-1.5,1.4-2.1,2.8c0.1,1-0.2,1.3-0.7,0.8c-1-0.3-1.8-0.1-2.4,0.5c-0.6,0.6-1.2,1.2-2.1,1.8c-0.5,0.2-1,0.4-1.4,0.5
				s-0.9,0.2-1.4,0.2c-0.8,0.2-1.6,0.5-2.2,0.8s-1.3,0.6-2,1c-1,0.4-1.9,0.8-2.6,1.2c-0.7,0.4-1.6,0.8-2.6,1.2
				c-1.1,0.9-2.4,0.8-3.9-0.5c-1.4-1.4-2.9-2.3-4.2-2.7c-1.4-0.3-2.9-0.4-4.6-0.1c-0.8,0.4-1.7,0.2-2.6-0.6c-3-2.4-5.3-5.5-6.7-9.3
				c-0.6-1-1.2-2-1.8-2.9c-0.7-1-1.1-2.3-1.4-4c-0.3-1.7-0.8-3.3-1.4-4.9c-0.7-1.6-0.9-3.4-0.7-5.4c-1.2-2.3-1.7-4.7-1.6-7.1
				c0.1-2.4,0.2-4.9,0.2-7.4c0.2-2.7,0.5-5.6,0.9-8.5c0.4-2.9,1.4-5.4,3-7.6l-0.1-0.8c-0.1-1.5,0.2-2.8,1-3.9
				c0.8-1.1,1.5-2.3,2.1-3.7c0.2-1.4,0.7-2.6,1.3-3.5c0.6-1,1.2-1.9,1.9-2.8c1.4-2.1,2.8-4.2,4.1-6.3c1.3-2,2.6-4,3.8-6
				c0.3-0.4,0.6-0.7,0.7-0.9c0.2-0.3,0.4-0.5,0.7-0.7c0.8-0.4,1.7-0.8,2.5-1.2c0.8-0.4,1.1-1.5,0.8-3.4c0-0.3,0.3-0.7,0.9-1.1
				c3-3.1,6.1-6.1,9.3-9.1c3.1-3,6.3-6.1,9.5-9.4l0.2,0c1.3-0.6,2.5-1.5,3.5-2.8s2.1-2.3,3.2-3.3c0.8-0.4,1.5-0.9,2.1-1.4
				s1.2-1,1.8-1.4c0.8-0.9,1.8-1.7,2.9-2.5c1.1-0.8,2.2-1.5,3.2-2.2c0.8-0.7,1.7-1.6,2.5-2.5c0.9-0.9,1.8-1.6,2.8-2
				c1.3-0.4,2.4-1.2,3.2-2.2c0.8-1.1,1.8-1.8,2.9-2.2c1-0.4,2-1.1,3.1-2c1.1-0.9,2.1-1.8,3.3-2.5s2.2-1.5,3.3-2.2
				c1.1-0.7,2.1-1.4,3.1-2c2.8-1.4,5.5-2.9,8-4.6c2.5-1.7,5.2-2.8,8.1-3.3c1.5-0.4,3-1,4.4-1.8s2.8-1.5,4.1-2.3
				c2.5-1.3,5-2.1,7.5-2.4c2.5-0.2,5-0.1,7.4,0.4c0.9,0.1,1.5,0.4,2,0.8c0.4,0.4,0.9,0.8,1.5,1.3c1.4,1.4,2.7,3,3.7,4.6
				c1,1.6,2,3.4,3,5.2c1.3,2.5,2.1,5.2,2.3,8.3c0.2,0.3,0.3,0.8,0.2,1.3C200.1,69.4,200.1,69.8,200.3,70.2z M17.6,295
				c0.6-0.7,1-1,1-0.8c0-0.7-0.2-1-0.6-1c-0.2-0.2-0.4-0.1-0.8,0.3C17.3,294,17.4,294.5,17.6,295z M20.7,295.9
				c-0.2,0.2-0.2,0.5-0.2,1c1.7,0.2,3.3,0.9,4.9,2.1s3.1,2.1,4.9,2.6c0.5,0,0.9,0,1.3,0.2c-1.5-2.1-3-3.5-4.6-4.1
				c-1.6-0.6-3.1-1.3-4.5-2l-0.3,0c-0.2,0-0.3,0-0.4-0.1s-0.2-0.1-0.4-0.1C21.1,295.6,20.9,295.7,20.7,295.9z M22.3,301.4
				c0.3,0,0.6-0.1,0.8-0.3c-0.2-0.2-0.3-0.4-0.3-0.8l0-0.2c-0.3,0-0.7,0.2-1,0.6C21.8,301.2,22,301.4,22.3,301.4z M44.4,311.8
				c0.2-0.2,0.2-0.3,0.2-0.4c0-0.1,0.1-0.2,0.2-0.4c0-0.2,0.1-0.3,0.2-0.5c1.4,0.3,2.5,0.4,3.3,0.6c0.9,0.1,1.7,0.3,2.6,0.6
				c1,0.3,2,0.2,3-0.3c1-0.5,2.1-0.2,3.4,0.9c0,0.2,0.1,0.2,0.1,0.2c0.1,0,0.1-0.1,0.1-0.3c1.3-1.3,2.5-1.6,3.6-1.1
				c1.1,0.5,2.3,0.8,3.5,0.7c2-0.5,4.1-0.7,6.3-0.6c2.2,0,4.5,0.1,6.9,0.1c0.2,0,0.3-0.1,0.5-0.3c1.1-1.4,2.3-2,3.7-1.6
				c1.4,0.3,2.7,0.2,4.1-0.4c0.7-0.2,1.3-0.3,1.9-0.4c0.6,0,1.1-0.2,1.6-0.6c1-0.4,2.1-0.8,3.2-1.2c1.2-0.4,2.4-0.7,3.8-1
				c0.7-0.2,1.3-0.3,1.9-0.4c0.6,0,1.2-0.3,1.9-0.9c0.8-0.9,1.7-1.5,2.7-1.8c1-0.3,2,0.3,2.9,1.7c1.4-2.6,2.8-4.6,4.3-6
				s3.5-2.2,5.8-2.5c0.1-0.5,0.3-1.3,0.6-2.3c0.7,0.8,1.2,1.5,1.4,2.2c0.6-0.5,1.2-1.1,1.8-1.8s0.7-1.6,0.4-3
				c-1.5,0.1-3,0.6-4.5,1.6s-2.9,1.8-4.2,2.6c-0.5,0-0.8,0.3-1,0.8c-0.4,1.2-1,1.9-1.8,1.9c-0.8,0-1.6,0.3-2.4,0.7
				c-2.2,0.6-4.3,1.4-6.2,2.2c-2,0.8-4.1,1.6-6.2,2.4c-1,0.4-2,0.7-2.9,1s-1.8,0.5-2.6,0.7c-2,0.5-3.9,1-5.8,1.5s-3.7,0.8-5.6,0.7
				c-0.3,0-0.6,0.1-0.6,0.2c-0.1,0.1-0.3,0.1-0.6,0.2c-0.3,0-0.8,0.1-1.3,0.3c-0.5,0.2-1,0.3-1.5,0.4c-1,0.1-2,0.1-3.1,0.1
				c-1,0-2,0-3.1,0.1c-1.2-0.1-2.4-0.1-3.6,0c-1.2,0.1-2.5,0.1-3.8,0.2c0.2-1.4,0.8-2,1.8-2c0.9,0,1.7-0.3,2.4-1
				c-0.2-0.8-0.6-1.2-1-1.2c-0.4,0-0.9,0-1.4,0.1c-1,0.4-2,0.7-3.1,0.8c-1.1,0.2-2.2,0-3.2-0.4c-0.7-0.3-1.2-0.3-1.5,0
				c-0.3,0.3-0.6,0.9-0.9,1.7c-1.4,2.3-3.3,2.9-5.8,1.6c-1.1-0.6-1.8-0.7-2.3-0.4c-1.5,0.6-2.7,0-3.7-1.8c0.3-1,0.4-2,0.3-2.8
				c-2.5-1.2-4.9-1.7-7.2-1.6c-0.3,0-0.8,0.1-1.3,0.2s-0.8,0.4-1,0.7c-0.6,0.9-1.2,1.4-1.8,1.4c-0.6,0-1.2-0.1-1.9-0.4
				c-0.9-0.3-1.6-0.5-2.3-0.5s-1.4,0.1-2.3,0.5l4.3,3.8c1.6-0.8,3.3-0.3,4.9,1.5c0.6,0.8,1.2,1.3,1.9,1.4c1.5,0.2,3.1,0.5,4.8,0.9
				C41.3,311,42.9,311.3,44.4,311.8z M39.9,316.6c1,1.8,1.8,2.3,2.5,1.4c0.7-0.9,1.5-1.4,2.3-1.4c-0.9-0.5-1.7-0.8-2.5-1
				C41.5,315.4,40.7,315.7,39.9,316.6z M43.5,304.1c0,0.3-0.1,0.5-0.2,0.5l1,0.5c0.2,0,0.4-0.2,0.7-0.6c0-0.3-0.1-0.7-0.3-1
				L43.5,304.1z M47.1,304.7c0.9,1.1,1.6,1.7,2,1.7c0.4,0,1-0.6,1.8-1.6c-0.5-0.3-1.1-0.5-1.8-0.5c-0.7,0-1.4-0.1-2.1-0.3
				L47.1,304.7z M47.4,318.7c0.9,1.3,1.8,1.8,2.8,1.4c0.9-0.4,1.8-0.5,2.7-0.2c-0.9-0.5-1.7-1-2.5-1.5
				C49.6,317.9,48.6,318,47.4,318.7z M150,284.8c0.3-1,0.6-2,1.1-2.8s1.1-1.4,1.9-1.8l-0.6-0.7c-1,0.4-1.9,0.8-2.9,1.2
				s-1.8,0.9-2.6,1.4c-0.2,0-0.3,0.3-0.3,0.8c-0.1,0.5-0.1,0.9-0.1,1.3c-0.1,1.7-0.6,2.2-1.7,1.6c-0.4-0.1-0.6-0.3-0.7-0.5
				c-0.1-0.2-0.2-0.3-0.4-0.5c-0.5,0.4-1,0.8-1.4,1.4s-1,0.9-1.5,1.1c-1.5,0.6-2.9,1.4-4.1,2.4c-1.2,1-2.5,2-3.8,2.9
				c-1.8,1.3-3.5,2.5-5.1,3.6c-1.6,1.1-3.3,2.4-5.1,3.9c-2,1.3-4,2.4-6.2,3.3s-4.2,2.1-6.2,3.6c-0.3,0.4-0.8,0.6-1.5,0.6
				c-0.7,0.4-1.3,0.7-2,0.9s-1.3,0.5-2,0.9c-1.3,0.6-2.7,1.3-4.2,2c-1.5,0.8-3,1.5-4.4,2.3c-0.3,0.2-0.5,0.3-0.6,0.3
				c-0.1,0-0.3,0.1-0.6,0.3c-1.3,0.2-2.7,0.5-3.9,0.6s-2.6,0.5-3.9,0.9c-1.8,0.5-3.7,0.9-5.5,1.2s-3.6,0.7-5.3,1
				c-3.4,0.4-6.7,0.6-10,0.8c-3.3,0.1-6.8,0-10.4-0.2c-0.7,0-1.2,0.2-1.5,0.6c0.9,1.3,1.6,2.1,2.1,2.3c0.4,0.2,1.3,0.3,2.7,0.2
				l4.6-0.3c1.3-1.1,2.8-1.5,4.4-1s3.3,0.4,5,0c0.8-0.2,1.8-0.2,2.8,0c1,0.2,2,0.3,2.8,0.2l0.3,0.2c-0.2,0.4-0.2,0.7-0.2,1
				c0,0.3,0,0.9-0.2,1.5c0.3-0.5,0.7-0.8,1.2-0.7c0.5,0,1,0.1,1.5,0.2c0.5,0,1,0.1,1.4,0c0.4,0,0.9-0.4,1.3-1.1
				c-1.1-0.5-1.8-0.7-2.3-0.9c2.1-1.3,4.3-1.9,6.4-1.8c2.1,0.1,4.2,0.3,6.3,0.5c0.5-0.5,0.9-1.2,1.2-2.1c0.7,0.3,1.2,0.8,1.4,1.6
				c0.2,0.8,0.8,0.9,1.8,0.5c-0.1-1-0.2-1.9-0.4-2.5c0.8-0.2,1.4-0.3,1.8-0.2c0.3,0.1,1.2,0.4,2.6,1c0.9,0.3,1.5,0.3,1.8,0.1
				s0.5-1,0.6-2.3l-0.1-0.8c1.1-0.9,2.4-1.6,3.7-2c0.5-0.4,1-0.6,1.6-0.6c0.6,0,1.3-0.2,2.1-0.6c0.7-0.4,1.1-0.8,1.4-1.4
				s0.8-1,1.4-1.4c2.9,0.8,4.9-0.2,5.9-3.2c2.2-0.8,4.1-1.7,5.8-2.5c1.7-0.9,3.4-2.5,4.9-5c0.2,0.3,0.6,0.6,1.1,0.7
				c0.5,0.1,0.9-0.4,1.2-1.6c0.2-0.2,0.3-0.3,0.5-0.3s0.4-0.1,0.8-0.3c1-0.6,2-1.2,3.1-2c1.1-0.7,2.2-1.5,3.3-2.2
				c0.6-0.5,1.2-1,1.7-1.5c0.5-0.5,1-1,1.7-1.8c0.8-0.6,1.6-1.2,2.4-1.8C149,286.7,149.6,285.8,150,284.8z M71.5,303.7
				c-0.7-0.3-1.2-0.3-1.7,0.1c-0.4,0.4-0.9,0.7-1.6,0.9c0.2,0.2,0.3,0.4,0.3,0.8c1.3-0.4,2.3-0.7,3-0.7L71.5,303.7z M92.4,299.1
				c0,0.2-0.1,0.3-0.2,0.3c-0.2,0-0.3,0.1-0.5,0.3c0.4,0.7,0.8,1.2,1.1,1.7c0.5-0.5,0.6-0.8,0.5-0.8L92.4,299.1z M94,117.6
				c-0.3,0.4-0.6,0.6-0.7,0.6c-0.2,0-0.2,0.2-0.2,0.5l0,0.5c0,0.3,0.1,0.5,0.3,0.5c0.5,0,0.8-0.2,0.7-0.6L94,117.6z M94.4,321.9
				c0.9,0.6,1.4,0.9,1.6,0.8c0.2-0.1,0.3-0.7,0.4-1.7C95.7,321.4,95,321.7,94.4,321.9z M105.5,295.2c-0.9-0.8-1.4-1.1-1.6-1
				c-0.2,0.1-0.6,0.8-1.2,2C104.3,296.7,105.2,296.4,105.5,295.2z M108.5,96.3c0.6,1.3,1.1,2,1.4,2.1c0.3,0.1,1-0.4,2-1.3
				C110.8,97,109.7,96.7,108.5,96.3z M112.5,300.9c0-0.2-0.2-0.8-0.6-1.8c-0.3,0.4-0.6,0.6-0.8,0.8c-0.2,0.2-0.4,0.5-0.6,0.8
				c0,0.2,0.2,0.8,0.6,1.8C111.7,302,112.2,301.4,112.5,300.9z M114.9,315.6c0.3,0,0.7-0.1,1-0.3c0.3-0.2,0.7-0.5,1.2-0.8l-1.4-1.7
				c-0.8,0.6-1.2,0.9-1.2,1.1C114.6,315,114.8,315.6,114.9,315.6z M122.9,288.2c-0.3,0.5-0.6,1-0.9,1.5c-0.3,0.5-0.7,0.9-1.2,1.2
				c1.6,1.1,2.8,0.8,3.5-1c0.2-0.2,0.2-0.4,0.2-0.8c0-0.3,0-0.7-0.1-1c-0.3,0-0.6,0-0.9-0.1C123.3,288,123.1,288.1,122.9,288.2z
				 M128.5,287.9c0.9,0,1.4-0.2,1.5-0.4c0.3-0.5,0.5-1.1,0.7-1.7c0.1-0.6,0.3-1.2,0.6-2c-0.2,0-0.3,0-0.3-0.1c0-0.1-0.1-0.1-0.3-0.1
				c-1,0.6-1.8,1.2-2.4,1.9L128.5,287.9z M158.6,278.6c0.2-0.2,0-0.9-0.4-2c-0.8,0.4-1.5,0.8-2,1.1s-1.1,0.8-1.7,1.1
				c0.9,0.8,1.6,1.1,2.2,0.9C157.3,279.5,158,279.2,158.6,278.6z M158.1,265.9l-0.1-0.8c-0.7,0-1.2,0.2-1.5,0.4l0,0.5L158.1,265.9z
				 M159,264.3l0.5-0.3c0-0.7-0.2-1.1-0.6-1.2l-0.5,0.5C158.4,263.6,158.6,264,159,264.3z M163.8,267.3c0.8-0.7,1.6-1.4,2.4-1.9
				c0.8-0.6,1.6-1.2,2.4-1.9c-0.6-1-1-1.5-1.2-1.6s-0.7,0.3-1.3,1.2c-0.5,0.5-0.9,1.1-1.3,1.7s-0.8,1.3-1.3,2c0,0.2,0.1,0.2,0.1,0.2
				C163.7,267.1,163.8,267.1,163.8,267.3z"/>
			<path class="st0" d="M332.6,247.4c0.6-0.9,1.5-1.6,2.5-2.1s2.4-0.4,4,0.4l-4.1,4.6c-1.8,2-3.4,3.9-4.9,5.7
				c-1.5,1.8-3.1,3.6-4.6,5.4c-0.3,0.4-0.7,0.6-1.1,0.7c-0.4,0.1-0.8,0.4-1.1,0.7c-0.3,0.4-0.6,0.7-0.8,1.1
				c-0.2,0.4-0.5,0.7-0.8,1.1l-2.1,2.4c0-0.2-0.2,0-0.7,0.6c-1.2,2.8-2.9,5.1-5.1,6.8s-4.2,3.7-6.1,5.9c-1.9,2-3.9,4-6,6.1
				c-2.1,2.1-4.2,4.1-6.3,6.1c-0.3,0.2-0.6,0.4-0.9,0.6c-0.2,0.2-0.5,0.4-0.9,0.6c-1,0.6-2.3,1.4-3.9,2.5s-3.3,2.3-5,3.6
				c-1.7,1.3-3.4,2.5-5,3.8c-1.6,1.2-2.9,2.1-3.7,2.6c-1.8,1.5-3.7,2.6-5.7,3.4c-2,0.8-4.1,1.4-6.3,1.9c-2.2,0.5-4.4,0.8-6.6,0.9
				c-2.2,0.1-4.3-0.5-6.2-1.9c-1.4-0.9-2.5-0.7-3.3,0.7c-0.4,1.2-1.1,1.9-2.1,1.9c-0.9,0.1-1.9,0-2.9-0.1c-1,0.1-1.9-0.1-2.7-0.5
				c-0.8-0.4-1.3-1.2-1.6-2.6c-0.2,0-0.3,0.1-0.4,0.1c-0.1,0.1-0.2,0.1-0.4,0.1c0,0.3,0,0.7-0.1,1.1c-0.1,0.4-0.1,1,0,1.7
				c-0.9-0.8-1.6-1.6-2.2-2.3s-1.2-1.5-1.9-2.3c0-0.2-0.1-0.3-0.3-0.5c0-0.2-0.1-0.3-0.3-0.5l0-0.2l-0.9-1.5c-1-3-2.5-5.3-4.3-6.9
				c-0.7-0.5-1.2-1.1-1.5-1.8s-0.6-1.5-1-2.4c-0.6-0.8-1.2-1.6-1.8-2.4c-0.6-0.8-1.2-1.6-1.8-2.4s-1-1.6-1.3-2.5
				c-0.3-0.8-0.7-1.8-1.1-2.7c-0.8-2.3-1.5-4.6-2.1-6.9c-0.6-2.3-0.8-4.6-0.6-7c0.1-1.7,0.2-3.3,0.3-4.9s0.3-3.2,0.3-4.9
				c0.2-0.2,0.2-0.4,0.2-0.8c-0.4-2.9-0.1-5.6,0.8-8.1c0.9-2.5,1.6-5,2.4-7.4c0.1-0.5,0.6-1,1.4-1.4c-1.6-1.9-1.2-3.4,1.3-4.4
				c0.5-0.5,0.7-1.1,0.7-1.6c-0.6-1.8-0.2-3.1,1.3-3.9l0.4-2.1c0.7-0.2,1.3-0.5,1.9-0.9s0.4-1.2-0.5-2.5c-0.2-0.2,0-0.6,0.6-1.4
				c0.5-0.8,1.1-1.4,1.6-1.8c0.3-0.4,0.6-0.6,0.8-0.8c0.2-0.2,0.2-0.5-0.2-1l2.2-1.7c-0.4-0.5-0.9-1.1-1.6-1.7
				c2.4-0.1,3.1-0.9,2.2-2.2c0.8-0.9,1.5-1.8,2-2.6c0.5-0.8,1.1-1.6,1.8-2.5c0.3-0.7,0.6-1.4,1-2.1c0.4-0.7,0.7-1.5,1-2.4
				c0.2,0,0.3-0.1,0.4-0.1s0.2-0.1,0.4-0.1c1.8-1,2.9-1.7,3.2-2.1c0.3-0.4,0.2-1.5-0.2-3.2c0.3-0.2,0.7-0.3,1.1-0.3
				c0.4,0,0.8-0.1,1.1-0.3c-0.4-0.3-0.7-0.7-1.1-1.1c-0.4-0.4-0.7-0.9-1.1-1.3c2.3-3.4,4.9-7.1,7.7-11.2c-0.3,1-0.5,1.7-0.6,2.1
				c0.2,0,0.3,0,0.4,0.1s0.2,0.1,0.4,0.1c0.3-0.5,0.6-1.1,0.9-1.6s0.7-1.2,1.1-2.1c1.3-0.4,1.8-1.6,1.3-3.4c-0.2-1,0.3-2.2,1.6-3.7
				c1.3-1.4,2.6-2.4,3.9-2.8l1-0.1c-0.6-1.5-0.5-2.6,0.4-3.4c0.9-0.7,1.6-1.5,2-2.4c1.2-2.1,2.6-4.1,4.2-5.9s3.2-3.7,4.8-5.7
				c1.6-2.1,3.3-4.2,5.1-6.1c1.8-1.9,3.4-4,4.6-6.3c1.5-2.6,3.3-5,5.2-7.1c1.9-2.1,4-4.1,6.3-6.1c0.3-0.4,0.7-0.7,1.2-1
				c0.5-0.3,1-0.6,1.5-1c0.6-0.4,1.2-0.5,1.5-0.4l7.1,2.6c0.2,0,0.3,0,0.5,0.1c0.2,0.1,0.4,0.1,0.5,0.1c0.9,0.3,1.6,0.6,2.4,0.9
				s1.3,0.9,1.9,1.7c0.5,0.6,1.2,1.2,1.9,1.7c0.7,0.5,1.4,0.9,2.1,1.1c1.9,1.1,3.4,2.3,4.3,3.8c0.9,1.5,1.9,3.1,2.9,4.9
				c0,0.2,0.1,0.3,0.3,0.5c0.4,1,0.7,2.1,0.8,3.3c0.2,1.2,0.5,2.4,1.1,3.5c1,1.8,1.7,3.6,2.2,5.2s1.3,3.3,2.2,5
				c1,1.8,1.2,3.7,0.6,5.6s-0.5,3.8,0.4,5.6c0,0.2-0.1,0.4-0.2,0.6c-0.2,0.3-0.3,0.6-0.5,0.9c1.6,0.9,2.1,1.9,1.5,2.9
				c-0.6,1-1.1,2-1.4,3c-0.1,1-0.2,2-0.3,3c-0.1,0.9-0.3,1.9-0.6,3c-0.3,0.9-0.5,1.7-0.5,2.5c0,0.8-0.5,1.5-1.3,2.2
				c-0.3,0.4-0.5,0.8-0.4,1.2c0,0.4,0,0.8-0.2,1.2c-0.8,1.8-1.6,3.4-2.5,5c-1.4,2.8-2.8,5.3-4.4,7.4c-0.9,1.6-1.9,3.2-2.8,4.8
				c-0.9,1.6-1.9,3.1-2.8,4.5c-0.8,1.4-1.6,2.6-2.5,3.7c-0.9,1.1-1.7,2.3-2.5,3.7c-0.6,0.9-1.1,2-1.6,3.4c-0.3,0.9-0.7,1.4-1.2,1.6
				c-1.6,1-2.9,2.2-3.7,3.7s-1.8,3-2.9,4.4c-0.8,0.9-1.8,1.8-2.9,2.7c-1.1,0.9-2.2,1.8-3.1,2.8c-0.8,0.7-1.6,1.5-2.3,2.2
				s-1.5,1.5-2.3,2.2c-1,0.9-2,1.7-3,2.5s-2.2,1.6-3.3,2.5c-0.3,0-0.6,0.1-0.8,0.3c-2.3,2-4.7,3.5-7.4,4.4s-5.3,1.9-8,2.9
				c-1,0.4-1.8,0.6-2.3,0.6l-0.2,0c-2.2,0.6-5.1,1.2-8.8,1.6c-3.7,0.4-6.7,0.4-8.9,0l-0.3-0.2l-1.5,0.9c0.4,1.7-0.2,3.1-2,4.2
				c-0.3,0.2-0.5,0.5-0.6,0.8c-0.1,0.4-0.2,0.7-0.3,1c-0.3,0.4-0.5,0.7-0.6,0.9c-0.1,0.3-0.3,0.6-0.6,0.9c-0.8,0.9-0.9,1.5-0.3,1.7
				s1.1,0.5,1.5,0.8c-0.3,0.9-0.5,1.7-0.6,2.6c-0.1,0.9-0.2,1.7-0.4,2.6c-0.3,0.7-0.6,1.1-0.9,1.3c-1.4,1.6-1.5,3.4-0.2,5.4
				c0.6,0.8,0.5,1.8-0.1,2.8c-0.6,1.2-0.4,2.2,0.7,3c0.5,0.1,1,0.8,1.4,2l0.9,1.5c0.2,0.8,0.4,1.7,0.6,2.6c0.1,0.9,0.5,1.8,1.1,2.6
				c1.1,1.5,2.6,2.3,4.5,2.5c3.4,0.3,7.2-0.2,11.4-1.6c4.2-1.4,7.6-3.1,10.4-5.1c1.5-1.1,3.2-2.5,5.4-4c2.1-1.6,4.3-3.2,6.6-5
				c2.3-1.8,4.4-3.5,6.4-5.2c2-1.7,3.8-3.2,5.2-4.3c3.5-3.1,7-6.3,10.4-9.6c3.4-3.3,6.8-6.5,10.1-9.8c2.9-2.9,5.7-5.8,8.4-8.7
				c2.7-2.9,5.4-5.9,8.1-8.9c2.4-2.4,4.8-4.7,7.1-7.1c2.3-2.4,4.6-4.8,6.8-7.3c0.6-0.6,1.2-1.2,1.7-1.9s0.9-1.4,1.4-2.1
				c0.2,0.2,0.4,0.3,0.5,0.4c0.2,0.1,0.4,0.3,0.5,0.6c-3.8,4.7-7.6,9.2-11.5,13.7c-3.9,4.5-7.7,9-11.3,13.5c-0.3,0.5-0.6,1-0.8,1.4
				c-0.2,0.4-0.5,0.8-0.8,1.2c-0.9,1.3-1.9,2.5-3,3.6c-1,1.2-2,2.3-3,3.4c-0.2,0.2-0.3,0.3-0.5,0.4c-0.2,0.1-0.3,0.2-0.5,0.4
				c-0.3,0.2-0.5,0.4-0.6,0.5c-0.1,0.2-0.3,0.4-0.6,0.8c0.3,0,0.7,0,1.2,0.2c0.4,0.1,0.8,0.1,1.1-0.1c0.5-0.4,0.9-0.8,1.3-1.2
				s0.8-0.9,1.3-1.2c2.4-2.2,4.7-4.5,7-6.8C328.5,252.6,330.6,250.1,332.6,247.4z M225.4,251.2c0-0.2,0-0.3,0.1-0.3
				c0.1,0,0.1-0.1,0.1-0.3c-0.4-1-0.8-1.8-1.2-2.5c-0.2-0.2-0.4-0.2-0.8-0.2c0,0.3-0.1,0.7-0.2,1c-0.1,0.4-0.1,0.7,0.1,1
				C223.5,250.2,224.1,250.6,225.4,251.2z M225.9,245.8c0.6-0.4,1.3-0.8,2.1-1.4c-1.4-1.3-1.4-2.6,0.3-4.1c0.2-0.2,0.2-0.4,0.1-0.8
				c-0.1-0.3-0.1-0.7,0.1-1c-0.2,0-0.3,0-0.4-0.1s-0.2-0.1-0.4-0.1c-0.8,1.4-1.4,2.8-2.1,4.1c-0.6,1.3-1.3,2.7-2,4.1l0.5,0.5
				C224.7,246.6,225.3,246.2,225.9,245.8z M227.5,236.5c0.4,0.3,0.8,0.6,1.3,0.8s1.1,0.5,1.6,0.8c0.3-0.5,0.6-1.1,0.8-1.6
				c0.2-0.5,0.4-1.1,0.5-1.8c0.1-0.4,0.2-0.8,0-1.4c-0.1-0.6-0.2-1.1-0.2-1.6c0.4,0.1,0.6,0.3,0.7,0.3s0.3,0.2,0.7,0.3
				c0.8-0.9,1.5-1.8,2-2.6c0.5-0.8,1.1-1.6,1.8-2.5c0.1-0.4,0.3-0.6,0.3-0.7s0.2-0.3,0.3-0.7c0-0.2-0.1-0.3-0.4-0.5
				c-0.3-0.1-0.5-0.1-0.6,0c-0.3,0-0.8,0.3-1.2,0.8c-0.1,0.4-0.3,0.7-0.3,0.9c-0.1,0.3-0.2,0.6-0.3,0.9c-0.2,0-0.4-0.1-0.8-0.5
				c0.3-0.7,0.6-1.4,1-2.1c0.4-0.7,0.9-1.2,1.6-1.6c1.5-0.8,2.3-1.3,2.6-1.7c0.2-0.4-0.1-1.3-1.1-2.7l1.5-0.9
				c0.6-0.4,1.4-0.8,2.1-1.1c0.7-0.4,1.2-0.8,1.3-1.1c0.1-1.7,0.6-2.9,1.6-3.5c1-0.7,1.9-1.4,2.7-2.3c-0.4-1.7-0.8-2.8-1-3.3
				c1.1-0.8,2.1-1.6,2.9-2.5c0.6-0.6,1.2-1.2,1.7-1.9s0.9-1.4,1.4-2.1c1.1-1.4,0.7-2.5-1.2-3.2c-5.1,5.8-9.4,12-12.9,18.7
				C234.2,222.9,230.8,229.7,227.5,236.5z M229.5,269.1c0.5-0.4,0.7-1,0.8-2s-0.1-1.7-0.5-2.4c-0.3,0.7-0.5,1.3-0.6,1.8
				c-0.1,0.5-0.4,1.1-0.6,1.8c0,0.2,0.1,0.3,0.2,0.5c0.1,0.2,0.1,0.3,0.2,0.5C229.3,269.4,229.5,269.3,229.5,269.1z M231.6,261.6
				c0.8-1.6,1.4-3.1,1.9-4.7c0.5-1.6,1.1-3.1,1.9-4.7c-0.3,0-0.5-0.1-0.5-0.5c-0.7,0.4-1,0.7-0.9,1.1c-0.3,1-0.7,2.1-1.2,3
				c-0.5,1-1,2-1.5,3c-0.3,0.5-0.4,1.5-0.3,2.8L231.6,261.6z M237.2,232.4c0.5-0.9,1.2-1.6,2.2-2.2c1-0.6,1.2-1.6,0.6-3.1
				c-0.9,0.1-1.4,0.2-1.5,0.4c-0.6,0.7-1.1,1.4-1.5,2.1c-0.4,0.7-0.8,1.4-1.3,2.1c-0.5,0.5-0.4,0.8,0.3,0.8
				C236.3,232.9,236.7,232.9,237.2,232.4z M240.5,239.8c0.9-1.4,1.8-2.7,2.6-3.9s1.6-2.4,2.6-3.9c-1.5,0.3-2.8,1.2-3.9,2.7
				C240.6,236.3,240.2,238,240.5,239.8z M269.3,215c-1.1,1.6-2.1,3.2-3,4.9c-0.9,1.7-1.9,3.3-3,4.9c-0.2,0.2-0.4,0.4-0.7,0.6
				c-0.3,0.2-0.6,0.2-0.8,0.1c-0.9-0.1-1.4,0-1.5,0.5c-0.1,0.4-0.3,1-0.4,1.7c0,0.5-0.1,1.3-0.4,2.3c-0.3,0.7-0.6,1.4-0.9,2
				c-0.3,0.6-0.6,1.3-0.9,2l-1.2,1.4c-0.3,0.5-0.7,1.1-1.2,1.6s-0.9,1.2-1.2,1.9c-0.8,1.8-1.4,3.5-1.9,5.2s-1.4,3.3-2.9,4.8
				l-0.5,0.5l-3,5c1.4-0.1,2.8,0,4.4,0.2c1.6,0.2,3,0.1,4.3-0.5c0.8-0.4,1.6-0.7,2.2-0.9c0.7-0.2,1.4-0.5,2.2-0.9
				c1-0.2,1.8-0.4,2.3-0.5c0.5-0.1,1.1-0.4,1.7-0.8c0.5-0.4,1-0.7,1.6-0.9c0.6-0.2,1.2-0.5,1.9-0.9c0.3,0,0.7-0.2,1-0.6l7.3-5.8
				c0.8-0.6,1.6-1.1,2.5-1.6c0.8-0.5,1.6-1.1,2.4-1.8c2.3-1.8,4.3-3.8,6.1-5.9s3.4-4.3,4.8-6.8l1-1.1c1.1-1.4,2.2-2.9,3.2-4.3
				c1-1.4,2-2.9,2.9-4.3c1.2-1.8,2.5-3.6,3.8-5.3s2.5-3.6,3.8-5.3c0.3-0.4,0.5-0.8,0.4-1.3c0.1-0.4,0.2-0.8,0.3-1.3s0.2-0.9,0.6-1.3
				c2.3-4.2,4.2-8.5,5.8-12.9c1.6-4.4,2.6-9,3-14c0.2-1.7,0.2-3.4,0.1-5.1c-0.2-1.7-0.3-3.4-0.4-5.1c0-0.3-0.2-0.8-0.5-1.2
				c-0.3-0.5-0.6-0.7-0.9-0.7c-0.9,0.1-1.6,0.4-2.2,1.2c-0.3,0.4-1,1.1-1.9,2.2c-1,1.1-1.6,1.7-1.9,1.9c-0.6,0.7-1.2,1.4-1.8,1.9
				c-0.6,0.6-1.2,1.1-1.8,1.6c-1,0.7-1.9,1.6-2.7,2.5c-0.8,0.9-1.8,1.7-2.9,2.5c-1.3,0.9-2.4,2.1-3.4,3.5c-0.9,1.4-2,2.8-3.1,4
				c-0.5,0.5-1,1.1-1.7,1.5c-0.6,0.5-1.3,0.9-2,1.3c-0.6,0.7-1,1.3-1.2,1.6c-0.8,1.2-1.4,2.5-1.9,3.7s-1.2,2.5-1.9,3.7
				c-0.8,1.2-1.7,2.4-2.7,3.6c-1,1.2-2,2.3-3,3.4c-1.3,1.6-2.4,3.3-3.5,5.1s-2.7,3.1-4.9,3.9c0,0.5,0.1,1,0.2,1.4
				C269.5,214.3,269.5,214.7,269.3,215z M255.2,192.7c-1.7-0.1-3,1-3.9,3.3c0.7,0.3,1.6,0.8,2.6,1.4c-0.2-0.3-0.3-0.7-0.4-1
				s-0.3-0.8-0.5-1.2c0.3,0,0.7,0,1,0.1c0.3,0.1,0.7,0,1-0.2c0.3,0,0.8-0.4,1.5-1.2c-0.4-0.2-0.6-0.4-0.7-0.7
				C255.7,192.8,255.5,192.7,255.2,192.7z M257,188.7c-0.3,0.2-0.7,0.5-1.1,1c-0.4,0.4-0.8,0.9-1.1,1.2c0.5,0.5,1.3,1,2.4,1.6
				c0,0.3,0.2,0.5,0.5,0.5c0.3-0.5,0.6-1,0.8-1.5c0.2-0.4,0.5-1,0.8-1.7c-0.2-0.2-0.5-0.3-0.8-0.5c-0.4-0.1-0.7-0.3-0.9-0.4
				C257.4,188.8,257.1,188.7,257,188.7z M261.3,184.6c-0.3,0.4-0.7,0.8-1.1,1.3c-0.4,0.5-0.8,1-1.1,1.3c0,0.3,0.1,0.6,0.3,0.8
				c0.3-0.2,0.7-0.3,1-0.3s0.6-0.2,0.7-0.6c0.3-0.4,0.5-0.8,0.4-1.2c0-0.4,0-0.8,0.2-1.2C261.7,184.7,261.5,184.6,261.3,184.6z
				 M284.5,240.7c0.3-0.4,0.5-0.9,0.5-1.7s0.1-1.5,0.2-2.2c-1.4,0.1-2.2,0.8-2.7,2.2c-0.3,0.5-0.7,1.1-1.2,1.6
				c-0.5,0.5-0.9,1.1-1.2,1.6l-2.9,2.5l0.8,0.7c1.1-0.8,2.2-1.5,3.3-2.2C282.5,242.4,283.5,241.6,284.5,240.7z M287.8,236.1
				c0.3,0,0.7-0.4,1-1.1c0.2-0.2,0.1-0.4,0-0.5s-0.4-0.2-0.5-0.2c-0.7-0.3-1.3-0.2-1.8,0.4c-0.3,0.4-0.5,0.7-0.6,0.9
				c-0.1,0.3-0.3,0.6-0.6,0.9C286.4,236.5,287.3,236.3,287.8,236.1z M371.3,199l0.1,1c-0.5,0.9-0.9,1.9-1.4,3
				c-0.4,1.1-1.1,1.9-1.9,2.3c-1,0.6-1.7,1.2-2,2c-0.4,0.7-0.9,1.5-1.5,2.3c-0.8,1.1-1.6,2.2-2.3,3.5c-0.8,1.2-1.5,2.5-2.3,3.7
				c-0.3,0.7-0.5,1.4-0.8,2.2c-0.2,0.8-0.5,1.4-0.8,2c-0.8,1.4-1.7,2.7-2.7,3.7c-1,1.1-1.9,2.3-2.7,3.7c-0.8,0.9-1.5,1.7-2.3,2.4
				c-0.7,0.7-1.4,1.6-2,2.7c-0.3,0.9-0.8,1.7-1.6,2.4c-0.8,0.7-1.5,1.5-2.1,2.4l-0.7,0.8c-0.2,1.6-0.9,2.6-2,3.3
				c-1.1,0.7-2.2,1.4-3.3,2.1c-1.1-0.9-1.6-1.6-1.6-1.8s0.5-0.8,1.7-1.8c0.3-0.4,0.6-0.8,0.9-1.3s0.7-1,1.2-1.4
				c0.5-0.5,1-1.1,1.6-1.6c0.6-0.6,1.2-1.1,1.8-1.6c0.8-1.1,1.7-2.1,2.6-3.1c1-1,1.8-2,2.6-3.1c0.8-1.1,1.5-2.1,2.2-3.1
				c0.7-1,1.5-2,2.2-3.1c0.8-1.4,1.4-2.8,2-4.1c0.6-1.3,1.3-2.6,2.1-3.8c0.6-0.9,1.3-1.7,2.1-2.4c0.8-0.7,1.6-1.5,2.4-2.4l-0.8-0.5
				c0.1-0.3,0.2-0.8,0.3-1.4s0.1-0.9,0.3-0.9c1.9-0.1,2.7-0.7,2.4-1.8s-0.2-2.1,0.1-2.9c0.3-0.7,0.4-1.3,0.4-1.8
				c0.2,0,0.3,0,0.4,0.1c0.1,0.1,0.2,0.1,0.4,0.1c-0.4-0.3-0.6-0.6-0.8-0.8c-0.2-0.2-0.5-0.5-0.8-0.8c-2.6,4.2-5.3,8.4-7.9,12.4
				c-2.6,4-5.6,7.9-8.7,11.6l-0.5-0.5c0.3-0.4,0.5-0.7,0.6-1.1c0.1-0.3,0.2-0.7,0.6-1.1c1.7-2.5,3.4-4.9,5-7.3
				c1.6-2.4,3.3-4.8,5-7.1c1.2-2.1,2.3-4.1,3.2-6.1c0.3-0.9,0.7-1.7,1.2-2.5c0.5-0.8,1-1.6,1.5-2.3c0.6-0.7,1.3-1.4,1.9-2.2l1.6,1.4
				c0.4,0.3,0.8,0.7,1.3,1.1c0.5,0.4,1,0.8,1.3,1.1c0,0.3,0.1,0.7,0.2,1.1C371.2,198.3,371.3,198.7,371.3,199z"/>
			<path class="st0" d="M400.2,130c2.5,1.2,4.5,2.8,6.2,4.7c1.6,1.9,3.3,3.9,5,5.8c0.4,0.7,0.8,1.4,1.1,2.1c0.4,0.7,0.5,1.5,0.4,2.4
				c-0.2,1.9-0.4,3.8-0.4,5.8c0,2-0.4,4.1-1.1,6.3c-1.4,2.6-2.9,5.1-4.5,7.4c-1.6,2.3-3.1,4.8-4.3,7.4c-0.9,2.4-1.8,4.9-2.7,7.4
				s-2,5-3,7.5c-0.1,0.7-0.3,1.4-0.6,2.2c-0.3,0.8-0.6,1.6-0.9,2.5c-0.6,0.9-1.1,1.9-1.5,3c-0.4,1.1-0.9,2.1-1.7,3
				c-0.6,1.9-1.5,3.8-2.7,5.8c-0.8,1.2-1.5,2.4-2.2,3.3s-0.7,2.2,0.1,3.7c0.4,0.5,0.3,1.3-0.2,2.3s-1.2,1.8-2,2.2
				c-1.8,1.6-2.2,3.4-1.2,5.2c0.9,1.3,0.9,2.2-0.2,2.6s-1.9,1.1-2.3,1.9c0.4,0.3,0.6,0.5,0.8,0.6c0.2,0.1,0.4,0.2,0.8,0.3
				c-0.5,0.9-1,1.8-1.5,2.8c-0.5,1-1,2.1-1.5,3.3c-1.2,2.3-2.4,5-3.6,8.1c-0.3,0.7-0.5,1.5-0.6,2.3c-0.1,0.9,0,1.5,0.4,2
				c0.9,1.5,1.1,2.9,0.5,4.3c-1,1.1-1.4,2.3-1.3,3.7c-0.1,1-0.2,1.9-0.4,2.6c-0.1,0.7-0.9,1.4-2.2,2.2c-0.2,0.2-0.2,0.6-0.2,1.4
				s0.2,1.6,0.4,2.4c-0.8,0.9-1.3,1.7-1.5,2.4c-0.2,0.7,0.1,1.6,1.1,2.7c0,0.3,0,0.8-0.2,1.4s-0.2,1.2-0.1,1.9
				c-0.2,1.9-0.4,3.8-0.5,5.8c-0.1,2-0.3,3.9-0.5,5.8c-0.9-0.1-1.6-0.2-2.2-0.1c-0.6,0-1.2,0-1.9-0.1c0,0.3,0,0.5-0.1,0.6
				c-0.1,0.1-0.1,0.2-0.1,0.4c0.5,0.3,1.1,0.6,1.7,0.8s1.3,0.5,2,0.8c-0.3,1.4-0.3,2.9-0.2,4.6c0.1,1.7-0.5,3.4-1.7,5.2
				c-0.3,0.4-0.4,0.8-0.3,1.4c0.1,0.6,0.1,1.1,0,1.4c-0.1,0.7-0.2,1.3-0.3,1.8c-0.1,0.5-0.2,1-0.6,1.3c-1.5,1.3-2,2.5-1.6,3.7
				c0.4,1.2,0.8,2.4,1.2,3.8c0.2,0.8,0.5,1.7,0.8,2.6s0.5,1.9,0.6,2.9c0.5,2.4-0.4,3.2-2.7,2.5c-3.3-1-6.3-2.3-8.9-3.9
				c-2.6-1.6-4.4-4.2-5.3-7.7c-0.5-3.2-1.2-6.4-2.1-9.6s-1.3-6.5-1.4-9.9c0-5.5,0.1-10.9,0.4-16.4c0.2-5.5,0.8-11,1.7-16.5
				c0.2-2.9,0.5-5.6,0.9-8.1c0.4-2.5,0.9-5.2,1.4-8.1c0.7-2.8,1.4-5.5,2-8.2c0.7-2.7,1.4-5.5,2-8.4c1.5-6.1,3.1-12,4.8-17.8
				c1.7-5.8,3.4-11.8,5.3-17.8c1.4-4.5,3-9.1,4.6-13.7c1.7-4.6,3.3-9.2,4.9-13.7c1.6-4,3.1-8.1,4.4-12.1c1.3-4.1,2.6-8.1,3.9-12.1
				c0.1-0.4,0.4-0.8,0.7-1.3c0.3-0.5,0.6-0.8,1-0.8C391.3,127.5,396,128.1,400.2,130z M357.7,260.9c0.1-0.5,0.1-1.1-0.1-1.6
				c-0.2-0.6-0.4-1.2-0.6-1.9c-0.3,0.7-0.5,1.4-0.8,2c-0.2,0.6-0.5,1.2-0.8,1.7l0,0.2c-0.6,3.6-1.2,7.2-1.6,10.7
				c-0.5,3.5-0.3,7.1,0.4,10.8c0.2,0.2,0,0.7-0.7,1.6c-0.4-1.2-0.8-2.4-1-3.6c-0.2-1.3-0.7-2.5-1.3-3.9c-0.2-0.5-0.2-1,0-1.7
				c0.2-0.6,0.4-1.2,0.5-1.8c0.1-0.6,0.1-1.2-0.1-1.6c-0.2-0.5-0.7-1-1.6-1.4c-0.1,3.9-0.1,7.8,0,11.5c0.1,3.7,0.2,7.6,0.5,11.5
				c0.2,0.8,0.5,1.5,0.8,2.1c0.3,0.6,0.5,1.2,0.8,1.9c1.5-1.3,2-2.5,1.7-3.7c-0.3-1.2-0.6-2.3-0.9-3.5c0-0.9,0-1.6,0.1-2.2
				c0.1-0.6,0.6-1.3,1.4-2c1.1-0.9,1.8-1.9,1.9-3s-0.2-2.2-1-3.4c0.3-0.9,0.7-1.7,1.2-2.5c0.5-0.8,0.8-1.5,0.8-2.2
				c-0.4-1.3-0.6-2.7-0.6-4c0-1.4,0.3-2.7,0.9-4.1C358.2,265,358.2,263.1,357.7,260.9z M351,260c-0.1,0.9-0.2,1.7-0.4,2.5
				c-0.1,0.8-0.2,1.6-0.4,2.5c0.5,0,1.1,0.1,1.8,0.4c0.1-0.9,0.2-1.6,0.2-2.3c0-0.7,0.1-1.5,0.2-2.3c0-0.2-0.2-0.3-0.5-0.4
				C351.7,260.3,351.4,260.2,351,260z M366.9,231.2c0.9-0.1,1.4-0.3,1.7-0.8c0.3-0.4,0.5-0.9,0.5-1.4c0-0.5,0.1-1,0.2-1.5
				c0-0.5,0.2-1,0.5-1.6c-1.4-0.2-2.2-0.5-2.6-0.9c-0.5-0.1-1.6-0.7-3.2-1.6c-0.1,0.4-0.3,0.7-0.4,1.2c-0.1,0.4-0.3,0.9-0.4,1.4
				c-0.7,2.1-1.4,4.3-2.1,6.5c-0.7,2.3-1.3,4.6-1.9,7c-0.5,2.2-1,4.5-1.4,6.9c-0.4,2.3-0.8,4.7-1.4,7.1c-0.1,0.4-0.1,0.7,0.1,1.1
				c0.2,0.4,0.4,0.8,0.6,1.1c0.3-0.2,0.7-0.4,1.2-0.6c0.5-0.2,0.7-0.5,0.7-0.8c-0.1-1.4,0.2-2.6,0.9-3.6c0.7-1.1,0.9-2.3,0.7-3.6
				c-0.2-0.5-0.1-1.1,0.4-1.9c0.5-0.8,0.8-1.5,1.1-2.2c1.3-1.4,2-2.3,2.1-2.7c-0.6-0.8-1.1-1.5-1.5-2.1c-0.5-0.6-0.7-1-0.7-1.4
				c0.4-1.4,0.9-2.7,1.5-4.1c0.6-1.3,1-2.6,1.3-3.8c0.4,0.3,0.7,0.7,1,1.2C366.2,230.7,366.5,231.1,366.9,231.2z M364.7,236.7
				c1.5,0.2,2.5,0.1,2.9-0.4c0.4-0.5,0.4-1.2,0-2c0.1-0.4,0.1-0.6-0.2-0.8s-0.6-0.4-0.9-0.7c-0.5,0.7-0.8,1.4-1,2
				S365,236,364.7,236.7z M369.8,224.1c0.9-0.1,1.4-0.9,1.6-2.5c0.2-1.6,0.1-3.2-0.3-4.7c-2.8,0.9-4.4,1.5-4.7,2
				c-0.3,0.4-0.2,1.3,0.4,2.6c0.2,0.7,0.6,1.2,1.2,1.7C368.7,223.7,369.2,224,369.8,224.1z M452.8,67.5c0.5,2.9,0.2,5.4-0.8,7.7
				s-2.6,4.5-4.7,6.7c-1.1,1.4-2.3,2.7-3.7,3.9c-1.4,1.2-2.7,2.5-4,3.9c-1.3,1.1-2.2,2.3-2.9,3.5c-0.6,1.2-1.3,2.6-2,4
				c-0.7,2.1-2,3.2-3.9,3.3c-0.8,0.4-1.6,1-2.2,1.9c-0.6,0.9-1.2,1.8-1.6,2.7c-0.8,1.4-1.5,2.7-2.3,3.8c-0.8,1.2-1.9,2-3.4,2.6
				c-0.7,0.4-1.1,1-1.4,1.9c-1.2,1.8-2.3,2.7-3.1,2.9c-0.9,0.1-2-0.3-3.4-1.4c-2.8-1.9-4.7-4.6-5.6-8.1s-0.8-7,0.4-10.5
				c2.8-6.3,5.6-12.6,8.4-18.9c2.8-6.3,5.6-12.6,8.7-18.9c0.6-1.7,1.4-3.5,2.5-5.3c1-2.3,2.2-3.6,3.5-4s3.5-0.3,6.8,0.3
				c-0.5,0.3-0.9,0.7-1.3,1c-0.4,0.3-0.8,0.7-1.1,1c0.6,0.8,0.9,1.1,1.1,1c2-0.6,3.8-0.8,5.3-0.6c1.5,0.2,3,1.1,4.5,2.5
				c0.4,0.7,0.7,1.2,1,1.6s0.4,0.9,0.5,1.4c0.2,0.8,0.4,1.5,0.6,1.9c0.2,0.4,0.7,0.9,1.6,1.6c0.9,0.8,1.6,1.9,2.1,3.2
				C452.7,65.3,452.9,66.5,452.8,67.5z"/>
			<path class="st0" d="M573.8,112.6c0.8,1.5,1.8,2.8,3.2,4c1.3,1.2,2,2.7,2,4.6c0,0.8,0,1.4-0.1,1.8c-0.8,1.2-1.5,2.7-2,4.5
				c-0.6,1.7-1.1,3.3-1.5,4.7c0,0.2-0.1,0.4-0.2,0.5l-2.2,2.4c-0.8,1.4-1.5,2.8-2.3,4.2c-0.8,1.4-1.5,2.8-2.3,4.2
				c-0.3,0.7-1,1.9-2.2,3.6s-2.5,3.5-3.9,5.4c-1.4,1.9-2.7,3.7-3.9,5.4s-1.9,2.9-2.2,3.6l-0.9,1.6l0,0.5l-0.4,1.6
				c-0.3,0.9-0.6,1.9-0.8,3c-0.3,1.1-1.1,2-2.4,2.6l-0.4,1.8c-0.3,0.4-0.6,0.8-0.9,1.3s-0.6,1.1-0.9,1.8c0,0.2,0.1,0.4,0.2,0.8
				s0.2,0.8,0.2,1.3c-0.8,0.1-1.6,0.1-2.3,0.3c-0.7,0.1-0.8,0.9-0.4,2.2l-0.7,1.3c-0.2,0.4-0.3,0.7-0.6,0.9
				c-0.2,0.3-0.3,0.5-0.3,0.7c0.7,0.8,1,1.6,0.8,2.4c-0.2,0.8-0.5,1.5-0.8,2.1c-0.3,0.6-0.6,1.3-0.9,2c-0.3,0.7-0.2,1.5,0.1,2.3
				c-0.8,0.1-1.6,0.1-2.2,0c-0.6-0.1-1.1-0.1-1.7,0c0,0.2-0.1,0.4-0.2,0.5c1.1,0.6,1.9,1.1,2.6,1.4c-0.3,1.2-0.5,2.4-0.8,3.5
				c-0.3,1.1-0.7,2.2-1.3,3.3c-0.3,0.4-0.8,0.6-1.5,0.7c-0.7,0.1-1.4,0.3-2.3,0.5c0.4,0.3,0.8,0.7,1.2,1.2c0.5,0.5,1,1,1.5,1.4
				c0,0.3-0.1,0.5-0.2,0.5c-1.3,0.8-2.1,1.6-2.4,2.6c-0.3,1-0.2,2.3,0.2,3.9c0.2,1.4,0,2.8-0.8,4.3c-0.8,1.5-1.4,2.9-2,4.3
				c-0.2,0.4-0.3,0.7-0.5,0.9c-0.2,0.3-0.2,0.6-0.2,0.9c0.6,1.5,0.1,2.6-1.4,3.4c-1.2,0.9-1.5,2-0.7,3.1c0.4,0.3,0.6,1.1,0.7,2.3
				c0,2.7-1.5,3.7-4.4,2.8c0,0.2,0,0.3-0.1,0.4c-0.1,0.1-0.1,0.2-0.1,0.4c1.1,0.6,1.9,1.2,2.7,1.6c-0.3,0.4-0.5,0.8-0.6,1.2
				c-0.1,0.4-0.2,0.8-0.6,1.2c-0.5,0.6-1.2,1.1-2.2,1.7c0.4,0.3,0.7,0.7,1.1,1.1c0.4,0.4,0.7,0.8,1.1,1.1c-0.3,0.7-0.6,1.4-0.9,2
				c-0.3,0.6-0.6,1.3-0.9,2c-1.3,4.2-2,8.5-2.2,12.8c-0.2,4.3-0.6,8.6-1.4,12.9c-0.3,1.4-0.3,2.8-0.2,4.4c0.1,1.5-0.2,3.1-1,4.7
				c-0.8,1.2-1,2.7-0.8,4.4c0.3,1.7,0.3,3.3,0,4.9c-0.3,1.2-0.5,2.4-0.8,3.5c-0.3,1.1-0.5,2.3-0.8,3.5c-0.3,1-0.4,1.8-0.4,2.3
				c0.1,1.4,0.4,2.8,1,4.3c0.4,1.5,0.8,3,1,4.4c0.3,1.4,0.7,2.8,1.3,4.1c0.4,0.8,0.9,1.4,1.7,1.8c0.7,0.4,1.5,0.8,2.4,1.3
				c0.4,0.3,0.8,0.4,1.2,0.3c0.4-0.1,0.8-0.2,1.1-0.2c-1,2.6-3.5,3.5-7.2,2.5c-0.9-0.3-1.7-0.7-2.5-1.2s-1.6-1-2.5-1.2
				c-3-1.4-5.3-3.2-7.1-5.4c-1.8-2.3-3.4-4.7-4.9-7.4c-1.9-3.5-3.1-7-3.5-10.8c-0.4-4.4-0.7-8.7-0.8-13c-0.1-4.2-0.2-8.6-0.3-13
				c0.1-0.7,0.2-1.3,0.3-1.9c0-0.6,0.7-0.9,1.9-1c0.2,0,0.3-0.2,0.5-0.5c0.1-0.4,0.3-0.7,0.5-1c0-0.2-0.2-0.3-0.5-0.4
				c-0.4-0.1-0.6-0.2-0.8-0.3c-0.2-0.3-0.4-0.6-0.6-0.7s-0.3-0.4-0.3-0.8c0.2-2.2,0.5-4.5,0.7-6.7c0.3-2.2,0.5-4.5,0.7-6.7
				c0.1-0.9,0.2-1.6,0.2-2.3s0.1-1.4,0.2-2.1c0.5-2.9,0.9-5.9,1.4-9s1-6.1,1.6-9.1c0.1-0.7,0.3-1.3,0.4-1.8s0.4-1.1,0.7-1.8
				c0.3,0,0.5,0,0.6,0.1s0.2,0.1,0.4,0.1c-0.3,0.7-0.4,1.3-0.4,1.8c0,0.3,0.1,0.7,0.2,1c0.1,0.3,0.2,0.7,0.2,1
				c0.3-0.4,0.6-0.6,0.9-0.7c0.2-0.1,0.5-0.3,0.6-0.7c0.9-1.6,0.6-2.9-1-3.8c-0.4-0.1-0.7-0.4-0.9-0.7c-0.3-0.3-0.3-0.7-0.2-1
				c0.8-3.6,1.6-7.3,2.5-10.9s1.8-7.3,2.8-10.9c0.5-2.2,1.1-4.4,1.8-6.5c0.6-2.1,1.3-4.3,2-6.5c1.2-3,2.2-5.9,3.2-8.6s2-5.7,3.2-8.6
				c1-3,2-5.9,2.9-8.8s2-5.7,3.2-8.5c0.7-1.9,1.5-3.8,2.3-5.8c0.8-1.9,1.7-3.9,2.6-5.8c-0.3,0.2-0.6,0.3-0.9,0.3s-0.5,0.2-0.6,0.6
				c-3.2,3.1-6.2,6.2-8.9,9.2c-2.6,2.7-5.1,5.4-7.5,8s-4.9,5.3-7.3,8c-0.9,1.3-1.8,2.6-2.6,3.9c-0.8,1.3-1.5,2.7-2.3,4.1
				c-1.3,1.6-2.4,3.2-3.4,4.8c-1,1.6-2.1,3.1-3.4,4.6c-0.6,1.1-1.1,1.8-1.4,2.1c-1.2,2-2.5,3.9-3.9,5.9c-1.3,2-2.6,3.9-3.9,5.9
				c-0.3,0.5-0.5,1.1-0.7,1.7s-0.4,1.2-0.7,1.7l-2,4.7c-1.2,2.3-2.5,4.6-3.9,6.9c-1.4,2.3-2.8,4.6-4.2,6.9c-0.8,1.4-1.6,2.8-2.5,4.2
				c-0.9,1.4-1.8,2.8-2.5,4.2c-0.6,1.1-1.1,2.2-1.5,3.3c-0.4,1.1-0.8,2.3-1.4,3.5c-1.1,2.1-2.2,4.2-3.3,6.2s-2.2,4.2-3.3,6.5
				c-1.7,3.4-3.2,6.7-4.5,10.1s-2.7,6.9-4.2,10.4c-0.8,1.6-1.6,3.1-2.4,4.5c-0.9,1.4-1.6,2.9-2.1,4.5c-0.7,2.1-1.9,3.7-3.5,4.8
				c-1.6,1.1-3.1,2.4-4.4,3.9c-0.6,0.5-1.4,1-2.3,1.4c-0.9,0.4-2,0.3-3.2-0.3c-1.9-1.1-3.9-1.9-5.9-2.6s-3.7-1.7-5.2-3.1
				c-0.9-0.8-1.7-1.6-2.5-2.4c-0.7-0.8-1.3-1.7-1.7-2.7c-2.1-3.3-3.3-6.7-3.6-10.1c-0.3-3.5-0.6-7-0.8-10.6c0-2.2,0.2-4.4,0.6-6.4
				s0.7-4.2,0.9-6.4c0.2-2.6,0.5-5,1.1-7.2c1.1-4.7,2.2-9.4,3.3-14.1c1.1-4.8,2.4-9.4,3.9-13.9c1.1-3.6,2.4-7.3,3.8-10.9
				c1.4-3.6,2.8-7.1,4.3-10.6c1.9-4.6,3.9-9.1,5.8-13.8s3.9-9.2,6-13.8c1.6-3.9,3.4-7.7,5.2-11.4s3.7-7.5,5.7-11.2
				c0.6-1.4,1.5-2.5,2.6-3.2c1.1-0.8,2.6-0.8,4.3-0.3c0.1,2.4,1.2,3.2,3.2,2.3c1.5-0.6,2.9-1,4.3-1.2c1.4-0.2,2.7,0.4,3.9,1.7
				c-1,0.4-2.1,0.5-3.4,0.2c-1.3-0.3-2.6,0.4-3.8,2c1.4,0.3,2.5,0.5,3.4,0.8c0.9,0.3,1.7,0.2,2.5-0.2c1.3-0.8,2.5-0.9,3.7-0.4
				c1.1,0.5,2.4,0.9,3.8,1.2c0.9,0.1,1.8,0.6,2.8,1.4c1,0.8,1.9,1.8,2.7,2.9c0.8,1.1,1.5,2.3,2,3.4s0.7,2.2,0.6,3
				c-0.3,1.4-0.7,2.6-1.3,3.8c-0.6,1.1-1.2,2.3-1.8,3.6c-1.2,1.9-2.4,3.9-3.5,6c-1.1,2-2.2,4.1-3.5,6.2s-2.4,4.3-3.4,6.5
				c-1.1,2.2-2.4,4.3-4,6.2c-1.3,1.4-2.2,3-2.8,4.6c-0.6,1.7-1.2,3.3-2,4.9c-0.3,0.4-0.6,0.7-1,1.1c-0.3,0.4-0.6,0.7-1,1.1
				c-0.3,0.4-0.6,0.6-0.8,0.8c-0.2,0.2-0.4,0.4-0.3,0.8c0.1,2.2-0.4,3.9-1.7,5.2c-1.3,1.3-2.6,2.6-3.9,3.8c-0.8,0.7-1.3,2-1.4,3.9
				s0.2,3.2,1.1,4c-2.5,1.4-4,3.1-4.5,5.4c-0.5,2.2-1.2,4.5-1.9,6.8l-0.5,1.1c-0.7,1.9-1.5,3.8-2.2,5.5c-0.8,1.8-1.5,3.5-2.2,5.2
				c-0.3,0.5-0.5,1-0.7,1.4c-0.1,0.4-0.3,0.8-0.4,1.2c0,0.3,0.1,0.7,0.2,1c0.1,0.3,0.2,0.7,0.2,1c0.2,0,0.3-0.1,0.4-0.1
				s0.2-0.1,0.4-0.1c0.9-1.8,1.8-3.6,2.6-5.4s1.9-3.5,3.1-4.9c1.3-1.4,2.2-3,2.8-4.8c0.6-1.7,1.3-3.3,2.3-4.7c1.4-2,2.7-4,4-6.1
				c1.2-2.1,2.5-4.1,3.7-6.1c0.3-0.5,0.8-0.9,1.3-1.2s1-0.5,1.4-0.7c0.3-0.9,0.5-1.7,0.6-2.6c0.1-0.9,0.4-1.6,0.9-2.4
				c2.8-3.6,5.5-7.4,8-11.4c2.5-4,5-7.9,7.7-11.6l0.2,0c-0.2,0,0.2-0.2,1.2-0.6c-0.9,1.9-1.7,3.7-2.4,5.4s-1.5,3.2-2.4,4.6
				c-0.8,1.4-1.7,2.8-2.8,4.3c-1.1,1.4-2.1,2.9-3,4.5c-0.6,0.9-1.1,1.9-1.5,3c-0.4,1.1-0.8,2.2-1.2,3.3c0.2,0.5,0.6,0.8,1.1,0.9
				c0.5-0.4,1-0.7,1.5-0.9s0.9-0.6,1.2-1.1c2.3-3.4,4.6-6.7,6.9-10c2.3-3.3,4.6-6.6,6.9-10c1.4-1.8,2.9-3.5,4.4-5.1s3-3.2,4.4-4.9
				c0.8-0.9,1.5-1.9,2.1-2.9c0.6-1.1,1.3-2.1,2.1-3.2l0.2-0.5c0-0.2,0.1-0.3,0.2-0.3c1.4,0.1,2.5-0.1,3.3-0.7
				c0.8-0.6,1.5-1.2,2.2-2.1s1.2-1.7,1.8-2.7c0.5-1,1.2-1.7,2-2.3c1.1-0.8,2.1-1.6,2.9-2.5c0.8-0.9,1.6-1.8,2.4-2.7
				c0.3-0.4,0.5-0.8,0.7-1.4c0.1-0.6,0.4-1.1,0.7-1.4c1.3-0.8,2.3-1.4,2.9-2c1.5-1.1,2.6-2.4,3.3-3.9s1.4-3.1,2-4.9
				c0.2-0.4,0.3-0.6,0.5-0.7c0.2-0.1,0.3-0.2,0.5-0.4c2.3-1.5,4.4-3.5,6.2-6c0.6-0.9,1.3-1.7,2.1-2.4c0.8-0.7,1.6-1.5,2.4-2.2
				c0.2-0.2,0.2-0.3,0.2-0.5c0.2-0.2,0.3-0.4,0.3-0.5c0.1-0.2,0.2-0.3,0.3-0.5l0-0.2c0.3-0.7,0.5-1.3,0.8-2c0.2-0.6,0.5-1.1,0.8-1.5
				c0.3-0.5,0.5-0.9,0.7-1.1l0.7-0.8c1.1-1.3,1.7-2.6,1.8-3.9c0.4-1.2,1.1-2.3,2-3.2c0.9-0.9,1.8-1.8,2.8-2.7
				c0.8-0.9,2.1-1.1,3.8-0.5c1.7,0.2,3.8,0.5,6.3,0.9s4.4,1.3,5.7,2.7c0.9,1,1.8,1.9,2.6,2.8c0.8,0.9,2,1.4,3.5,1.7
				C573.6,112.4,573.8,112.5,573.8,112.6z M464.9,218.2c0.8-1.4,1.5-2.8,2.3-4.1s1.5-2.7,2.3-4.1c-0.2-0.2-0.4-0.3-0.5-0.4
				c-0.2-0.1-0.4-0.2-0.5-0.4c-1.1,1.3-2.1,2.5-3.1,3.8c-0.9,1.2-1.9,2.6-2.8,4c0,0.2,0.1,0.4,0.2,0.8s0.2,0.5,0.4,0.5
				C464,218.6,464.6,218.6,464.9,218.2z M505.5,275.7c0.6-0.7,1-1.2,0.9-1.3c0.3-0.9,0.5-1.8,0.7-2.9s0.3-2,0.2-2.8
				c0.1-1.4,0.2-2.8,0.4-4.2s-0.5-2.8-1.9-4.1c-0.3,1.4-0.5,2.7-0.6,4s-0.4,2.6-0.6,4c-0.2-0.8-0.5-1.9-1-3.3l-1,0.1
				c0,0.7,0.1,1.4,0.1,2.3c0,0.9,0.3,1.4,0.6,1.8c0.9,0.8,1.4,1.6,1.5,2.3c0.1,0.8,0,1.6-0.2,2.4c-0.1,0.4-0.1,0.6,0.2,0.9
				S505.3,275.4,505.5,275.7z M549.7,144c0.3-0.4,0.4-0.8,0.3-1.4c-0.1-0.6-0.3-1-0.5-1.1c-0.5,0-1,0-1.5,0s-0.9,0.1-1.2,0.5
				c-0.8,0.7-1.4,1.5-1.9,2.3c-0.5,0.8-0.9,1.6-1.4,2.5c-1,2.3-2,4.6-2.9,6.8s-1.8,4.5-2.9,6.8c-0.7,1.9-1.5,3.9-2.4,5.9
				c-0.9,2-1.7,4.1-2.4,6.1c-0.7,1.9-1.4,3.9-2.1,6c-0.7,2.1-1.3,4.1-2,6c-0.3,0.7-0.6,1.3-0.9,1.8s-0.6,1.1-0.9,1.8
				c-0.7,2.4-1.4,4.9-2.1,7.3c-0.7,2.4-1.4,4.9-2.1,7.3c-0.7,2.4-1.5,4.9-2.4,7.3s-1.7,4.9-2.4,7.3c-0.4,1.7-0.8,3.5-1.1,5.2
				c-0.3,1.7-0.6,3.5-0.8,5.4c-0.4,1.7-1.3,2.5-2.7,2.2c0.4-1.4,0.8-2.9,1.3-4.4c0.4-1.6,0.7-3.1,1-4.7c0.3-1.2,0.4-2.4,0.4-3.6
				c0-1.2,0.2-2.4,0.4-3.6c0.3-1.2,0.6-2.3,1.1-3.3c0.5-1,0.9-2,1.3-3c0.3-0.7,0.4-1.4,0.2-2.2c-0.1-0.8,0-1.5,0.2-2.2
				c0.6-1.7,1.2-3.4,1.7-5c0.6-1.6,1.2-3.3,1.7-5.2c0.4-1.4,0.8-2.7,1-4c0.3-1.3,0.7-2.6,1.3-3.8c1-2.3,2-4.5,2.9-6.6
				c0.9-2.1,1.4-4.3,1.6-6.7c0.1-0.9,0.3-1.6,0.7-2.1s0.7-1.1,1-1.9c0.6-1.4,1-2.7,1.5-3.9c0.4-1.2,0.9-2.5,1.5-3.9
				c-0.5,0-0.9-0.1-1.3-0.4c-0.6,0.9-1,1.9-1.4,3c-0.3,1.1-0.9,1.9-1.7,2.3c-1.2,0.9-1.7,2-1.5,3.2c0.2,1.2,0.1,2.2-0.5,3.1
				l-1.7,0.1c-0.1,1.2-0.1,2.3,0,3.2c0.1,0.9,0,2,0,3.2c-2-0.7-3.4-0.9-4.2-0.4c-0.8,0.5-1.6,1.8-2.4,3.9c-0.8,2.1,0.4,3.7,3.5,4.9
				c-0.3,0.7-0.8,1.9-1.3,3.7c-0.7-0.6-1.2-1.1-1.4-1.4c-1.3,0.8-2.4,1.4-3,2c-0.3,0.4-0.6,1.1-0.9,2.1c0.8-0.1,1.5,0,2.1,0.1
				c0.5,0,1.2,0.1,2.1,0.4c-0.9,0.2-1.5,0.4-1.9,0.5c-0.4,0.1-0.9,0.3-1.4,0.5c0.4,0.3,0.8,0.6,1.2,0.9c0.5,0.3,1,0.7,1.5,1.2
				c-0.8,0.4-1.6,0.7-2.3,1c-0.7,0.3-1.2,0.7-1.7,1.3c-0.8,0.7-1.5,1.9-2.1,3.4c0,0.3,0.3,0.8,0.8,1.2c0.5-0.4,0.9-0.7,1.3-1.1
				c0.4-0.4,0.8-0.7,1.1-1.1l0.7-0.8c-0.1,1.2-0.3,2.3-0.7,3.4c-0.4,1-0.7,2.1-1,3.1c-0.3,1-0.5,2.1-0.7,3.2
				c-0.2,1.1-0.4,2.2-0.7,3.2c-0.4,1.7-0.8,3.4-1.1,5.1c-0.3,1.6-0.8,3.2-1.4,4.8c-0.3,0.9-0.7,1.7-1.2,2.4c-0.5,0.7-1,1.5-1.4,2.4
				c-0.6,0.9-1.3,1.8-1.9,2.8c-0.6,1-1.2,1.9-1.9,2.8l0.8,0.7c0.3-0.2,0.7-0.3,1-0.4s0.7-0.3,1-0.7l0.1,1c-0.2,2.6-0.5,5.1-0.8,7.7
				c-0.4,2.6-0.6,5.1-0.8,7.7c-0.2,1.9-0.5,3.8-0.7,5.7c-0.2,1.9-0.5,3.8-0.7,5.7c1.4,0.6,2.4,1,3.1,1.1c0.9,2.8,0.9,5.5,0.1,7.9
				c-0.8,2.4-0.9,5-0.4,7.7c0.3,1.7,0.3,3.4,0,5c-0.2,1.6-0.4,3.3-0.5,5c0,0.5,0.2,1.1,0.6,1.8c0.6-0.7,1-1.2,1.2-1.6
				c0.3-0.9,0.5-1.7,0.6-2.5s0.4-1.5,0.9-2.2c0.5-1,0.6-1.9,0.5-2.6c-0.1-0.7-1-1.2-2.5-1.6c1.5-0.6,2.4-0.9,2.6-0.9
				c0.4-1.4,0.8-2.8,0.9-4.1c0.2-1.4,0.7-2.4,1.5-3.2c0.8-0.7,1.4-1.5,1.9-2.2s0.8-1.6,0.9-2.6c0-0.5-0.1-1-0.2-1.6
				c-0.1-0.6-0.2-1.1-0.2-1.6c-0.3,0.4-0.6,0.8-1,1.2c-0.3,0.5-0.6,0.9-1,1.2l-0.8,0.3c0-0.5,0.1-1.1,0.3-1.9s0.3-1.5,0.4-2.1
				s-0.2-1-0.6-1.4c-0.5-0.3-1.5-0.3-3-0.1c0.3-0.9,0.6-1.6,0.9-2.4c0.3-0.7,0.6-1.5,0.9-2.4c0.4,1,0.7,1.8,1,2.4
				c0.2,0.6,0.5,1.3,0.9,2.1c0.5-0.8,0.8-1.4,1.2-1.9s0.6-1,0.9-1.6l0.3,4.8c1.3-1.6,1.9-2.7,1.8-3.2s-0.6-1.3-1.7-2.4
				c-0.4-0.3-0.6-0.8-0.6-1.5s0-1.4,0.1-2c0.1-0.5,0.4-1,0.7-1.6s0.5-1.1,0.7-1.8c0.2-0.3,0.1-0.8-0.1-1.3c-0.2-0.5-0.4-0.9-0.6-1.2
				c-0.2,0-0.3,0-0.4-0.1s-0.2-0.1-0.4-0.1c-0.3,0.5-0.5,1-0.7,1.4c-0.2,0.4-0.4,1-0.7,1.7c-0.9-1.3-1.4-2.3-1.3-2.9
				c0-0.7,0.4-1.5,1-2.6c1.2-1.9,2.4-4,3.6-6.2c1.1-2.2,2.4-4.5,3.8-6.9l-4.3,0.3c0.6-1.6,1.1-3.1,1.6-4.7s1-3,1.6-4.4
				c0-0.3,0.3-0.5,1-0.6c1.3-0.4,2.1-0.3,2.3,0.5c0.2,0.8,0.3,1.6,0.2,2.4l1,0.4c0.6-1.2,1.4-2.5,2.5-3.7c0.7-2.8,1.2-5.5,1.6-8.1
				s1.2-5.3,2.4-7.9c0.7-1.9,1.3-3.8,1.8-5.7s1.1-3.8,1.8-5.7c0.7-2.4,1.5-4.7,2.4-6.9c0.9-2.2,1.7-4.5,2.4-6.9
				c0.4-1.4,0.8-2.9,1.1-4.4s0.8-3,1.4-4.4c0.7-1.9,1.5-3.9,2.4-6c0.9-2.1,1.7-4.1,2.4-6c0-0.2-0.1-0.4-0.2-0.6s-0.2-0.5-0.2-0.9
				c-0.9,1.4-2,2.8-3.2,4c-1.2,1.3-1.6,2.8-1.1,4.7c0,0.3-0.1,0.7-0.5,1.1c-0.6,1.4-1.2,2.7-1.8,3.8c-0.6,1.1-1.2,2.3-1.8,3.6
				c-0.5,0.9-0.9,1.7-1.4,2.4c-0.5,0.7-0.9,1.5-1.4,2.4c-0.3,0.7-0.7,1.4-1.2,2c-0.5,0.6-0.6,1.2-0.4,1.7c0.4,1,0.5,1.8,0.4,2.3
				c-0.1,0.5-0.5,1-0.9,1.3c-0.5,0.4-1,0.8-1.6,1.1c-0.6,0.4-1,0.8-1.3,1.4c0.2-1.4,0.5-2.7,0.8-3.9c0.3-1.2,0.7-2.3,1.3-3.4
				c0.7-1.8,1.5-3.5,2.2-5.2c0.7-1.8,1.7-3.3,2.8-4.8c1.1-1.4,1.2-2.6,0.3-3.6c0.3-0.4,0.7-0.8,1.1-1.2c0.4-0.4,0.7-0.9,0.8-1.2
				c1.3-3.5,2.6-7,4-10.5C546.3,150.5,547.9,147.2,549.7,144z M513.1,233.6c-0.4-0.3-0.6-0.6-0.8-0.8c-0.2-0.2-0.5-0.5-0.8-0.8
				c0.8-0.9,1.4-1.5,1.9-1.9c0.7,0.3,1.3,0.6,1.8,0.9s1.1,0.5,1.8,0.6c1,0.3,1.6,0.8,1.8,1.4s0.1,1.4,0,2.3
				c-0.7-0.3-1.1-0.5-1.3-0.7c-0.9-0.6-1.6-0.8-2.2-0.4c-0.6,0.4-1,1.1-1.3,2.1c-0.3,1.4-0.6,2.7-0.9,4c-0.3,1.3-0.7,2.6-0.9,4
				c-0.3,1-0.4,2-0.5,3c0,0.9-0.2,1.9-0.5,3c-0.3,1.4-0.6,2.8-0.9,4.1c-0.3,1.4-0.6,2.8-0.9,4.1c-0.4-0.5-0.5-1.9-0.3-4.2
				c0.2-2.3,0.5-4.8,0.8-7.6s0.8-5.4,1.4-7.9C512.2,236.5,512.7,234.7,513.1,233.6z M523.5,248.3c0.8-0.4,1.6-0.8,2.2-1.2
				s1.4-0.8,2.2-1.2c-0.9-0.3-1.6-0.6-2.2-1c-0.6-0.4-1.3-0.7-2-1c0.2-0.4,0.2-0.7,0.2-1.2c0-0.4,0-0.8,0.2-1.2l-0.6-0.7
				c-0.7,0.4-1.3,0.8-1.8,1.3c-0.6,0.5-1.3,0.9-2.1,1.3c-0.2-0.3-0.4-0.6-0.6-0.7s-0.4-0.4-0.6-0.7c-0.2,0-0.3,0.1-0.4,0.1
				c-0.1,0.1-0.2,0.1-0.4,0.1c0.2,0.5,0.4,1,0.5,1.6s0.4,1.1,0.7,1.6c0.2,0.2,0.4,0.2,0.8,0.2s0.7,0,1-0.1c1.8-0.6,2.7,0.1,2.7,2.1
				L523.5,248.3z M521.1,238c0.9,0.3,1.6,0.5,2.2,0.8s1.3,0.5,2,0.8c0.2,0.2,0.4,0.2,0.6,0.1c0.2-0.1,0.5-0.1,0.6-0.2
				c0.3-0.7,0.3-1.2-0.1-1.5c-0.8-1.3-1.7-1.9-2.7-1.9C522.7,236.1,521.8,236.8,521.1,238z M524.9,180c-0.3,0.7-0.5,1.1-0.7,1.3
				c-0.3,0.4-0.6,0.8-0.8,1.2s-0.5,0.8-0.8,1.2l-0.6-1.2c0.1-0.7,0.3-1.3,0.5-1.9C522.7,180,523.5,179.8,524.9,180z M525,256.6
				c-0.7-0.3-1.1-0.5-1.3-0.7c-0.3,0.5-0.5,1-0.7,1.5s-0.3,0.8-0.4,1.2c-0.2,0.2-0.1,0.4,0.3,0.5c0.3,0.1,0.6,0.4,0.8,0.7L525,256.6
				z M525,230.6c0.3-1,0.5-2,0.8-3c0.3-0.9,0.5-2,0.8-3.2c-1.3,0.6-2.3,1.5-3,2.7c-0.7,1.2-0.8,2.3-0.5,3.1c0,0.5,0.4,0.7,1.1,0.7
				c0,0.2,0.1,0.2,0.4,0.1C524.9,230.9,525,230.8,525,230.6z M528.7,204.3c0.9,0.5,1.3,1.1,1.4,2c0,0.9-0.5,1.6-1.6,2.4
				c-0.8,0.7-1.2,1.5-1.3,2.2c0,0.8-0.2,1.6-0.5,2.5c-0.3,0.9-0.5,1.8-0.6,2.8c-0.1,1-0.3,2.1-0.6,3.1c-1.5-1.6-1.9-3.8-1.3-6.6
				C524.8,210,526.3,207.2,528.7,204.3z M530.7,220.3c0.2-1.9,0.8-3.5,1.9-4.8c1-1.3,1.1-2.9,0.3-4.8c-0.8,1.4-1.5,2.9-2.3,4.5
				c-0.8,1.6-1.5,3.2-2.3,4.7c0.3,0,0.7,0,1,0.1C529.8,220,530.2,220.1,530.7,220.3z M532.5,194.9c-1.4-0.8-2.1-1.4-2-1.9
				c0-0.5,1.1-1.9,3.2-4c-0.3,1.2-0.6,2.3-0.7,3.2C532.7,193.1,532.6,194,532.5,194.9z M538.8,149.5c-0.4-0.3-0.6-0.5-0.8-0.5
				c-1,0.4-1.7,1-2,1.9c-0.4,0.9-0.7,1.8-1,2.6c0,0.7,0.3,1,0.8,1c0.4,0.3,0.8,0.2,1.3-0.3c0.3-0.9,0.6-1.6,0.9-2.4
				C538.2,151.2,538.5,150.4,538.8,149.5z M541.1,190.8c1.7-0.1,2.5-1.1,2.4-3c-0.2-0.2-0.3-0.3-0.4-0.5c-0.1-0.2-0.2-0.3-0.4-0.5
				c-0.7,0.6-1.5,1.4-2.4,2.4c-0.2,0-0.1,0.3,0.2,0.8C540.7,190.5,540.9,190.8,541.1,190.8z M547.9,140.3c1.2-0.4,2.3-1.6,3.4-3.4
				c1.1-1.9,1.4-3.4,1-4.5c-1.2,0.4-2.2,1.5-3.1,3.3C548.3,137.4,547.9,138.9,547.9,140.3z"/>
			<path class="st0" d="M660,180.8c-1,0.2-1.8,0.5-2.4,0.7c-0.6,0.2-1.3,0.4-2.1,0.6c-1.7,0.3-3.3,0.5-4.8,0.7s-3.1,0.4-4.8,0.7
				c-2.7,0.2-5.4,0.3-8,0.4c-2.6,0.1-5.3,0.2-8,0.4c-1.5,0.1-2.7-0.3-3.5-1.2c-0.8-0.9-1.5-1.9-2.1-3.1c-0.7-0.8-1.2-1.7-1.3-2.7
				s-0.3-2.1-0.6-3.3c-0.2-0.2-0.3-0.4-0.3-0.8c0.9-2.4,1.5-4.9,1.8-7.5c0.4-2.4,1.7-3.7,4.1-3.8c1.9,0.1,3.7,0.1,5.5,0.2
				s3.7,0.1,5.8,0.1c2.4-0.1,4.8-0.2,7.3-0.3c2.5-0.1,5-0.2,7.5-0.3c1.4-0.1,2.8-0.2,4.3-0.4c1.5-0.2,3-0.3,4.3-0.4
				c1.4-0.1,2.2-0.6,2.5-1.7c0.4-1.9,0.8-3.8,1.3-5.6s0.9-3.7,1.3-5.6c0.8-2.8,1.6-5.8,2.2-9.1c0.6-3.4,1.3-6.9,1.9-10.2
				c0.6-3.4,1.3-6.8,1.9-10.2c0.2-1.4,0.5-2.8,0.9-4.4c0.3-1.6,0.6-3,0.9-4.4c0.2-1.7,0.6-3.4,1-5c0.4-1.6,1.9-2.7,4.4-3.2l2.2,1.9
				c0.4,0.3,0.9,0.3,1.5-0.1c1.8-1.5,3.8-2.2,6-2.2c2.2,0,3.8,0.9,4.8,2.5l1.3,1.2c1.2,0.3,2,0.9,2.4,1.8c0.4,0.9,0.6,1.9,0.7,2.9
				c0.2,1.3,0.5,2.6,0.6,3.7c0.2,1.1,0.3,2.3,0.4,3.7c0,0.7-0.1,1.7-0.3,3.1c-0.7,2.8-1.2,5.5-1.4,8.3c-0.3,2.7-1,5.5-2.2,8.3
				c-0.6,1.7-0.9,3.5-1.1,5.3c-0.1,1.8-0.6,3.5-1.3,5.1c-0.9,1.6-1.5,3.2-1.6,4.8c-0.2,1.6-0.6,3.2-1.4,4.8
				c-0.2,0.4-0.2,0.6-0.2,0.8c0,0.2-0.1,0.4-0.2,0.8c9.1-1.1,17.3-1.6,24.7-1.7s15.3,0.4,24.1,1.4c-1.2,0.4-2.4,0.4-3.7,0.1
				c-1.3-0.3-2.6,0-3.9,1.1c0.9,0.3,1.6,0.6,2.2,1c0.6,0.4,1.4,0.7,2.2,1c0.3,0.1,0.8,0.2,1.4,0c0.6-0.1,1-0.2,1.4-0.2
				c0.8-0.4,1.6-0.4,2.3-0.1c0.2,0.2,0.3,0.6,0.3,1.3c-0.3,0.2-0.7,0.4-1,0.7c-0.3,0.3-0.7,0.4-1,0.4c-1.5,0.4-3,0.7-4.4,0.9
				c-1.4,0.2-2.8,0.4-4.2,0.6c-0.5,0-0.8,0.1-0.8,0.3c-1.4,2.3-3,3.5-4.9,3.5s-3.7,0.2-5.6,0.5c-0.8,0.4-1.5,0.5-2.2,0.4
				c-0.6-0.1-1.3-0.2-2.2-0.1c-1,0.7-1.8,1.2-2.5,1.4c-1.3,0.4-2.4,0.7-3.3,0.7c-0.7,0.2-1.3,0.3-1.9,0.2c-0.6-0.1-1.2,0-1.9,0.2
				c-1,0.2-2,0.4-3,0.4c-1,0.1-1.9,0.3-2.8,0.7c-1.3,0.6-2.4,1-3.2,1.2s-1.6,0.4-2.3,0.4c-0.7,0-1.4,0.1-2.3,0.3
				c-0.8,0.1-1.9,0.3-3.3,0.6c-0.8,0.2-1.6,0.3-2.4,0.3c-0.8,0-1.6,0.1-2.4,0.3c-0.3,0-0.7,0.3-1,0.8s-0.6,1-0.9,1.3
				c-0.3,0.7-0.5,1.5-0.8,2.3c-0.2,0.9-0.8,1.5-1.8,1.9c0,0.2-0.1,0.3-0.2,0.3c0.5,1.9,0.1,3.4-1,4.8c-1.1,1.4-1.5,2.9-1.2,4.6
				c0.2,0.3,0.2,0.6,0,0.8c-0.2,0.2-0.2,0.4,0,0.5c0.2,0.8,0.3,1.6,0.3,2.3c0,0.7-0.5,1.3-1.3,1.9c-0.2,0.2-0.2,0.4-0.2,0.5
				s-0.1,0.3-0.2,0.3c0.6,1.5,0.4,3-0.5,4.4c-0.9,1.4-1.3,2.9-1,4.4c-0.2,0.4-0.5,0.8-0.9,1.5c-0.5,0.6-0.8,1.2-0.9,1.7
				c-0.3,1.4-0.4,2.7-0.5,3.9c-0.1,1.2-0.2,2.5-0.3,3.9c-0.3,1.4-0.8,2.7-1.5,3.9c-0.8,1.2-1.5,2.6-2.3,4c-0.3,0.7-0.5,1.4-0.8,2.1
				c-0.2,0.7-0.5,1.4-0.8,2.1c-0.3,1.2-0.4,2.4-0.3,3.5c0.1,1.1,0,2.3-0.3,3.5c-0.3,0.7-1.4,1.4-3.3,2.1c-1.9,0.7-3.1,1.3-3.6,1.9
				c-2.2-0.2-3.6-1.1-4.2-2.7s-1-3.3-1.1-5.2c0.3-0.9,0.3-1.7,0-2.4c-0.3-0.8,0.1-1.6,1.2-2.5l0-0.8c-1-1.5-1.3-3.1-1.1-4.9
				c0.2-1.8,0.5-3.6,0.7-5.5c0-2,0.2-4.1,0.5-6.3s0.5-4.2,0.8-6.1c0.1-1.2,0.2-2.4,0.4-3.5c0.2-1.1,0.4-2.2,0.7-3.2
				c0-0.9,0-1.7,0.1-2.4c0.1-0.8,0.2-1.5,0.4-2.2c0-0.9,0-1.4,0.2-1.5c0.2-1.9,0.5-3.7,0.9-5.4C659.2,184.6,659.6,182.7,660,180.8z
				 M658.6,219.8c0.5-1.1,0.8-2.2,1.2-3.4s0.7-2.5,1.2-3.9c-0.3,0.4-0.7,0.6-1,0.6c-0.3,0-0.6,0.2-0.7,0.6c-0.6,1.1-1.1,2.1-1.5,3.2
				C657.4,217.8,657.7,218.8,658.6,219.8z M661,204.3c0,0.2,0.2,0.2,0.5,0.2c0.6-0.9,0.8-1.7,0.6-2.3c-0.2-0.7-0.2-1.4,0.1-2.3
				c-0.2-0.2-0.4-0.2-0.5-0.2C661.5,201,661.2,202.6,661,204.3z M714.2,160.1c-1,0.6-1.6,1.2-1.9,1.9c0.3,0.1,0.7,0.3,0.9,0.4
				s0.6,0.2,0.9,0.2l1.2-0.8C714.9,161.7,714.6,161.1,714.2,160.1z M724.8,158.4c-1-0.1-1.8-0.1-2.4-0.1c-0.6,0-1.2-0.1-1.9-0.4
				c-0.7,0-1.2,0-1.5-0.2c0,0.2-0.1,0.4-0.2,0.6c-0.2,0.3-0.2,0.5-0.2,0.6c0.3,0,0.6,0,0.9,0.1s0.6,0.1,0.9,0.1l0.2,0
				c0.9,0.8,1.5,1.5,1.9,2.2c0.3-0.5,0.7-1,1.1-1.5C723.9,159.5,724.3,159,724.8,158.4z"/>
			<path class="st0" d="M980.1,0.1c0.8-0.1,1.8-0.1,2.8-0.1c1,0,1.4,0.7,1.2,2.1c-0.3,1.2-0.4,2.4-0.4,3.5c0,1.1-0.7,2.4-1.9,3.8
				c-0.2,0.4-0.3,0.7-0.5,0.9c-0.2,0.3-0.2,0.6-0.2,0.9c-0.7,2.4-1.4,4.7-2,6.9c-0.6,2.2-1.3,4.4-2,6.6c-0.8,3-1.7,5.9-2.5,8.8
				s-1.6,5.9-2.3,8.8c-1.1,3.7-2.2,7.3-3,10.9c-0.9,3.6-1.8,7.3-2.8,10.9c-0.4,1.9-0.9,3.8-1.4,5.6c-0.6,1.8-1,3.7-1.4,5.6
				c-0.6,1.9-1,3.9-1.3,5.9c-0.3,2.1-0.8,4.1-1.5,6.2c-0.5,2.1-1.2,4.2-1.9,6.5c-0.7,2.3-1.4,4.5-2.1,6.8c-1,3.5-1.8,6.8-2.6,10.1
				s-1.7,6.7-2.8,10.1l-5.4,23.8c-0.3,1.4-0.5,2.4-0.8,3.1c-0.3,1.4-0.5,2.8-0.8,4.4c-0.2,1.6-0.6,3-1,4.4c-0.3,1.4-0.6,2.6-1,3.8
				s-0.9,2.4-1.3,3.8c0,0.2-0.2,0.5-0.7,1.1c-2.3,1.3-2.5,2.1-0.6,2.3c0.9,0.3,0.8,1.1-0.1,2.6c-0.3-0.1-0.7-0.2-1.2-0.1
				c-0.4,0-0.8,0-1.2-0.1c-0.4-0.3-0.7-0.5-1-0.7c-0.3-0.2-0.3-0.4-0.2-0.6c0.5-0.7,0.8-1.4,0.9-2s0.2-1.2,0.3-1.8
				c0-0.6,0.2-1.2,0.4-1.8c0.2-0.6,0.8-1.3,1.8-2c0.2,0,0.2-0.4,0.2-1.3c0.1-0.9,0.1-1.7,0.1-2.4s0.1-1.6,0.3-2.4
				c0.3-0.7,0.5-1.4,0.8-2.1c0.3-0.7,0.1-1.2-0.6-1.5c-0.2-0.2-0.2-0.4,0-0.8c0.1-0.4,0.3-0.7,0.4-1.1c0.3-0.9,0.5-1.8,0.6-2.9
				c0.2-1,0.2-2,0.2-2.8l4.9-19.7c0.8-2.8,1.5-5.4,2.1-7.9s0.8-4.9,0.8-7.3l-1,0.3c-0.3,1-0.5,2.2-0.8,3.6c-0.3,0.9-0.5,1.6-0.8,2.2
				c-0.2,0.6-0.4,1.3-0.5,1.9c-0.3,0.9-0.5,1.6-0.6,2.2c-0.1,0.6-0.3,1.2-0.4,1.7c-0.1,0.9-0.1,2.1,0,3.8l-4.8,18.4
				c-0.3,0.9-0.4,1.6-0.4,2.1s-0.1,0.9-0.4,1.3c-1.4,2-2.1,3.5-2.2,4.7c-0.1,1.2,0.1,2.5,0.5,3.8c0,0.7-0.3,1.5-1.2,2.4
				c-1.7,1.3-2.1,2.4-1.4,3.1c0.2,0.3,0.1,0.7-0.2,1c-0.5,3.1-1.3,6.5-2.5,10.3c-0.3,1-0.6,2.1-1,3.1s-0.8,2.1-1.2,3.1
				c-0.3,1-0.4,1.6-0.4,1.8c-0.1,0.7-0.3,1.4-0.4,2c-0.1,0.7-0.3,1.4-0.6,2.1c0,0.8-0.2,1.8-0.6,2.8l0.2,0c1-0.1,2,0.1,3.1,0.6
				c-0.1-1.2,0.2-2.1,0.8-2.9c0.6-0.9,1-1.6,1-2.1c0-0.5,0.1-1.1,0.3-1.8c0.2-2.4,0.5-4.9,1.1-7.5c0-0.3,0.2-0.6,0.6-0.9
				c0.4-0.3,0.8-0.6,1.1-1c0,0.5,0,1.1,0,1.8c0,0.7,0,1,0.2,1c1.7-0.4,2.4-0.3,2.2,0.4c-0.2,0.7-0.5,1.4-0.8,2.1
				c-0.3,0.9-0.5,1.7-0.6,2.6c-0.1,0.9-0.3,1.7-0.6,2.6c0,0.9-0.1,1.6-0.5,2.2c-0.4,0.6-1.4,1.1-3.1,1.6c1.3,1.1,1.8,2.2,1.7,3.2
				c0.3,0.1,0.6,0.2,0.8,0.2c0.2,0,0.4,0.1,0.8,0.2c1.7,0.2,3.1,0.8,4.2,1.5c1.1,0.8,2.1,1.7,3,2.6c1.1,1.1,2.1,2.2,3.2,3.4
				c1,1.1,2.1,2.3,3.2,3.4c0.2,0.3,0.4,0.7,0.6,1.1c0.2,0.4,0.3,0.8,0.3,1.1c0.1,1,0,2.1-0.1,3.2s0.3,2.1,1.2,2.9
				c0.2,0,0.3,0.2,0.3,0.8c-0.8,1.6-1.5,3.2-2.1,4.7c-0.7,1.6-1.4,3.1-2.2,4.5c-0.3,0.4-0.8,0.6-1.3,0.9c-0.6,0.2-1.1,0.4-1.6,0.6
				c-0.2-0.5-0.4-1-0.6-1.5c-0.2-0.5-0.3-1-0.3-1.5c0.1-0.9,0.3-1.6,0.5-2.2s0.5-1.4,0.8-2.2c0.8-4.1-1.1-6.1-5.5-5.8
				c-1.2,0.2-2.3,0.3-3.4,0.1c-1.1-0.2-2.3-0.2-3.5-0.2c-0.3-0.1-1-0.2-2-0.1l-0.2,0.3c-0.2,1.9-0.6,3.7-1.2,5.4
				c-0.7,2.4-1.3,4.7-1.9,6.9c-0.5,2.2-1.2,4.5-1.9,6.9c-0.7,2.3-1.3,4.4-1.9,6.5c-0.5,2.1-1.1,4.2-1.6,6.5c-0.7,0-1.1-0.2-1.3-0.7
				s-0.3-1.1-0.2-1.9s0.2-1.6,0.4-2.4c0.2-0.9,0.5-1.6,1-2.1c0.5-2.9,0.9-5.7,1.3-8.4c0.3-2.7,0.7-5.3,1-7.9
				c2.8-1.7,4.3-3.3,4.5-4.9c-0.2-0.8-0.4-1.6-0.5-2.1c-0.1-0.6-0.3-1.2-0.5-1.9c-0.7-0.1-1.5-0.2-2.3-0.2c-0.9,0-1.7,0.1-2.5,0.3
				c-0.2,0.4-0.2,0.6-0.2,0.8c0,0.2-0.1,0.4-0.2,0.8c-0.2,1.7-0.5,3.4-0.8,5.2s-0.7,3.4-1.1,5.2c-0.7,2.3-1.4,4.4-2,6.5
				c-0.6,2.1-1.3,4.3-2,6.5c-0.6,1.7-1,3.4-1.3,5.1c-0.3,1.6-0.7,3.3-1.1,5.1c-0.4,1.4-0.9,2.8-1.5,4.3s-0.8,2.9-0.8,4.3
				c0,0.9,0,1.7-0.1,2.4s-0.3,1.6-0.6,2.5c-0.3,0.4-0.6,0.8-0.8,1.3c-0.2,0.5-0.5,1-0.8,1.3c-0.6,1.7-1,3.4-1.3,5.1
				c-0.3,1.6-0.8,3.4-1.3,5.3c-0.3,0.9-0.6,1.8-1,2.9s-0.8,2.1-1.2,3.1c-0.6,1.4-1.2,3-1.8,4.7c-0.4,1.4-0.8,2.8-1.1,4.3
				c-0.3,1.5-0.6,2.9-0.9,4.3c-0.2,0.4-0.3,0.7-0.6,0.9s-0.4,0.6-0.6,0.9s-0.3,0.8-0.4,1.3c-0.1,0.5-0.1,0.9,0.1,1.3
				c0.2,1,0.3,2.1,0.3,3.2c0,1.1-0.9,2.6-2.7,4.4c-0.9,1.4-1.7,2.4-2.4,3c-0.3,0.4-0.7,0.6-1.1,0.8c-0.4,0.2-0.9,0.5-1.3,0.9
				c0.2-0.4,0.2-0.6,0.1-0.9s-0.1-0.5,0.1-0.9c0.5-2.2,1.3-4.7,2.4-7.3c-0.8,0.7-1.4,1.4-1.8,2c-0.4,0.6-0.9,1.3-1.5,2
				c-0.3,0.4-0.6,0.7-1,1.1s-0.6,0.7-1,1.1c-0.2-0.3-0.3-0.6-0.3-0.9s-0.1-0.5-0.3-0.9c0.3-0.7,0.4-1.2,0.4-1.6
				c0.2-1.5,0.5-3.1,0.6-4.6c0.2-1.5,0.6-3.1,1.4-4.7c0.7-2.4,1.3-4.7,1.7-6.9c0.5-2.2,0-3.9-1.5-5.1c0-0.5,0-0.9,0.2-1.3l4.4-14.8
				c0.8-3.5,1.3-7,1.6-10.6c-0.1-1-0.2-1.6-0.4-1.8c-1.6-0.9-2-2.6-1.1-5c0.8-0.1,1.5-0.2,2-0.4c0-0.5-0.1-0.8-0.3-1
				s-0.3-0.4-0.3-0.8c-0.4-0.6-0.7-1.3-0.9-2c-0.2-0.7-0.2-1.3,0.1-1.8c0.8-0.9,1.2-1.6,1.2-2.1c0-0.5,0-1.1,0.1-1.8
				c-0.2-0.3-0.3-0.7-0.2-1c0.1-0.3,0.1-0.8,0-1.3c0.5-2.1,1.1-4.2,1.8-6.4c0.6-2.2,0.4-4-0.7-5.4c-0.4-0.8-0.6-1.8-0.7-3
				c-0.1-1.2,0.4-2.6,1.5-4.2c0.8-0.9,1.3-1.9,1.6-3.2l-0.2,0c-0.8,0.1-1.7,0.2-2.4,0.4c-0.8,0.2-1.5,0.4-2.4,0.4
				c-2.9,0.5-5.7,0.9-8.5,1.2c-2.8,0.3-5.6,0.6-8.5,1.2c-1,0.2-2,0.5-3,0.7s-2,0.6-3,0.9c-3.3,0.9-6.8,1.9-10.4,2.9
				s-7.1,1.8-10.5,2.2c-2.9,0.4-5.5,1-7.9,2s-4.9,1.8-7.4,2.2c-1.8,0.5-3.7,0.9-5.7,1.4c-1.9,0.5-3.8,0.9-5.7,1.4
				c-0.6,0.9-1.3,1.7-1.9,2.5c-0.6,0.8-1.3,1.7-1.9,2.5c-1.1,1.4-2.2,2.9-3.2,4.5c-1,1.6-2.1,3.2-3.2,4.8c-1.4,2-2.8,4-4.1,6
				c-1.3,2-2.6,4-3.8,6c-0.5,0.7-0.9,1.4-1.3,2.1c-0.4,0.7-0.8,1.4-1.3,2.1c-1.3,1.5-2.5,2.8-3.7,4.2s-2.4,2.8-3.7,4.2
				c-1.3,1.6-2.3,3.2-3.3,4.8c-0.9,1.6-1.9,3.2-3,4.8c-0.8,1.1-1.6,2.1-2.5,3.2s-1.7,2.1-2.5,3l-1,0.1c0.3-0.5,0.6-1.1,0.8-1.6
				c0.2-0.5,0.5-1,0.8-1.3c0.9-1.4,1.9-2.7,3-3.9c1-1.2,1.9-2.4,2.7-3.6c0.6-0.7,1.2-1.4,1.7-2.1c0.5-0.7,0.8-1.4,1.2-2.1
				c1.1-1.4,2.2-2.7,3.3-3.9c1.1-1.2,2.2-2.5,3.1-3.9c1.7-2.5,3.3-4.9,4.8-7.3c1.5-2.4,3.1-4.8,4.8-7.3c2-2.9,3.9-5.6,5.5-8.4
				c1.6-2.7,3.4-5.5,5.5-8.4c-1.2,0.4-2.2,0.7-3.3,1s-2.1,0.6-3.3,1c-0.3,0.2-0.8,0.3-1.3,0.3c-0.7,1.9-2,3.4-3.8,4.3
				c-0.2,0.2-0.3,0.4-0.3,0.7s-0.2,0.5-0.3,0.7c-0.8,1.4-1.6,2.8-2.5,4.2c-0.9,1.4-1.9,3-2.8,4.8c-0.4-0.6-0.6-1.2-0.6-1.6
				c0-0.4-0.1-0.8-0.3-1.1c-1.1,0.9-2,1.7-2.5,2.5c-0.5,0.7-0.5,1.4,0,2c1.5,1.4,0.6,3.4-2.4,6c-2.4,1.9-4.2,4-5.2,6.5
				c-0.7,1.9-1.5,3.8-2.3,5.6c-0.8,1.8-2.4,3.7-4.6,5.5c-0.8,0.6-1.5,1.3-2,2.3c-0.5,1-1.1,1.9-1.7,2.8c-0.9,1.4-1.7,2.8-2.4,4
				s-1.6,2.6-2.7,4c-1.7,2.1-3.5,4.3-5.2,6.5s-3.5,4.3-5.2,6.5c-0.3,0.4-0.5,0.7-0.6,1.1c-0.1,0.3-0.2,0.7-0.6,1.1
				c-0.9,1.4-1.8,2.9-2.7,4.4c-0.8,1.5-1.8,3-2.9,4.4c-1.3,1.3-2.6,2.5-3.9,3.6c-1.3,1.1-2.6,2.4-3.8,3.8c-0.5,0.7-0.9,1.4-1.3,2.1
				s-0.7,1.4-1,2.1c-0.3,0.4-0.5,0.7-0.6,0.9s-0.3,0.6-0.6,0.9c-0.8,0.9-1.6,1.7-2.4,2.5c-0.8,0.7-1.6,1.5-2.4,2.5
				c0.2,0.2,0.3,0.3,0.3,0.4c0,0.1,0.1,0.2,0.3,0.4c0.8-0.4,1.5-0.7,2.1-0.9c0.6-0.2,1.3-0.5,2.1-0.9c1.7-0.8,3.1-1.6,4.4-2.6
				c1.5-0.6,2.5-1.6,2.9-3c0.3-1,0.8-2.1,1.5-3.2c0.7-1.1,1.4-2.1,2-3.2c0.3-0.4,0.8-0.7,1.5-1.1c0.5,0,0.8,0.2,0.8,0.7l0.2,3.3
				c-1.3,0.8-2.4,1.6-3.2,2.5c-1.8,1.8-3.5,3.6-5.3,5.4c-1.8,1.8-3.5,3.6-5.3,5.4c-4.3,4.7-8.4,6.7-12.4,6.1
				c-0.2-0.2-0.3-0.5-0.5-1.1s0-1.1,0.3-1.4c0.8-1.2,1.6-2.4,2.5-3.5c0.9-1.1,1.7-2.2,2.5-3.5c0.5-0.7,0.8-1.5,1.1-2.2
				c0.3-0.8,0.8-1.5,1.4-2.3c1.6-2.1,3.2-4.2,4.7-6.3c1.6-2.1,3.2-4.1,4.7-6c0.8-1.2,1.5-2.4,2.1-3.6c0.6-1.1,1.2-2.3,1.8-3.6
				c0.8-1.2,1.4-2.5,1.9-3.7s1.2-2.5,1.9-4c1.2-2,2.6-3.8,4-5.5c1.4-1.7,2.8-3.5,4-5.5c1.1-1.4,2.1-2.9,2.9-4.3
				c0.8-1.4,1.7-2.8,2.4-4.2c-0.2-0.2-0.5-0.2-0.9-0.2c-0.4,0-0.8,0-1.2-0.1c-0.3-0.1-0.5-0.2-0.5-0.4s0.3-0.7,0.9-1.6
				c0.9-1.2,1.8-2.5,2.7-3.6c0.9-1.2,1.7-2.4,2.5-3.6c0.8-0.6,1.2-1.3,1.2-2.1c0-2,0.6-4.1,1.7-6.1c1.1-2,2.5-4.1,4.2-6.3
				c0.6-0.7,1.1-1.4,1.4-1.9c0.8-1.4,1.5-2.9,2.3-4.5c0.8-1.6,1.6-3.2,2.5-4.8c0.2-0.4,0.4-0.6,0.7-0.8c0.3-0.2,0.7-0.5,1-0.8
				c-0.3,0.2-0.7,0.3-1.1,0.3c-0.4,0-0.8,0.1-1.1,0.3l-9.2,4.6c-0.5,0.4-1,0.6-1.6,0.6c-0.6,0-1.1,0.2-1.6,0.4
				c-0.8,0.4-1.7,0.7-2.6,0.9s-1.8,0.5-2.6,0.9c-0.2,0-0.3,0.1-0.5,0.3s-0.4,0.3-0.8,0.3c-0.7,0-1.7-0.5-3-1.7
				c-1.3-1.2-2-2.1-1.8-2.8c-0.2-0.3-0.3-0.8-0.3-1.5c-0.4-1.3-0.9-2.6-1.4-3.8c-0.5-1.2-1-2.4-1.4-3.8c-0.8-1.6-0.6-3.1,0.5-4.4
				c0.8-0.7,1.2-1.9,1-3.6c-0.1-1,0.2-1.8,0.6-2.2c0.5-0.4,1-0.9,1.4-1.5c0.8-0.6,1.6-1.1,2.5-1.6c0.8-0.5,1.5-1.1,2.2-1.8
				c1.8-1,3.9-2,6.3-3.1s4.8-2,7.1-2.9c2.7-0.8,5.4-1.8,8.2-2.8c3.2-1.1,6.3-2,9.4-2.9c3.1-0.9,6.2-1.7,9.2-2.6
				c0.9-1.8,1.9-3.5,2.9-5.2c1-1.7,2-3.4,2.9-5.2c0.3-0.5,0.6-1.1,0.8-1.7s0.4-1.3,0.5-1.9c1.6-4,4.3-8.2,7.9-12.5
				c3.5-3.8,5.6-7.6,6.2-11.4c0.2-1.4,1.1-2.8,2.4-4.4s2.8-2.5,4.3-2.9c1.8-0.6,2.7-1.6,2.6-3c-0.5-2.7-0.2-5.2,0.8-7.5
				c0.7-1.8,1.6-3.4,2.5-5s1.8-3.3,2.5-5c1.2-2.5,2.5-4.8,3.8-7.1c1.3-2.3,3.1-4.6,5.3-7c0.3-0.4,0.5-0.8,0.6-1.2
				c0.1-0.4,0.2-0.8,0.6-1.2c0.3-0.7,0.6-1.3,0.9-2c0.3-0.6,0.6-1.3,0.9-2.2c0.5-0.9,1-1.7,1.6-2.4c0.6-0.7,1.1-1.4,1.4-2.1
				c0.8-1.6,1.6-3.1,2.7-4.6c1-1.5,1.8-3.1,2.4-4.6c0.4-1.4,1.2-2.8,2.4-4.4c1.2-1.5,2.2-3,3.2-4.4c1.2-2.1,2-4,2.5-5.5
				c1.1-4.8,3.8-9.3,8.1-13.5c0.5-0.4,0.9-0.9,1.3-1.5c0.4-0.6,0.5-1.1,0.3-1.4c-0.1-1.5,0.4-3.1,1.4-4.8s2-3.4,2.9-5.2
				c0.8-1.4,1.5-2.8,2.2-4.1c0.7-1.3,1.4-2.7,2.2-4.1c0.8-0.9,1.3-1.5,1.4-1.9c0.5-0.5,1-1,1.5-1.5c0.5-0.5,0.9-1,1.2-1.5
				c0.8-1.4,1.6-2.7,2.5-4c0.9-1.2,1.6-2.6,2.2-4c1-2.5,2.4-4.7,3.9-6.9c1.6-2.1,3.7-4.1,6.3-5.8c0.3-0.2,0.6-0.4,0.7-0.6
				s0.4-0.5,0.7-0.8c3.2-3.1,6.4-5.5,9.4-7.4c3.1-1.8,6.3-2.5,9.7-2c1.2,0.3,2.4-0.1,3.5-1c1.5-0.9,2.6-1.4,3.5-1.5s1.7,0.1,2.6,0.4
				c0.2,0,0.2,0,0.1,0.1c-0.1,0.1,0,0.1,0.1,0.1c1.4-1.6,3.1-2.8,4.9-3.6c1.3-0.6,2.7-1.2,4.1-1.9c1.4-0.7,2.8-1.4,4.1-2.2
				c0.2,0,0.4-0.2,0.7-0.6c1.7-2.2,3.5-3.5,5.4-4c1.8-0.5,3.6-1.1,5.3-1.7c2-0.6,3.8-1,5.5-1.1C976.7,0,978.4,0,980.1,0.1z
				 M793.3,246.4c0-0.7-0.3-1-0.8-1c-0.3,0-0.6,0.1-0.9,0.3c-0.2,0.2-0.5,0.4-0.9,0.6c-0.6,0.9-1.2,1.8-1.6,2.7
				c-0.5,0.9-1,1.8-1.6,2.6c-0.2,0.4-0.2,0.7-0.2,1c0,0.3,0.1,0.5,0.3,0.5c0.3,0,0.8-0.1,1.3-0.3s0.9-0.5,1.2-0.8
				c0.5-0.9,1-1.8,1.5-2.8C792.1,248.2,792.7,247.3,793.3,246.4z M839.5,192.4c-0.3,0.5-0.7,1.1-1,1.7c-0.4,0.6-0.7,1.2-1,1.7
				l5.3-1.1c0.2,0,0.3-0.1,0.4-0.1s0.2-0.1,0.4-0.1c0.3-0.4,0.5-0.8,0.7-1.2c0.1-0.4,0.4-0.8,0.7-1.2c1.4-1.4,2.5-2.8,3.3-4
				c0.8-1.2,1.5-2.6,2-4c0.8-1.6,1.7-2.3,2.9-2.2c0.3,0,0.6-0.1,0.9-0.2c0.2-0.1,0.6-0.2,1.1-0.2c-0.2-0.5-0.4-0.9-0.6-1.1
				c-0.2-0.2-0.4-0.5-0.6-0.9c0.2-0.2,0.4-0.3,0.8-0.3c0.1-0.5,0.2-1,0.2-1.5c0-0.5,0.1-1.1,0.4-1.8c0-0.5,0.1-0.9,0.4-1.3
				c0.8-0.9,1.5-1.8,2.1-2.8s1.3-2,2.1-3.1c-0.4-0.6-0.4-1.4,0-2.3c0.4-0.9,1-1.9,1.7-2.9c0.9-1.2,1.8-2.4,2.7-3.5s1.7-2.2,2.5-3.5
				c0.3-0.5,0.6-1.1,0.9-1.7c0.3-0.6,0-0.9-0.8-0.8c-1.2-0.1-2.4,0.8-3.7,2.5c-2.2,3.5-4.2,7.1-6.2,10.7c-2,3.6-4.4,7.2-7.2,10.8
				c-2.1,2.3-3.9,4.7-5.4,7.1C842.9,187.5,841.3,189.9,839.5,192.4z M849,193.4c0-0.7,0-1.2,0.2-1.5c-0.3,0.4-0.6,0.7-1,0.9
				c-0.3,0.3-0.7,0.6-1,0.9C848.1,193.7,848.7,193.6,849,193.4z M898.4,193.9c0.8-0.2,1.7-0.3,2.7-0.3c0.9,0,1.9,0,2.9-0.1l1.8-0.1
				c0.3-0.9,0.5-1.6,0.6-2.3c0.1-0.7,0.2-1.4,0.4-2.1l-0.2,0c-2.4,0-4.7,0.2-7,0.6c-2.3,0.4-4.6,0.8-6.9,1.3c-0.3,0-0.6,0-0.9-0.1
				s-0.6-0.1-0.9-0.1c-2,0-4.1-0.1-6.2-0.3c-2-0.1-4.1,0.3-6,1.3c-1,0.4-2,0.7-3,0.9s-1.9,0.5-2.8,0.7c-1.3,0.2-2.6,0.5-3.8,0.6
				c-1.2,0.2-2.5,0.3-3.8,0.4c-1.5,0.3-3,0.4-4.6,0.5c-1.5,0.1-3,0.3-4.6,0.5l-6.1,0.4c-0.2,0.4-0.2,0.9-0.2,1.5c0.7,0,1.4,0,2,0
				s1.5,0,2.3,0c0.5,0,1,0,1.5,0c0.5,0.1,1,0.1,1.5,0c0.9,0.1,1.6,0.2,2.3,0.4c0.7,0.1,1.5,0.2,2.3,0.1c1-0.1,2.1-0.2,3.2-0.3
				c1.1-0.1,2.2-0.4,3.2-0.6c1-0.2,2-0.5,3.2-0.7c1.1-0.2,2.1-0.5,3.2-0.7c0.3,0,0.6-0.1,0.9-0.2c0.2-0.1,0.5-0.1,0.9,0.1
				c1.4,0.3,2.7,0.3,4.1,0.1c1.3-0.2,2.7-0.4,4-0.8c1.3-0.3,2.7-0.6,3.9-0.6c1.3-0.1,2.5,0.1,3.7,0.5l0.5,0c0.8-0.2,1.8-0.4,2.8-0.6
				C896.3,194.1,897.4,194,898.4,193.9z M872.9,157.2c-0.8,1.2-1.4,2.4-2,3.6c-0.5,1.1-1.2,2.3-2,3.6c-0.7-0.3-1.2-0.4-1.6-0.4
				c-0.3,0-0.9-0.1-1.6-0.4c-1.4,2.6-2.7,5.4-3.8,8.2c1-0.9,1.7-1.7,2.3-2.4c0.5-0.7,1.2-1.4,1.8-1.9c-0.5,3.8-3.2,6.8-8.4,8.9
				c1.2,0.1,1.9,0.3,2.2,0.6c0.3,0.3,0.4,0.7,0.3,1.1c-0.1,0.4-0.3,0.9-0.8,1.3s-0.9,0.9-1.2,1.5c-0.3,0.4-0.6,0.8-0.7,1.2
				c-0.2,0.4-0.4,0.8-0.7,1.2c-1.1,1.6-2.1,3.2-3,4.8s-1.8,3.2-2.7,4.8c-0.2,0-0.3,0.1-0.2,0.3c5.4-1.2,10.7-2,15.8-2.5
				c5.9-0.7,11.8-1.4,17.6-2.1s11.6-1.2,17.3-1.6l5.9-0.4c0.3-0.7,0.5-1.4,0.8-2c0.2-0.6,0.5-1.3,0.8-2.2c-0.8,0.6-1.5,1-2.1,1.3
				c-0.6,0.3-1.1,0.6-1.6,1c0-0.3-0.1-0.7-0.2-1.1s-0.1-0.8,0.1-1.1c0.3-1,0.5-2.1,0.7-3.1s0.4-2.1,0.7-3.1c0.3-0.4,0.8-0.8,1.5-1.4
				c-0.4,1.4-0.5,2.4-0.3,3.1c-0.2,0.4,0.2,0.8,1.1,1.5c0.3-0.2,0.5-0.3,0.6-0.4c0.1-0.1,0.3-0.2,0.6-0.4c0.1-1.4,0.1-2.6,0.2-3.7
				s0.2-2.4,0.4-3.7c0.1-0.5,0.2-1.1,0.2-1.7c0-0.6,0.1-1.2,0.4-1.9c0.1-0.7,0.2-1.3,0.3-1.9c0-0.6-0.4-1-1.2-1.1
				c-0.2,0-0.7-0.4-1.6-1.2l3.7-1.5c-0.2-0.7-0.3-1.3-0.4-1.8c0-0.5-0.1-0.9-0.3-1.3c-0.4-0.6-0.6-1.3-0.8-1.9s0.5-1.4,1.8-2.5
				c-1.1-0.9-0.7-2.2,1-3.6c1-0.7,1.5-1.3,1.5-1.8s-0.1-0.8-0.5-1.1c-0.4-0.7-0.7-1.3-1-1.9c-0.3-0.6-0.5-1.1-0.7-1.6
				c-0.4-0.5-0.5-0.9-0.3-1.3c0.2-0.4,0.7-0.8,1.7-1.4c0.3-0.4,0.8-0.8,1.3-1.4s0.8-1,0.8-1.3c0-0.7-0.1-1.4-0.2-2
				c-0.1-0.7-0.5-1-1-1c-1.7-0.1-1.7-0.8,0.1-2.3c2.1-1.5,2.7-2.9,1.8-4.2c-0.4-0.5-0.6-1.4-0.7-2.8c2-1.3,3-2.1,3.2-2.4
				c0.2-0.3-0.4-0.7-1.6-1.3c-0.5-0.3-0.8-0.7-0.8-1.1c0-0.4,0.6-1.1,1.9-2c0.8-0.1,1.2-0.4,1.2-1.1c0-0.8,0-1.7,0.1-2.4
				s-0.1-1.3-0.6-1.6c-0.7-0.5-1-1.1-0.9-2c0.1-0.9,0.2-1.8,0.3-2.8c0.3-0.9,0.6-1.7,1-2.4c0.4-0.7,1.4-1.4,3.1-2
				c-0.2-1-0.5-2-0.7-2.9c-0.2-0.9-0.4-1.9-0.4-2.9c0-0.3,0-0.7-0.1-1s0.1-0.7,0.5-1.1c1.3-1.4,2-2.7,2.2-3.7c0.2-1,0.6-2.2,1.2-3.4
				c1.1-1.9,0.7-2.8-1.2-2.7c-0.5,0-0.8-0.1-0.8-0.5c0.3-1.2,0.5-2.4,0.8-3.5c0.3-1.1,0.5-2.3,0.8-3.5c0.7-2.2,1-4.3,0.9-6.2
				c0.2-0.3,0.2-0.9,0.1-1.8c-0.3,0.5-0.6,1-0.8,1.5c-0.2,0.4-0.5,0.8-0.8,1.2c-1.2,1.9-2.4,3.9-3.6,6s-2.3,4-3.6,6
				c-1.1,1.4-2.2,2.9-3.3,4.3s-2.1,2.9-3,4.3c-1.1,1.8-2.1,3.5-3.1,5.3c-1,1.8-2.1,3.5-3.4,5.3c-3.6,5.8-7.3,11.7-11.2,17.5
				c-0.3,0.9-0.8,1.7-1.5,2.4c-0.7,0.7-1.2,1.4-1.5,2.1c-1.3,3.3-3.1,6.5-5.3,9.6c-2.2,3.1-4.4,6.2-6.6,9.2c-0.9,1.8-1.9,3.5-3,5.2
				C874.8,153.9,873.8,155.6,872.9,157.2z M869.8,148.9c0.2,0.2,0.3,0.2,0.5,0.2l0.5,0c0.7,0,1.2-0.4,1.5-1.1
				c0.5-0.9,0.8-1.7,1.1-2.5c0.3-0.8,0.7-1.6,1.1-2.5c-0.3,0-0.6-0.1-0.8-0.2c-0.8,1.1-1.5,2.1-2,3.1
				C871.2,146.8,870.6,147.9,869.8,148.9z M905,284.4c0.2,0.3,0.4,0.5,0.5,0.6c0.2,0.1,0.2,0.3,0,0.6c-0.5,0.9-1,1.9-1.5,2.9
				c-0.5,1-1.1,2.1-1.7,3.2l-0.8,0c0.3-0.9,0.5-1.8,0.7-2.7c0.2-1,0.4-1.9,0.7-2.7c0.2-0.4,0.4-0.7,0.8-1
				C904.3,285.1,904.7,284.8,905,284.4z M907,250.6c1.4-5.5,2.6-10.9,3.8-16.2c1.2-5.3,2.5-10.7,3.8-16.2c-1.5,1.1-2.4,1.8-2.7,1.9
				c-0.3,1-0.8,2.1-1.5,3.2s-0.7,2,0,2.8c0.2,0.5,0,1.3-0.6,2.3c-0.3,1-0.6,1.7-0.9,2.1c-0.2,0.4-0.3,0.7-0.5,0.9s-0.3,0.6-0.5,0.9
				c-0.3,0.7-0.7,1.4-1.2,2.1c-0.5,0.7-0.6,1.2-0.4,1.6c0.4,1,0.4,2.1,0,3.4s-0.8,2.6-1,3.8l-0.2,0.5c0.1,1,0.3,2,0.7,2.9
				s0.1,2.1-0.8,3.5c0.2,0.2,0.3,0.2,0.5,0.2c0.2,0,0.3,0,0.5,0.1C906.4,250.6,906.7,250.6,907,250.6z M919.3,243.2
				c0.2-0.4,0.4-0.8,0.7-1.3s0.6-1,0.9-1.3l1-0.1c-3.7,13.9-8.7,28-15,42.3c-0.5-0.3-1-0.6-1.3-0.9c-0.4-0.3-0.5-0.6-0.3-0.8
				c1.3-1.4,2-2.7,2.2-3.7c0.2-1,0.5-2.1,1-3.1c0.6-1.2,1.1-2.5,1.6-3.7c0.4-1.2,0.9-2.4,1.3-3.7c0.7-1.8,1.4-3.5,1.9-5.1
				c0.5-1.6,1.1-3.4,1.8-5.4c0.3-1,0.7-2.1,1.2-3.1c0.5-1.1,0.9-2,1.2-2.9c0.4-1.4,0.8-2.6,1-3.8C918.8,245.5,919,244.4,919.3,243.2
				z M923.2,186.5c0.5,0.1,1,0.2,1.4,0.2c0.4,0,0.8,0,1.2,0.2c0.3-0.2,0.5-0.4,0.5-0.8c0.2-0.4-0.1-0.9-0.6-1.8c0-0.3-0.4-0.5-1-0.4
				c-0.5,0.4-0.9,0.9-1.2,1.6c0,0.3,0,0.6-0.1,0.6C923.2,186.2,923.2,186.3,923.2,186.5z M927.6,175.2c-0.7,0.6-1.3,1.1-2.1,1.7
				s-1.2,1.1-1.6,1.6c-0.3,0.4-0.2,0.7,0.3,1.1c0.5,0.4,1,0.8,1.3,1.1l1.4-1.6C927.5,177.9,927.7,176.6,927.6,175.2z M931.8,160.1
				c1-2.6,1.7-5.1,2.1-7.5c0.4-2.4,0.8-4.9,1.3-7.5c-1.6,1.3-2.5,2.4-2.7,3.4c-0.2,0.9-0.3,1.9-0.5,3c-0.3,1.4-0.5,2.8-0.6,4.2
				c-0.2,1.5-0.4,2.9-0.6,4.2c0,0.2,0,0.3-0.1,0.4c-0.1,0.1-0.1,0.2-0.1,0.4c0.3-0.2,0.5-0.3,0.6-0.3
				C931.3,160.4,931.5,160.3,931.8,160.1z M941.5,193.8c-0.9-0.6-1.9-1.2-2.9-1.7s-2.1-0.9-3.1-1.2l-0.2,0c-0.3,0.4-0.5,0.8-0.7,1.3
				s-0.4,1-0.7,1.6c0.9,0.1,1.8,0.2,2.7,0.3s1.8,0.2,2.7,0.3c0.5,0.1,1.2,0.2,2,0.1c0-0.2,0-0.3,0.1-0.4
				C941.5,194.1,941.5,193.9,941.5,193.8z"/>
			<path class="st0" d="M1061.8,24.6c0.7,0.8,1.1,1.8,1.2,3c0.1,1.2,0.1,2.4,0,3.6c0,3.4-0.6,6.6-2,9.4s-3.2,5.6-5.6,8.1
				c-0.5,0.5-1,1.3-1.6,2.4c-0.8,1.1-1.4,2.2-2,3.3c-0.5,1.1-1.5,1.9-3.1,2.4c-0.3,0-0.6,0.2-0.7,0.6c-0.2,0.3-0.4,0.7-0.7,1.1
				c-1.2,2-2.4,3.9-3.5,6c-1.1,2-2.1,4-3.2,5.9c-0.2,0.2-0.2,0.4-0.2,0.7c0,0.2-0.1,0.6-0.2,0.9c-0.1,0.5-0.3,1-0.4,1.6
				c-0.1,0.5-0.4,0.9-0.7,1.1c-2.7,1.2-4.2,2.9-4.7,5.1c-0.5,2.2-1,4.4-1.5,6.5c-0.3,0.9-0.5,1.3-0.7,1.3c-1.3,1.4-2.6,2.7-4.1,3.8
				c-0.2,0.2-0.2,0.3-0.2,0.4c0,0.1-0.1,0.2-0.2,0.4c-0.8,1.8-1.4,3.4-2,5.1c-0.6,1.7-1.2,3.4-2,5.4c-0.2,0.3-0.4,0.7-0.7,0.9
				c-0.3,0.3-0.7,0.6-1,1c-0.9,1.4-1.5,2.6-1.8,3.4c-0.3,0.5-0.5,1.1-0.4,1.6c0,0.5-0.1,0.9-0.4,1.3c-0.6,1.4-1.2,2.8-1.8,4.1
				s-1.2,2.7-1.8,4.1c-0.2,0.3-0.3,0.7-0.3,1c-0.1,0.3-0.2,0.5-0.3,0.5c-2.5,0.8-2.7,2.2-0.5,4.1c-1,0.4-1.6,0.8-1.8,1.3
				c-0.2,0.4-0.4,1.2-0.5,2.2c0.1,1.2-0.3,2.4-1.1,3.5c-0.8,1.2-1.5,2.3-2.1,3.3c-0.3,0.5-0.5,1-0.7,1.4c-0.2,0.4-0.3,0.9-0.4,1.4
				c-0.1,0.5-0.2,1.1-0.3,1.7c0,0.6-0.2,1.2-0.5,1.9c-0.5,0.9-1,1.6-1.5,2.3c-0.6,0.6-0.6,1.6-0.2,2.9c0.4,0.8,0.2,1.8-0.6,2.9
				c-0.8,1.1-1.4,2.1-1.9,3.2c-0.3,0.9-0.5,1.6-0.8,2.4c-0.2,0.7-0.5,1.5-0.8,2.4c-0.3,1-0.8,1.8-1.7,2.4c-0.3,0.4-0.7,0.8-1.2,1.2
				c-0.5,0.5-1.1,1-1.7,1.5c0.5,0.3,1,0.5,1.5,0.7c0.4,0.1,1,0.4,1.7,0.7c-0.5,0.4-1,0.7-1.5,1s-0.9,0.6-1.2,1
				c0.4,0.7,0.4,1.6,0.2,2.8s-0.8,2.1-1.6,2.6c-0.8,0.7-1.2,1.8-1.3,3.1s0.3,2.4,1.2,3.2c-0.5,1.1-0.8,2.1-1.2,3
				c-0.4,1-0.8,1.9-1.2,2.8c-1.2,0.4-2.3,0.6-3.3,0.7c-1,0.1-1.9,0.3-2.8,0.7c-0.3,0-0.6,0.3-0.8,0.8c-0.2,0.5-0.2,0.9-0.1,1
				c0.4,0.3,0.7,0.6,1.1,0.7s0.7,0.3,1,0.4c0.3,0,0.7-0.2,1.1-0.4s1-0.4,1.7-0.2c-0.9,1.6-1.8,3.3-2.5,5c0,0.9,0,1.7-0.1,2.6
				s-0.9,1.5-2.4,1.9c0.7,0.5,1.4,1,2.2,1.6c-0.5,1.1-1,3.1-1.7,6.2c-0.7,3.1-1.3,6.7-1.9,10.8c-0.6,4.1-1.2,8.5-1.9,13
				c-0.7,4.6-1.2,8.8-1.5,12.6c-0.4,3.9-0.6,7.1-0.7,9.9c-0.1,2.7,0,4.3,0.4,4.8l1.8,20.6l-0.5,0.3l0.3,1.5c0.1,1.4,0.2,2.4,0.4,3
				c0.4,1,0.8,2.1,1.2,3.4s0.7,2.5,0.9,3.8s0.2,2.3,0.2,3.2c0,0.9-0.3,1.3-0.8,1.3c-1.2-0.1-2.4-0.2-3.5-0.3c-1.1-0.1-2-0.8-2.6-2.1
				c0-0.3-0.2-0.5-0.5-0.5c-3.2-1.2-5.7-3.1-7.4-5.8c-1.8-2.7-3.5-5.5-5-8.5c-0.4-1-0.8-2-1.2-3c-0.4-1-0.8-2-1.2-3l-0.2,0
				c0-0.5-0.1-0.8-0.3-1c-0.2-0.7-0.2-1.3-0.1-2c0.1-0.7,0.2-1.4,0.4-2.1c-1.2,0.4-1.9,0-2-1.2c-0.1-1.2-0.2-2.2-0.4-3
				c-0.8-5.4-1.5-10.8-1.9-16.2c-0.4-5.4-0.5-10.9-0.1-16.3c0.1-3.4,0.3-6.7,0.5-10c0.2-3.2,0.5-6.5,1-9.8c0.6-4.3,1.2-8.5,1.8-12.6
				c0.7-4.1,1.3-8.2,1.8-12.4l1-0.1c0.1,1,0.1,2,0.2,3.1c0.1,1,0,2-0.1,3.1c-0.3,1.2-0.5,2.3-0.7,3.4c-0.2,1-0.4,2.2-0.7,3.4
				c-0.4,2.2-0.7,4.4-1,6.4s-0.5,4.2-0.7,6.4c-0.3,2.9-0.6,5.8-0.9,8.7c-0.3,2.9-0.6,5.8-0.9,8.7c-0.1,0.9-0.2,1.7-0.1,2.4
				c0,0.8,0.1,1.6,0.2,2.4c-0.1,0.7-0.3,1.4-0.4,2.1c-0.1,0.7-0.2,1.4-0.1,2.1c0,0.5,0.2,1,0.4,1.5s0.5,1,0.7,1.5l0.9-0.1
				c0.2-2.2,0.4-4.4,0.5-6.4c0.1-2.1,0.3-4.2,0.5-6.4l1-0.1l0.4,6.9c0,0.5,0,1.1,0,1.7c0,0.6-0.1,1.1,0,1.7c0,0.9,0.1,1.7,0.3,2.5
				c0.1,0.9-0.2,1.7-1,2.6c-0.3,0.2-0.5,0.9-0.4,2.1c0.3,2.2,0.6,4.3,0.8,6.3c0.2,2,0.5,4.1,0.8,6.3c-0.9-0.3-1.8-0.6-2.9-0.8
				l-0.7,0.8c0.7,0.6,1.4,1.2,2,1.7c0.6,0.5,1.4,1.1,2.3,1.9c-0.7,0.4-1.2,0.6-1.6,0.7c-0.4,0.1-1,0.4-1.6,0.7
				c1.4,0.6,2.3,1.3,2.8,2.1c0.5,0.8,0.6,1.8,0.3,3c0,0.3,0.2,0.7,0.6,1.1c0.4,0.4,0.7,0.8,1.1,1.1c0.2-0.4,0.3-0.7,0.6-1.2
				s0.3-0.8,0.3-1.2c-0.2-2-0.5-4-0.8-6.1s-0.5-4.1-0.8-6.1c0-0.5,0-1,0.2-1.5c0.1-0.5,0.2-0.9,0.2-1.3c0.1-0.5,0.2-1,0-1.5
				c-0.1-0.5-0.2-0.9-0.2-1.3c0-0.5,0-1,0-1.5c0-0.5,0.1-1,0-1.5c0-2.4,0-4.8-0.1-7.3s0-4.9,0.2-7.3c0.2-1.6,0.5-3,0.9-4.4
				c0.3-1.4,0.5-2.8,0.6-4.4c0.2-1.9,0.4-3.8,0.4-5.8s0.2-4.1,0.4-6.5c0.7,0.1,1.3,0.2,2.1,0.1s1.5,0,2.3,0.1c0.1-0.5,0.2-1,0.2-1.5
				c0-0.5,0-1.1,0.1-1.8c-0.2,0-0.3,0-0.4-0.1s-0.2-0.1-0.4-0.1c-0.3,0.4-0.6,0.6-0.8,0.8c-0.2,0.2-0.5,0.5-0.8,0.8
				c-0.9-2-1.2-3.9-0.8-5.7c0.4-1.8,1.3-2.8,2.7-2.9l0.3,5.1l0.5,0c0.3-1,0.6-2,1-3s0.7-2.1,1-3.5c-1.5-0.4-3.1-0.8-4.8-1.2
				c0.3-0.5,0.8-0.8,1.5-0.7c0.7,0,1.3,0.1,2,0.1c0.6,0.1,1.1-0.1,1.5-0.5s0.3-1.2-0.2-2.5c0.5-0.4,1.1-0.8,1.7-1.1
				c0.6-0.4,1.3-0.8,2.1-1.1c-0.7-0.1-1.4-0.3-2.1-0.6c-1.3,0.9-2.5,1.1-3.4,0.4c-1-0.7-2-1.1-3-1.4c-0.9,1.4-1.6,2.3-1.9,2.8
				c0.2,0.2,0.3,0.2,0.5,0.2c-0.3,0.9-0.5,1.6-0.6,2.3c-0.1,0.7-0.2,1.5-0.4,2.3c-0.2,0.4-0.2,0.8-0.3,1.3c-0.1,0.5-0.2,0.9-0.3,1.3
				l-1.2,7.7c-0.4,1.9-0.8,3.7-1.3,5.4s-0.8,3.5-1,5.2c-0.1,0.9-0.1,1.7,0.2,2.4c0.2,0.8,0.3,1.6,0.4,2.4c-0.2,0.4-0.3,0.8-0.6,1.2
				c-0.2,0.4-0.4,0.8-0.6,1.2c-0.7-1-1.1-1.8-1.2-2.5c0.2-2.4,0.4-4.8,0.6-7.1s0.5-4.7,0.8-7.1c0.5-3.1,1-6.1,1.6-9.2
				c0.6-3,1.2-6.1,1.9-9.1c0.1-0.8,0.2-1.5,0.2-2.2c0-0.7,0.2-1.4,0.5-2.1c0.2-0.4,0.4-0.6,0.7-0.8c0.3-0.2,0.7-0.5,1-0.8
				c0.2,0.2,0.3,0.2,0.4,0.2c0.1,0,0.2,0.1,0.4,0.2c-0.1,0.5-0.3,1.5-0.6,2.9c1.4,0.3,2.3,0.4,2.8,0.3c0.5-2.1,1-4.2,1.4-6.4
				c1,0.5,2.3,0.9,3.9,1.3c2.5-1.6,2-3.9-1.5-6.9c-0.2,0.4-0.3,0.6-0.5,0.7c-0.2,0.1-0.2,0.2-0.2,0.4c0.1,1.4-0.2,2.2-1,2.5
				s-1.6,0.3-2.7,0c-1.9-0.2-2.6-1.5-2-3.7c0.9-2.6,1.8-5.2,2.7-7.7c1-2.5,1.8-5.1,2.7-7.7c0.3-0.5,0.5-1.1,0.4-1.6
				c0-0.5,0-0.9-0.1-1c0.8-0.2,1.5-0.4,2-0.4s1-0.1,1.5-0.4c-0.4-0.3-0.7-0.7-1-1.2c-0.3-0.5-0.6-1.1-1-1.7c0.5-0.5,0.8-1.2,0.9-2.1
				c0.1-0.9,0.2-1.7,0.3-2.6c0.1-0.9,0.3-1.6,0.6-2.3s0.8-1.3,1.7-1.9c0.2-1.4,0.5-2.8,0.8-4.1c0.2-1.4,0.6-2.8,1-4.1
				c0.7-1.9,1.5-3.9,2.4-5.9c0.9-2,1.7-4.1,2.4-6.1c0.5-1.1,0.8-2.1,1.1-3.3c0.3-1.1,0.5-2.3,0.8-3.5c0.6-1.1,1.3-1.7,1.9-1.9
				l-1.9,6.2c0.2,0,0.3,0,0.4,0.1c0.1,0.1,0.3,0.1,0.6,0.1c0.2-0.3,0.3-0.7,0.5-0.9c0.2-0.3,0.4-0.6,0.7-0.9
				c0.3-0.9,0.7-1.7,1.1-2.6c0.5-0.9,0.8-1.8,1.1-2.6c0.1-0.5,0.2-1.4,0.1-2.6l-2,0.1l-0.5-0.5c0.7-0.4,1.2-0.8,1.7-1.3
				c0.5-0.4,1-0.9,1.5-1.2c0.7-0.6,1.2-1.2,1.7-1.9c-0.5-0.1-1.3-0.6-2.5-1.4c0.6-1.1,1.2-2.2,1.8-3.6c0.5-1.3,1.2-2.7,2-4.1
				c0.4,0.3,0.6,0.5,0.8,0.6c0.2,0.1,0.5,0.3,0.8,0.6c-0.5-1.7-0.7-3.3-0.7-4.8c0-1.5,1.2-2.6,3.6-3.3c-0.9-1.1-1.3-2.6-1-4.3
				c0.2-1.7,1.2-4.6,3-8.6c-0.5,0.5-1,1.1-1.7,1.5c-0.7,0.5-1.1,1.1-1.4,1.8c-1.6,3.8-3.2,7.7-4.8,11.5c-1.5,3.8-3.1,7.8-4.8,11.8
				c-0.6,1.2-1.3,2.3-2,3.3c-0.7,1-1.3,2-1.7,3c-0.8,1.6-1.3,3.2-1.8,4.7s-0.9,3.1-1.5,4.7c-0.3,0.5-0.6,1.1-0.9,1.6
				c-0.3,0.5-0.5,1.1-0.7,1.8c-0.6,1.4-1.1,2.9-1.4,4.6c-0.3,1.6-0.8,3.4-1.3,5.3c-0.2-0.8-0.5-1.5-0.8-1.9
				c-0.3-0.4-0.3-0.8-0.2-1.1c0.4-1.4,0.8-2.7,1.3-3.9c0.4-1.2,0.9-2.4,1.3-3.7c1.3-3.7,2.6-7.3,3.9-11s2.7-7.3,4.2-11
				c1.3-3.5,2.7-6.9,4.2-10.3c1.5-3.4,3-6.9,4.5-10.4c2.5-5.8,5-11.5,7.4-17.2c2.4-5.7,4.8-11.3,7.4-16.9c2.2-4.9,4.7-9.7,7.3-14.2
				c2.6-4.6,5.2-9.2,7.8-13.8c0.8-1.6,1.8-2.9,3.1-4c1.3-1.1,2.7-1.6,4.2-1.5c1.2,0.1,2.5,0,3.9-0.2c1.4-0.2,2.7,0.4,3.8,2.1
				c0.4,0.5,1,0.8,2,0.8c0.9,0,1.8,0.2,2.7,0.5c2.4,1,4.9,2.2,7.2,3.4C1058.4,20.8,1060.3,22.5,1061.8,24.6z M966.8,176.4
				c-0.4,1.7-0.9,3.6-1.5,5.4l-1-0.4c0.4-1.7,0.8-3.5,1.3-5.2c0.5-1.7,0.9-3.6,1.3-5.4l1,0.4C967.6,172.9,967.2,174.6,966.8,176.4z
				 M964.9,269.7l3.3,0l-0.3-1.5c-0.7,0.4-1.2,0.6-1.6,0.6c-0.4,0-1,0.2-1.6,0.6L964.9,269.7z M973.8,150.4
				c-0.8,3.3-1.6,6.5-2.5,9.7s-1.8,6.4-3,9.5c-0.2-0.2-0.4-0.2-0.5-0.2c-0.2,0-0.3-0.1-0.5-0.2c1-3.3,1.9-6.5,2.8-9.6
				c0.9-3.1,1.9-6.3,2.8-9.6c0.2,0.2,0.3,0.2,0.4,0.2C973.5,150.2,973.6,150.2,973.8,150.4z M977.8,135.8c0.2,0.5,0.2,1.3,0.2,2.4
				s-0.3,2.3-0.7,3.6c-0.3,1.3-0.8,2.6-1.3,3.8c-0.5,1.2-1,2.2-1.5,2.9c-0.3,0-0.6-0.1-0.8-0.2c0.7-1.9,1.4-3.9,2-6
				C976.4,140.3,977.1,138.1,977.8,135.8z M985,170.6c0.3-1.2,0.6-2.3,1-3.2c0.4-1,0.7-1.9,1-2.7l-0.5-0.5c-0.7,0.6-1.3,1.1-1.9,1.6
				c-0.7,0.6-1.4,1.2-2.2,1.9c0-0.3-0.1-0.7-0.3-1.1c-0.2-0.4-0.3-0.8-0.3-1.1l-0.4-7.1c-1.3,0.4-2,1.4-1.9,2.9c0,0.5-0.2,1-0.7,1.6
				c-0.5,0.5-0.9,1-1.2,1.4c-0.3,0.4-0.6,0.6-0.8,0.8c-0.2,0.2-0.5,0.5-0.8,0.8c0,0.2,0.1,0.3,0.3,0.5c0.7,0.1,1.7,0.1,3.1,0.1
				l0.2,4.1c-0.3-0.1-0.7-0.4-1-0.8c-0.3-0.4-0.6-0.8-1-1.1c-0.4-0.3-0.8-0.5-1.2-0.6s-1,0.1-1.6,0.6c0.4,0.9,0.7,1.7,0.9,2.5
				c0.2,0.8,0.5,1.6,0.9,2.5c3.6,0.1,5.6-1.3,6.1-4.2c0.4,0.3,0.7,0.6,1.1,0.7C984.1,170.1,984.5,170.3,985,170.6z M977,189.3
				c0-0.3,0-0.6,0.1-0.8c0.1-0.2,0.1-0.4,0.1-0.8c0-0.9-0.3-1.6-0.7-2.3c0-0.2-0.2-0.2-0.7-0.2c-0.4,0-0.6,0.1-0.6,0.3
				c-0.2,0.4-0.3,0.8-0.4,1.3s-0.1,1,0.1,1.5C975.1,188.7,975.8,189,977,189.3z M990.1,157.3c0.9-2.3,1.7-4.5,2.5-6.7
				c0.8-2.2,1.5-4.5,2.2-6.9c0.2-0.4,0.1-0.8-0.1-1.3c-0.2-0.5-0.5-0.9-0.8-1.2l-0.8,0.1c-0.5,0-0.8,0.2-0.7,0.6
				c-0.6,1.7-1.1,3.4-1.5,5.1c-0.4,1.6-0.9,3.3-1.5,5.1c-1.4,0.1-2.3-0.2-3-0.8c-0.6-0.6-0.7-1.6-0.3-3c0.4-1.7,0-2.6-1.2-2.7
				c-0.3,0.7-0.6,1.3-0.9,1.8s-0.6,1.1-0.9,1.8c-0.3,0.9-0.6,1.7-1,2.5c-0.4,0.8-0.7,1.6-1,2.5c-0.1,0.7-0.1,1.4,0,2
				c0.1,0.7,0.2,1.4,0.3,2.3c1.4,0.6,2.4,0.4,2.9-0.7c0.5-1.1,1.3-1.9,2.3-2.7c0.4,0.7,0.7,1.3,0.9,1.9c0.2,0.6,0.5,1.3,0.9,2.1
				c0.3-0.4,0.6-0.6,1-0.8C989.7,157.9,989.9,157.7,990.1,157.3z M987.4,138.6c-0.2,0.4-0.2,0.7-0.1,1c0.1,0.3,0.2,0.7,0.2,1
				c0.2,0,0.3,0,0.4,0.1c0.1,0.1,0.2,0.1,0.4,0.1c0.1-0.5,0.4-0.9,0.7-1.2s0.7-0.5,1.1-0.7c0.4-0.2,0.7-0.5,1-0.8
				c0.2-0.4,0.2-0.9,0-1.8c-0.2-0.5-0.1-1.1,0.3-1.9c0.4-0.8,0.7-1.4,1-1.7c1.5-0.6,2.1-1.4,1.8-2.5s-0.3-2.1,0.2-2.9
				c0.2-0.3,0.1-0.7-0.2-1c-0.3-0.3-0.5-0.7-0.7-1l-1.4,1.6c-0.2,0.3-0.2,0.8-0.3,1.3c-0.1,0.5-0.2,0.9-0.6,1.3
				c-0.8,1.6-1.4,3.1-2,4.6C988.6,135.5,988,137,987.4,138.6z M989.2,175.7c0.6-0.7,1.2-1.4,1.7-2c0.5-0.6,1-1.4,1.7-2.3l-0.8-0.7
				c-0.4-0.3-0.7-0.3-1,0.1c-0.5,0.5-1,1-1.4,1.5c-0.5,0.5-1,0.9-1.4,1.5c-0.3,0.7-0.3,1.2,0.1,1.5c0.2,0.3,0.5,0.5,0.8,0.6
				C989,176,989.2,175.9,989.2,175.7z M993.5,166.5c1.8-0.3,2.5-1.4,1.8-3.4c-0.7,0.2-1.4,0.4-2.1,0.5c-0.8,0.1-1.6,0.4-2.6,0.8
				c0,0.3,0,0.8,0,1.3c-0.1,0.5-0.1,1.2-0.3,2.1c0.7-0.4,1.2-0.7,1.7-0.9C992.5,166.7,993,166.6,993.5,166.5z M998.2,148.1
				c-0.2-0.2-0.3-0.2-0.4-0.2c-0.1,0-0.2-0.1-0.4-0.2c-0.5,0.7-0.9,1.4-1.4,2c-0.5,0.6-0.8,1.4-1.1,2.2c0,0.2,0.2,0.4,0.4,0.6
				c0.3,0.2,0.5,0.5,0.7,0.9c0.3-0.4,0.6-0.6,1-0.7c0.3-0.1,0.6-0.3,0.7-0.7L998.2,148.1z M997.3,146.6c1.5-0.1,2.8-1.3,4-3.7
				s1.5-4.5,1-6.3c-0.9,1.9-1.7,3.6-2.5,5.1C999.1,143.2,998.3,144.9,997.3,146.6z M1003.4,132.7c2.1-1.5,3.2-2.4,3.3-2.9
				c0.1-0.4-0.6-1.1-2-2c-0.3,0.9-0.5,1.7-0.6,2.5C1003.9,131,1003.7,131.9,1003.4,132.7z"/>
			<path class="st0" d="M1138.7,197.4c0.6-0.9,1.5-1.6,2.6-2.1c1.1-0.5,2.4-0.4,4,0.4l-4.1,4.6c-1.8,2-3.4,3.9-4.9,5.7
				c-1.5,1.8-3.1,3.6-4.7,5.4c-0.3,0.4-0.7,0.6-1.1,0.7s-0.8,0.4-1.1,0.7c-0.3,0.4-0.6,0.7-0.8,1.1c-0.2,0.4-0.5,0.7-0.8,1.1
				l-2.2,2.4c0-0.2-0.2,0-0.7,0.6c-1.2,2.8-2.9,5.1-5.1,6.8s-4.2,3.7-6.2,5.9c-1.9,2-3.9,4-6,6.1c-2.1,2.1-4.2,4.1-6.3,6.1
				c-0.3,0.2-0.6,0.4-0.9,0.6c-0.2,0.2-0.5,0.4-0.9,0.6c-1,0.6-2.3,1.4-3.9,2.5s-3.3,2.3-5,3.6c-1.7,1.3-3.4,2.6-5,3.8
				c-1.6,1.2-2.8,2.1-3.7,2.7c-1.8,1.5-3.7,2.6-5.7,3.4s-4.1,1.4-6.3,1.9c-2.2,0.5-4.4,0.8-6.6,0.9c-2.2,0.1-4.3-0.5-6.2-1.9
				c-1.4-0.9-2.5-0.7-3.3,0.7c-0.4,1.2-1.1,1.9-2.1,1.9c-0.9,0.1-1.9,0-2.9-0.1c-1,0.1-1.9-0.1-2.7-0.5c-0.8-0.4-1.3-1.2-1.6-2.6
				c-0.2,0-0.3,0.1-0.4,0.1c-0.1,0.1-0.2,0.1-0.4,0.1c0,0.3,0,0.7-0.1,1.1c-0.1,0.4-0.1,1,0,1.7c-0.9-0.8-1.6-1.6-2.2-2.3
				c-0.6-0.7-1.2-1.5-1.9-2.3c0-0.2-0.1-0.3-0.3-0.5c0-0.2-0.1-0.3-0.3-0.5l0-0.2l-0.9-1.5c-1-3-2.5-5.3-4.3-6.9
				c-0.7-0.5-1.2-1.1-1.5-1.8s-0.7-1.5-1-2.4c-0.6-0.8-1.2-1.6-1.8-2.4c-0.7-0.8-1.2-1.6-1.8-2.4s-1-1.6-1.3-2.5
				c-0.3-0.8-0.7-1.8-1.1-2.7c-0.8-2.3-1.5-4.6-2.1-6.9s-0.8-4.6-0.6-7c0.1-1.7,0.2-3.3,0.3-4.9c0.2-1.5,0.3-3.2,0.3-4.9
				c0.2-0.2,0.2-0.4,0.2-0.8c-0.3-2.9-0.1-5.6,0.8-8.1c0.9-2.5,1.7-5,2.3-7.4c0.1-0.5,0.6-1,1.4-1.4c-1.7-1.9-1.2-3.4,1.3-4.4
				c0.5-0.5,0.7-1.1,0.7-1.6c-0.6-1.8-0.2-3.1,1.3-3.9l0.4-2.1c0.7-0.2,1.3-0.5,1.9-0.9c0.6-0.4,0.4-1.2-0.5-2.5
				c-0.2-0.2,0-0.6,0.6-1.4c0.5-0.8,1.1-1.4,1.6-1.8c0.3-0.4,0.6-0.6,0.8-0.8c0.2-0.2,0.2-0.5-0.2-1l2.2-1.7
				c-0.4-0.5-0.9-1.1-1.6-1.7c2.4-0.1,3.1-0.9,2.2-2.2c0.8-0.9,1.5-1.8,2-2.6c0.5-0.8,1.1-1.6,1.8-2.5c0.3-0.7,0.6-1.4,1-2.1
				c0.4-0.7,0.7-1.5,1-2.4c0.2,0,0.3-0.1,0.4-0.1s0.2-0.1,0.4-0.1c1.8-1,2.9-1.7,3.2-2.1c0.3-0.4,0.2-1.5-0.2-3.2
				c0.3-0.2,0.7-0.3,1.1-0.3c0.4,0,0.8-0.1,1.1-0.3c-0.4-0.3-0.7-0.7-1.1-1.1c-0.4-0.4-0.7-0.9-1.1-1.3c2.3-3.4,4.9-7.1,7.7-11.2
				c-0.3,1-0.5,1.7-0.6,2.1c0.2,0,0.3,0,0.4,0.1s0.2,0.1,0.4,0.1c0.3-0.5,0.6-1.1,0.9-1.6s0.7-1.2,1.2-2.1c1.3-0.4,1.8-1.6,1.3-3.4
				c-0.2-1,0.3-2.2,1.6-3.7s2.6-2.4,3.9-2.8l1-0.1c-0.6-1.5-0.5-2.6,0.4-3.3c0.9-0.7,1.6-1.5,2-2.4c1.2-2.1,2.6-4.1,4.2-5.9
				s3.2-3.7,4.8-5.7c1.6-2.1,3.3-4.2,5.1-6.1c1.8-1.9,3.4-4,4.6-6.3c1.5-2.7,3.3-5,5.2-7.1c1.9-2.1,4-4.1,6.3-6.1
				c0.3-0.4,0.7-0.7,1.2-1c0.5-0.3,1-0.6,1.5-1c0.7-0.4,1.2-0.5,1.5-0.3l7.1,2.6c0.2,0,0.3,0,0.5,0.1c0.2,0.1,0.3,0.1,0.5,0.1
				c0.9,0.3,1.7,0.6,2.3,0.9c0.7,0.3,1.3,0.8,1.9,1.7c0.6,0.7,1.2,1.2,1.9,1.7s1.4,0.8,2.1,1.2c1.9,1.1,3.4,2.3,4.3,3.8
				c0.9,1.5,1.9,3.1,2.9,4.9c0,0.2,0.1,0.3,0.3,0.5c0.4,1,0.7,2.1,0.8,3.3c0.2,1.2,0.5,2.3,1.1,3.5c1,1.8,1.7,3.6,2.2,5.2
				s1.3,3.3,2.2,5c1,1.8,1.2,3.7,0.6,5.6s-0.4,3.8,0.3,5.6c0,0.2-0.1,0.4-0.2,0.6c-0.2,0.3-0.3,0.6-0.4,0.9c1.6,0.9,2.1,1.9,1.4,2.9
				c-0.6,1-1.1,2-1.3,3c-0.1,1-0.2,2-0.3,3c-0.1,0.9-0.3,1.9-0.6,3c-0.3,0.9-0.4,1.7-0.5,2.5s-0.5,1.5-1.3,2.2
				c-0.3,0.4-0.5,0.8-0.4,1.2c0,0.4,0,0.8-0.2,1.2c-0.8,1.8-1.6,3.4-2.5,5c-1.4,2.8-2.8,5.3-4.4,7.4c-0.9,1.6-1.8,3.2-2.8,4.8
				c-0.9,1.6-1.8,3.1-2.8,4.5c-0.8,1.4-1.6,2.6-2.4,3.7s-1.7,2.3-2.4,3.7c-0.6,0.9-1.2,2-1.6,3.4c-0.3,0.9-0.7,1.4-1.2,1.6
				c-1.6,1-2.9,2.2-3.7,3.7s-1.8,3-2.9,4.4c-0.8,0.9-1.8,1.8-2.9,2.7s-2.2,1.8-3.2,2.8c-0.8,0.7-1.6,1.5-2.3,2.2
				c-0.7,0.7-1.5,1.5-2.3,2.2c-1,0.9-2,1.7-3,2.5s-2.2,1.6-3.3,2.5c-0.3,0-0.6,0.1-0.8,0.3c-2.3,2-4.7,3.5-7.4,4.4
				c-2.7,0.9-5.3,1.9-8,2.9c-1,0.4-1.8,0.6-2.3,0.6l-0.2,0c-2.2,0.6-5.1,1.2-8.8,1.6c-3.7,0.4-6.7,0.4-8.9,0l-0.3-0.2l-1.5,0.9
				c0.4,1.7-0.2,3.1-2,4.2c-0.3,0.2-0.5,0.5-0.6,0.8c-0.1,0.4-0.2,0.7-0.3,1c-0.3,0.4-0.5,0.7-0.6,0.9s-0.3,0.6-0.6,0.9
				c-0.8,0.9-0.9,1.5-0.3,1.7c0.6,0.2,1.1,0.5,1.4,0.8c-0.3,0.9-0.5,1.7-0.6,2.6c-0.1,0.9-0.2,1.7-0.3,2.6c-0.3,0.7-0.6,1.1-0.9,1.3
				c-1.4,1.6-1.5,3.4-0.2,5.4c0.6,0.8,0.5,1.8-0.1,2.8c-0.6,1.2-0.4,2.2,0.7,3c0.5,0.1,1,0.8,1.4,2l0.9,1.5c0.2,0.8,0.4,1.7,0.6,2.6
				c0.1,0.9,0.5,1.8,1.1,2.6c1.1,1.5,2.6,2.3,4.5,2.5c3.4,0.3,7.2-0.2,11.4-1.6c4.2-1.4,7.6-3.1,10.4-5.1c1.5-1.1,3.2-2.5,5.4-4
				c2.1-1.6,4.3-3.2,6.6-5c2.3-1.8,4.4-3.5,6.4-5.2c2-1.7,3.8-3.2,5.2-4.3c3.6-3.1,7-6.3,10.4-9.6s6.8-6.6,10.1-9.8
				c2.9-2.9,5.7-5.8,8.4-8.7c2.7-2.9,5.4-5.9,8.1-8.9c2.4-2.4,4.8-4.7,7.1-7.1c2.3-2.4,4.6-4.8,6.8-7.3c0.7-0.6,1.2-1.2,1.7-1.9
				c0.5-0.7,0.9-1.4,1.4-2.1c0.2,0.2,0.4,0.3,0.5,0.4c0.2,0.1,0.4,0.3,0.6,0.6c-3.8,4.7-7.6,9.2-11.5,13.7c-3.9,4.5-7.7,9-11.3,13.5
				c-0.3,0.5-0.6,1-0.8,1.4c-0.2,0.4-0.5,0.8-0.8,1.2c-0.9,1.2-1.9,2.5-3,3.6c-1,1.2-2,2.3-3,3.4c-0.2,0.2-0.3,0.3-0.5,0.4
				c-0.2,0.1-0.3,0.2-0.5,0.4c-0.3,0.2-0.5,0.4-0.6,0.6c-0.1,0.2-0.3,0.4-0.6,0.8c0.3,0,0.7,0,1.2,0.2c0.4,0.1,0.8,0.1,1.2-0.1
				c0.5-0.4,0.9-0.8,1.3-1.2c0.4-0.4,0.8-0.9,1.3-1.2c2.4-2.2,4.7-4.5,7-6.8C1134.5,202.6,1136.6,200.1,1138.7,197.4z M1031.4,201.2
				c0-0.2,0-0.3,0.1-0.3c0.1,0,0.1-0.1,0.1-0.3c-0.4-1-0.8-1.8-1.2-2.5c-0.2-0.2-0.4-0.2-0.8-0.2c0,0.3,0,0.7-0.2,1
				c-0.2,0.4-0.1,0.7,0.1,1C1029.5,200.2,1030.1,200.6,1031.4,201.2z M1031.9,195.8c0.6-0.4,1.3-0.8,2.1-1.4
				c-1.4-1.3-1.4-2.6,0.3-4.1c0.2-0.2,0.2-0.4,0.1-0.8c-0.1-0.3-0.1-0.7,0.1-1c-0.2,0-0.3,0-0.4-0.1s-0.2-0.1-0.4-0.1
				c-0.8,1.4-1.4,2.8-2,4.1c-0.6,1.3-1.3,2.7-2,4.1l0.5,0.5C1030.7,196.6,1031.4,196.2,1031.9,195.8z M1033.5,186.5
				c0.4,0.3,0.8,0.6,1.3,0.8c0.5,0.2,1.1,0.5,1.6,0.8c0.3-0.5,0.6-1.1,0.8-1.6c0.2-0.5,0.4-1.1,0.5-1.8c0.2-0.4,0.2-0.8,0-1.4
				s-0.2-1.1-0.2-1.6c0.3,0.1,0.6,0.3,0.7,0.3c0.1,0.1,0.3,0.2,0.7,0.3c0.8-0.9,1.5-1.8,2-2.6c0.5-0.8,1.1-1.6,1.8-2.5
				c0.2-0.4,0.3-0.6,0.3-0.7s0.2-0.3,0.3-0.7c0-0.2-0.2-0.3-0.4-0.5c-0.3-0.1-0.5-0.1-0.6,0c-0.3,0-0.8,0.3-1.2,0.8
				c-0.2,0.4-0.3,0.7-0.3,0.9s-0.2,0.6-0.3,0.9c-0.2,0-0.4-0.1-0.8-0.5c0.3-0.7,0.6-1.4,1-2.1c0.4-0.7,0.9-1.2,1.6-1.6
				c1.5-0.8,2.3-1.3,2.6-1.7c0.2-0.4-0.1-1.3-1.1-2.7l1.5-0.9c0.7-0.4,1.4-0.8,2.1-1.1c0.7-0.4,1.2-0.8,1.3-1.1
				c0.1-1.7,0.6-2.9,1.6-3.5c1-0.7,1.9-1.4,2.7-2.3c-0.4-1.7-0.8-2.8-1-3.3c1.1-0.8,2.1-1.6,2.9-2.5c0.6-0.6,1.2-1.2,1.7-1.9
				c0.5-0.7,0.9-1.4,1.4-2.1c1.1-1.4,0.7-2.5-1.2-3.2c-5.1,5.8-9.4,12-12.9,18.7C1040.3,172.9,1036.9,179.7,1033.5,186.5z
				 M1035.6,219.1c0.5-0.4,0.7-1,0.8-2s-0.2-1.7-0.5-2.4c-0.3,0.7-0.5,1.3-0.7,1.8c-0.1,0.5-0.4,1.1-0.7,1.8c0,0.2,0.1,0.3,0.2,0.5
				c0.1,0.2,0.2,0.3,0.2,0.5C1035.3,219.4,1035.6,219.3,1035.6,219.1z M1037.6,211.6c0.8-1.6,1.4-3.1,1.9-4.7
				c0.5-1.6,1.1-3.1,1.9-4.7c-0.3,0-0.5-0.1-0.5-0.5c-0.7,0.4-1,0.7-0.9,1.1c-0.3,1-0.7,2.1-1.2,3c-0.5,1-1,2-1.5,3
				c-0.3,0.5-0.4,1.5-0.3,2.8L1037.6,211.6z M1043.2,182.4c0.5-0.9,1.2-1.6,2.2-2.2c1-0.6,1.2-1.6,0.6-3.1c-0.8,0.1-1.3,0.2-1.5,0.4
				c-0.6,0.7-1.2,1.4-1.5,2.1c-0.4,0.7-0.8,1.4-1.3,2.1c-0.5,0.5-0.4,0.8,0.3,0.8C1042.3,182.9,1042.8,182.9,1043.2,182.4z
				 M1046.5,189.8c0.9-1.4,1.8-2.7,2.6-3.9c0.8-1.1,1.6-2.4,2.6-3.9c-1.5,0.3-2.8,1.2-3.9,2.7C1046.6,186.3,1046.2,188,1046.5,189.8
				z M1075.4,165c-1.1,1.6-2.1,3.2-3,4.9c-0.9,1.7-1.9,3.3-3,4.9c-0.2,0.2-0.4,0.4-0.7,0.6s-0.6,0.2-0.8,0.1c-0.9-0.1-1.4,0-1.5,0.5
				s-0.3,1-0.4,1.7c0,0.5-0.1,1.3-0.4,2.3c-0.3,0.7-0.6,1.4-0.9,2c-0.3,0.6-0.6,1.3-0.9,2l-1.2,1.4c-0.3,0.5-0.7,1.1-1.2,1.6
				c-0.5,0.5-0.9,1.2-1.2,1.9c-0.8,1.8-1.4,3.5-1.8,5.2s-1.4,3.3-2.9,4.8l-0.5,0.5l-3,5c1.4-0.1,2.8,0,4.4,0.2
				c1.6,0.2,3,0.1,4.3-0.5c0.8-0.4,1.6-0.7,2.2-0.9c0.7-0.2,1.4-0.5,2.2-0.9c1-0.2,1.8-0.4,2.3-0.5c0.5-0.1,1.1-0.4,1.7-0.8
				c0.5-0.4,1-0.7,1.6-0.9c0.6-0.2,1.2-0.5,1.9-0.9c0.3,0,0.7-0.2,1-0.6l7.3-5.8c0.8-0.6,1.6-1.1,2.5-1.6c0.8-0.5,1.6-1.1,2.4-1.8
				c2.3-1.8,4.3-3.8,6.2-5.9c1.8-2.1,3.4-4.3,4.8-6.8l0.9-1.1c1.1-1.4,2.2-2.9,3.2-4.3c1-1.4,2-2.9,2.9-4.3c1.2-1.8,2.5-3.6,3.8-5.3
				s2.5-3.6,3.8-5.3c0.3-0.4,0.5-0.8,0.4-1.3c0.2-0.4,0.2-0.8,0.3-1.3s0.2-0.9,0.6-1.3c2.3-4.2,4.2-8.5,5.8-12.9c1.6-4.4,2.6-9,3-14
				c0.2-1.7,0.2-3.4,0.1-5.1c-0.2-1.7-0.3-3.4-0.4-5.1c0-0.3-0.2-0.8-0.5-1.2c-0.3-0.5-0.6-0.7-0.9-0.7c-0.8,0.1-1.6,0.4-2.2,1.2
				c-0.3,0.4-0.9,1.1-1.9,2.2c-0.9,1.1-1.6,1.7-1.9,1.9c-0.6,0.7-1.2,1.3-1.8,1.9c-0.6,0.5-1.2,1.1-1.8,1.6c-1,0.7-1.9,1.6-2.7,2.5
				s-1.8,1.7-2.9,2.5c-1.3,0.9-2.4,2.1-3.4,3.5c-0.9,1.4-2,2.8-3.1,4c-0.5,0.5-1,1.1-1.7,1.5c-0.7,0.5-1.3,0.9-2,1.3
				c-0.6,0.7-1,1.3-1.2,1.6c-0.8,1.2-1.4,2.5-1.9,3.7c-0.5,1.2-1.2,2.5-1.9,3.7c-0.8,1.2-1.7,2.4-2.7,3.6c-1,1.2-2,2.3-3,3.4
				c-1.3,1.6-2.4,3.3-3.5,5.1c-1.1,1.8-2.7,3.1-4.9,3.9c0,0.5,0.1,1,0.2,1.4C1075.5,164.3,1075.5,164.7,1075.4,165z M1061.2,142.7
				c-1.7-0.1-3,1-3.9,3.3c0.7,0.3,1.6,0.8,2.6,1.4c-0.2-0.3-0.3-0.7-0.4-1s-0.3-0.8-0.5-1.2c0.3,0,0.7,0,1,0.1c0.3,0.1,0.7,0,1-0.2
				c0.3,0,0.8-0.4,1.5-1.2c-0.3-0.2-0.6-0.4-0.7-0.7C1061.8,142.8,1061.5,142.7,1061.2,142.7z M1063,138.7c-0.3,0.2-0.7,0.5-1.1,1
				c-0.4,0.4-0.8,0.9-1.1,1.2c0.5,0.5,1.3,1,2.4,1.6c0,0.3,0.2,0.5,0.5,0.5c0.3-0.5,0.6-1,0.8-1.5c0.2-0.4,0.5-1,0.8-1.7
				c-0.2-0.2-0.4-0.3-0.8-0.5c-0.3-0.1-0.7-0.3-0.9-0.5C1063.4,138.8,1063.2,138.7,1063,138.7z M1067.3,134.6
				c-0.3,0.4-0.7,0.8-1.1,1.3c-0.4,0.5-0.8,1-1.1,1.3c0,0.3,0.1,0.6,0.3,0.8c0.3-0.2,0.7-0.3,1-0.3s0.6-0.2,0.7-0.6
				c0.3-0.4,0.5-0.8,0.4-1.2c0-0.4,0-0.8,0.2-1.2C1067.7,134.7,1067.5,134.6,1067.3,134.6z M1090.5,190.7c0.3-0.4,0.5-0.9,0.5-1.7
				s0.1-1.5,0.2-2.2c-1.4,0.1-2.2,0.8-2.7,2.2c-0.3,0.5-0.7,1.1-1.2,1.6c-0.5,0.5-0.9,1.1-1.2,1.6l-2.9,2.5l0.8,0.7
				c1.1-0.8,2.2-1.5,3.3-2.2C1088.5,192.4,1089.5,191.6,1090.5,190.7z M1093.8,186.1c0.3,0,0.7-0.4,1-1.1c0.2-0.2,0.2-0.4,0-0.5
				c-0.2-0.2-0.4-0.2-0.5-0.2c-0.7-0.3-1.3-0.2-1.8,0.4c-0.3,0.4-0.5,0.7-0.6,0.9s-0.3,0.6-0.6,0.9
				C1092.4,186.5,1093.3,186.3,1093.8,186.1z M1177.3,149l0.1,1c-0.5,0.9-0.9,1.9-1.3,3c-0.4,1.1-1.1,1.9-1.9,2.3
				c-1,0.6-1.7,1.2-2.1,2s-0.9,1.5-1.5,2.3c-0.8,1.1-1.6,2.2-2.3,3.5c-0.8,1.2-1.6,2.5-2.3,3.7c-0.3,0.7-0.6,1.4-0.8,2.2
				s-0.5,1.4-0.8,2c-0.8,1.4-1.7,2.7-2.7,3.7c-1,1.1-1.9,2.3-2.7,3.7c-0.8,0.9-1.6,1.7-2.3,2.4c-0.7,0.7-1.4,1.6-2,2.7
				c-0.3,0.9-0.8,1.7-1.6,2.4s-1.5,1.5-2.2,2.4l-0.7,0.8c-0.2,1.6-0.9,2.6-2,3.3c-1.1,0.7-2.2,1.4-3.3,2.1c-1.1-0.9-1.6-1.6-1.7-1.8
				s0.5-0.8,1.7-1.8c0.3-0.4,0.6-0.8,0.9-1.3c0.3-0.5,0.7-1,1.2-1.4c0.5-0.5,1-1.1,1.6-1.6c0.6-0.6,1.2-1.1,1.8-1.6
				c0.8-1.1,1.7-2.1,2.6-3.1c1-1,1.8-2,2.6-3.1c0.8-1.1,1.5-2.1,2.2-3.1c0.7-1,1.4-2,2.2-3.1c0.8-1.4,1.4-2.8,2-4.1
				c0.6-1.3,1.3-2.6,2.1-3.8c0.6-0.9,1.3-1.7,2.2-2.4c0.8-0.7,1.6-1.5,2.4-2.4l-0.8-0.5c0.2-0.3,0.2-0.8,0.3-1.4
				c0-0.6,0.2-0.9,0.3-0.9c1.9-0.1,2.7-0.7,2.4-1.8c-0.2-1.1-0.2-2.1,0.1-2.9c0.3-0.7,0.4-1.3,0.4-1.8c0.2,0,0.3,0,0.4,0.1
				s0.2,0.1,0.4,0.1c-0.4-0.3-0.6-0.6-0.8-0.8c-0.2-0.2-0.5-0.5-0.8-0.8c-2.6,4.2-5.3,8.4-7.9,12.4s-5.6,7.9-8.7,11.6l-0.5-0.5
				c0.3-0.4,0.5-0.7,0.6-1.1c0.1-0.3,0.2-0.7,0.6-1.1c1.7-2.5,3.4-4.9,5-7.3c1.6-2.4,3.3-4.8,5.1-7.1c1.2-2.1,2.3-4.1,3.2-6.1
				c0.3-0.9,0.7-1.7,1.2-2.5c0.5-0.8,1.1-1.6,1.5-2.3c0.6-0.7,1.3-1.4,1.9-2.2l1.6,1.4c0.4,0.3,0.8,0.7,1.3,1.1
				c0.5,0.4,1,0.8,1.3,1.1c0,0.3,0.1,0.7,0.2,1.1C1177.2,148.3,1177.3,148.7,1177.3,149z"/>
			<path class="st0" d="M1232.9,148.4c-0.7,0.6-1,1.2-1.2,2c-0.1,0.8-0.2,1.5-0.4,2.2c-0.1,0.7-0.4,1.3-0.9,1.7
				c-0.5,0.5-1.4,0.5-2.8,0.1c0.4,0.5,0.8,1.2,1.2,2.2c0.1,1.2,0.1,2.4,0.1,3.6s0.2,2.3,0.6,3.3c1.2,3.3,2.6,6.7,4.1,10
				c1.5,3.3,2.8,6.6,4.1,10c1,2.8,2.2,5.5,3.6,8.1c1.3,2.6,2.8,5.1,4.3,7.5c1.1,1.6,2.2,3.3,3.1,4.9c0.9,1.6,1.9,3.4,2.9,5.2
				c0.4,0.3,0.6,0.6,0.6,1c-0.8,1.6-0.7,2.8,0.1,3.7s1.6,1.7,2.3,2.5c1.5,1.8,2.9,3.4,4.3,5c1.4,1.5,2.6,3.2,3.8,5
				c0.4,0.5,0.6,1.2,0.6,2c0.1,0.9,0.1,1.7,0.2,2.6c0,0.3,0,0.7-0.1,1.2s0.1,0.8,0.4,1.1c2.7,2.4,5.3,4.8,7.9,7.3s5.9,4,10,4.6
				c-1.2,2.3-3,3.2-5.5,2.6c-2.4-0.5-4.9-0.9-7.5-1.2s-5.1-0.8-7.5-1.4c-2.3-0.7-4.4-1.6-6.6-2.7c-2.1-1.1-4.2-2.4-6.1-4
				c-9-7.1-16.9-15.7-23.8-25.6c-3.3-4.4-6.5-8.9-9.4-13.6s-6-9.3-9.2-13.9c-0.4-0.3-0.8-0.7-1.5-1.1c-0.6-0.4-1.1-0.5-1.4-0.3
				c-1.2,0.8-2.2,1.6-3.3,2.4c-1.1,0.8-2.2,1.7-3.3,2.6c1.8,0.9,2.2,1.8,1.4,2.6s-1.6,1.7-2.4,2.6c-1.3,1.4-2.5,2.7-3.7,3.8
				s-2.4,2.4-3.7,3.8c-0.8,0.7-1.5,1.5-2,2.3s-1.2,1.6-2,2.6l0.3,0.2c0,0.2,0.1,0.3,0.3,0.5c-0.8,1.2-1.5,2.4-2.2,3.3
				s-1.5,1.9-2.2,2.8c-1.7,2.3-3.2,4.8-4.3,7.3c-1.1,2.5-3,4.6-5.6,6.1c-0.7,0.4-1.1,0.9-1.4,1.6c-0.3,0.7-0.7,1.5-1.1,2.4
				s-1,1.7-1.5,2.4s-1.5,1.1-2.9,1.2c-0.5-0.1-1.2,0.2-2,1.1c-1.7,2.5-3.4,4.9-5.2,7.4c-1.7,2.4-2.7,5.3-2.8,8.7
				c-0.1,1.5-0.4,3.1-1,4.7s-1,3.1-1.2,4.7c-0.1,0.7-0.1,1.4,0,2s0.2,1.6,0.3,2.8c-0.5-0.1-1.2-0.1-2,0c-0.8,0.1-1.5,0-2.1-0.2
				c-2.5-1.4-4.5-3.1-6.1-5.1c-1.6-2-2.5-4.5-2.9-7.4c-0.7-6.4-0.3-12.6,1.4-18.5s3.8-11.7,6.3-17.3c1.2-2.6,2.4-5.2,3.5-7.8
				s2.5-5,4-7.3c4.8-7.3,9.7-14.4,14.5-21.5c4.8-7,9.8-14.1,14.8-21.2c0.9-1.4,1.9-2.7,2.9-3.9c1-1.2,2-2.4,3-3.6
				c1.3-1.3,1.5-2.8,0.7-4.6c-0.8-1.5-1.5-3-2.1-4.6s-1.2-3.2-1.8-4.9c-1-2.8-2.1-5.8-3.2-8.8c-1.1-3-2.2-6-3.2-9
				c-1.9-5.3-3.7-10.6-5.6-15.9c-1.9-5.3-3.8-10.6-5.8-15.9c-0.4-1-0.6-1.8-0.5-2.4c0.1-0.6,0.6-1.3,1.8-2c1.3-0.8,2.6-1.4,3.7-2
				c1.2-0.6,2.6-0.8,4.3-0.5c1.2,0.1,2.4-0.2,3.5-0.9s2.4-1.2,3.7-1.6c0.5-0.2,1-0.4,1.5-0.6s0.9-0.1,1.3,0.2c1.9,1.2,4,1.7,6.1,1.3
				c2.1-0.4,4.1-0.3,6,0.3c1.6,0.2,3.3,1.4,5.2,3.4c1.9,2,3,3.8,3.3,5.3c0.6,3.9,1.2,7.7,1.7,11.5s1.2,7.7,1.7,11.5
				c0.2,1.3,0.6,2.7,1,4c0.4,1.3,0.9,2.8,1.3,4.5c0.3-0.4,0.7-0.6,1.1-0.7s0.8-0.3,1.1-0.7l14.4-15.5c3.4-3.4,6.7-6.9,10.1-10.3
				s6.7-6.9,10.1-10.3c3.6-3.1,7.1-6.2,10.5-9.3s7-6.2,10.5-9.3c1.8-1.5,3.6-2.9,5.5-4.2c1.9-1.3,4.1-1.8,6.7-1.4
				c0.7,0.1,1.3,0.2,1.8,0.3c0.5,0.1,1,0.3,1.6,0.9c-0.5,0.4-1,0.8-1.6,1.1c-0.6,0.3-1.2,0.7-1.8,1.1l0.1,0.8c0.7,0,1.3,0,1.8,0
				c0.5,0.1,1.1,0.1,1.8,0c1.4-0.1,2.8-0.1,4.3-0.1c1.5,0,2.8,0.6,3.9,1.9c0.4,0.3,0.6,0.7,0.7,1.2c0.1,0.5,0.3,0.9,0.7,1.2
				c0.2,0.3,0.3,0.6,0.3,0.9s0.1,0.5,0.3,0.6c1.1,0.8,2.1,1.6,3.2,2.5s2.2,1.6,3.5,2.2c2.3,0.9,2.8,2.3,1.5,4.2
				c0.4,0.7,0.8,1.2,1.1,1.7c0.4,0.5,0.7,1,1.1,1.5c1,1.8,1.4,3.2,1.3,4c-0.1,0.9-1,2-2.6,3.5c-1.8,1.5-3.5,3-5.2,4.7
				c-1.7,1.6-3.4,3.3-5.2,4.9c-0.3,0.4-1,0.9-1.9,1.7c-1.8,1-3.6,1.8-5.2,2.5c-1.7,0.7-3.4,1.5-5.2,2.5c-1.3,0.9-2.5,1.9-3.7,2.8
				c-1.1,0.9-2.4,1.8-3.7,2.8c-1.3,0.9-2.6,1.8-3.8,2.5c-1.2,0.8-2.4,1.6-3.6,2.5c-1.8,1.6-3.4,3.4-5,5.2c-1.6,1.8-3.3,3.5-5,5.2
				c-0.6,0.7-1.3,1.3-2.1,1.8c-0.7,0.5-1.4,1-2.1,1.5c-2.4,2.4-4.8,4.6-7.1,6.8s-4.7,4.5-7.1,6.8c-3.1,2.9-6.4,4.5-10.2,4.7
				c-0.3-0.1-0.6-0.1-0.8,0.2c-0.2,0.3-0.4,0.5-0.7,0.7c0,0.2,0.1,0.3,0.2,0.4s0.1,0.2,0.2,0.4L1232.9,148.4z M1154.6,219.1
				c-1,0.4-1.9,0.8-2.9,1.2s-1.8,1-2.6,1.7c-0.6,0.6-1.1,1.3-1.3,2.2c-0.2,0.9-0.4,1.9-0.7,2.7c0,0.3,0.3,0.7,1,1.1
				c0.6,0.4,1.4,0.9,2.3,1.5c-0.1-2-0.2-3.8-0.1-5.4c0.1-1.5,1.3-2.3,3.7-2.3c0.3,0,0.6-0.3,0.7-0.8s0.4-1,0.7-1.3L1154.6,219.1z
				 M1157.1,214.1c0.9-2.6,1.7-5,2.6-7.1c0.2-0.4,0.8-0.6,2-0.6c1.1,0.4,1.7,0.4,2-0.1s0.5-1.2,0.6-2.1c0.3-1.2,0.5-2.4,0.8-3.6
				c0.3-1.2,0.7-2.3,1.3-3.4c1.1-1.8,2.2-3.4,3.3-5.1s2.2-3.2,3.3-4.8c0.3-0.5,0.4-1.4,0.3-2.6c-1.2,0.1-1.9,0.3-2.3,0.6
				c-0.5,0.4-0.9,0.8-1.2,1.2c-0.3,0.4-0.6,0.9-0.9,1.5c-1.6,2.5-3.1,5-4.7,7.4s-3.1,5-4.7,7.4c-0.3,0.7-0.6,1.4-0.9,2.2
				c-0.3,0.8-0.7,1.5-1.1,2.2c-0.8,1.2-1.6,2.4-2.6,3.6c-0.9,1.2-1.9,2.5-2.8,3.9c-0.3,0.4-0.5,0.8-0.4,1.4c0,0.6,0,1.1-0.2,1.7
				c0.2,0.2,0.3,0.2,0.4,0.2c0.1,0,0.2,0.1,0.4,0.2C1154.1,216.7,1155.6,215.2,1157.1,214.1z M1170.2,202.6c1.9,0.4,3.1,0.4,3.7,0.1
				c0.6-0.3,1.2-1,1.8-2c0.3-0.4,0.6-0.8,0.7-1.3c0.1-0.5,0.4-0.8,0.7-0.8c2.2-0.1,3.6-1.1,4.3-2.8c0.7-1.7,1.6-3.2,2.9-4.3
				c2.3-2,4.2-4.2,6-6.6s3.4-4.9,5.2-7.3c0.6-0.9,1.2-1.7,1.8-2.5c0.5-0.8,1-1.6,1.2-2.5c0.3-0.4,0.4-0.8,0.2-1.3
				c-0.2-0.5-0.3-0.9-0.3-1.3c-0.3,0-0.8,0-1.3-0.1c-0.5-0.1-0.9,0.1-1.2,0.5c-1.4,1.6-3.1,3.1-4.8,4.4c-1.8,1.3-2.8,3.2-3,5.8
				l-0.7,0.8c-1.3,1.4-2.5,2.8-3.6,4.1c-1.1,1.3-2.3,2.6-3.6,4.1c-0.8,0.9-1.5,1.9-2.1,3.1c-0.6,1.1-1.3,2.2-2.1,3.3
				c-0.8,1.1-1.7,2.1-2.6,3.2C1172.3,200.1,1171.3,201.3,1170.2,202.6z M1174.3,183.7c0.5-0.4,1-0.7,1.6-1c0.6-0.3,1-0.6,1.3-1
				c0.6-0.6,1.2-1.1,1.6-1.8c0.4-0.6,0.9-1.3,1.5-2c0.3-0.4,0.6-0.7,0.7-1.1c0.2-0.4,0.4-0.7,0.7-1.1c0.8-1.1,1.6-2.2,2.3-3.5
				c0.8-1.2,1.6-2.4,2.3-3.5c0.9-1.2,1.9-2.4,3-3.4c1-1,2.1-2.1,3.2-3.4c0.6-0.7,1-1.4,1.2-2.1c0.1-0.7-0.3-1.4-1.2-2.2
				c-1.6,1.3-3.5,3.2-5.6,5.8c-2.1,2.6-4.2,5.2-6.2,7.9c-2,2.7-3.6,5.2-4.9,7.6C1174.7,181.5,1174.1,183,1174.3,183.7z
				 M1190.2,188.8c-0.8,0.9-1.6,1.8-2.4,2.6c-0.8,0.8-1.6,1.7-2.4,2.6c0.2,0.3,0.6,0.7,1.1,1.2c0.8-0.9,1.6-1.8,2.2-2.8
				c0.7-1,1.4-1.9,2.2-2.8L1190.2,188.8z M1196.9,181.5c-2.8-1-4.2,0.9-4.2,5.9c0.8-1.2,1.5-2.3,2.1-3.2
				C1195.4,183.3,1196.1,182.4,1196.9,181.5z M1235.9,109.9c-0.4-0.3-0.6-0.5-0.8-0.6c-0.2-0.1-0.4-0.3-0.8-0.6
				c-0.3,0.4-0.6,0.7-0.8,1.1c-0.2,0.4-0.5,0.7-0.8,1.1s-0.6,0.7-0.7,1.1c-0.2,0.3-0.4,0.7-0.7,1.1c-2.2,2.2-4.4,4.4-6.6,6.5
				c-2.2,2.2-4.4,4.4-6.6,6.8c-0.3,0.4-0.5,0.9-0.5,1.6c0,0.7-0.1,1.4-0.2,2.1c0.7-0.4,1.3-0.7,1.9-0.9c0.6-0.2,1.1-0.5,1.6-0.9
				c1-0.9,1.8-1.9,2.6-3.1c0.8-1.2,1.6-2.2,2.4-3.1c1.3-1.3,2.5-2.5,3.7-3.6c1.2-1.1,2.4-2.3,3.7-3.6c0.6-0.9,1.1-1.7,1.5-2.5
				C1235,111.6,1235.5,110.7,1235.9,109.9z"/>
		</g>
	</g>
</g>
<g>
	<path class="st0" d="M275.1,376.5L291,483.2h-28.4l-1.5-19.2h-9.9l-1.7,19.2h-28.7L235,376.5H275.1z M260.4,445.1
		c-1.4-12.1-2.8-27-4.2-44.8c-2.8,20.4-4.6,35.4-5.3,44.8H260.4z"/>
	<path class="st0" d="M355.9,395.8v87.5h-27.1l0.5-7.3c-1.8,3-4.1,5.2-6.8,6.6c-2.7,1.5-5.8,2.2-9.3,2.2c-4,0-7.3-0.7-10-2.1
		c-2.6-1.4-4.6-3.3-5.8-5.6c-1.3-2.3-2-4.8-2.3-7.3c-0.3-2.5-0.5-7.5-0.5-15.1v-59h26.6v59.5c0,6.8,0.2,10.9,0.6,12.1
		c0.4,1.3,1.5,1.9,3.4,1.9c2,0,3.2-0.7,3.5-2c0.4-1.3,0.6-5.6,0.6-12.7v-58.9H355.9z"/>
	<path class="st0" d="M426,395.8v67.4c0,9.1-0.2,15-0.6,17.6c-0.4,2.7-1.9,5.5-4.4,8.4c-2.5,3-6.1,5.2-10.6,6.8
		c-4.5,1.6-10.3,2.3-17.2,2.3c-8.5,0-15.3-1.4-20.4-4.3s-7.8-8.5-8-17h25.8c0,3.9,1.4,5.8,4.2,5.8c2,0,3.4-0.6,4-1.8
		c0.7-1.2,1-3.7,1-7.5V467c-2.3,2.1-4.7,3.6-7.2,4.7c-2.5,1.1-5.2,1.6-7.9,1.6c-4.8,0-8.7-1-11.8-2.9c-3.1-1.9-5.2-4.5-6.4-7.6
		c-1.1-3.1-1.7-7.6-1.7-13.4v-31.8c0-8.3,1.5-14.3,4.5-17.9c3-3.6,7.5-5.5,13.6-5.5c3.3,0,6.4,0.7,9.1,2c2.7,1.4,5.2,3.4,7.4,6.1
		l1.9-6.6H426z M399.3,419c0-4-0.2-6.5-0.7-7.6c-0.5-1.1-1.5-1.6-3.1-1.6c-1.5,0-2.6,0.6-3.3,1.9c-0.6,1.3-1,3.7-1,7.4v29.4
		c0,3.9,0.2,6.4,0.7,7.6c0.5,1.2,1.5,1.7,3,1.7c1.8,0,2.9-0.7,3.4-2.1s0.8-4.6,0.8-9.6V419z"/>
	<path class="st0" d="M496.4,395.8v87.5h-27.1l0.5-7.3c-1.8,3-4.1,5.2-6.8,6.6c-2.7,1.5-5.8,2.2-9.3,2.2c-4,0-7.3-0.7-10-2.1
		c-2.6-1.4-4.6-3.3-5.8-5.6c-1.3-2.3-2-4.8-2.3-7.3c-0.3-2.5-0.5-7.5-0.5-15.1v-59h26.6v59.5c0,6.8,0.2,10.9,0.6,12.1
		c0.4,1.3,1.5,1.9,3.4,1.9c2,0,3.2-0.7,3.5-2c0.4-1.3,0.6-5.6,0.6-12.7v-58.9H496.4z"/>
	<path class="st0" d="M560.4,423.7h-23.6V419c0-4-0.2-6.6-0.7-7.7c-0.5-1.1-1.6-1.6-3.5-1.6c-1.5,0-2.6,0.5-3.4,1.5
		c-0.7,1-1.1,2.5-1.1,4.4c0,2.7,0.2,4.6,0.6,5.9c0.4,1.3,1.5,2.6,3.4,4.1c1.9,1.5,5.7,3.7,11.5,6.5c7.7,3.8,12.8,7.3,15.2,10.7
		c2.4,3.3,3.6,8.2,3.6,14.6c0,7.1-0.9,12.5-2.8,16.1c-1.8,3.6-4.9,6.4-9.3,8.4c-4.3,2-9.5,2.9-15.7,2.9c-6.8,0-12.6-1.1-17.4-3.2
		c-4.8-2.1-8.1-5-9.9-8.6c-1.8-3.6-2.7-9.1-2.7-16.3v-4.2h23.6v5.5c0,4.7,0.3,7.8,0.9,9.2c0.6,1.4,1.8,2.1,3.5,2.1
		c1.9,0,3.2-0.5,4-1.4c0.7-0.9,1.1-2.9,1.1-6c0-4.2-0.5-6.8-1.5-7.8c-1-1.1-6.2-4.2-15.5-9.4c-7.8-4.4-12.6-8.4-14.3-12
		c-1.7-3.6-2.6-7.8-2.6-12.8c0-7,0.9-12.1,2.8-15.5c1.8-3.3,5-5.9,9.4-7.7c4.4-1.8,9.5-2.7,15.4-2.7c5.8,0,10.7,0.7,14.8,2.2
		c4.1,1.5,7.2,3.4,9.4,5.8c2.2,2.4,3.5,4.7,4,6.7c0.5,2.1,0.7,5.3,0.7,9.7V423.7z"/>
	<path class="st0" d="M597.6,384.1v13.8h7.2v13.8h-7.2v46.8c0,5.8,0.3,9,0.9,9.6c0.6,0.7,3.1,1,7.4,1v14.1h-10.7
		c-6.1,0-10.4-0.3-13-0.8c-2.6-0.5-4.9-1.7-6.9-3.5c-2-1.8-3.2-3.9-3.7-6.3c-0.5-2.4-0.7-7.9-0.7-16.6v-44.4h-5.7v-13.8h5.7v-13.8
		H597.6z"/>
	<path class="st0" d="M691.9,465v18.2h-58.6l0-15.2c17.4-28.4,27.7-46,30.9-52.7c3.3-6.7,4.9-12,4.9-15.8c0-2.9-0.5-5.1-1.5-6.5
		c-1-1.4-2.5-2.1-4.5-2.1s-3.5,0.8-4.5,2.4c-1,1.6-1.5,4.7-1.5,9.4v10.2h-23.9v-3.9c0-6,0.3-10.7,0.9-14.1c0.6-3.4,2.1-6.8,4.5-10.2
		c2.4-3.3,5.6-5.9,9.4-7.6c3.9-1.7,8.5-2.6,13.9-2.6c10.6,0,18.6,2.6,24,7.9c5.4,5.3,8.1,11.9,8.1,19.9c0,6.1-1.5,12.6-4.6,19.4
		c-3.1,6.8-12.1,21.3-27,43.4H691.9z"/>
	<path class="st0" d="M759.6,465v18.2H701l0-15.2c17.4-28.4,27.7-46,30.9-52.7c3.3-6.7,4.9-12,4.9-15.8c0-2.9-0.5-5.1-1.5-6.5
		c-1-1.4-2.5-2.1-4.5-2.1s-3.5,0.8-4.5,2.4c-1,1.6-1.5,4.7-1.5,9.4v10.2H701v-3.9c0-6,0.3-10.7,0.9-14.1c0.6-3.4,2.1-6.8,4.5-10.2
		c2.4-3.3,5.6-5.9,9.4-7.6s8.5-2.6,13.9-2.6c10.6,0,18.6,2.6,24,7.9c5.4,5.3,8.1,11.9,8.1,19.9c0,6.1-1.5,12.6-4.6,19.4
		c-3.1,6.8-12.1,21.3-27,43.4H759.6z"/>
	<path class="st0" d="M785.5,462.3v9.6c0,5-0.6,9.1-1.8,12.3c-1.2,3.2-3.2,5.9-6.2,8.2c-2.9,2.2-6.2,3.7-9.9,4.5v-7.6
		c2.6-1.5,4.1-3.5,4.5-6h-4.5v-20.9H785.5z"/>
	<path class="st0" d="M873.9,465v18.2h-58.6l0-15.2c17.4-28.4,27.7-46,30.9-52.7c3.3-6.7,4.9-12,4.9-15.8c0-2.9-0.5-5.1-1.5-6.5
		c-1-1.4-2.5-2.1-4.5-2.1c-2,0-3.5,0.8-4.5,2.4c-1,1.6-1.5,4.7-1.5,9.4v10.2h-23.9v-3.9c0-6,0.3-10.7,0.9-14.1
		c0.6-3.4,2.1-6.8,4.5-10.2c2.4-3.3,5.6-5.9,9.4-7.6c3.9-1.7,8.5-2.6,13.9-2.6c10.6,0,18.6,2.6,24,7.9c5.4,5.3,8.1,11.9,8.1,19.9
		c0,6.1-1.5,12.6-4.6,19.4c-3.1,6.8-12.1,21.3-27,43.4H873.9z"/>
	<path class="st0" d="M947.1,412.6v35.6c0,8.1-0.4,14-1.3,17.7c-0.9,3.7-2.7,7.1-5.5,10.3c-2.8,3.2-6.1,5.5-10,6.9
		c-3.9,1.4-8.3,2.1-13.1,2.1c-6.4,0-11.7-0.7-15.9-2.2c-4.2-1.5-7.6-3.8-10.1-6.9c-2.5-3.1-4.3-6.4-5.3-9.9
		c-1.1-3.4-1.6-8.9-1.6-16.4v-37.2c0-9.8,0.8-17.1,2.5-22c1.7-4.9,5.1-8.8,10.1-11.7c5-2.9,11.1-4.4,18.3-4.4c5.8,0,11.1,1,15.7,3.1
		c4.6,2,8.1,4.5,10.3,7.5c2.3,2.9,3.8,6.3,4.6,10C946.6,398.7,947.1,404.5,947.1,412.6z M920.4,403.7c0-5.7-0.3-9.2-0.8-10.6
		c-0.5-1.4-1.8-2.1-3.9-2.1c-2,0-3.3,0.8-3.9,2.3c-0.6,1.5-1,5-1,10.5v52.1c0,6.2,0.3,9.9,0.9,11.2c0.6,1.3,1.9,1.9,3.9,1.9
		s3.3-0.7,3.9-2.2c0.6-1.5,0.9-4.9,0.9-10.1V403.7z"/>
	<path class="st0" d="M1014,465v18.2h-58.6l0-15.2c17.4-28.4,27.7-46,30.9-52.7c3.3-6.7,4.9-12,4.9-15.8c0-2.9-0.5-5.1-1.5-6.5
		c-1-1.4-2.5-2.1-4.5-2.1c-2,0-3.5,0.8-4.5,2.4c-1,1.6-1.5,4.7-1.5,9.4v10.2h-23.9v-3.9c0-6,0.3-10.7,0.9-14.1
		c0.6-3.4,2.1-6.8,4.5-10.2c2.4-3.3,5.6-5.9,9.4-7.6c3.9-1.7,8.5-2.6,13.9-2.6c10.6,0,18.6,2.6,24,7.9c5.4,5.3,8.1,11.9,8.1,19.9
		c0,6.1-1.5,12.6-4.6,19.4c-3.1,6.8-12.1,21.3-27,43.4H1014z"/>
	<path class="st0" d="M1081.8,465v18.2h-58.6l0-15.2c17.4-28.4,27.7-46,30.9-52.7c3.3-6.7,4.9-12,4.9-15.8c0-2.9-0.5-5.1-1.5-6.5
		c-1-1.4-2.5-2.1-4.5-2.1c-2,0-3.5,0.8-4.5,2.4c-1,1.6-1.5,4.7-1.5,9.4v10.2h-23.9v-3.9c0-6,0.3-10.7,0.9-14.1
		c0.6-3.4,2.1-6.8,4.5-10.2c2.4-3.3,5.6-5.9,9.4-7.6c3.9-1.7,8.5-2.6,13.9-2.6c10.6,0,18.6,2.6,24,7.9c5.4,5.3,8.1,11.9,8.1,19.9
		c0,6.1-1.5,12.6-4.6,19.4c-3.1,6.8-12.1,21.3-27,43.4H1081.8z"/>
</g>
</svg>
