<?xml version="1.0" encoding="utf-8"?>
<!-- Generator: Adobe Illustrator 21.0.2, SVG Export Plug-In . SVG Version: 6.00 Build 0)  -->
<svg version="1.1" id="Layer_1" xmlns="http://www.w3.org/2000/svg" xmlns:xlink="http://www.w3.org/1999/xlink" x="0px" y="0px"
	 viewBox="0 0 1225.6 412.6" style="enable-background:new 0 0 1225.6 412.6;" xml:space="preserve">
<style type="text/css">
	.st0{fill:#FFFFFF;}
</style>
<g>
	<g>
		<path class="st0" d="M185.3,327.1c-0.3,0.4-0.6,0.7-0.9,1.1c-0.3,0.4-0.5,1-0.6,1.8c0,1.3-0.6,2.7-2,4.3c-0.2,0.5-0.8,1.4-1.6,2.5
			c-0.1,0.5-0.2,1.1-0.4,1.8l0,0.2l-0.2,1.8l0.3,0.2l-0.2,0.3c-0.4,0.4-0.8,0.9-1.2,1.4c-0.4,0.6-0.8,1-1.2,1.4
			c-0.8,1-1.7,1.9-2.5,2.7c-0.8,0.9-1.7,1.8-2.5,2.7c-0.3,0.4-0.5,0.7-0.7,0.9c-0.2,0.2-0.5,0.5-0.7,0.9c-0.4,0.4-0.8,0.8-1.1,1.3
			c-0.3,0.5-0.7,0.9-1.1,1.3c-1.2,1-2.4,2-3.8,3.1c-1.4,1-2.7,2.1-3.8,3.1c-0.7,0.8-1.5,1.5-2.4,2.1c-0.9,0.6-1.7,1.3-2.4,1.9
			c-0.3,0.4-0.5,0.6-0.6,0.7c-0.1,0.1-0.4,0.3-0.6,0.7l-0.9,0.6c-0.6,0.6-1.2,1.2-1.8,1.8c-0.6,0.6-1.2,1.2-1.8,1.8
			c-1.6,1.2-3.1,2.5-4.4,3.7c-1.4,1.2-2.7,2.6-4.1,4.1c-0.4,0.6-0.9,1.1-1.5,1.6c-0.6,0.5-1.2,1.1-1.9,1.7c-1.1,1-2.2,1.9-3.1,2.8
			c-0.9,0.9-1.9,2-2.8,3.3c-1.2,1.5-3.3,2.9-6.2,4.2c-0.7,0.5-1.4,0.8-1.9,1c-0.5,0.2-1.1,0.6-1.7,1l-0.5,0.1
			c-0.3,0.2-0.7,0.5-1.2,0.8c-0.5,0.3-0.8,0.8-0.9,1.5c-0.3,1-0.9,1.9-1.8,2.5c-0.9,0.6-2,1.2-3.4,1.8c-0.3,0.2-0.6,0.4-1,0.5
			c-0.4,0.1-0.7,0.3-1,0.5c-0.1,0.2-0.4,0.3-0.7,0.4c-0.3,0.2-0.7,0.4-1.1,0.7c-0.5,0.2-0.9,0.5-1.3,0.9c-2.2,2.5-4.9,3.6-8.1,3.3
			c-0.5-0.2-1.2-0.3-2.1-0.2c-0.9,0.1-1.7,0.6-2.4,1.4c-0.7,0.8-1.5,1.3-2.3,1.5c-0.9,0.2-1.9,0.4-3.2,0.6c-0.8,0.1-1.6,0.3-2.5,0.4
			c-0.9,0.1-1.8,0.4-2.7,0.9c-1.7,0.9-4,1.5-7.1,1.6l-2.6,0.4l-1,0.2l-0.5,0.1c-1.4-0.3-2.7-0.5-3.9-0.7c-1.3-0.2-2.6-0.4-3.9-0.5
			c-3-0.3-6-0.8-9-1.2c-2.7-0.5-5.5-1.2-8.3-1.9c-2.8-0.7-5.5-1.7-8-3.1c-0.9-0.2-1.6-0.5-2.2-1c-0.7-0.5-1.4-1-2.4-1.7
			c-0.4-0.3-0.7-0.5-1-0.7c-0.3-0.2-0.6-0.4-1-0.7l-0.3-0.2c-0.2-0.1-0.4-0.3-0.7-0.6c-0.3-0.3-0.7-0.5-1.2-0.5
			c-1.5-0.2-2.8-0.8-3.9-1.6c-1.1-0.8-2.2-1.8-3.4-2.9c-1.2-1.3-2.8-2.4-4.7-3.4c0-0.2-0.1-0.2-0.3-0.2c-0.4-1.6-1.1-2.8-2.1-3.6
			c-1-0.8-2-1.6-3.1-2.2l-0.3-0.2c-0.4-0.3-0.7-0.7-1-1.2c-0.3-0.5-0.6-1.1-0.9-1.7c-0.4-0.4-0.7-0.9-0.9-1.3
			c-0.2-0.5-0.6-0.9-0.9-1.3c-1.7-2.2-3.1-4.5-4.3-7c-1.2-2.5-2.3-5.6-3.2-9.2c-0.3-0.6-0.4-1.2-0.5-1.9c-0.1-0.6-0.3-1.3-0.5-1.9
			c-0.7-2.2-1.3-4.4-1.9-6.6c-0.6-2.2-1-4.4-1.2-6.7l0.2-0.3c-0.1-2.4-0.2-4.9-0.3-7.3c-0.1-2.4-0.2-4.8,0-7.1c0.2-4,0.4-8,0.8-12
			c0.3-4.1,0.8-8.2,1.4-12.4c0.2-1.8,0.6-3.6,1.1-5.2c0.6-1.6,1.2-3.4,1.8-5.3c0.3-1,0.6-2.1,1-3.1c0.3-1,0.6-2.1,0.7-3.1
			c0.2-0.8,0.3-1.6,0.4-2.3c0.1-0.7,0.1-1.4,0.1-2.2c0.1-0.3,0.1-0.6,0.1-0.9c0-0.2,0-0.5,0.1-0.9c0-0.2,0-0.3,0.1-0.4
			c0.1-0.1,0.1-0.2,0.1-0.4c0.8-2.1,1.6-4.3,2.4-6.5c1.1-2.5,2.2-5,3.3-7.7c1.1-2.6,2.3-5.2,3.5-7.7c2.8-5.9,5.8-11.9,9-18
			c3.2-6.2,6.6-12.6,10.3-19.2c1-2,2.1-3.8,3.4-5.6c1.3-1.8,2.7-3.6,4.2-5.5c0.1-0.3,0.3-0.7,0.5-0.9c0.2-0.3,0.4-0.6,0.7-1
			c1.4-1.7,2.6-3.4,3.9-5c1.2-1.7,2.5-3.3,3.9-5c2-2.6,4.1-5.3,6.1-8c2-2.7,4-5.4,6-8.2c1.3-2,2.7-3.9,4.3-5.6
			c1.5-1.7,3.1-3.4,4.6-4.9l4.9-6c1.8-1.9,3.6-3.8,5.4-5.6c1.7-1.8,3.5-3.7,5.1-5.6c0.6-0.6,1.1-1.1,1.6-1.6c0.5-0.5,1-1,1.6-1.6
			c0.3-0.4,0.7-0.9,1.2-1.7c0.5-0.7,0.7-1.7,0.5-2.8l-0.1-0.7c0.8,0.2,1.6,0.3,2.3,0.4c0.7,0.1,1.4,0,2.2-0.1
			c2.7-0.3,5.9,0.4,9.4,1.9c1.1,0.6,2.2,1.3,3.3,1.9c1.1,0.6,2.2,1.3,3.3,1.9c1.1,0.6,2.2,1.3,3.3,2.1c1.1,0.7,2.2,1.4,3.3,2
			c0.9,1.5,2,2.8,3.2,3.8c1.2,1,2.4,2,3.6,3c0.9,0.7,1.8,1.4,2.5,2c0.8,0.7,1.5,1.4,2.1,2.1c0.2,0.1,0.3,0.3,0.3,0.4
			c0,0.2,0.1,0.3,0.3,0.4c1.2,1.6,2.3,3.1,3.2,4.4c0.9,1.3,1.6,2.8,2.2,4.3c0,0.8,0.1,1.6,0.5,2.3c0.4,0.7,0.7,1.3,1.2,1.9
			c0.4,0.4,0.7,0.8,0.9,1.2c0.2,0.4,0.4,0.7,0.7,1c0.2,1.4,0.5,2.8,0.7,4.2c0.2,1.4,0.4,2.8,0.5,4.5c0.2,0.5,0.4,0.9,0.4,1.4
			c0,0.5,0,1.1,0.2,1.7c-0.2,0.7-0.2,1.2,0.1,1.6c0.3,0.4,0.6,0.7,0.8,1c0.8,0.7,0.9,1.7,0.5,3.1c-0.1,0.5-0.2,1-0.3,1.4
			c-0.1,0.4-0.1,1,0,1.6l0,0.2c-0.1,0.5-0.1,1-0.1,1.6c0,0.6,0.2,1.2,0.7,2c0.2,0.1,0.3,0.4,0.4,0.7c-1,0.7-1.7,1.5-1.9,2.4
			c-0.3,0.9-0.5,1.8-0.7,2.7c-0.1,0.2-0.2,0.3-0.2,0.4c0,0.1,0,0.2-0.2,0.4c-0.2,1-0.4,2.1-0.7,3.2c-0.3,1.1-0.5,2.3-0.7,3.4
			c-0.5,1.9-0.9,3.7-1.2,5.4c-0.3,1.7-0.7,3.4-1.3,5.1c-0.2,0.7-0.5,1.3-0.8,1.8c-0.3,0.5-0.6,1.1-0.8,1.6c-0.3,0.2-0.5,0.4-0.5,0.6
			c-0.1,0.2-0.2,0.4-0.5,0.6c-3.1,0-5.2,2-6.4,5.9c0,0.2-0.1,0.5-0.4,1.1c-0.3,0.5-1.1,0.9-2.4,1.1c-0.2,0-0.4,0-0.6-0.1
			c-0.3-0.1-0.6-0.2-0.9-0.3c0.5-5.1,0.9-10.1,1.4-15c0.5-4.8,0.6-9.8,0.4-15c-0.1-2.8-0.4-5.9-0.9-9.3c-0.5-3.4-0.9-6.5-1.4-9.2
			c0-1.1-0.1-2.2-0.3-3.3c-0.2-1-0.3-2.1-0.3-3.3c-0.3-1.6-0.6-2.8-1.1-3.5c-0.4-0.4-0.7-0.8-0.9-1.2c-0.2-0.4-0.5-0.8-0.7-1.2
			c-0.2-0.1-0.7-0.2-1.4-0.3c-0.7,0-1.2-0.1-1.4-0.3l-1.5-2l-1.8,1.3c-0.3,0.1-0.5,0.2-0.7,0.4c-0.9,0.5-1.6,0.9-2,1.3
			c-0.4,0.4-0.9,0.8-1.3,1.2c-0.4,0.4-0.9,0.8-1.3,1.2c-2.9,2.4-5.4,4.8-7.5,7.1c-2.4,2.7-4.8,5.4-7.4,8.3c-2.6,2.9-5.2,5.9-8,9.1
			c-3.7,4.5-7.3,9.3-11,14.3c-0.9,1.3-1.5,2.6-1.8,4c-0.8,1.1-1.2,2-1.3,2.7c-0.3,0.4-0.6,0.7-0.9,1c-0.4,0.3-0.8,0.7-1.2,1
			c-0.3,0.4-0.6,0.8-1,1.1c-0.4,0.4-0.8,0.9-1.2,1.4c-1,1.6-2,3.3-3,4.9c-1,1.6-2,3.3-3,4.9c-1.8,2.8-3.6,5.5-5.2,8.3
			c-1.6,2.8-3.2,5.6-4.9,8.5l-0.4,0.6c-0.3,0.4-0.5,0.9-0.7,1.6l-0.2,0.5c-0.4,0.4-0.6,0.8-0.5,1.3c-0.3,0.4-0.5,0.7-0.7,1.1
			c-0.2,0.4-0.4,0.7-0.7,1.1l0.3,0.2c-0.3,0.4-0.5,1-0.7,1.8c-0.2,0.9,0,1.6,0.6,2.4l-0.2,0.3l0,0.2c-0.3,0.4-0.5,0.7-0.6,0.8
			c-0.1,0.2-0.3,0.5-0.6,0.8c-0.5,1.1-1,1.6-1.4,1.7c-1.3,0-2.1,0.6-2.5,1.8c-0.4,1.1-0.7,1.9-1,2.2c-0.2,0.9-0.3,1.6-0.3,2.2
			c0,0.7-0.1,1.3-0.3,2c-0.1,0.5-0.2,1-0.2,1.5c-0.1,0.5-0.2,1.1-0.2,1.8l0,0.2c-0.2,0-0.2,0.1-0.2,0.3c0,0.2,0,0.3-0.2,0.3
			c-1.2,0.8-2,1.7-2.5,2.6c-0.5,0.9-0.9,1.8-1.3,2.7c-0.3,1-0.7,1.8-1.1,2.4c-0.3,0.4-0.6,0.9-0.9,1.5c-0.3,0.6-0.2,1.4,0.2,2.3
			c0.1,0.8-0.1,1.7-0.8,2.8c-0.2,0.7-0.4,1.4-0.6,2.1c-0.2,0.7-0.3,1.4-0.1,2.2c-0.2,0-0.3,0.1-0.3,0.3c-0.1,0.2-0.2,0.4-0.5,0.6
			c-0.3,0.4-0.4,0.8-0.4,1.2c0,0.4-0.2,0.8-0.4,1.2c-0.2,0.9-0.3,1.6-0.4,2.1c-0.1,0.6-0.1,1.2-0.2,1.9c-0.2,0.7-0.4,1.7-0.5,3
			c-0.2,0.9-0.4,1.7-0.7,2.4c-0.3,0.8-0.5,1.5-0.7,2.2c-0.3,0.4-0.5,0.7-0.6,1.1c-0.1,0.3-0.2,0.7-0.3,1c-0.7,1.6-1.4,3.2-1.9,4.9
			c-0.6,1.6-0.7,3.6-0.5,5.9c0.2,1.4,0.1,3.3-0.3,5.5c-0.2,0.9-0.3,1.6-0.4,2.4c0,0.7-0.1,1.5-0.1,2.4c-0.4,7.8-0.5,15.1-0.4,22.2
			c0.2,1.3,0.9,2.9,2,4.8c1.1,1.9,1.9,3.5,2.2,4.8c0.4,0.8,0.7,1.4,0.8,2c0.1,0.6,0.2,1.2,0.3,1.8c0.8,3.1,2.9,4.9,6.2,5.1
			c4.3,0.3,8.7,0.4,13.1,0.5c4.4,0,8.7-0.9,12.8-2.9c0.9-0.5,1.9-0.9,2.9-1.2c1-0.3,1.9-0.7,2.6-1.2c1.4-0.5,2.7-1.1,4.1-1.5
			c1.3-0.5,2.6-1,3.8-1.7c0.7-0.4,1.6-0.8,2.5-1.1c0.9-0.3,1.9-0.7,2.8-1.2c2.4-1.2,4.9-2.5,7.5-3.8c2.6-1.3,4.8-2.9,6.8-4.9
			c0.7-0.6,1.5-1.1,2.3-1.6c0.8-0.5,1.8-0.9,2.8-1.4c0.6-0.4,1.2-0.8,1.8-1.1c0.6-0.3,1.2-0.7,1.8-1.1l1.1-0.7
			c2.8-1.8,5.6-3.6,8.3-5.5c2.7-1.9,5.4-3.8,8-5.7c3.5-2.5,6.8-5,9.8-7.5c3-2.5,5.9-4.8,8.7-7c0.6-0.4,1.1-0.9,1.6-1.4
			c0.5-0.5,0.9-0.9,1.1-1.3c1.4,1.6,2.3,2.3,2.7,2.3c0.4-0.1,1-0.6,1.8-1.5c0.3-0.4,0.6-0.6,0.9-0.8c0.3-0.1,0.6-0.4,0.9-0.8
			c0.6-0.4,1.2-0.8,1.8-1c0.6-0.3,1.1-0.6,1.6-1c1.1-1.5,2.3-2.7,3.6-3.8c1.3-1,2.7-2.1,4.2-3.1c2.2-1.3,4.3-2.9,6.1-4.5
			c1.9-1.7,3.6-3.5,5.3-5.4c0.1-0.3,0.1-0.9,0-1.7c2.3,1.1,4.4,0.7,6.2-1.2c0.9-0.8,1.3-1.3,1.5-1.5c-0.5,0.1-0.5,0.3-0.2,0.5
			c-1.1,1.5-2.3,2.8-3.7,3.9c-1.4,1.1-2.7,2.2-4,3.2c-0.4,0.4-0.8,0.7-1.2,0.9c-0.4,0.2-0.8,0.5-1.2,0.9c-1.3,1-2.6,2.2-3.7,3.4
			c-1.2,1.3-2.4,2.5-3.7,3.7c-0.4,0.6-0.8,1.1-1.3,1.6c-0.5,0.5-0.9,1-1.3,1.6c-0.2,0-0.4,0.2-0.6,0.6c-1.7,0.8-3.1,1.7-4.3,2.8
			c-1.2,1.1-2.4,2.2-3.5,3.4c-1.7,1.7-3.4,3.2-5.2,4.5c-0.9,0.5-1.6,0.9-2,1.3c-2.2,1.3-4.5,2.9-6.8,4.8c-1.3,0.9-2.5,2-3.6,3.3
			c-0.6,0.4-1.1,0.8-1.5,1.2c-0.4,0.4-0.9,0.8-1.3,1.2c-0.9,0.8-2,1.6-3.6,2.3c-0.1,0.3-0.6,0.8-1.5,1.2l-1.5,1.2l2.7,4.7l1.9-0.5
			l1-0.2c1.3-0.2,2.2-0.4,2.8-0.7c1.1-0.5,2.1-1,3-1.5c0.9-0.5,1.8-0.9,2.7-1.4c0.6-0.4,1.3-0.9,2.1-1.6c0.8-0.6,1.1-1.5,0.9-2.6
			l0.5-0.1c0.1-0.2,0.3-0.3,0.4-0.3c0.2,0,0.3-0.1,0.4-0.3c2.6-1.4,4.8-2.9,6.9-4.5c0.3-0.4,0.6-0.6,1-0.8c0.4-0.1,0.7-0.4,1-0.8
			c0.6-0.4,1.2-0.9,2-1.4c0.7-0.5,1.5-1.1,2.2-1.7c0.9-0.8,1.7-1.5,2.5-2.2c0.8-0.7,1.7-1.5,2.7-2.3c1.6-1.2,3.1-2.5,4.4-3.7
			c1.4-1.2,2.8-2.4,4.4-3.7c0.3-0.4,0.6-0.6,1-0.8c0.4-0.1,0.7-0.4,1-0.8c0.2,0,0.3-0.1,0.3-0.2c0.1-0.1,0.2-0.2,0.3-0.2
			c-0.6,0.4-1.1,0.9-1.5,1.3c-0.4,0.5-0.8,0.9-1.3,1.3c0.2,0.1,0.3,0.4,0.4,0.7c0.3-0.1,0.6,0,1,0.1c0.3,0.1,0.6,0.1,0.7-0.1
			c1.1-1,2.3-2,3.3-2.9c1.1-0.9,2.2-1.9,3.3-2.9c0.7-0.6,1.3-1.2,1.7-1.7c0.4-0.6,1-1.1,1.7-1.5c1.2-0.8,1.5-2.1,1.1-3.9
			c0.5-0.2,0.9-0.5,1.5-0.7c0.5-0.2,1-0.6,1.4-1c0.3-0.4,0.6-0.8,1-1.1c0.4-0.4,0.9-0.8,1.5-1.2l-0.4,0.6c1.4-0.4,2.7-1.1,3.9-2.2
			c1.2-1.1,1.9-2.3,2-3.6c0.6-0.4,0.9-0.7,1.1-0.9l0.6,0.4c1.4-0.2,2.4-0.7,3-1.3c0.5-0.7,0.7-1,0.6-1.1c-0.2-0.1-0.7,0.5-1.6,1.7
			c-0.9,1.2-2.1,3.6-3.6,7.3c-1.2,1.8-2.9,3.6-5.3,5.3c-0.4,0.4-0.9,0.8-1.4,1.2c-0.5,0.4-1,0.9-1.6,1.5L185.3,327.1z M4.5,353.8
			c1.3-0.9,2-2.1,2-3.8c0-1.6-0.8-3-2.2-4.1c0,1.3,0.1,2.6,0.2,3.8C4.6,350.9,4.6,352.3,4.5,353.8z M5.9,342.5
			c0.3-0.4,0.5-0.7,0.7-1.1c0.2-0.4,0.5-1,1-1.9L5.1,339c-0.3,0.4-0.4,0.8-0.4,1.3c0,0.5-0.1,0.9-0.4,1.3
			C4.4,342,4.9,342.3,5.9,342.5z M13.7,299.5c-1.6,1.1-2.5,2-2.7,2.9c-0.2,0.9,0.2,1.9,1.3,3.2c1.2-1.5,1.9-2.6,2-3.3
			C14.4,301.7,14.2,300.7,13.7,299.5z M15.6,289.9c-0.3,1-0.6,2.1-0.7,3.3c-0.1,1.2-0.3,2.3-0.4,3.5c0,0.2,0.2,0.4,0.6,0.6
			c1.3-3.2,2.5-6.3,3.7-9.3c1.1-3,2.4-6.2,3.7-9.3c-0.2-0.1-0.4-0.2-0.5-0.3c-0.2-0.1-0.4-0.1-0.5-0.3c-1.1,0.5-1.8,1.3-2.1,2.3
			c-0.3,1-0.6,2.1-0.7,3.3c-0.3,1.2-0.8,2.3-1.5,3.2C16.4,287.9,15.9,288.8,15.6,289.9z M21.7,276.1c0,0.2,0.1,0.3,0.3,0.6
			c0.2,0.2,0.4,0.5,0.6,0.8c0.3-0.2,0.6-0.3,0.9-0.4c0.3-0.1,0.5-0.2,0.6-0.6c0.6-1.4,1-2.8,1.3-4.1c0.3-0.4,0.4-0.8,0.3-1.3
			s-0.1-0.9,0-1.2c-0.2-0.1-0.4-0.2-0.5-0.3c-0.2-0.1-0.4-0.1-0.5-0.3c-0.6,1.2-1.2,2.4-1.7,3.5C22.7,273.8,22.2,274.9,21.7,276.1z
			 M29.1,263.9c-2.3,1.2-3.5,2-3.8,2.5c-0.3,0.5,0.3,1.5,1.7,3C27.7,267.3,28.4,265.5,29.1,263.9z M153.2,327.4
			c-0.5,0.9-1,1.7-1.6,2.5c-0.5,0.7-1.2,1.4-1.9,2c-0.7,0.5-1.5,0.9-2.2,1.3c-0.7,0.5-1.5,0.9-2.2,1.3c0.3-0.4,0.6-0.7,0.9-1
			c0.4-0.3,0.7-0.6,0.9-1c0.7-0.8,1.4-1.5,2.2-2.2c0.8-0.7,1.5-1.4,2.3-2c1.1-1,2.3-2,3.3-3c1.1-1,2.2-2,3.3-3
			c0.7-0.6,1.5-1.3,2.3-2c0.8-0.7,1.6-1.4,2.5-2c0.9-0.8,1.3-1.4,1.4-1.7c0.5-0.7,1.2-1.3,1.9-1.8c0.7-0.4,1.7-1.3,3-2.7l1.1,1
			c-0.8,0.1-1.3,0.3-1.6,0.5c-0.9,0.6-1.8,1.3-2.7,2c-0.9,0.7-1.8,1.6-2.7,2.5c-1.1,1.3-2.2,2.7-3.4,4c-1.2,1.3-2.4,2.7-3.6,4
			C155.4,325.4,154.3,325.7,153.2,327.4z M183.3,308.3c-0.4,0.4-0.8,0.7-1.1,1c-0.3,0.3-0.6,0.6-1.1,1
			C181.7,309.6,182.4,308.9,183.3,308.3z"/>
		<path class="st0" d="M277.6,252.3c0.6,1.9,1,3.8,1,5.7s0.3,3.9,0.6,5.8c0.1,0.5,0.2,1,0.4,1.5c0.2,0.5,0.2,1.1,0.1,1.6
			c-0.1,1.3-0.2,2.7-0.2,4.1c0,1.4-0.2,2.8-0.7,4.2c-0.3,1.4-0.6,2.6-1,3.8c-0.4,1.2-0.1,2.5,0.7,3.8c1.1,1.5,1.2,2.8,0.4,4.1
			c-0.8,1.3-1.4,2.6-1.8,4c-0.5,1.7-1,3.4-1.5,5.2c-0.5,1.7-1,3.4-1.5,5.2c-0.3,0.4-0.5,0.7-0.7,1.1c-0.2,0.4-0.4,0.7-0.7,1.1
			c-0.9,1.8-1.6,3.5-2.3,5.3c-0.7,1.8-1.5,3.5-2.3,5.3c-0.8,1.4-1.5,2.9-2.4,4.3c-0.8,1.4-1.6,2.9-2.4,4.3c-0.3,0.4-0.4,0.8-0.4,1.3
			c0,0.5-0.1,1.1-0.3,1.8c-0.1,0.2-0.8,0.7-2,1.5c0.9,0.7,1.7,1.3,2.3,1.8c-1.4,2.2-2.9,4.4-4.2,6.5c-1.4,2.1-2.8,4.3-4.2,6.5
			c-1.2,2-2.3,4-3.4,6.1c-1.1,2.1-2.3,4.1-3.4,6.1c-0.9,1.3-1.8,2.5-2.7,3.8c-0.9,1.2-1.9,2.4-3,3.5c-0.8,1-1.7,1.9-2.5,3
			c-0.8,1-1.7,2-2.7,3c-1.5,1.7-3.1,3.3-4.9,4.8c-1.7,1.5-3.3,3.2-4.6,5c-1.5,1.9-3.2,3.1-5.2,3.7c-2,0.6-3.7,1.5-5.3,2.9
			c-0.6,0.4-1.3,0.6-2.2,0.6c-0.9,0-1.8-0.1-2.6-0.3c-2.2-0.5-4.2-1.1-6-2c-0.9-0.5-1.9-0.7-2.9-0.6c-1.1,0.1-2.1-0.3-3-1.1
			c-1.3-1.1-2.7-2.2-4.1-3.3c-1.4-1.1-2.8-2.2-4.3-3.2c-1.7-1.4-3.2-3.1-4.5-5.2c-1.3-1.8-2.5-3.6-3.8-5.4c-1.3-1.8-2.5-3.8-3.7-5.9
			c-0.5-0.9-0.9-1.9-1.2-2.9c-0.3-1-0.6-2-1-2.9c-0.4-2.2-0.8-4.4-1.2-6.6c-0.4-2.1-0.7-4.4-0.7-6.6c0-2.3,0-4.7,0.2-7.2
			c0.2-2.5,0.4-4.9,0.7-7.2c-0.1-0.3,0.1-0.6,0.3-0.9c0.3-0.3,0.4-0.5,0.4-0.7c0-0.8,0-1.5-0.2-1.9c-0.2-0.5-0.2-0.9-0.1-1.5
			c0.7-5,1.5-9.8,2.6-14.4c0.2-1.5,0.6-3,1-4.5c0.4-1.5,0.8-2.9,1.3-4.3c0.4-1.4,0.8-2.8,1-4.2c0.3-1.4,0.7-2.8,1.3-4.3
			c0.6-2.2,1.3-4.4,1.9-6.4s1.4-4.1,2.2-6.2c1.9-5.7,3.8-11.3,5.9-16.7c0.6-1.4,1.2-2.8,1.7-4.1c0.5-1.3,1.1-2.7,1.7-4.1
			c0.3-0.4,0.4-0.8,0.5-1.3c0.1-0.5,0-0.8-0.2-1c-1-1-2-1.4-3.1-1.2c-0.8,0.3-1.6,0.6-2.4,1c-0.8,0.4-1.6,0.8-2.4,1.2
			c-1-1-2-1.5-2.9-1.4c-1,0.1-2.4,0.6-4.2,1.7c-1.3,0.8-3,1.4-5,1.7c-2,0.3-3.8,0.3-5.6-0.2c0.6-0.4,1.1-0.7,1.4-1
			c0.4-0.3,0.7-0.4,1-0.5c1.4-0.2,2.5-0.7,3.3-1.5c0.8-0.8,1.5-1.9,2-3.3c0.3-0.4,0.5-0.7,0.7-0.9c0.2-0.2,0.5-0.5,0.7-0.9
			c3-1.8,5.9-3.5,8.6-5.1c2.8-1.6,5.6-3.2,8.4-4.8c1.7-0.9,3.2-1.7,4.8-2.5c1.5-0.7,3.1-1.6,4.8-2.5c0.7-0.6,1.5-1.3,2.3-2
			c0.8-0.7,0.7-1.7-0.1-3c2.2-1.7,3.8-3.7,4.9-6.2c1.1-2.5,2.3-4.7,3.8-6.8c1.1-1.5,2.1-2.9,3-4.4c0.9-1.5,1.9-2.9,3-4.4
			c0.7-0.8,1.5-1.1,2.6-0.9c1,0.2,1.8,0.6,2.4,1.3c0.2,0.3,0.9,0.5,2.1,0.6c0.8,0,1.7,0,2.7-0.1c1-0.1,1.9-0.1,2.7-0.1
			c0,0.2-0.1,0.4-0.4,0.8c0.7,0.4,1.6,1,2.7,1.8c1.1,0.6,2.2,1.2,3.3,1.7c1.1,0.5,2,1.5,2.6,3c0.1,0.3,0.3,0.6,0.6,0.9
			c1.4,0.6,2.1,1.3,2.1,2.1c0,0.8-0.1,1.7-0.3,2.7c-0.5,1.2-0.9,2.4-1.3,3.6c-0.4,1.2-0.6,2.5-0.7,3.8c-0.2,0.7,0.2,1.3,1.3,1.8
			c2.3,0.9,4.5,2,6.8,3.1c2.2,1.1,4.6,2.1,7,3c1.7,0.7,3.2,1.6,4.4,2.8c1.2,1.1,2.3,2.3,3.5,3.3c0.4,0.3,0.6,0.6,0.7,1.1
			c0.1,0.5,0.2,1,0.5,1.6c0.7-0.4,1.2-0.4,1.5,0.2c0.3,0.6,0.5,1.4,0.9,2.3c0.8,1.8,1.7,3.6,2.7,5.3
			C276.2,248.7,277,250.5,277.6,252.3z M187.3,241.8c1.6-1.2,3.2-2.4,4.8-3.5c-1.4-0.3-2.6,0-3.7,0.8
			C187.4,240,187,240.9,187.3,241.8z M269.8,261.7c-0.2-1.1-0.1-2.3,0.2-3.6c0.3-1.3-0.3-2-1.8-2.3c-0.7-2-1.3-3.9-2-5.7
			c-0.7-1.8-1.3-3.5-1.7-5.2c-0.4-1.2-0.9-2.3-1.5-3.2c-0.6-0.9-1.7-1.7-3.1-2.4l0.7,4.3c-0.7-0.5-1.2-0.9-1.4-1.2
			c-0.7-1-1.2-2.1-1.7-3.2c-0.5-1.1-1.3-2.1-2.5-3c-1-0.8-2.2-1.5-3.7-2.1c-1.5-0.6-3.1-1-4.8-1.3c-1.7-0.3-3.3-0.4-4.8-0.2
			c-1.5,0.2-2.8,0.6-3.9,1.2c-0.5,0.2-0.7,0.6-0.8,1.1c-1.2,2-2.3,3.9-3.5,5.7c-1.2,1.8-2.3,3.7-3.3,5.7c-1.3,2.3-2.5,4.7-3.7,7
			c-1.2,2.3-2.4,4.6-3.7,7c-0.7,0.9-1.2,1.9-1.6,2.8c-0.4,1-0.9,1.9-1.4,2.8c-0.6,1.6-1.2,3.1-1.8,4.6c-0.7,1.5-1.3,3-1.8,4.6
			c-0.9,2.3-1.8,4.5-2.6,6.7c-0.8,2.2-1.7,4.5-2.6,6.9c-0.5,1.1-0.9,2.1-1.4,3c-0.4,1-0.8,2-1.1,3c-0.9,2.6-1.7,5.1-2.3,7.6
			c-0.7,2.5-1.4,4.9-2.1,7.3c-0.5,1.7-1,3.4-1.3,5.1c-0.3,1.7-0.7,3.5-1.2,5.4c-0.3,0.9-0.5,1.9-0.5,3c0,1.1-0.9,1.7-2.7,1.7
			c0,2,0.3,3.9,0.8,5.8c0.5,1.9-0.2,3.6-2.2,5.3l0.1,0.7c0,1.8-0.1,3.7-0.1,5.7c0,2,0,3.9-0.1,5.7c0,0.8-0.1,1.7-0.2,2.6
			c-0.1,0.9-0.1,1.8,0,2.6c0.3,1.9,0.7,3.8,1,5.7c0.4,1.9,0.8,3.8,1.3,5.7c0.6,1.7,1.6,2.2,2.9,1.5c1.6-1.1,3.2-2.1,4.8-3
			c1.6-0.9,3.1-2,4.5-3.2c1.7-1.6,3.4-3.2,5.1-5c1.7-1.7,3.3-3.4,4.8-5c1.5-1.6,3-3.2,4.4-4.9c1.4-1.7,2.7-3.3,4.1-4.8
			c0.7-0.9,1.3-1.8,1.8-2.6c0.5-0.8,1.1-1.8,1.7-2.9c-0.1-0.6,0.1-1.3,0.6-2.1c0.5-0.7,1.2-1.1,2-1.1l2.4-0.4
			c-0.2-0.5-0.4-0.9-0.6-1.3c-0.1-0.4-0.3-0.8-0.6-1.3c0.3-0.4,0.6-0.8,1.1-1.4c0.5-0.6,1-1.1,1.6-1.7c0.4-0.6,1-1.1,1.7-1.6
			c0.7-0.5,1.1-1,1-1.5c-0.3-1.8,0-2.6,0.8-2.5c0.8,0.1,1.8-0.1,2.9-0.6c-0.9,1.8-1.4,3.3-1.7,4.5c0.4,0.3,0.6,0.4,0.8,0.4
			c0.7-0.8,1.4-1.5,2-2.2c0.6-0.7,1.1-1.4,1.5-2.3c0.8-2.1,1.9-4,3.4-5.6c1.5-1.6,2.6-3.5,3.4-5.6c0.6-1.4,1.4-2.7,2.6-3.9
			c1.1-1.2,1.8-2.6,2-4.3c0.1-0.7,0.4-1.4,0.9-2.1c0.6-1.4,1.2-2.8,1.9-4.1c0.7-1.3,1.3-2.7,1.9-4.1c0.4-0.9,0.6-1.8,0.9-2.8
			c0.2-1,0.5-2,0.7-2.8c0.2-1.5,0.6-3,1-4.3c0.2,0,0.7-0.3,1.6-0.7c-0.2-0.1-0.3-0.2-0.4-0.2c-0.1,0-0.2,0-0.4-0.2
			c0.1-0.7,0-1.3-0.1-1.8c-0.1-0.6,0-1.1,0.2-1.6c0.1-0.7,0.2-1.3,0.4-1.8c0.2-0.5,0.5-1.1,0.7-1.8c0-1.8,0.2-3.5,0.4-5.2
			C270.3,264.9,270.2,263.3,269.8,261.7z M246,318.1c1-1.8,2.1-3.6,3.2-5.4c1.1-1.8,2.2-3.6,3.2-5.4c0.2,0,0.3,0,0.4,0.1
			c0.1,0.1,0.2,0.1,0.4,0.1c-0.2,0.9-0.4,1.7-0.7,2.7c-0.3,0.9-0.7,1.8-1.2,2.5c-0.6,1.1-1.4,2.1-2.3,3.1c-0.9,1-1.7,1.9-2.4,2.8
			C246.2,318.5,246.1,318.4,246,318.1z M260.2,289c0.1,0.6-0.1,1.7-0.5,3.3c-0.4,1.5-1,3.2-1.8,5.1c-0.8,1.8-1.6,3.5-2.6,5.1
			c-1,1.5-1.8,2.6-2.5,3.2c1.3-2.8,2.6-5.6,3.8-8.3C257.8,294.6,259,291.8,260.2,289z M263.2,260.3c-0.2-1-0.3-1.9-0.3-2.9
			c-0.1-1-0.2-2-0.4-3.1c0.2,0.1,0.5,0.2,1,0.1c0,1,0.1,2,0.2,2.9c0.2,1,0.2,1.9,0.2,2.9L263.2,260.3z"/>
		<path class="st0" d="M428.6,177.9c0.9,1.3,2,2.5,3.4,3.5c1.4,1,2.1,2.4,2.3,4.2c0.1,0.8,0.1,1.4,0,1.7c-0.6,1.2-1.1,2.7-1.5,4.4
			c-0.4,1.7-0.7,3.2-1,4.6c0,0.2,0,0.3-0.2,0.5l-1.8,2.5c-0.6,1.4-1.2,2.8-1.8,4.2c-0.6,1.4-1.2,2.8-1.8,4.2
			c-0.2,0.7-0.8,1.9-1.8,3.6c-1,1.7-2,3.5-3.2,5.4c-1.2,1.9-2.2,3.7-3.2,5.4c-1,1.7-1.5,2.9-1.8,3.6l-0.7,1.6l0.1,0.5l-0.2,1.5
			c-0.2,0.9-0.4,1.8-0.5,2.9c-0.2,1.1-0.8,2-2,2.7l-0.2,1.8c-0.3,0.4-0.5,0.8-0.8,1.4c-0.2,0.5-0.5,1.1-0.7,1.8
			c0,0.2,0.1,0.4,0.2,0.7c0.1,0.3,0.2,0.7,0.3,1.2c-0.8,0.1-1.5,0.3-2.1,0.5c-0.6,0.2-0.7,0.9-0.2,2.1l-0.5,1.3
			c-0.1,0.3-0.3,0.7-0.5,0.9s-0.3,0.5-0.3,0.7c0.8,0.7,1.1,1.4,1,2.2s-0.3,1.4-0.5,2c-0.2,0.6-0.4,1.3-0.7,1.9
			c-0.2,0.7-0.1,1.4,0.3,2.2c-0.8,0.1-1.5,0.2-2,0.2c-0.6,0-1.1,0.1-1.6,0.1c0,0.2,0,0.3-0.2,0.5c1.1,0.5,1.9,0.8,2.6,1.1
			c-0.1,1.2-0.3,2.3-0.4,3.4c-0.2,1.1-0.5,2.2-1,3.2c-0.3,0.4-0.7,0.6-1.3,0.8c-0.6,0.2-1.3,0.4-2.1,0.7c0.4,0.3,0.8,0.6,1.3,1
			c0.5,0.4,1,0.8,1.6,1.2c0.1,0.3,0,0.5-0.2,0.5c-1.2,0.8-1.9,1.7-2,2.7c-0.2,0.9,0,2.2,0.6,3.7c0.4,1.3,0.3,2.6-0.3,4.1
			c-0.6,1.5-1.1,2.9-1.5,4.3c-0.1,0.3-0.2,0.7-0.3,0.9c-0.1,0.3-0.2,0.6-0.1,0.9c0.7,1.4,0.4,2.5-1,3.4c-1.1,1-1.2,2-0.4,3
			c0.4,0.3,0.6,1,0.8,2.1c0.2,2.6-1.1,3.6-3.9,3.1c0,0.2,0,0.3-0.1,0.4c-0.1,0.1-0.1,0.2-0.1,0.4c1.1,0.5,1.9,0.9,2.7,1.3
			c-0.3,0.4-0.4,0.8-0.4,1.2c0,0.4-0.2,0.8-0.4,1.2c-0.4,0.6-1,1.2-1.9,1.8c0.4,0.3,0.7,0.6,1.1,0.9c0.4,0.4,0.8,0.7,1.1,0.9
			c-0.2,0.7-0.4,1.4-0.7,2c-0.2,0.6-0.5,1.3-0.7,2c-0.8,4.1-1.1,8.2-0.8,12.3c0.2,4.1,0.2,8.2-0.1,12.3c-0.1,1.3-0.1,2.7,0.2,4.1
			s0.1,2.9-0.5,4.5c-0.6,1.2-0.7,2.7-0.3,4.2c0.4,1.6,0.6,3.1,0.5,4.6c-0.1,1.2-0.3,2.3-0.4,3.4c-0.2,1.1-0.3,2.2-0.4,3.4
			c-0.2,1-0.2,1.8-0.1,2.2c0.2,1.3,0.7,2.6,1.4,4c0.5,1.4,1,2.7,1.4,4.1c0.4,1.3,0.9,2.6,1.6,3.8c0.4,0.7,1,1.3,1.7,1.6
			c0.7,0.3,1.5,0.6,2.4,1c0.4,0.3,0.7,0.3,1.1,0.2c0.4-0.1,0.7-0.2,1.1-0.3c-0.7,2.6-2.9,3.6-6.6,3c-0.9-0.2-1.7-0.5-2.5-0.9
			c-0.8-0.4-1.6-0.8-2.5-0.9c-2.9-1-5.4-2.5-7.2-4.5c-1.9-2-3.7-4.2-5.3-6.5c-2.1-3.1-3.6-6.4-4.3-9.9c-0.8-4.1-1.5-8.2-2-12.2
			c-0.5-4-1-8.1-1.5-12.3c0.1-0.7,0.1-1.3,0.1-1.9c0-0.6,0.5-0.9,1.7-1.1c0.2,0,0.3-0.2,0.4-0.6c0.1-0.3,0.2-0.7,0.3-1
			c0-0.2-0.2-0.3-0.5-0.3c-0.3,0-0.6-0.1-0.8-0.2c-0.2-0.3-0.4-0.5-0.6-0.6c-0.2-0.1-0.3-0.4-0.4-0.7c0-2.1,0-4.3,0.1-6.4
			c0.1-2.1,0.1-4.3,0.1-6.4c0-0.8,0-1.6,0-2.2c0-0.7,0-1.3,0-2c0.2-2.8,0.3-5.7,0.5-8.7c0.1-3,0.4-5.9,0.7-8.7
			c0.1-0.7,0.1-1.2,0.2-1.8c0.1-0.5,0.2-1.1,0.5-1.8c0.3-0.1,0.5,0,0.6,0c0.1,0.1,0.2,0.1,0.4,0.1c-0.2,0.7-0.3,1.3-0.2,1.8
			c0.1,0.3,0.1,0.6,0.3,0.9c0.1,0.3,0.2,0.6,0.3,0.9c0.3-0.4,0.5-0.6,0.7-0.7c0.2-0.1,0.4-0.3,0.5-0.7c0.7-1.6,0.3-2.8-1.3-3.5
			c-0.3-0.1-0.7-0.3-1-0.6c-0.3-0.3-0.4-0.6-0.3-0.9c0.4-3.5,0.9-7,1.4-10.5c0.5-3.5,1-7.1,1.6-10.6c0.3-2.2,0.7-4.3,1.1-6.3
			c0.4-2,0.8-4.2,1.3-6.4c0.8-2.9,1.6-5.7,2.2-8.5c0.6-2.7,1.4-5.5,2.2-8.5c0.7-2.9,1.3-5.7,1.9-8.6c0.6-2.8,1.4-5.6,2.2-8.4
			c0.5-1.9,1.1-3.8,1.7-5.7c0.6-1.9,1.2-3.8,1.9-5.7c-0.3,0.2-0.6,0.3-0.8,0.4c-0.2,0-0.4,0.2-0.5,0.6c-2.8,3.2-5.3,6.4-7.5,9.6
			c-2.2,2.8-4.3,5.6-6.4,8.3c-2.1,2.7-4.2,5.5-6.2,8.2c-0.8,1.3-1.5,2.6-2.1,3.9c-0.6,1.3-1.2,2.7-1.8,4.1c-1,1.6-2,3.3-2.8,4.9
			c-0.8,1.6-1.7,3.1-2.8,4.6c-0.5,1.1-0.9,1.8-1.1,2.1c-1,2-2,3.9-3.1,5.9c-1.1,2-2.1,3.9-3.1,5.9c-0.2,0.5-0.4,1.1-0.5,1.7
			c-0.1,0.6-0.2,1.1-0.5,1.7l-1.5,4.7c-0.9,2.3-2,4.6-3.1,6.9c-1.1,2.3-2.2,4.6-3.3,6.9c-0.6,1.4-1.3,2.8-2,4.3
			c-0.8,1.4-1.4,2.9-2,4.3c-0.5,1.1-0.8,2.1-1.1,3.2c-0.2,1.1-0.6,2.3-1,3.5c-0.8,2.1-1.7,4.2-2.6,6.2c-0.9,2-1.7,4.2-2.5,6.4
			c-1.3,3.3-2.4,6.7-3.3,10c-0.9,3.3-1.9,6.7-3,10.2c-0.6,1.6-1.2,3.1-1.9,4.5c-0.7,1.4-1.2,2.9-1.6,4.4c-0.5,2-1.5,3.7-2.9,4.9
			c-1.4,1.2-2.7,2.6-3.8,4c-0.6,0.6-1.3,1.1-2.1,1.6c-0.8,0.5-1.9,0.5-3.1,0c-1.9-0.8-3.9-1.5-5.8-1.9c-2-0.4-3.7-1.2-5.2-2.5
			c-0.9-0.7-1.8-1.3-2.5-2c-0.8-0.7-1.4-1.5-1.9-2.4c-2.3-2.9-3.7-6-4.3-9.3c-0.6-3.3-1.2-6.6-1.7-9.9c-0.2-2.1-0.2-4.2,0-6.1
			c0.2-2,0.2-4.1,0.2-6.2c-0.1-2.4,0-4.8,0.4-6.9c0.6-4.5,1.2-9.1,1.8-13.7c0.6-4.6,1.4-9.1,2.4-13.5c0.7-3.6,1.6-7.1,2.6-10.6
			c1-3.5,2-7,3.1-10.5c1.4-4.5,2.8-9,4.2-13.6c1.4-4.6,2.9-9.1,4.4-13.6c1.2-3.8,2.5-7.6,3.8-11.3c1.4-3.7,2.8-7.5,4.3-11.2
			c0.4-1.4,1.2-2.5,2.2-3.3c1-0.8,2.4-1,4.1-0.7c0.4,2.2,1.4,2.9,3.3,1.9c1.4-0.7,2.7-1.2,3.9-1.5c1.3-0.3,2.6,0.1,3.9,1.2
			c-0.9,0.5-2,0.6-3.2,0.5c-1.2-0.1-2.4,0.6-3.4,2.3c1.3,0.1,2.4,0.3,3.3,0.5c0.8,0.2,1.6,0.1,2.4-0.4c1.2-0.8,2.3-1.1,3.4-0.7
			c1.1,0.4,2.4,0.6,3.7,0.8c0.8,0,1.7,0.4,2.7,1c1,0.7,2,1.5,2.9,2.5c0.9,1,1.6,2,2.2,3.1c0.6,1.1,0.9,2,0.8,2.8
			c-0.1,1.3-0.4,2.6-0.9,3.7c-0.5,1.1-0.9,2.3-1.4,3.5c-1,2-1.9,4-2.7,6c-0.8,2-1.7,4.1-2.7,6.2c-1,2.1-1.9,4.3-2.6,6.4
			c-0.8,2.2-1.9,4.3-3.2,6.3c-1.1,1.5-1.8,3-2.2,4.6c-0.4,1.6-0.9,3.2-1.4,4.8c-0.3,0.4-0.5,0.7-0.8,1.1c-0.3,0.4-0.5,0.7-0.8,1.1
			c-0.3,0.4-0.5,0.7-0.7,0.9c-0.2,0.2-0.3,0.5-0.2,0.8c0.3,2.1,0,3.8-1.1,5.1c-1.1,1.3-2.2,2.6-3.3,4c-0.7,0.8-1,2-1,3.8
			c0,1.8,0.5,3,1.5,3.7c-2.2,1.5-3.5,3.3-3.8,5.5c-0.3,2.2-0.7,4.4-1.2,6.6l-0.3,1c-0.5,1.9-1,3.7-1.6,5.4c-0.5,1.7-1.1,3.4-1.6,5.2
			c-0.2,0.5-0.4,1-0.5,1.4c-0.1,0.4-0.2,0.8-0.3,1.2c0.1,0.3,0.1,0.6,0.3,0.9c0.1,0.3,0.2,0.6,0.3,0.9c0.2,0,0.3-0.1,0.3-0.2
			c0.1-0.1,0.2-0.2,0.3-0.2c0.7-1.7,1.4-3.5,2-5.3c0.6-1.8,1.4-3.5,2.5-4.9c1.1-1.5,1.8-3.1,2.2-4.8c0.4-1.7,0.9-3.3,1.7-4.7
			c1.2-2,2.2-4,3.2-6.2c1-2.1,1.9-4.2,2.9-6.1c0.2-0.5,0.6-1,1.1-1.3c0.5-0.3,0.9-0.6,1.2-0.8c0.2-0.8,0.3-1.7,0.3-2.5
			c0-0.8,0.2-1.6,0.6-2.3c2.4-3.7,4.5-7.5,6.5-11.5c2-4,4-7.9,6.2-11.7l0.2,0c-0.2,0,0.2-0.2,1.1-0.7c-0.7,1.9-1.2,3.7-1.7,5.3
			c-0.5,1.6-1.1,3.2-1.8,4.6c-0.6,1.4-1.3,2.8-2.3,4.3c-0.9,1.5-1.7,3-2.5,4.6c-0.5,0.9-0.9,1.9-1.1,3c-0.2,1.1-0.5,2.2-0.8,3.2
			c0.2,0.5,0.6,0.7,1.1,0.8c0.4-0.4,0.9-0.7,1.3-1c0.5-0.2,0.8-0.6,1-1.1c1.9-3.4,3.8-6.8,5.6-10.1c1.8-3.3,3.7-6.7,5.6-10.1
			c1.2-1.8,2.4-3.6,3.7-5.3c1.3-1.7,2.5-3.4,3.7-5c0.7-0.9,1.2-1.9,1.7-3c0.5-1.1,1-2.1,1.7-3.2l0.2-0.5c0-0.2,0-0.3,0.2-0.3
			c1.3,0,2.3-0.4,3-1c0.7-0.6,1.3-1.3,1.9-2.1c0.5-0.8,1-1.7,1.4-2.7c0.4-1,1-1.8,1.7-2.4c1-0.8,1.9-1.7,2.5-2.6
			c0.7-0.9,1.3-1.8,2-2.8c0.3-0.4,0.4-0.8,0.5-1.4c0.1-0.6,0.2-1.1,0.5-1.4c1.2-0.8,2-1.6,2.6-2.1c1.3-1.2,2.2-2.5,2.8-4
			c0.6-1.5,1.1-3.1,1.4-4.8c0.1-0.3,0.2-0.6,0.4-0.7c0.1-0.1,0.3-0.2,0.4-0.4c2-1.6,3.8-3.7,5.4-6.3c0.5-0.9,1.1-1.7,1.8-2.5
			c0.7-0.8,1.4-1.5,2.1-2.3c0.1-0.2,0.2-0.4,0.2-0.5c0.1-0.2,0.2-0.4,0.3-0.5c0.1-0.2,0.1-0.4,0.3-0.5l0-0.2
			c0.2-0.7,0.4-1.3,0.5-1.9c0.1-0.6,0.4-1.1,0.6-1.5c0.2-0.5,0.4-0.9,0.6-1.1l0.6-0.8c0.9-1.3,1.4-2.6,1.3-3.9
			c0.3-1.2,0.8-2.3,1.6-3.2c0.7-0.9,1.5-1.9,2.4-2.8c0.7-0.9,1.9-1.2,3.6-0.8c1.6,0.1,3.7,0.1,6.1,0.3c2.4,0.1,4.3,0.8,5.6,2
			c1,0.8,1.9,1.6,2.7,2.4c0.9,0.8,2,1.2,3.5,1.3C428.4,177.7,428.6,177.7,428.6,177.9z M335.4,287.9c0.6-1.4,1.2-2.8,1.8-4.1
			c0.6-1.3,1.2-2.7,1.8-4.1c-0.2-0.1-0.4-0.2-0.5-0.3c-0.2-0.1-0.4-0.1-0.5-0.3c-0.9,1.3-1.8,2.6-2.6,3.9c-0.8,1.3-1.5,2.6-2.3,4.1
			c0,0.2,0.1,0.4,0.2,0.7c0.1,0.3,0.3,0.4,0.4,0.4C334.6,288.4,335.1,288.3,335.4,287.9z M379.2,338.6c0.5-0.7,0.8-1.2,0.8-1.4
			c0.2-0.8,0.3-1.8,0.4-2.8c0.1-1,0.1-1.9-0.1-2.7c0-1.3-0.1-2.6,0-4c0-1.4-0.7-2.6-2.2-3.7c-0.1,1.3-0.2,2.6-0.2,3.8
			c0,1.2-0.1,2.5-0.2,3.8c-0.3-0.8-0.7-1.8-1.2-3l-1,0.2c0.1,0.6,0.2,1.4,0.3,2.2c0.1,0.8,0.4,1.3,0.7,1.6c0.9,0.7,1.5,1.4,1.7,2.1
			c0.2,0.7,0.2,1.5,0,2.3c-0.1,0.3,0,0.6,0.3,0.8C378.7,338,379,338.3,379.2,338.6z M408.8,209.8c0.3-0.4,0.3-0.8,0.1-1.4
			c-0.2-0.5-0.4-0.9-0.5-1c-0.5,0.1-1,0.1-1.5,0.1c-0.5,0-0.9,0.2-1.1,0.6c-0.7,0.8-1.2,1.5-1.6,2.3c-0.4,0.8-0.7,1.6-1.1,2.5
			c-0.8,2.3-1.5,4.5-2.1,6.7c-0.6,2.2-1.3,4.5-2.1,6.7c-0.5,1.9-1.1,3.8-1.8,5.8c-0.7,2-1.2,4-1.7,6c-0.5,1.9-1,3.8-1.4,5.9
			c-0.5,2-0.9,4-1.4,5.9c-0.2,0.7-0.4,1.3-0.7,1.8c-0.2,0.5-0.5,1.1-0.7,1.8c-0.4,2.4-0.9,4.7-1.3,7.1c-0.4,2.4-0.9,4.7-1.3,7.1
			c-0.4,2.4-1,4.7-1.6,7.1c-0.6,2.4-1.1,4.8-1.6,7.1c-0.2,1.7-0.4,3.3-0.5,5c-0.1,1.7-0.2,3.4-0.3,5.2c-0.2,1.7-1,2.5-2.3,2.3
			c0.3-1.4,0.5-2.8,0.8-4.3c0.2-1.5,0.4-3,0.5-4.5c0.1-1.2,0.2-2.3,0.1-3.4c-0.1-1.1-0.1-2.3,0.1-3.4c0.1-1.2,0.4-2.2,0.7-3.2
			c0.3-1,0.7-1.9,1-3c0.2-0.7,0.2-1.4,0-2.1c-0.2-0.7-0.2-1.4,0-2.1c0.4-1.7,0.8-3.3,1.2-4.9c0.4-1.5,0.8-3.2,1.1-5.1
			c0.3-1.4,0.5-2.7,0.6-3.9c0.1-1.2,0.4-2.5,0.9-3.7c0.8-2.2,1.5-4.4,2.1-6.5c0.6-2.1,1-4.2,0.9-6.5c0-0.8,0.2-1.5,0.5-2
			c0.3-0.5,0.6-1.2,0.8-1.8c0.4-1.4,0.7-2.7,1-3.8c0.3-1.2,0.6-2.5,1.1-3.9c-0.5,0.1-0.9,0-1.3-0.3c-0.5,0.9-0.8,1.9-1,3
			c-0.2,1.1-0.7,1.9-1.4,2.3c-1.1,1-1.5,2-1.1,3.1c0.3,1.1,0.3,2.1-0.2,3l-1.6,0.3c0,1.1,0.1,2.2,0.3,3c0.1,0.9,0.2,1.9,0.3,3
			c-1.9-0.5-3.3-0.5-4,0c-0.8,0.5-1.4,1.8-1.9,3.9c-0.5,2,0.7,3.5,3.7,4.3c-0.2,0.7-0.5,1.9-0.9,3.6c-0.8-0.5-1.2-0.9-1.5-1.2
			c-1.2,0.9-2.1,1.6-2.7,2.1c-0.3,0.4-0.5,1.1-0.6,2.1c0.8-0.1,1.5-0.2,2-0.1c0.5-0.1,1.2,0,2,0.2c-0.8,0.3-1.4,0.5-1.8,0.7
			c-0.4,0.1-0.8,0.3-1.3,0.6c0.4,0.3,0.8,0.5,1.3,0.8c0.5,0.3,1,0.6,1.5,1c-0.8,0.5-1.5,0.8-2.1,1.2c-0.6,0.3-1.1,0.8-1.5,1.3
			c-0.7,0.8-1.2,1.9-1.7,3.5c0.1,0.3,0.4,0.7,0.9,1.1c0.4-0.4,0.8-0.8,1.2-1.2c0.3-0.4,0.7-0.8,0.9-1.1l0.6-0.8
			c0,1.1-0.1,2.2-0.4,3.2c-0.3,1-0.5,2-0.6,3c-0.2,1-0.3,2.1-0.4,3.1c-0.1,1.1-0.2,2.1-0.4,3.1c-0.2,1.7-0.4,3.3-0.6,4.9
			c-0.2,1.6-0.5,3.1-0.9,4.7c-0.2,0.9-0.5,1.6-0.9,2.4c-0.4,0.7-0.8,1.5-1.1,2.4c-0.5,0.9-1,1.8-1.5,2.8c-0.5,1-1,1.9-1.5,2.8
			l0.8,0.6c0.3-0.2,0.6-0.4,0.9-0.5c0.3-0.1,0.6-0.4,0.9-0.8l0.2,1c0.1,2.4,0.1,4.9,0,7.4c-0.1,2.5-0.1,4.9,0,7.4
			c0,1.8-0.1,3.6-0.1,5.4c0,1.8-0.1,3.6-0.1,5.4c1.4,0.4,2.4,0.7,3.1,0.7c1.1,2.6,1.4,5.1,0.8,7.5c-0.5,2.4-0.4,4.8,0.3,7.3
			c0.4,1.6,0.6,3.1,0.5,4.7c-0.1,1.6-0.1,3.2,0,4.8c0.1,0.5,0.3,1,0.7,1.6c0.5-0.7,0.9-1.3,1-1.6c0.2-0.8,0.3-1.6,0.4-2.4
			c0-0.7,0.3-1.5,0.6-2.2c0.3-1,0.4-1.9,0.2-2.5c-0.2-0.6-1-1.1-2.5-1.3c1.4-0.7,2.2-1.1,2.4-1.1c0.3-1.4,0.5-2.7,0.5-4
			c0-1.3,0.4-2.4,1.1-3.1c0.7-0.8,1.2-1.5,1.6-2.2c0.4-0.7,0.6-1.6,0.6-2.5c-0.1-0.5-0.2-1-0.4-1.5c-0.2-0.5-0.3-1.1-0.4-1.5
			c-0.3,0.4-0.5,0.8-0.8,1.2c-0.3,0.5-0.5,0.9-0.8,1.2l-0.7,0.4c-0.1-0.5-0.1-1.1,0.1-1.9c0.1-0.8,0.2-1.4,0.2-2
			c0-0.6-0.2-1-0.7-1.2c-0.5-0.3-1.4-0.2-2.9,0.2c0.2-0.8,0.4-1.6,0.6-2.3c0.2-0.7,0.4-1.5,0.6-2.3c0.5,0.9,0.9,1.6,1.1,2.2
			c0.3,0.5,0.6,1.2,1.1,1.9c0.4-0.8,0.7-1.4,0.9-1.9c0.2-0.5,0.5-1,0.7-1.6l0.7,4.5c1-1.6,1.5-2.7,1.5-3.2c-0.1-0.5-0.7-1.2-1.8-2.2
			c-0.4-0.3-0.6-0.7-0.7-1.3s-0.1-1.3-0.1-1.9c0.1-0.5,0.2-1,0.5-1.5c0.2-0.5,0.4-1.1,0.5-1.8c0.1-0.3,0-0.7-0.2-1.2
			c-0.2-0.4-0.5-0.8-0.7-1.1c-0.2,0-0.3,0-0.4-0.1c-0.1-0.1-0.2-0.1-0.4-0.1c-0.2,0.5-0.4,1-0.5,1.4c-0.1,0.4-0.3,1-0.5,1.7
			c-1-1.1-1.5-2-1.5-2.7c0-0.6,0.2-1.5,0.7-2.5c1-1.9,1.9-4,2.8-6.2c0.9-2.2,1.9-4.5,2.9-6.9l-4.1,0.7c0.4-1.5,0.8-3.1,1.1-4.6
			c0.3-1.5,0.7-3,1.1-4.4c-0.1-0.3,0.2-0.5,0.9-0.6c1.2-0.5,2-0.4,2.3,0.2c0.3,0.7,0.4,1.5,0.4,2.3l1,0.3c0.4-1.2,1.1-2.5,2-3.8
			c0.4-2.7,0.6-5.3,0.8-7.9c0.1-2.6,0.6-5.1,1.5-7.7c0.5-1.9,0.9-3.7,1.2-5.6c0.3-1.8,0.7-3.7,1.2-5.6c0.4-2.4,1-4.6,1.6-6.8
			c0.6-2.1,1.2-4.4,1.6-6.8c0.3-1.4,0.5-2.8,0.7-4.3c0.2-1.5,0.5-2.9,0.9-4.3c0.5-1.9,1.1-3.9,1.7-5.9c0.6-2.1,1.2-4,1.7-5.9
			c0-0.2-0.1-0.4-0.2-0.6c-0.1-0.2-0.2-0.5-0.3-0.8c-0.8,1.4-1.6,2.8-2.7,4.1c-1,1.3-1.2,2.8-0.6,4.5c0.1,0.3-0.1,0.7-0.3,1
			c-0.4,1.4-0.9,2.6-1.4,3.8c-0.5,1.1-0.9,2.3-1.4,3.5c-0.3,0.9-0.7,1.7-1.1,2.4c-0.4,0.7-0.7,1.5-1.1,2.4c-0.2,0.7-0.5,1.4-0.9,2
			c-0.4,0.6-0.5,1.2-0.2,1.6c0.5,0.9,0.7,1.6,0.6,2.1c-0.1,0.5-0.3,1-0.8,1.4c-0.4,0.4-0.9,0.8-1.4,1.2c-0.5,0.4-0.9,0.9-1.1,1.4
			c0.1-1.3,0.2-2.6,0.4-3.7c0.1-1.2,0.4-2.3,0.9-3.3c0.5-1.7,1.1-3.4,1.6-5.2c0.5-1.7,1.3-3.3,2.2-4.8c0.9-1.5,0.9-2.6-0.1-3.4
			c0.3-0.4,0.6-0.8,0.9-1.2c0.3-0.5,0.6-0.9,0.7-1.2c0.9-3.4,1.8-6.8,2.8-10.3C406.1,216.3,407.3,213,408.8,209.8z M382.5,298
			c-0.4-0.3-0.7-0.5-0.9-0.7c-0.2-0.2-0.5-0.5-0.9-0.7c0.7-0.9,1.2-1.6,1.6-2c0.7,0.2,1.3,0.4,1.8,0.7c0.5,0.2,1.1,0.4,1.8,0.4
			c1,0.2,1.6,0.6,1.8,1.2c0.2,0.6,0.3,1.4,0.2,2.2c-0.7-0.2-1.1-0.4-1.3-0.5c-0.9-0.5-1.6-0.6-2.1-0.2c-0.5,0.4-0.8,1.1-1,2.1
			c-0.1,1.3-0.3,2.6-0.5,3.9c-0.2,1.3-0.4,2.6-0.5,3.9c-0.2,1-0.2,2-0.2,2.8c0.1,0.9,0,1.8-0.2,2.8c-0.1,1.3-0.3,2.7-0.5,4
			c-0.2,1.3-0.3,2.7-0.5,4c-0.4-0.4-0.6-1.7-0.6-3.9c0-2.2,0-4.6,0.1-7.3c0.1-2.6,0.3-5.2,0.6-7.6
			C381.8,300.8,382.1,299.1,382.5,298z M388.6,246.2c-0.2,0.7-0.4,1.1-0.5,1.3c-0.3,0.4-0.5,0.8-0.7,1.2c-0.2,0.4-0.4,0.8-0.7,1.2
			l-0.7-1.1c0.1-0.7,0.2-1.3,0.3-1.9C386.5,246.4,387.3,246.1,388.6,246.2z M393.6,311c0.7-0.4,1.4-0.9,2-1.3c0.6-0.4,1.3-0.9,2-1.3
			c-0.9-0.2-1.6-0.4-2.2-0.7c-0.6-0.3-1.3-0.6-2-0.8c0.1-0.3,0.1-0.7,0.1-1.1c-0.1-0.4,0-0.8,0.1-1.1l-0.6-0.6
			c-0.6,0.4-1.1,0.9-1.6,1.4c-0.5,0.5-1.1,1-1.9,1.4c-0.2-0.3-0.4-0.5-0.6-0.6c-0.2-0.1-0.4-0.3-0.6-0.6c-0.2,0-0.3,0.1-0.3,0.2
			c-0.1,0.1-0.2,0.2-0.3,0.2c0.2,0.5,0.4,1,0.6,1.5c0.2,0.5,0.5,1,0.8,1.5c0.2,0.1,0.4,0.2,0.8,0.1c0.3-0.1,0.6-0.1,1-0.2
			c1.7-0.8,2.6-0.2,2.7,1.8L393.6,311z M390.4,301.4c0.8,0.2,1.6,0.4,2.2,0.5c0.6,0.1,1.2,0.3,1.9,0.5c0.2,0.1,0.4,0.1,0.6,0
			c0.2-0.1,0.4-0.2,0.6-0.2c0.2-0.7,0.1-1.2-0.2-1.4c-0.8-1.2-1.7-1.7-2.7-1.5S391,300.2,390.4,301.4z M394.4,268.8
			c0.9,0.4,1.4,0.9,1.5,1.7c0.1,0.8-0.3,1.6-1.3,2.4c-0.7,0.8-1,1.5-1,2.2c0,0.7,0,1.5-0.2,2.4c-0.2,0.9-0.3,1.8-0.3,2.7
			c0,1-0.1,2-0.3,3c-1.5-1.4-2.1-3.4-1.8-6.1C391.3,274.6,392.5,271.8,394.4,268.8z M393.4,294.1c0.2-1,0.3-2,0.5-2.9
			c0.2-0.9,0.3-2,0.5-3.1c-1.2,0.7-2.1,1.6-2.6,2.9c-0.5,1.2-0.6,2.2-0.1,3c0.1,0.5,0.4,0.7,1.1,0.6c0,0.2,0.2,0.2,0.4,0.1
			C393.3,294.4,393.4,294.2,393.4,294.1z M395.9,318.7c-0.7-0.2-1.1-0.4-1.3-0.5c-0.2,0.5-0.4,1-0.5,1.4c-0.1,0.4-0.2,0.8-0.3,1.2
			c-0.1,0.2,0,0.3,0.3,0.4c0.3,0.1,0.6,0.3,0.8,0.6L395.9,318.7z M397.1,259.6c-1.4-0.6-2.1-1.1-2.1-1.6c0-0.5,0.9-1.9,2.6-4.1
			c-0.2,1.2-0.3,2.2-0.4,3.1C397.3,257.9,397.2,258.7,397.1,259.6z M397.9,283.8c0-1.8,0.5-3.4,1.3-4.8c0.8-1.4,0.8-2.9-0.1-4.5
			c-0.6,1.4-1.2,2.9-1.7,4.5c-0.6,1.6-1.1,3.1-1.7,4.7c0.3-0.1,0.6-0.1,1,0C397,283.6,397.4,283.7,397.9,283.8z M399,216.1
			c-0.4-0.3-0.6-0.4-0.8-0.4c-0.9,0.5-1.5,1.1-1.8,2c-0.3,0.9-0.5,1.7-0.7,2.6c0.1,0.6,0.4,0.9,0.9,0.8c0.4,0.3,0.8,0.1,1.2-0.4
			c0.2-0.8,0.4-1.6,0.6-2.3C398.6,217.7,398.8,216.9,399,216.1z M405,254.9c1.6-0.3,2.3-1.3,2-3c-0.2-0.1-0.3-0.3-0.4-0.4
			c-0.1-0.1-0.3-0.3-0.4-0.4c-0.6,0.6-1.2,1.4-2,2.5c-0.2,0-0.1,0.3,0.2,0.7S404.8,254.9,405,254.9z M406.7,206.5
			c1.1-0.5,2-1.7,2.9-3.5c0.8-1.9,1-3.3,0.5-4.4c-1.1,0.5-1.9,1.6-2.6,3.4C406.8,203.7,406.5,205.2,406.7,206.5z"/>
		<path class="st0" d="M447.3,145.7c-1-1.3-2.3-1.6-3.7-0.9c-1.4,0.7-2.5,1.3-3.3,1.8c-1.2,0.8-2.3,1.4-3.5,1.8
			c-1.2,0.4-2.4,0.8-3.6,1.3c-0.9,0.3-1.8,0.7-2.7,1c-0.8,0.4-1.7,0.8-2.6,1.3c-0.6,0.4-1.1,0.7-1.6,0.7c-3.3-0.1-6.3,0.6-9.1,2.1
			c-2.8,1.5-5.7,2.7-8.9,3.5c-1.6,0.4-3.1,0.9-4.7,1.5c-1.5,0.6-3.1,0.3-4.8-0.7c-0.2-0.5-0.8-0.4-1.7,0c-3.1,1.3-6.1,2.6-9.1,3.9
			c-3,1.3-6,2.6-9.1,3.9c-2.2,0.8-4.3,1.6-6.4,2.3c-2.1,0.7-4.2,1.3-6.4,2c-1.7,0.6-3.3,1.2-4.9,1.8c-1.5,0.6-3.2,1.2-4.9,1.8
			l-3.1-2.2c1.2-4.6,3.4-8.4,6.5-11.2c3.1-2.9,6.7-5.3,10.6-7.2c2.9-1.4,5.7-2.9,8.5-4.4c2.8-1.5,5.7-2.9,8.8-4.2
			c4-1.8,8-3.4,12.1-4.9c4.1-1.5,8.1-3,12.1-4.7c2.9-1.1,5.8-2.3,8.6-3.5c2.8-1.2,5.7-2.4,8.6-3.5c3.1-1.1,6.1-2.2,9-3
			c2.9-0.9,5.9-1.9,9-3c3.1-1.1,6.1-2.3,9.2-3.3c3-1.1,6.1-2.2,9.1-3.6c1.5-0.6,2.5-1.7,2.9-3.4l10-38.4c0.8-2.4,1.5-4.9,2.3-7.4
			c0.7-2.5,1.5-4.9,2.3-7.4c0.5-1.7,1.3-2.9,2.4-3.5c1.1-0.6,2.3-0.8,3.8-0.7c1.3,0.1,2.7,0.1,4.1,0.1c1.4-0.1,2.8,0,4.3,0
			c0.3,0.1,0.7,0.1,1,0.1c0.3-0.1,0.7,0.1,1,0.3c1.8,0.9,3.6,1.6,5.4,2.3c1.8,0.7,3.4,1.8,4.6,3.2c0.6,0.7,1.3,1.4,2.1,2.1
			c0.8,0.7,1.4,1.4,1.9,2.1c0.5,0.7,0.9,1.6,1,2.7c0.2,1-0.1,2.2-0.7,3.4l0.2,1c1.6,1.7,2.1,3.3,1.5,4.9c-0.6,1.6-1.6,3.1-3.2,4.7
			l-0.4,0.3c-0.9,2.4-1.8,4.8-2.8,7.1c-0.9,2.3-1.9,4.6-2.8,7.1c-0.6,2.1-1.6,4-3,5.9c0.1,1.6,1.2,2.3,3.3,1.9
			c5.5-1.2,11.1-2.4,16.6-3.7c5.5-1.2,11.2-1.6,17-1.3c1.8,0,3.7-0.1,5.7-0.3c2-0.2,3.9-0.3,5.8-0.1c1.3,0.1,2.8,0.4,4.5,1
			c1.6,0.6,3.2,1.3,4.7,2.3c1.5,1,2.8,2.2,3.9,3.5c1.1,1.4,1.8,2.9,2.1,4.7c0.2,1.4,0.6,2.8,1,4.1c0.5,1.3,0.6,2.6,0.5,4
			c0,1-0.3,2.1-0.8,3.2c-0.5,1.2-1.2,2-1.9,2.4c-1.8,0.9-3.7,1.7-5.5,2.2c-1.9,0.5-3.8,1.1-5.6,1.5c-2.2,0.5-4.4,0.9-6.7,1.2
			c-2.2,0.3-4.5,0.3-6.6,0c-5.5-0.6-11-0.4-16.5,0.7c-5.5,1-11,1.9-16.7,2.4c-2.2,0.4-4.5,0.9-6.9,1.5c-2.4,0.6-4.9,1.3-7.5,2.1
			c0.1,0.3-0.2,1.5-0.6,3.7c-0.5,2.1-1,4.5-1.5,7c-0.5,2.5-1,5-1.4,7.2c-0.5,2.3-0.7,3.7-0.8,4.2c-0.2,1-0.6,2-1.3,3
			c-0.7,1-0.9,2.2-0.6,3.4c0.2,0.3,0,0.7-0.6,1.1c-0.6,0.4-1.1,0.8-1.5,1.2c0.7,1.5,1.1,2.5,1,3c-0.1,0.5-0.7,1.3-1.8,2.3
			c-0.2,0.5-0.8,1.4-1.6,2.5c-0.3,0.4-0.6,0.8-1,1.2c-0.4,0.4-0.7,0.8-0.8,1.1c-0.1,0.3,0,0.7,0.4,1.2c0.4,0.4,0.8,0.9,1.2,1.3
			c-0.2,0.5-0.4,1.3-0.4,2.3c0,1-0.2,2-0.5,3c-0.2,1-0.3,2.1-0.5,3.2c-0.2,1.1-0.8,2.1-1.9,3.1c-0.3,0.4-0.4,0.8-0.4,1.4
			c0,0.6,0,1,0.1,1.3c-0.8,1.3-1.5,2.4-2.1,3.4c-0.7,1-1.3,2.1-2,3.1c-0.3,0.9-0.3,1.5,0.1,2c0.7,1.5,1.1,2.5,1,2.9
			c-0.1,0.4-0.9,1.2-2.3,2.5c0.9,1.3,1.2,2.4,0.9,3.1c-0.3,0.7-0.9,1.3-1.7,1.9c-0.8,0.5-1.6,1-2.5,1.5c-0.8,0.5-1.4,1.1-1.8,2
			c0.8,0,1.6,0,2.3-0.1s1.6-0.3,2.5-0.4c-2,1.6-3.4,3.2-4,4.8c-0.6,1.6-0.5,3,0.6,4.3c-0.7,0.9-1.2,1.7-1.7,2.2
			c-0.5,0.6-1,1.1-1.6,1.7c0.4,0.3,0.7,0.5,1,0.8c0.3,0.3,0.6,0.6,1,0.8c0.7,1.4,0.5,2.1-0.6,2.3c-1.1,0.2-2.1,0.6-3,1.2
			c0.8,0.9,1.4,1.7,1.9,2.4c-0.7,0.5-1.4,0.9-2.1,1.4c-0.7,0.5-1.4,1-2.1,1.4c-0.6,0.4-0.8,0.9-0.8,1.4l1.1,0.7
			c1.3,0.1,2.4,0.2,3.2,0.3c-1.6,0.3-2.4,0.8-2.5,1.8c-0.1,0.9-0.1,1.9-0.1,3.1c-0.1,1.3-0.3,2.7-0.6,4.1c-0.3,1.4-0.4,2.8-0.6,4.1
			c-0.1,0.3-0.1,0.7-0.1,1.1c0.1,0.4,0,0.8-0.1,1.1c0.1,0.6,0.1,1.6,0,2.9c-0.5,0.1-1,0.1-1.5,0.1c-0.5,0-1,0-1.5,0.1
			c-0.2,0-0.4,0.1-0.6,0.2c-0.2,0.1-0.5,0.2-0.8,0.3c0.6,0.7,1.2,1.3,1.8,1.8c0.6,0.5,1.2,1,1.7,1.6c-0.4,0.7-0.8,1.5-1.2,2.4
			c-0.4,0.9-0.7,1.8-0.9,2.6c-0.2,0.7-0.1,1.4,0.3,2c0.4,0.7,0.9,1.3,1.3,1.9c0.1,0.3,0.3,0.6,0.6,0.9c0.4,0.3,0.5,0.6,0.4,0.9
			c-0.3,1.4-0.6,2.7-0.8,4.1c-0.3,1.4-0.6,2.7-1.1,4.1c-0.1,0.3-0.5,0.7-1.1,0.9c-0.6,0.3-1.2,0.5-1.9,0.8c0.2,0.3,0.4,0.7,0.5,1
			c0.1,0.3,0.4,0.7,0.8,1c-0.6,0.4-1.1,0.8-1.6,1c-0.5,0.2-0.9,0.5-1.4,0.7c1.3,1.9,1.9,3.8,1.9,5.7c0,1.9-0.2,3.7-0.6,5.6
			c-0.1,1.3-0.3,2.5-0.7,3.6c-0.3,1.1-0.5,2.3-0.7,3.7c-0.1,2.5-0.1,4.9-0.1,7.3c0.1,2.4,0.1,4.8,0.1,7.1c-0.1,1.3-0.2,2.6-0.4,3.8
			c-0.1,1.2-0.3,2.4-0.4,3.6c-0.1,0.3-0.4,0.6-0.7,0.9s-0.7,0.5-1,0.9c-0.7,0.9-1.2,1.7-1.6,2.5c-0.4,0.7-0.4,1.7,0,2.9
			c0.4,1.2,0.4,2.7,0.2,4.3c-0.2,1.6-0.4,3.2-0.5,4.8c-0.1,0.5-0.2,1-0.3,1.5c-0.1,0.5-0.1,1,0,1.5c0.4,1.2,0.8,2.5,1.4,3.8
			c0.5,1.3,0.7,2.6,0.6,3.9c-0.2,1-0.2,2,0,2.9s0.1,1.9-0.1,2.7c-0.3,2-0.2,3.7,0.5,5.2c0.6,1.5,1.7,2.7,3.1,3.8
			c0.4,0.3,0.7,0.5,1,0.7c0.3,0.2,0.7,0.6,1.4,1.1c-2.4,1.2-4.5,1.3-6.2,0.3c-1.7-1-3.4-1.7-5.1-1.9c-0.9-0.2-1.6-0.8-2.1-1.9
			c-0.6-1.1-1.1-2-1.6-2.9c-0.5-0.7-1.2-1.3-2.2-1.7c-1-0.4-1.2-1.2-0.4-2.3c-0.9-1.3-1.7-2.6-2.6-3.8c-0.8-1.2-1.4-2.4-1.8-3.6
			c-0.8-2.8-1.4-5.7-2-8.5c-0.5-2.9-1-5.6-1.5-8.4c-0.3-1.8-0.4-3.5-0.3-5.1c0.1-1.6,0.1-3.3,0.2-4.9c0.1-1.5,0.1-3-0.1-4.4
			c-0.2-1.4-0.2-2.9-0.1-4.4c0.2-4,0.3-7.9,0.3-11.8c0-3.9,0.1-7.9,0.3-11.8c0.6-8.6,1.4-17.3,2.4-26.2c0.3-3,0.8-6,1.3-8.9
			c0.5-2.9,1-5.9,1.5-9c1-5.9,2-11.7,3.1-17.6c1-5.8,2-11.7,3.1-17.6c0.5-2.2,0.9-4.4,1.4-6.5c0.5-2.1,0.9-4.3,1.4-6.5
			c0.7-3.1,1.3-6.1,2-9.2c0.7-3.1,1.3-6,2-8.9c0.8-3.4,1.6-6.8,2.4-10.3c0.8-3.5,1.6-6.9,2.4-10.3c0.1-0.5,0.3-1.8,0.7-3.9
			c0.4-2.1,0.7-4.3,1-6.5c0.3-2.3,0.5-4.3,0.5-6.1c0-1.8-0.2-2.7-0.7-2.6c-1.3,0-2.5,0.2-3.7,0.4c-1.2,0.2-2.4-0.1-3.5-0.9
			c-0.4-0.3-0.9-0.2-1.6,0.3C448.8,145,448,145.4,447.3,145.7z M437.1,131.6c-0.1-0.5-0.2-0.9-0.4-1.2c-1.1,0.2-2,0.4-2.6,0.7
			l-7,2.6c-1.4,0.6-2.8,1-4.1,1.3c-1.4,0.3-2.7,0.7-4.1,1.3c-1.7,0.6-3.5,1.2-5.3,1.8c-1.8,0.6-3.5,1.3-5.2,2.1
			c-4,1.5-7.9,2.9-11.7,4.2c-3.8,1.3-7.7,2.8-11.7,4.5c-2.7,1.3-5.5,2.6-8.2,4c-2.7,1.4-5.4,2.8-8.2,4c-1.8,0.9-3.4,2-4.8,3.2
			c-1.4,1.2-2.2,2.3-2.5,3.4c2.1-1.2,4.3-2.2,6.6-3.3c2.3-1,4.5-2.1,6.6-3.3c3.2-1.3,6.4-2.7,9.5-4.1c3.1-1.4,6.3-2.8,9.5-4.1
			c3.1-1.3,6.2-2.5,9.4-3.6c3.2-1.1,6.3-2.2,9.4-3.4c2.9-1.3,5.8-2.5,8.6-3.6c2.8-1.1,5.8-2.1,8.9-2.9c1.3-0.4,2.5-0.9,3.7-1.6
			C434.7,133,435.9,132.3,437.1,131.6z M395.3,152.1c-1.1,0.5-2.1,0.9-3.1,1.2c-1,0.3-2.1,0.7-3.2,1c0.1,0.3,0.1,0.6,0.2,0.7
			c0.1,0.1,0.2,0.4,0.2,0.7c0.9-0.5,1.9-0.8,2.9-1.1c1-0.2,2.1-0.6,3.1-1.1L395.3,152.1z M458.5,131.4c-0.7-0.2-1.3-0.4-1.8-0.6
			c-0.5-0.2-1-0.1-1.5,0.1c-1.7,0.6-3.4,1.3-5.2,2.1c-1.8,0.8-3.5,1.5-5.2,2.3c-1.4,0.6-2.8,1-4.1,1.3c-1.3,0.3-2.7,0.7-4.1,1.3
			c-2.8,0.9-5.6,1.9-8.5,2.7c-2.9,0.9-5.8,1.7-8.8,2.5c-0.6,0.3-1.2,0.5-1.8,0.8c-0.6,0.3-1.3,0.5-2.1,0.8l-12.6,4.2
			c-0.8,0.3-1.5,0.5-2.2,0.7c-0.7,0.2-1.4,0.4-2.2,0.7c-0.3,0.4-0.5,0.8-0.7,1.2c-0.2,0.4-0.4,0.9-0.6,1.5c1.4,0.4,2.4,0.6,3,0.4
			c0.6-0.2,1.5-0.7,2.7-1.5c0.7-0.6,1.6-1,2.6-1.3c1-0.2,2-0.5,2.9-0.8c1.2-0.4,2.5-0.5,3.7-0.4c1.2,0.1,2.1-0.6,2.5-2.1
			c2.7-0.8,5.3-1.4,7.8-2c2.5-0.6,4.8-1.4,6.9-2.6c2.7-1.6,5.4-2.5,8.3-2.8c2.8-0.3,5.6-1.2,8.3-2.8c2.2-1.3,4.7-2.3,7.2-3
			c2.6-0.7,5.1-1.4,7.6-2.1c0.5-0.2,1-0.8,1.7-1.7c0-0.2-0.1-0.3-0.3-0.4l-0.6-0.4c-1.1,0.2-1.8,0.4-2.1,0.6
			c-0.3,0.2-0.5,0.4-0.6,0.7C458.7,131,458.6,131.2,458.5,131.4z M447.8,255.6c0,0.8,0,1.5,0.1,2.1c0.1,0.6,0.1,1.2,0,1.8
			c0.3,0.1,0.8,0.1,1.2,0c0.2-0.7,0.3-1.4,0.3-2c0-0.6,0.1-1.3,0.3-2l-1.9,0.3c-0.1-0.5-0.2-1-0.4-1.4c-0.2-0.5-0.3-0.9-0.4-1.4
			c1.6-0.1,3.2,0,4.7,0.2c-0.5-1.2-0.9-2.1-1.2-2.8c-0.3-0.6-0.5-1.1-0.7-1.6c0.4-0.7,0.7-1.3,0.9-1.7c0.3-0.4,0.5-0.9,0.7-1.5
			c-1.1-0.5-1.9-0.9-2.7-1.3c0.4-1.5,0.7-3.1,1-4.6c0.2-1.5,0.5-3.1,0.7-4.8c0.2,0.1,0.4,0.2,0.8,0.1c-0.2,1-0.3,2-0.4,3
			c-0.1,1-0.2,2-0.4,3c-0.1,0.3-0.1,0.7-0.1,1.1c0.1,0.4,0,0.8-0.1,1.1c0.3-0.4,0.6-0.7,1.1-1c0.4-0.3,0.7-0.6,0.8-1
			c0.6-1.6,1.1-3.2,1.7-4.9c0.5-1.7,1.1-3.6,1.5-5.6c-0.7,0.4-1.4,0.8-1.9,1.2c-0.5,0.3-1.1,0.7-1.7,1.1c-0.2-0.1-0.3-0.2-0.3-0.3
			c0-0.1-0.1-0.2-0.3-0.3c0.4-0.6,1-1.2,1.9-2c0.3-0.4,0.6-0.8,1-1.3c0.4-0.5,0.8-0.9,1-1.3c0.5-1.9,0.9-3.8,1.2-5.7
			c0.3-1.9,0.6-3.9,0.9-5.9c-0.3-0.1-0.8-0.2-1.4-0.1c-0.6,0-1.3-0.1-2.1-0.3c0.8-2.4,1.7-4.9,2.7-7.6c0.6,0.4,1,0.9,1.5,1.5
			c3.1-3.3,3.8-6.1,2.1-8.4c-0.3,0.4-0.6,0.7-1.1,0.9c-0.5,0.2-0.8,0.5-1.1,0.9l-0.5-0.2c0.8-3.2,1.5-6.4,2.3-9.6
			c0.7-3.1,1.5-6.3,2.3-9.6l0.7-0.1c0.1,0.8,0.2,1.5,0.2,2.1c0,0.6,0.1,1.2,0.2,1.8c0.2,0,0.3,0,0.4,0.1c0.1,0.1,0.2,0.1,0.4,0.1
			c0.5-0.9,1-1.8,1.4-2.8c0.4-1,0.8-2,1.1-3c0.1-0.2,0.1-0.4-0.2-0.7c-0.3-0.3-0.6-0.4-0.9-0.3c-0.3-0.1-1.1,0.3-2.3,1.1
			c-0.5-0.9-0.7-1.5-0.8-1.8c0.4-2.7,0.8-5.3,1.3-7.8c0.5-2.5,0.9-5.1,1.3-7.8c0.2-0.8,0.3-1.7,0.2-2.5c-0.1-0.8-0.1-1.6,0-2.5
			c0.1-0.2,0.1-0.4-0.2-0.6c-0.3-0.2-0.6-0.3-0.9-0.2c-0.8,0.1-1.2,0.4-1.3,1c-0.9,1.8-1.6,3.9-2.2,6.5c-1,4.1-2,8.2-2.9,12.4
			c-1,4.2-1.9,8.3-2.9,12.4c-0.6,2.7-1.2,5.4-1.8,7.9c-0.7,2.6-1.3,5.2-1.8,7.9c-0.5,2.7-1.1,5.4-1.8,8c-0.6,2.6-1.3,5.2-1.8,7.8
			l-1.2,6.1c-0.4,1.9-0.8,3.7-1.2,5.5c-0.5,1.8-0.9,3.6-1.2,5.5c-1.2,6.9-2.3,14-3.2,21.2c-0.4,2.4-0.8,4.6-1.1,6.8
			c-0.3,2.2-0.6,4.4-0.9,6.8c-0.1,2.2-0.2,4.3-0.2,6.4c0,2.1-0.3,4.1-1,6.1c-0.8,2.4-1,4.8-0.7,7.2c0.3,2.4,0.2,4.8-0.2,7.2
			c-0.6,2.4-0.7,4.9-0.4,7.4c0.3,2.6,0.3,5.1-0.1,7.6c-0.4,2.4-0.4,4.7,0,7.1c0.5,2.4,0.4,4.8-0.2,7.2c-0.2,0.5-0.2,1.1,0.2,1.7
			c0.3,0.6,0.6,1.3,0.7,2.1c0.5-0.7,0.9-1.4,1.2-1.9c0.2-0.5,0.6-1.1,1-1.6c1.2,2.9,0.2,4.7-2.8,5.4c0.8,0.2,1.7,0.3,2.4,0.5
			c0.8,0.1,1.6,0.3,2.4,0.5c1.1-2.8,1.5-5.4,1.3-7.9c-0.2-2.5-1.3-4.7-3.1-6.7c2.2-2,4.1-3.8,5.5-5.3c-0.9-0.5-1.7-1-2.5-1.4
			c-0.8-0.5-0.7-1.4,0.1-2.8c0.1-0.5-0.1-1.1-0.6-1.9c-1-0.7-1.3-1.3-1.1-2c0.2-0.7,0.6-1.2,1-1.6c-0.1-0.8-0.2-1.5-0.2-2.2
			c0-0.6-0.1-1.3-0.2-1.9c-0.3-0.1-0.7-0.2-0.9-0.3c-0.3-0.1-0.7-0.3-1.2-0.5c0.9-0.5,1.7-0.9,2.5-1.1c0.8-0.3,1.3-0.6,1.6-1
			c0.6-1.6,1-3.1,1.3-4.8c0.3-1.6,0.7-3.3,1.3-5c-0.5,0.1-1,0.2-1.4,0.4c-0.5,0.2-0.9,0.3-1.4,0.4c-0.1-0.3-0.2-0.5-0.4-0.7
			c0.6-0.4,1.1-0.8,1.5-1.2c0.4-0.4,0.9-0.8,1.5-1.2c-0.4-1.6-0.7-3.2-0.9-4.9c-0.2-1.7-1.4-2.8-3.6-3.5c1.2-0.5,2-0.7,2.4-0.4
			c0.4,0.3,0.7,0.5,1,0.8c0.3,0.3,0.6,0.6,1,0.8c-0.4-1.4-0.5-2.4-0.5-2.9c0.1-0.5,0.7-1.5,1.7-3c0.1-0.2,0.2-0.3,0.2-0.4
			c0-0.1,0-0.2,0.2-0.4c0.3-2.3,0.6-4.5,0.9-6.6c0.3-2.1,0.6-4.2,0.9-6.4l-0.6-0.9c-0.3,0.4-0.6,0.6-0.9,0.8
			c-0.3,0.1-0.6,0.4-0.9,0.8c-0.2-0.1-0.3-0.2-0.4-0.2c-0.1,0-0.2,0-0.4-0.2c0.3-1,0.7-2,1.1-3C446.9,257.7,447.3,256.6,447.8,255.6
			z M438.7,351.3c0.1-1.6,0.1-3.2,0-4.7c-0.1-1.5-0.2-3.1-0.3-4.9c0.6,0.7,1.1,1.3,1.4,1.7s0.7,0.9,1.1,1.3c0.3-0.2,0.6-0.3,0.9-0.4
			c-0.1-0.8-0.3-1.6-0.4-2.5c-0.1-0.9-0.4-1.4-0.7-1.5c-0.9-0.2-1.5-0.5-2-0.9c-0.5-0.4-0.9-1-1.4-1.7c-0.3,0.4-0.5,0.7-0.8,0.9
			c-0.3,0.2-0.4,0.5-0.4,0.8c0.1,0.8,0.3,1.5,0.4,2c0.2,0.5,0.3,1.2,0.4,2c0,1.3,0.1,2.5,0.2,3.5c0.1,1.1,0.1,2.2-0.1,3.3
			C437,350.2,437.6,350.5,438.7,351.3z M448,127.2c-1.5,0.6-3,1.1-4.4,1.5c-1.4,0.4-2.9,0.9-4.4,1.5l0.1,0.7
			c1.4,0.4,2.3,0.7,2.8,0.8c1.2-0.7,2.3-1.3,3.3-1.9c1-0.6,1.9-1.2,2.8-1.8L448,127.2z M441.7,347.4c-0.3,0.2-0.7,0.4-1.2,0.4
			c-0.2,1-0.3,2-0.4,2.9c-0.1,0.9,0.8,1.6,2.7,2.1c-0.2-1-0.3-1.9-0.6-2.7C442.1,349.3,441.9,348.4,441.7,347.4z M446.7,321.8
			c0.2,0,0.3-0.1,0.3-0.2c0.1-0.1,0.2-0.2,0.3-0.2c0.3-1.4,0.6-2.6,0.9-3.8c0.3-1.2,0.5-2.5,0.6-3.8c-0.1-0.3-0.5-0.9-1.3-1.8
			c-0.3,0.4-0.5,0.7-0.8,0.9c-0.3,0.2-0.5,0.5-0.6,0.8c-0.2,1-0.3,2-0.4,3s-0.1,2-0.1,3c-0.1,0.3,0,0.7,0.3,1.1
			C446.2,321.2,446.5,321.5,446.7,321.8z M449.2,299.3l-0.6-0.4c-0.2,0.5-0.6,1.1-1,1.6c-0.4,0.6-0.6,0.9-0.6,1.1
			c1.2,1.1,1.4,2.3,0.7,3.5c-0.7,1.2-1.1,2.4-1.3,3.5c0.1,0.3,0.1,0.7,0.1,1.2c0,0.5,0,0.9,0.1,1.2c0,0.2,0.2,0.3,0.5,0.3
			c0.3,0,0.6,0,0.7,0c0.4-0.4,0.8-0.9,1.2-1.4c0.4-0.6,0.6-1,0.5-1.3c0.1-1.6,0-3.2-0.1-4.6C449.4,302.5,449.3,300.9,449.2,299.3z
			 M464.2,208c-0.2,0.9-0.4,1.8-0.5,2.8c-0.2,1-0.4,2-0.8,2.8c-0.6,2.1-1.5,4.1-2.5,6c-1,2-1.5,4.1-1.4,6.4c-0.2,1-0.3,2.1-0.4,3.1
			c-0.1,1.1-0.3,2.1-0.6,2.9c-1.7,3.9-2.7,7.8-3.2,11.7c-0.4,3.9-0.9,7.9-1.4,11.9c-0.2,1.7-0.3,3.3-0.3,5c0,1.6-0.5,3.3-1.5,4.9
			c-0.5,0.9-0.8,1.9-1,3.1c-0.1,1.2-0.3,2.3-0.5,3.3c0,1.8,0,3.6,0.1,5.3c0.1,1.7,0,3.5-0.4,5.3c-0.4,1.9-0.5,3.8-0.4,5.7
			c0.1,2-0.9,3.7-3,5.1c0.4,0.7,0.9,1.5,1.3,2.2c0.4,0.7,1,1.6,1.7,2.7c0.7-1.7,1.1-3,1.1-3.9c0.7-3.9,1.3-7.7,1.8-11.6
			c0.5-3.8,1.1-7.7,1.8-11.6l2.2-13.6c0.2-1,0.4-2,0.6-3c0.2-1,0.5-2,0.9-3.1c0.3-1.4,0.7-2.6,1.2-3.8c0.6-1.2,0.8-2.4,0.8-3.7
			c0-1.8,0.1-3.6,0.1-5.4c0-1.8,0.6-3.6,1.8-5.4c0.1-0.2,0.2-0.4,0.2-0.5c0-0.2,0-0.3,0.2-0.5c0.1-0.7,0.1-1.3,0.2-2
			c0.1-0.7,0.2-1.5,0.3-2.5c-0.4-0.7-0.5-2.1-0.2-4c0.3-1.9,1-3.6,1.9-5.1c1-1.6,1.4-3.3,1.2-5c-0.3-1.7-0.4-3.4-0.4-5.2
			C465.5,208.3,465.2,208.2,464.2,208z M452.2,224.9c0.1-1.2,0.3-2.3,0.6-3.3c0.2-1,0.4-2,0.6-3c0.3,0.1,0.6,0.1,0.8,0.1
			c0.2,0,0.4,0,0.8,0.1l-1.2,6.1c-0.3,0.1-0.6,0.1-0.7,0C452.7,224.9,452.5,224.9,452.2,224.9z M456.5,282.4c1-1.1,2.1-2.4,3.6-3.8
			c-1.6-0.1-2.8,0.1-3.5,0.6C456,279.6,455.9,280.7,456.5,282.4z M467.6,206.5c-0.3-1.8-0.2-3.5,0.1-5.3c0.4-1.8,0.8-3.5,1.4-5.3
			c0.5-1.7,1-3.5,1.4-5.3c0.4-1.8,0.4-3.5,0.1-5.3c-1.1,2.1-2,4.7-2.7,7.6c-0.5,1.9-1,3.7-1.3,5.4c-0.4,1.7-0.8,3.4-1.4,5.1
			C464.1,205.8,464.9,206.8,467.6,206.5z"/>
		<path class="st0" d="M606.1,308.6c0.6,1.7,1.5,3,2.7,4c1.2,1,2.4,1.7,3.4,2.3c1.1,0.6,1.9,1,2.4,1.3c0.5,0.3,0.4,0.8-0.5,1.4
			c-0.8,0.1-1.5,0.5-2,1.1c-1.3,1.2-2.6,1.7-4.1,1.4c-1.4-0.3-2.8-0.5-4.2-0.8c-1.3-0.1-2.4-0.5-3.1-1.2c-0.8-0.7-1.5-1.4-2.1-2.1
			c-1-1-2-1.8-3.2-2.4c-1.2-0.6-2.2-1.5-3-2.5c-2.7-3.7-5.2-7.8-7.4-12.3c-2.6-5.1-3.9-10.4-3.8-15.8s0.6-10.8,1.6-16.2
			c0.9-5.9,1.9-11.6,3.1-17.3c1.2-5.7,2.6-11.3,4.2-16.8c0.9-2.8,1.7-5.5,2.6-8.2c0.9-2.7,1.7-5.4,2.6-8.2c0-0.2,0-0.3,0.1-0.4
			c0.1-0.1,0.1-0.3,0-0.6l-1,0.2c-1.3,1.9-2.6,3.7-3.9,5.4c-1.3,1.8-2.5,3.6-3.7,5.4c-1.1,1.5-2,2.9-2.7,4.4
			c-0.8,1.4-1.7,2.9-2.7,4.4c-1.2,1.8-2.4,3.6-3.7,5.4c-1.3,1.8-2.5,3.6-3.7,5.4c-1,1.6-2.1,3.2-3,4.8c-1,1.5-2,3.1-3,4.8
			c-0.4,0.9-0.7,1.7-1.1,2.4c-0.4,0.7-0.8,1.4-1.4,2.2c-0.3,0.4-0.6,0.6-1.1,0.7c-0.5,0.1-0.8,0.1-1,0.2c-0.2,0.9-0.3,1.6-0.3,2.1
			c0,0.6-0.1,1-0.4,1.4c-1.4,2.5-2.8,5-4.3,7.6c-1.5,2.5-3,5.1-4.5,7.6l-0.2,0.3c0,2.1-0.5,4-1.4,5.6c-1,1.6-1.9,3.3-2.8,4.9
			c-1,2-2.1,3.8-3.2,5.4c-1.1,1.7-2.2,3.4-3.2,5.2c-0.9,1.5-1.7,3-2.3,4.7c-0.6,1.7-1.5,3.1-2.6,4.5c-1.2,1-1.8,2.2-2,3.6
			c-0.2,1.4-0.9,2.5-2.3,3.2c-0.3,0.1-0.6,0.2-0.8,0.5c-0.2,0.3-0.2,0.6,0,0.9c0.5,1.1,0.5,1.9-0.1,2.5c-0.6,0.6-1.2,1.3-1.8,2.3
			c-1.8,2.1-3.3,4.7-4.6,7.9c-1.1,2.1-2.8,3.5-5,4c-2.2,0.5-4.3,0-6.4-1.4c-1.3-0.8-2.3-1.6-3.2-2.5c-0.9-0.9-1.5-2.2-2-3.7
			c0-0.2-0.2-0.4-0.6-0.6c-1.9-0.5-3.4-1.5-4.7-3.1c-1.2-1.5-2.4-3.1-3.5-4.7c-0.5-0.7-0.9-1.5-1.4-2.4c-0.5-0.8-0.8-1.6-1.1-2.4
			c-2.9-7.6-3.8-15.5-2.9-23.8c0.3-4,0.8-7.9,1.4-11.8c0.6-3.9,1.2-7.7,1.9-11.6c0.1-0.5,0.2-0.9,0.4-1.3c0.2-0.4,0.3-0.7,0.4-1.1
			c0.2-0.8,0.3-1.6,0.4-2.3c0.1-0.7,0.2-1.4,0.4-2.3c0.3-1.4,0.6-2.8,1-4.2c0.4-1.5,0.8-2.9,1.3-4.3c0.3-1.2,0.6-2.4,0.9-3.6
			c0.3-1.2,0.6-2.4,0.9-3.6c0.7-1.9,1.3-3.8,1.9-5.6c0.6-1.8,1.2-3.7,1.9-5.6c1.3-3.3,2.5-6.5,3.6-9.7c1.1-3.2,2.3-6.4,3.6-9.7
			c2.5-6.1,5.2-12.1,8.4-18.2c1.7-3.5,3.5-7.1,5.4-10.7c1.9-3.6,3.9-7.2,6.1-10.8c1.4-2.4,3-4.6,4.7-6.8c1.7-2.2,3.4-4.3,5-6.3
			c4.8,0.1,9.1,1.1,13,3.1c3.9,2,7.8,4.1,11.6,6.2c2,1.2,4,2.3,6,3.5c2,1.2,4,2.4,6,3.7c0.9,0.4,1.6,0.8,2.2,1.2
			c0.6,0.5,1.2,1,2,1.5c2.2,1.4,4.4,2.9,6.7,4.3c2.3,1.4,4.5,2.9,6.7,4.3c0.4,0.3,0.8,0.5,1.4,0.8c0.5,0.2,1.1,0.5,1.8,0.7
			c-0.6,0.3-1.2,0.6-1.8,1l0.1,0.7c0.9,0.3,1.4,0.3,1.7,0c1-0.8,2-1.6,2.8-2.3c0.9-0.7,1.8-1.5,2.8-2.3c0.5-0.7,1.1-1,1.6-0.7
			c1,0.2,2.2,0.2,3.4,0.1c1.3-0.1,2.2,0.7,2.8,2.4c0.2,0.3,0.6,0.5,1.3,0.5c0.7,0.1,1.3,0.2,1.8,0.4c0.5,0.2,1,0.4,1.4,0.5
			c0.4,0.1,0.9,0.3,1.4,0.5c0.3,0.1,0.6,0.1,0.9,0c0.2-0.1,0.5,0,0.9,0.2c1.3,1.1,2.6,2.1,3.9,3c1.3,0.9,2.5,1.9,3.7,3
			c1,1.1,1.5,2.8,1.4,4.9c-0.1,2.1-0.7,3.7-1.8,4.7c-0.4,0.6-0.6,0.9-0.6,1.1c-0.2,0.5-0.4,1-0.4,1.5c0,0.5-0.1,0.9-0.4,1.3
			c-1.8,2.8-3.2,5.7-4,8.7c-0.2,0.9-0.6,1.7-1.3,2.7c-0.7,0.9-1.3,1.8-1.8,2.7c-0.6,1.4-1.2,2.8-1.8,4.2c-0.6,1.4-1.1,2.8-1.5,4.2
			c-0.9,2.6-1.7,5.2-2.5,7.9c-0.8,2.7-2,5.2-3.6,7.6c-0.7,0.9-1.2,1.9-1.5,3.1c-0.3,1.1-0.6,2.3-0.9,3.5c-0.8,2.3-1.3,4.4-1.7,6.4
			c-0.1,1.2-0.2,2.3-0.3,3.4c-0.1,1.1-0.3,2.1-0.6,3.2c-0.2,0.9-0.5,1.7-0.8,2.5c-0.4,0.8-0.3,1.6,0.2,2.6l-0.2,0.5
			c-1.6,1.1-2.2,2.4-1.8,3.9c0.4,1.5,0.5,2.9,0.2,4.3c-0.2,0.9-0.5,1.8-0.9,2.7c-0.4,1-0.7,2-0.9,3c-0.1,2.5-0.2,4.9-0.2,7.3
			c0,2.4,0.1,4.8,0.3,7.2c0.2,1.3,0.4,2.5,0.7,3.7C605.5,306.6,605.8,307.7,606.1,308.6z M502.5,298.3c-1.2-0.3-1.9-0.7-2.2-1.2
			c-0.3-0.5-0.3-1.1-0.2-1.8c0.1-0.7,0.3-1.4,0.5-2c0.2-0.7,0.2-1.3-0.1-2c-2.4,2.4-2.8,4.6-1.1,6.8c0.2,0.3,0.6,0.5,1.1,0.6
			c0.5,0.1,0.9,0.3,1.3,0.5L502.5,298.3z M501.9,285.2c0.3-1,0.6-2.1,0.8-3.2c0.2-1.1,0.5-2.2,0.8-3.4c-0.4,0.4-0.9,0.8-1.3,1.1
			c-0.4,0.3-0.8,0.7-1.1,1c-0.8,2.1-1.4,4.1-1.7,5.9c-0.2,0.5-0.3,1.1-0.1,1.7c0.2,0.6,0.3,1.2,0.4,1.7c0.2,0.1,0.5,0.2,1,0.1
			c0.2-0.8,0.4-1.7,0.6-2.4C501.5,286.8,501.7,286,501.9,285.2z M504.9,273.4c0.2-0.7,0-1.2-0.5-1.6c-0.4-0.4-0.9-0.6-1.6-0.5
			c-0.7,0.6-1,1.2-0.9,1.9c-0.1,0.5,0.2,1,1,1.6c-0.6,0.6-1.3,1.3-2.1,2.1c0.4,0.4,0.9,0.7,1.4,0.9c0.5,0.2,1,0.4,1.3,0.6
			c0.2-0.8,0.4-1.7,0.7-2.4C504.5,275.1,504.7,274.2,504.9,273.4z M505.1,270.2c0.3-0.4,0.4-0.7,0.3-1c-0.1-0.3,0.1-0.7,0.3-1
			c0.2-0.5,0.4-1.1,0.5-1.7c0.1-0.6,0.2-1.1,0.5-1.7c0.6-1.4,1.2-2.7,1.8-3.9c0.6-1.2,1.2-2.4,1.6-3.8c0.4-2.4,0.9-4.7,1.3-7
			c0.4-2.3,1.1-4.6,2.1-6.8c0.3-0.4,0.3-0.7,0.2-1.1c-0.1-0.4-0.1-0.8,0.2-1.1c0.9-2.4,1.9-4.6,2.9-6.6c0.2-0.7,0.4-1.3,0.5-1.9
			c0.1-0.6,0.3-1.2,0.5-1.9c-0.4-0.3-0.6-0.5-0.6-0.6c-0.3,0.4-0.6,0.6-0.9,0.8c-0.3,0.1-0.6,0.4-0.9,0.8c-0.9,1.8-1.6,3.5-2.4,5.2
			c-0.7,1.7-1.5,3.5-2.3,5.4c-0.1,0.3-0.1,0.6-0.1,0.9c0,0.2,0,0.5-0.1,0.6c-1.6,1.4-2.4,2.9-2.6,4.6c-0.1,1.7-0.2,3.3-0.3,5
			c-0.1,0.3-0.1,0.6-0.1,0.8c0,0.2,0,0.3-0.2,0.5c-0.7,0.9-1.3,1.9-1.7,2.9c-0.5,1-0.5,2.1,0,3.3c0.6,0.4,0.5,0.7-0.1,0.8
			c-1.4,0.7-1.9,1.7-1.7,3c0.2,1.3,0,2.4-0.7,3.3c-0.3,0.2-0.3,0.6-0.1,1.1c0.2,0.5,0.6,1,1,1.4c0,0.2,0.2,0.3,0.5,0.3
			C505,270.4,505.2,270.3,505.1,270.2z M509.5,285.2c0.2,0.1,0.4,0.2,0.8,0.1c0.2-0.8,0.4-1.6,0.5-2.3c0.1-0.7,0.3-1.4,0.5-2.3
			c-0.2,0-0.3,0-0.5,0c-0.2-0.1-0.4-0.1-0.7,0c-0.2,0.9-0.3,1.6-0.3,2.3C509.8,283.6,509.7,284.3,509.5,285.2z M517.7,260
			c0.1-0.2,0.1-0.4-0.1-0.7c-0.2-0.3-0.4-0.6-0.6-0.9c-0.1,0.2-0.3,0.3-0.5,0.5c-0.2,0.1-0.4,0.3-0.5,0.5c-0.6,1.1-1.1,2.1-1.3,2.9
			c0,0.2,0.1,0.3,0.2,0.3c0.1,0.1,0.2,0.2,0.2,0.3C516,262.1,516.9,261.1,517.7,260z M586.6,216.8c2.8-3.7,5.7-7.5,8.5-11.4
			c2.8-3.9,5.6-7.7,8.5-11.4c-0.4-0.3-0.6-0.5-0.6-0.6c-2,2.1-3.8,4.2-5.6,6.3c-1.8,2.1-3.7,4.2-5.6,6.3c-0.7,0.9-1.3,1.9-2,2.8
			c-0.7,0.9-1.6,1.5-2.9,1.7c2.2-2.6,4.3-5.2,6.5-7.8c2.1-2.6,4.4-5.2,6.7-7.8c-0.9-0.2-1.5-0.3-2-0.4c-0.5-0.1-1-0.2-1.6-0.5
			c-0.9-0.2-1.7-0.4-2.5-0.7c-0.8-0.3-1.6-0.5-2.5-0.7c-0.7-0.2-1.4-0.5-2-0.9c-0.6-0.4-1.4-0.7-2.2-0.9c-0.5-0.2-1.1-0.4-1.7-0.5
			c-0.6-0.1-1.1-0.2-1.7-0.5c-2.1-1-4.2-2.1-6.3-3.3c-2.1-1.2-4.2-2.3-6.3-3.3c-1.1-0.5-1.9-0.5-2.5-0.1c-1.8,1.3-3.3,2.7-4.5,4.4
			c-1.9,2.6-3.7,5.3-5.4,8s-3.5,5.5-5.3,8.2c-0.5,0.7-1.1,1.4-1.7,2c-0.6,0.6-1.1,1.3-1.6,2.2c-0.6,1.2-1.4,2.3-2.4,3.2
			c-1,0.9-1.7,2.1-2.1,3.7c-0.3,1.4-0.8,2.7-1.6,3.9c-0.8,1.3-1.5,2.6-2.1,4l-0.4,0.3c-0.6,1.4-1.2,2.7-1.7,3.8
			c-0.6,1.2-1.1,2.4-1.8,3.6c-0.2,0.5-0.4,1-0.5,1.6c-0.1,0.5-0.2,1-0.5,1.6c-1.1,2.6-2.2,5.2-3.4,7.8c-1.2,2.6-2.3,5.2-3.1,8
			c-1.2,3-2.1,5.9-2.9,8.8c-0.8,2.9-1.6,5.9-2.4,9c-1,3.8-2,7.5-2.9,11.1c-0.9,3.7-1.8,7.4-2.9,11.1c-0.2,1-0.3,2-0.5,3
			c-0.2,1-0.9,1.7-2.1,2.1c0.1,0.5,0.2,0.9,0.5,1.3c0.2,0.4,0.2,0.7-0.1,1.1c-0.8,1.4-1.2,2.9-1.2,4.4s0.1,3,0.2,4.6
			c-0.1,0.3-0.1,0.7-0.1,1.1c0.1,0.4,0,0.8-0.1,1.1c-0.4,1.9-0.4,3.8-0.2,5.7c0.2,1.9,0.6,3.7,1.2,5.4c0.1,0.3,0.4,1.1,1.1,2.3
			c8.5-17.6,17.8-34.4,27.8-50.5c10-16.1,20.5-32,31.5-47.7c-0.6,1.4-1.3,2.7-2,3.8c-0.7,1.1-1.4,2.3-2,3.5
			c-1.2,1.8-2.3,3.6-3.5,5.2c-1.1,1.7-2.2,3.4-3.2,5.2c-0.8,1.1-1.4,2-1.8,2.7c-0.3,0.4-0.5,0.8-0.8,1.4c-0.2,0.5-0.5,1.1-0.7,1.6
			c-0.1,0.2-0.3,0.4-0.6,0.6c-0.3,0.2-0.4,0.4-0.4,0.6c0.5,1.1,0.5,1.7,0.1,2c-0.5,0.2-1.1,0.5-1.8,0.8c-0.6,0.4-1,0.8-1.3,1.2
			c-0.8,1.3-1.5,2.5-2.2,3.7c-0.7,1.2-1.4,2.5-2.2,3.9c-0.1,0.3-0.1,0.7-0.1,1c0.1,0.3,0.1,0.6,0.2,1c-0.4,0.4-0.9,0.8-1.3,1.2
			c-0.4,0.4-0.9,0.8-1.3,1.2c-0.1,0.2-0.2,0.4-0.2,0.8c0,0.3,0.1,0.6,0.2,0.7c0.2,0.1,0.4,0.3,0.7,0.4c0.3,0.1,0.5,0.1,0.6-0.1
			c1-0.2,1.6-0.7,2-1.5c0.8-1.1,1.6-2.3,2.3-3.4c0.7-1.2,1.5-2.4,2.2-3.7c0.2-0.5,0.6-1.1,1-1.6c0.4-0.6,0.6-1.1,0.7-1.6
			c-0.1-1.5,0.6-2.1,1.9-2c0.8-0.1,1.3-0.8,1.6-2c0.5-2,1.2-3.7,2.1-5c1.1-1.5,2.1-3,3.2-4.4c1.1-1.5,2.1-3,3.2-4.4
			c0.4-0.6,0.7-1.2,0.8-1.8c0.1-0.7,0.3-1.4,0.5-2c0.3-0.4,0.6-0.7,1.1-0.9c0.5-0.2,0.8-0.5,1.1-0.9c0.6-0.6,1-1.2,1.4-1.9
			c0.4-0.7,0.8-1.4,1.1-2.1c0.4-0.7,0.8-1.4,1.3-2c0.5-0.6,0.8-1.3,1-2c0.4-0.9,1-1.7,1.9-2.4c0.9-0.7,1.9-1,2.9-0.8
			c1.7,0.7,3,0,3.8-2.1c-0.8,0.1-1.5,0.3-2.3,0.5c-0.7,0.2-1.4,0.4-2.2,0.7c0-0.2-0.1-0.3-0.2-0.5
			C586.7,217.1,586.6,216.9,586.6,216.8z M516.8,242c1.3-1.2,1.9-1.9,2-2.2c0-0.3-0.5-0.6-1.5-1.1c-0.1,0.5-0.2,1-0.2,1.5
			C516.9,240.8,516.8,241.4,516.8,242z M548.3,273c1.5-1.1,2.6-1.8,3.3-2.3c-0.9-0.7-1.6-0.9-1.9-0.7
			C549.3,270.3,548.8,271.3,548.3,273z M551.4,269.6c0.5-1.1,0.8-1.9,1.1-2.4c-0.1-0.3-0.2-0.5-0.5-0.7c-0.3-0.1-0.5-0.2-0.7-0.4
			c-0.5,0.7-0.9,1.3-1,1.6C550.3,268,550.6,268.6,551.4,269.6z M580.4,232.8c-0.2-0.1-0.3-0.3-0.3-0.4c0-0.2-0.1-0.3-0.2-0.5
			c-0.1-0.1-0.2-0.3-0.2-0.5c-0.4,0.4-0.9,0.8-1.3,1.1c-0.4,0.3-0.9,0.7-1.3,1.1c0.4,0.6,0.6,1,0.7,1.1L580.4,232.8z"/>
		<path class="st0" d="M767.4,225c1.7,2.3,1.2,5-1.4,7.8c0.8,0.7,1,1.4,0.7,2.2c-0.3,0.8-0.8,1.6-1.5,2.3c-1.2,1.8-2.2,3.7-3.2,5.5
			c-0.9,1.9-2.1,3.7-3.4,5.6c-2.3,3.2-4.5,6.2-6.8,9.1c-2.2,2.9-4.6,5.9-7,8.9c-1.9,2.3-3.9,4.5-5.8,6.6c-2,2.1-3.6,4.4-5.1,6.7
			c-0.9,1.5-1.9,2.6-2.9,3.3c-1,0.7-2,1.5-3.1,2.3c-0.3,0.4-0.4,0.8-0.5,1.3c-0.1,0.5-0.2,1.2-0.4,2c-1.5,1.6-3.2,3.2-4.9,4.8
			c-1.7,1.7-3.6,3.3-5.6,5c-1.5,1.6-3.3,2.9-5.1,3.9c-1.9,1-3.7,2.2-5.5,3.5c-1.2,0.7-2.2,1.4-3.1,2.1c-0.9,0.7-1.9,1.4-3.1,2.1
			c-0.4,0.4-1,0.6-1.9,0.7c-0.8,0-1.4,0.3-1.9,0.7c-1.2,1-2.3,1.5-3.6,1.4c-1.2,0-2.5,0.2-3.7,0.7c-2.1,1-4.2,1.3-6.2,0.9
			c-2-0.4-4-1.2-6-2.3c-1.1-0.6-2.1-1.3-3-2.1c-0.9-0.7-2-1.4-3-2.1c-0.4-0.4-0.9-0.7-1.6-0.7c-0.7-0.1-1.3-0.2-2-0.4
			c-1.4-0.4-2.2-0.8-2.4-1.1c-0.5-1.1-1.1-1.7-1.7-1.9c-0.6-0.2-1.3-0.4-1.9-0.7c-1.5-0.4-2.5-1.1-3-2c-0.7-1.4-1.4-2.7-2-4.1
			c-0.6-1.4-1.4-2.6-2.2-3.8c-0.7-1-1.4-2.1-2.4-3.2s-1.6-2.2-2.2-3.5c-1.2-2.4-2.4-4.9-3.4-7.5c-1.1-2.6-1.9-5.3-2.5-7.9
			c-0.4-2.2-0.4-4.5-0.2-6.8c0.2-2.3,0.5-4.6,1-6.8c0.7-5.8,1.8-11.7,3.3-17.5c1.1-3.6,2.1-7.2,3.2-10.8c1.1-3.6,2.2-7.1,3.4-10.6
			c1.4-4.5,3.3-9.1,5.6-13.9c2.5-5,4.9-9.9,7.3-14.8c2.4-4.9,4.9-9.7,7.4-14.6c1.8-3.2,3.7-6.4,5.8-9.4c2.1-3,4.1-6.1,5.9-9.2
			c1-1.6,2.1-3.3,3.1-5c1-1.7,2.2-3.3,3.6-4.9c2.7-2.7,5.2-5.7,7.7-8.8c2.4-3.2,5.5-5.7,9.1-7.6c2.3-1.2,4.6-2,7.1-2.5
			c2.5-0.5,5,0.1,7.5,1.9c1.1,0.6,2.1,1.4,3.1,2.2c1,0.8,1.9,1.7,2.9,2.5c1,1,1.9,1.9,2.8,2.9c0.9,0.9,1.7,1.9,2.3,2.9
			c0.9,1.5,2,2.7,3.3,3.8c1.3,1,2.5,2.2,3.5,3.5c0.9,1.5,1.5,3.1,1.7,4.8c0.3,1.7,0.7,3.4,1.3,5.1c0.3,0.8,0.5,1.5,0.7,2.2
			c0.2,0.7,0.3,1.5,0.2,2.3c0,2.3,0,4.5-0.3,6.8c-0.2,2.2-0.5,4.5-0.7,6.9c-0.2,3-0.7,6.1-1.4,9.3c-0.5,2.9-1.3,5.8-2.3,8.7
			c-0.2,0.9-0.5,1.7-0.8,2.6c-0.3,0.9-0.7,1.8-1,2.6c-0.2,0.7-0.5,1.2-0.7,1.6c-0.7,0.9-1.3,1.8-2,2.7c-0.7,0.8-1.3,1.8-2,2.9
			c-0.6,1.1-1,2.2-1.2,3.3c-0.2,1.1-0.5,2.2-1,3.2c-0.9,2.3-2,4.4-3.3,6.4c-1.2,2-2.9,3.8-4.9,5.5c-0.7,0.5-1.3,1-1.6,1.6
			c-0.3,0.6-0.7,1.2-1.3,1.8c-1.2,1.5-2.8,2.1-4.6,1.8c-1.8-0.3-3.2-1.2-4.1-2.9c-0.4-0.7-0.4-1.6,0.1-2.7c2.4-2.7,4.3-5.6,5.8-8.8
			c1.5-3.2,3-6.4,4.5-9.6c2.4-4.6,4.3-9.4,5.9-14.3c1.6-4.9,2.9-9.9,4.1-15c1.6-7.6,2-14.9,1.4-21.8c-0.1-0.6-0.4-1.4-0.9-2.3
			c-0.3,0.2-0.6,0.3-0.9,0.4c-0.3,0.1-0.6,0.2-0.9,0.4c-0.9,0.6-1.8,1.4-2.7,2.4c-0.9,1-1.9,1.5-3.1,1.5c-2.4,0.2-4.4,1-5.9,2.4
			c-1.5,1.4-2.9,3.1-4.2,5.1c-1.1,1.5-2.3,2.9-3.6,4.1c-1.4,1.3-2.7,2.7-4.1,4.2c-0.3,0.4-0.5,0.6-0.6,0.7c-0.1,0.1-0.4,0.3-0.6,0.7
			c-1.1,1.5-2.1,3-3.1,4.5c-1,1.5-2,3.1-3.1,4.5c-1.2,1.7-2.4,3.4-3.7,5.3c-1.3,1.8-2.4,3.8-3.3,5.9c-1,2-1.9,4-2.8,6
			c-0.9,2-1.8,4-2.8,6c-0.6,1.4-1.3,2.6-2.1,3.7c-0.8,1-1.5,2.3-2.1,3.7c-0.9,1.8-1.6,3.5-2.2,5.3c-0.6,1.7-1.3,3.6-1.9,5.5
			c-0.6,1.4-1.3,2.9-2,4.4c-0.7,1.5-1.4,3-2,4.4c-2.2-0.1-2.9,1-2.2,3.3c0.1,0.8,0,1.6-0.3,2.5c-0.3,0.9-0.6,1.7-0.8,2.6
			c-0.4,1.7-0.8,3.3-1.3,4.9s-1,3.1-1.6,4.7c-0.7,2.6-1.5,5.1-2.2,7.6c-0.7,2.5-1.4,4.9-2,7.3c-0.2,0.5-0.3,1-0.1,1.4
			c0.1,0.4,0.2,0.9,0.1,1.6c-0.3,1.4-0.5,2.7-0.6,4.1c-0.1,1.4-0.2,2.8-0.3,4.1c-0.5,0.2-1,0.4-1.5,0.6c-0.5,0.2-1.2,0.5-1.9,0.9
			c1.6,0.7,2.5,1.5,2.8,2.2c0.3,0.8,0.4,1.7,0.2,2.9c-0.8,3.4,0.2,6.4,2.9,8.9c1.5,1.4,2.9,2.9,4.1,4.6c1.2,1.7,2.3,3.4,3.4,5
			c0.9,1.7,2,2.6,3.4,2.8c1.3,0.2,2.7,0.3,4,0.5c2.5,0.4,4.9,0.1,7.1-0.9c2.2-1,4.4-2.1,6.5-3.3c4.4-2.3,8.4-5.2,12.1-8.6
			c2.9-2.4,5.6-4.9,8.2-7.5c2.6-2.5,5.3-5.2,7.9-7.9c1.9-1.6,3.6-3.3,5.2-5.1c1.6-1.8,3.1-3.7,4.6-5.5c2.9-3.3,5.8-6.5,8.7-9.8
			c2.9-3.2,5.7-6.6,8.5-10c1.5-1.7,2.9-3.4,4.2-5.1c1.3-1.7,2.6-3.4,3.9-5.3c1.1-1.5,2.2-3,3.3-4.6c1.1-1.6,2.3-3.1,3.6-4.6
			c0.3-0.4,0.5-0.7,0.8-1C766.6,225.9,767,225.5,767.4,225z M665.6,202.8c-0.2-0.1-0.3-0.2-0.4-0.2c-0.1,0-0.2,0-0.4-0.2
			c-0.3,0.4-0.6,0.7-1.1,1c-0.4,0.3-0.9,0.8-1.5,1.3c0.5,0.2,1,0.4,1.4,0.5c0.4,0.1,0.8,0.2,1.2,0.3c0.2-0.5,0.4-1,0.4-1.4
			C665.3,203.8,665.4,203.3,665.6,202.8z"/>
		<path class="st0" d="M789.9,90.5c-1-1.3-2.3-1.6-3.7-0.9c-1.4,0.7-2.5,1.3-3.3,1.8c-1.2,0.8-2.3,1.4-3.5,1.8
			c-1.2,0.4-2.4,0.8-3.6,1.3c-0.9,0.3-1.8,0.7-2.7,1c-0.8,0.4-1.7,0.8-2.6,1.3c-0.6,0.4-1.1,0.7-1.6,0.7c-3.3-0.1-6.3,0.6-9.1,2.1
			c-2.8,1.5-5.7,2.7-8.9,3.5c-1.6,0.4-3.1,0.9-4.7,1.5c-1.5,0.6-3.1,0.3-4.8-0.7c-0.2-0.5-0.8-0.4-1.7,0c-3.1,1.3-6.1,2.6-9.1,3.9
			c-3,1.3-6,2.6-9.1,3.9c-2.2,0.8-4.3,1.6-6.4,2.3c-2.1,0.7-4.2,1.3-6.4,2c-1.7,0.6-3.3,1.2-4.9,1.8c-1.5,0.6-3.2,1.2-4.9,1.8
			l-3.1-2.2c1.2-4.6,3.4-8.4,6.5-11.2c3.1-2.9,6.7-5.3,10.6-7.2c2.9-1.4,5.7-2.9,8.5-4.4c2.8-1.5,5.7-2.9,8.8-4.2
			c4-1.8,8-3.4,12.1-4.9c4.1-1.5,8.1-3,12.1-4.7c2.9-1.1,5.8-2.3,8.6-3.5c2.8-1.2,5.7-2.4,8.6-3.5c3.1-1.1,6.1-2.2,9-3
			c2.9-0.9,5.9-1.9,9-3c3.1-1.1,6.1-2.3,9.2-3.3c3-1.1,6.1-2.2,9.1-3.6c1.5-0.6,2.5-1.7,2.9-3.4l10-38.4c0.8-2.4,1.5-4.9,2.3-7.4
			c0.7-2.5,1.5-4.9,2.2-7.4c0.5-1.7,1.3-2.9,2.4-3.5c1.1-0.6,2.3-0.8,3.8-0.7c1.3,0.1,2.7,0.1,4.1,0.1c1.4-0.1,2.8,0,4.3,0
			c0.3,0.1,0.7,0.1,1,0.1c0.3-0.1,0.7,0.1,1,0.3c1.8,0.9,3.6,1.6,5.4,2.3c1.8,0.7,3.4,1.8,4.6,3.2c0.6,0.7,1.3,1.4,2.1,2.1
			c0.8,0.7,1.4,1.4,1.9,2.1c0.5,0.7,0.9,1.6,1,2.7c0.2,1-0.1,2.2-0.7,3.4l0.2,1c1.6,1.7,2.1,3.3,1.5,4.9c-0.6,1.6-1.6,3.1-3.2,4.7
			l-0.4,0.3c-0.9,2.4-1.8,4.8-2.8,7.1c-0.9,2.3-1.9,4.6-2.8,7.1c-0.6,2.1-1.6,4-3,5.9c0.1,1.6,1.2,2.3,3.3,1.9
			c5.5-1.2,11.1-2.4,16.6-3.7c5.5-1.2,11.2-1.6,17-1.3c1.8,0,3.7-0.1,5.7-0.3c2-0.2,3.9-0.3,5.8-0.1c1.3,0.1,2.8,0.4,4.5,1
			c1.6,0.6,3.2,1.3,4.7,2.3c1.5,1,2.8,2.2,3.9,3.5c1.1,1.4,1.8,2.9,2.1,4.7c0.2,1.4,0.6,2.8,1,4.1c0.5,1.3,0.6,2.6,0.5,4
			c0,1-0.3,2.1-0.8,3.2c-0.6,1.2-1.2,2-1.9,2.4c-1.8,0.9-3.7,1.7-5.5,2.2c-1.9,0.5-3.8,1.1-5.6,1.5c-2.2,0.5-4.4,0.9-6.7,1.2
			c-2.2,0.3-4.5,0.3-6.6,0c-5.5-0.6-11-0.4-16.5,0.7c-5.5,1-11,1.9-16.7,2.4c-2.2,0.4-4.5,0.9-6.9,1.5c-2.4,0.6-4.9,1.3-7.5,2.1
			c0.1,0.3-0.2,1.5-0.6,3.7c-0.5,2.1-1,4.5-1.5,7c-0.5,2.5-1,5-1.4,7.2c-0.5,2.3-0.7,3.7-0.8,4.2c-0.2,1-0.6,2-1.4,3
			c-0.7,1-0.9,2.2-0.6,3.4c0.2,0.3,0,0.7-0.6,1.1c-0.6,0.4-1.1,0.8-1.5,1.2c0.7,1.5,1.1,2.5,1,3c-0.1,0.5-0.7,1.3-1.8,2.3
			c-0.2,0.5-0.8,1.4-1.6,2.5c-0.3,0.4-0.6,0.8-1,1.2c-0.4,0.4-0.7,0.8-0.8,1.1c-0.1,0.3,0,0.7,0.4,1.2c0.4,0.4,0.8,0.9,1.2,1.3
			c-0.2,0.5-0.4,1.3-0.4,2.3c0,1-0.2,2-0.5,3c-0.2,1-0.3,2.1-0.5,3.2c-0.2,1.1-0.8,2.1-1.9,3.1c-0.3,0.4-0.4,0.8-0.4,1.4
			c0,0.6,0,1,0.1,1.3c-0.8,1.3-1.5,2.4-2.1,3.4c-0.7,1-1.3,2.1-1.9,3.1c-0.3,0.9-0.3,1.5,0.1,2c0.7,1.5,1.1,2.5,1,2.9
			c-0.1,0.4-0.9,1.2-2.3,2.5c0.9,1.3,1.2,2.4,0.9,3.1c-0.3,0.7-0.9,1.3-1.7,1.9c-0.8,0.5-1.6,1-2.5,1.5c-0.8,0.5-1.4,1.1-1.8,2
			c0.8,0,1.6,0,2.3-0.1c0.7-0.1,1.6-0.3,2.5-0.4c-2,1.6-3.4,3.2-4,4.8c-0.6,1.6-0.5,3,0.6,4.3c-0.7,0.9-1.2,1.7-1.7,2.2
			c-0.5,0.6-1,1.1-1.6,1.7c0.4,0.3,0.7,0.5,1,0.8c0.3,0.3,0.6,0.6,1,0.8c0.7,1.4,0.5,2.1-0.6,2.3c-1.1,0.2-2.1,0.6-3,1.2
			c0.8,0.9,1.4,1.7,1.9,2.4c-0.7,0.5-1.4,0.9-2.1,1.4c-0.7,0.5-1.4,1-2.1,1.4c-0.6,0.4-0.8,0.9-0.8,1.4l1.1,0.7
			c1.3,0.1,2.4,0.2,3.2,0.3c-1.6,0.3-2.4,0.8-2.5,1.8c-0.1,0.9-0.1,1.9-0.1,3.1c-0.1,1.3-0.3,2.7-0.6,4.1c-0.3,1.4-0.4,2.8-0.6,4.1
			c-0.1,0.3-0.1,0.7-0.1,1.1c0.1,0.4,0,0.8-0.1,1.1c0.1,0.6,0.1,1.6,0,2.9c-0.5,0.1-1,0.1-1.5,0.1c-0.5,0-1,0-1.5,0.1
			c-0.2,0-0.4,0.1-0.6,0.2c-0.2,0.1-0.5,0.2-0.8,0.3c0.6,0.7,1.2,1.3,1.8,1.8c0.6,0.5,1.2,1,1.7,1.6c-0.4,0.7-0.8,1.5-1.2,2.4
			c-0.4,0.9-0.7,1.8-0.9,2.6c-0.2,0.7-0.1,1.4,0.3,2c0.4,0.7,0.9,1.3,1.3,1.9c0.1,0.3,0.3,0.6,0.6,0.9c0.4,0.3,0.5,0.6,0.4,0.9
			c-0.3,1.4-0.6,2.7-0.8,4.1c-0.3,1.4-0.6,2.7-1.1,4.1c-0.1,0.3-0.5,0.7-1.1,0.9c-0.6,0.3-1.2,0.5-1.9,0.8c0.2,0.3,0.4,0.7,0.5,1
			c0.1,0.3,0.4,0.7,0.8,1c-0.6,0.4-1.1,0.8-1.6,1c-0.5,0.2-0.9,0.5-1.4,0.7c1.3,1.9,1.9,3.8,1.9,5.7c0,1.9-0.2,3.7-0.6,5.6
			c-0.1,1.3-0.3,2.5-0.7,3.6c-0.3,1.1-0.5,2.3-0.7,3.6c-0.1,2.5-0.1,4.9-0.1,7.3c0.1,2.4,0.1,4.8,0.1,7.1c-0.1,1.3-0.2,2.6-0.4,3.8
			c-0.1,1.2-0.3,2.4-0.4,3.6c-0.1,0.3-0.4,0.6-0.7,0.9c-0.4,0.2-0.7,0.5-1,0.9c-0.7,0.9-1.2,1.7-1.6,2.5c-0.4,0.7-0.4,1.7,0,2.9
			c0.4,1.2,0.4,2.7,0.2,4.2c-0.2,1.6-0.4,3.2-0.5,4.8c-0.1,0.5-0.2,1-0.3,1.5c-0.1,0.5-0.1,1,0,1.5c0.4,1.2,0.8,2.5,1.4,3.8
			c0.5,1.3,0.7,2.6,0.6,3.9c-0.2,1-0.2,2,0,2.9s0.1,1.9-0.1,2.7c-0.3,2-0.2,3.7,0.5,5.2c0.6,1.4,1.7,2.7,3.1,3.8
			c0.4,0.3,0.7,0.5,1,0.7c0.3,0.2,0.7,0.6,1.4,1.1c-2.4,1.2-4.5,1.3-6.2,0.3c-1.7-1-3.4-1.7-5.1-1.9c-0.9-0.2-1.6-0.8-2.1-1.9
			c-0.6-1.1-1.1-2-1.6-2.9c-0.5-0.7-1.2-1.3-2.2-1.7c-1-0.4-1.2-1.2-0.4-2.3c-0.9-1.3-1.7-2.6-2.6-3.8c-0.8-1.2-1.4-2.4-1.8-3.6
			c-0.8-2.8-1.4-5.7-2-8.5c-0.5-2.9-1-5.6-1.5-8.4c-0.3-1.8-0.4-3.5-0.3-5.1c0.1-1.6,0.1-3.3,0.2-4.9c0.1-1.5,0.1-3-0.1-4.4
			c-0.2-1.4-0.2-2.9-0.1-4.4c0.2-4,0.3-7.9,0.3-11.8c0-3.9,0.1-7.9,0.3-11.8c0.6-8.6,1.4-17.3,2.4-26.2c0.3-3,0.8-6,1.3-8.9
			c0.5-2.9,1-5.9,1.5-9c1-5.9,2-11.7,3.1-17.6c1-5.8,2-11.7,3.1-17.6c0.5-2.2,0.9-4.4,1.4-6.5c0.5-2.1,0.9-4.3,1.4-6.5
			c0.7-3.1,1.3-6.1,2-9.2c0.7-3.1,1.3-6,2-8.9c0.8-3.4,1.6-6.8,2.4-10.3c0.8-3.5,1.6-6.9,2.4-10.3c0.1-0.5,0.3-1.8,0.7-3.9
			c0.4-2.1,0.7-4.3,1-6.5c0.3-2.3,0.5-4.3,0.5-6.1c0-1.8-0.2-2.7-0.7-2.6c-1.3,0-2.6,0.2-3.7,0.4c-1.2,0.2-2.4-0.1-3.5-0.9
			c-0.4-0.3-0.9-0.2-1.6,0.3C791.4,89.8,790.7,90.2,789.9,90.5z M779.8,76.4c-0.1-0.5-0.2-0.9-0.4-1.2c-1.1,0.2-2,0.4-2.6,0.7
			l-7,2.6c-1.4,0.6-2.8,1-4.1,1.3c-1.4,0.3-2.7,0.7-4.1,1.3c-1.7,0.6-3.5,1.2-5.3,1.8c-1.8,0.6-3.5,1.3-5.2,2.1
			c-4,1.5-7.9,2.9-11.7,4.2c-3.8,1.3-7.7,2.8-11.7,4.5c-2.7,1.3-5.5,2.6-8.2,4c-2.7,1.4-5.4,2.8-8.2,4c-1.8,0.9-3.4,2-4.8,3.2
			c-1.4,1.2-2.2,2.3-2.5,3.4c2.1-1.2,4.3-2.2,6.6-3.3c2.3-1,4.5-2.1,6.6-3.3c3.2-1.3,6.4-2.7,9.5-4.1c3.1-1.4,6.3-2.8,9.5-4.1
			c3.1-1.3,6.2-2.5,9.4-3.6c3.2-1.1,6.3-2.2,9.4-3.4c2.9-1.3,5.8-2.5,8.6-3.6c2.8-1.1,5.8-2.1,8.9-2.9c1.3-0.4,2.5-0.9,3.7-1.6
			C777.4,77.8,778.6,77.1,779.8,76.4z M737.9,96.9c-1.1,0.5-2.1,0.9-3.1,1.2c-1,0.3-2.1,0.7-3.2,1c0.1,0.3,0.1,0.6,0.2,0.7
			c0.1,0.1,0.2,0.4,0.2,0.7c0.9-0.5,1.9-0.8,2.9-1.1c1-0.2,2.1-0.6,3.1-1.1L737.9,96.9z M801.1,76.2c-0.7-0.2-1.3-0.4-1.8-0.6
			c-0.5-0.2-1-0.1-1.5,0.1c-1.7,0.6-3.4,1.3-5.2,2.1c-1.8,0.8-3.5,1.5-5.2,2.3c-1.4,0.6-2.8,1-4.1,1.3c-1.3,0.3-2.7,0.7-4.1,1.3
			c-2.8,0.9-5.6,1.9-8.5,2.7c-2.9,0.9-5.8,1.7-8.8,2.5c-0.6,0.3-1.2,0.5-1.8,0.8c-0.6,0.3-1.3,0.5-2.1,0.8l-12.6,4.2
			c-0.8,0.3-1.5,0.5-2.2,0.7c-0.7,0.2-1.4,0.4-2.2,0.7c-0.3,0.4-0.5,0.8-0.7,1.2c-0.2,0.4-0.4,0.9-0.6,1.5c1.4,0.4,2.4,0.6,3,0.4
			c0.6-0.2,1.5-0.7,2.7-1.5c0.7-0.6,1.6-1,2.6-1.3c1-0.2,2-0.5,2.9-0.8c1.2-0.4,2.5-0.5,3.7-0.4c1.2,0.1,2.1-0.6,2.5-2.1
			c2.7-0.8,5.3-1.4,7.8-2c2.5-0.6,4.8-1.4,6.9-2.6c2.7-1.6,5.4-2.5,8.3-2.8c2.8-0.3,5.6-1.2,8.3-2.8c2.2-1.3,4.7-2.3,7.2-3
			c2.6-0.7,5.1-1.4,7.6-2.1c0.5-0.2,1-0.8,1.7-1.7c0-0.2-0.1-0.3-0.3-0.4l-0.6-0.4c-1.1,0.2-1.8,0.4-2.1,0.6
			c-0.3,0.2-0.5,0.4-0.6,0.7C801.4,75.7,801.2,76,801.1,76.2z M790.4,200.4c0,0.8,0,1.5,0.1,2.1c0.1,0.6,0.1,1.2,0.1,1.8
			c0.3,0.1,0.8,0.1,1.2,0c0.2-0.7,0.3-1.4,0.3-2c0-0.6,0.1-1.3,0.3-2l-1.9,0.3c-0.1-0.5-0.2-1-0.4-1.4c-0.2-0.5-0.3-0.9-0.4-1.4
			c1.6-0.1,3.2,0,4.7,0.2c-0.5-1.2-0.9-2.1-1.2-2.8c-0.3-0.6-0.5-1.1-0.7-1.6c0.4-0.7,0.7-1.3,0.9-1.7c0.3-0.4,0.5-0.9,0.7-1.5
			c-1.1-0.5-2-0.9-2.7-1.3c0.4-1.5,0.7-3.1,1-4.6c0.2-1.5,0.5-3.1,0.7-4.8c0.2,0.1,0.4,0.2,0.8,0.1c-0.2,1-0.3,2-0.4,3
			c-0.1,1-0.2,2-0.4,3c-0.1,0.3-0.1,0.7-0.1,1.1c0.1,0.4,0,0.8-0.1,1.1c0.3-0.4,0.6-0.7,1.1-1c0.4-0.3,0.7-0.6,0.8-1
			c0.6-1.6,1.1-3.2,1.7-4.9c0.5-1.7,1.1-3.6,1.5-5.6c-0.7,0.4-1.4,0.8-1.9,1.2c-0.5,0.3-1.1,0.7-1.7,1.1c-0.2-0.1-0.3-0.2-0.3-0.3
			c0-0.1-0.1-0.2-0.3-0.3c0.4-0.6,1-1.2,1.9-2c0.3-0.4,0.6-0.8,1-1.3c0.4-0.5,0.8-0.9,1-1.3c0.5-1.9,0.9-3.8,1.2-5.7
			c0.3-1.9,0.6-3.9,0.9-5.9c-0.3-0.1-0.8-0.2-1.4-0.1c-0.6,0-1.3-0.1-2.1-0.3c0.8-2.4,1.7-4.9,2.7-7.6c0.6,0.4,1,0.9,1.5,1.5
			c3.1-3.3,3.8-6.1,2.1-8.4c-0.3,0.4-0.6,0.7-1.1,0.9c-0.5,0.2-0.8,0.5-1.1,0.9l-0.5-0.2c0.8-3.2,1.5-6.4,2.3-9.6
			c0.7-3.1,1.5-6.3,2.3-9.6l0.7-0.1c0.1,0.8,0.2,1.5,0.2,2.1c0,0.6,0.1,1.2,0.2,1.8c0.2,0,0.3,0,0.4,0.1c0.1,0.1,0.2,0.1,0.4,0.1
			c0.5-0.9,1-1.8,1.4-2.8c0.4-1,0.8-2,1.1-3c0.1-0.2,0.1-0.4-0.2-0.7c-0.3-0.3-0.6-0.4-0.9-0.3c-0.3-0.1-1.1,0.3-2.3,1.1
			c-0.5-0.9-0.7-1.5-0.8-1.8c0.4-2.7,0.8-5.3,1.3-7.8c0.5-2.5,0.9-5.1,1.3-7.8c0.2-0.8,0.3-1.7,0.2-2.5c-0.1-0.8-0.1-1.6,0-2.5
			c0.1-0.2,0.1-0.4-0.2-0.6c-0.3-0.2-0.6-0.3-0.9-0.2c-0.8,0.1-1.2,0.4-1.3,1c-0.9,1.8-1.6,3.9-2.2,6.5c-1,4.1-2,8.2-2.9,12.4
			c-1,4.2-1.9,8.3-2.9,12.4c-0.6,2.7-1.2,5.4-1.8,7.9c-0.7,2.6-1.3,5.2-1.8,7.9c-0.5,2.7-1.1,5.4-1.8,8c-0.6,2.6-1.3,5.2-1.8,7.8
			l-1.2,6.1c-0.4,1.9-0.8,3.7-1.2,5.5c-0.5,1.8-0.9,3.6-1.2,5.5c-1.2,6.9-2.3,14-3.2,21.2c-0.4,2.4-0.8,4.6-1.1,6.8
			c-0.3,2.2-0.6,4.4-0.9,6.8c-0.1,2.2-0.2,4.3-0.2,6.4c0,2.1-0.3,4.1-1,6.1c-0.8,2.4-1,4.8-0.7,7.2c0.3,2.4,0.2,4.8-0.2,7.2
			c-0.6,2.4-0.7,4.9-0.4,7.4c0.3,2.6,0.3,5.1-0.1,7.6c-0.4,2.4-0.4,4.7,0,7.1c0.5,2.4,0.4,4.8-0.2,7.2c-0.2,0.5-0.2,1.1,0.2,1.7
			c0.3,0.6,0.6,1.3,0.7,2.1c0.5-0.7,0.9-1.4,1.2-1.9c0.2-0.5,0.6-1.1,1-1.6c1.2,2.9,0.2,4.7-2.8,5.4c0.8,0.2,1.7,0.3,2.4,0.5
			c0.8,0.1,1.6,0.3,2.4,0.5c1.1-2.8,1.5-5.4,1.3-7.9c-0.2-2.5-1.3-4.7-3.1-6.7c2.2-2,4.1-3.8,5.5-5.3c-0.9-0.5-1.7-1-2.5-1.4
			c-0.8-0.5-0.7-1.4,0.1-2.8c0.1-0.5-0.1-1.1-0.6-1.9c-1-0.7-1.3-1.3-1.1-2c0.2-0.7,0.6-1.2,1-1.6c-0.1-0.8-0.2-1.5-0.2-2.2
			c0-0.6-0.1-1.3-0.2-1.9c-0.3-0.1-0.6-0.2-0.9-0.3c-0.3-0.1-0.7-0.3-1.2-0.5c0.9-0.5,1.7-0.9,2.5-1.1c0.8-0.3,1.3-0.6,1.6-1
			c0.6-1.6,1-3.1,1.3-4.8c0.3-1.6,0.7-3.3,1.3-5c-0.5,0.1-1,0.2-1.4,0.4c-0.5,0.2-0.9,0.3-1.4,0.4c-0.1-0.3-0.2-0.5-0.4-0.7
			c0.6-0.4,1.1-0.8,1.5-1.2c0.4-0.4,0.9-0.8,1.5-1.2c-0.4-1.6-0.7-3.2-0.9-4.9c-0.2-1.7-1.4-2.8-3.6-3.5c1.2-0.5,2-0.7,2.4-0.4
			c0.4,0.3,0.7,0.5,1,0.8c0.3,0.3,0.6,0.6,1,0.8c-0.4-1.4-0.5-2.4-0.5-2.9c0.1-0.5,0.7-1.5,1.7-3c0.1-0.2,0.2-0.3,0.2-0.4
			c0-0.1,0-0.2,0.2-0.4c0.3-2.3,0.6-4.6,0.9-6.6c0.3-2.1,0.6-4.2,0.9-6.4l-0.6-0.9c-0.3,0.4-0.6,0.6-0.9,0.8
			c-0.3,0.1-0.6,0.4-0.9,0.8c-0.2-0.1-0.3-0.2-0.4-0.2c-0.1,0-0.2,0-0.4-0.2c0.3-1,0.7-2,1.1-3C789.5,202.5,789.9,201.4,790.4,200.4
			z M781.3,296.1c0.1-1.6,0.1-3.2,0-4.7c-0.1-1.5-0.2-3.1-0.3-4.9c0.6,0.7,1.1,1.3,1.4,1.7c0.3,0.4,0.7,0.9,1.1,1.3
			c0.3-0.2,0.6-0.3,0.9-0.4c-0.1-0.8-0.3-1.6-0.4-2.5c-0.1-0.9-0.4-1.4-0.7-1.5c-0.9-0.2-1.5-0.5-2-0.9c-0.5-0.4-0.9-1-1.4-1.7
			c-0.3,0.4-0.5,0.7-0.8,0.9c-0.3,0.2-0.4,0.5-0.4,0.8c0.1,0.8,0.3,1.5,0.4,2c0.2,0.5,0.3,1.2,0.4,2c0,1.3,0.1,2.5,0.2,3.5
			c0.1,1.1,0.1,2.2-0.1,3.3C779.7,295,780.2,295.3,781.3,296.1z M790.6,72c-1.5,0.6-3,1.1-4.4,1.5c-1.4,0.4-2.9,0.9-4.4,1.5l0.1,0.7
			c1.4,0.4,2.3,0.7,2.8,0.8c1.2-0.7,2.3-1.3,3.3-1.9c1-0.6,1.9-1.2,2.8-1.8L790.6,72z M784.4,292.2c-0.3,0.2-0.7,0.4-1.2,0.4
			c-0.2,1-0.3,2-0.4,2.9c-0.1,0.9,0.8,1.6,2.7,2.1c-0.2-1-0.3-1.9-0.6-2.7C784.7,294.1,784.5,293.1,784.4,292.2z M789.3,266.6
			c0.2,0,0.3-0.1,0.3-0.2c0.1-0.1,0.2-0.2,0.3-0.2c0.3-1.4,0.6-2.6,0.9-3.8c0.3-1.2,0.5-2.5,0.6-3.8c-0.1-0.3-0.5-0.9-1.3-1.8
			c-0.3,0.4-0.5,0.7-0.8,0.9c-0.3,0.2-0.5,0.5-0.6,0.8c-0.2,1-0.3,2-0.4,3c-0.1,1-0.1,2-0.1,3c-0.1,0.3,0,0.7,0.3,1.1
			C788.9,266,789.1,266.3,789.3,266.6z M791.8,244.1l-0.6-0.4c-0.2,0.5-0.6,1.1-1,1.6c-0.4,0.6-0.6,0.9-0.6,1.1
			c1.2,1.1,1.4,2.3,0.7,3.5c-0.7,1.2-1.1,2.4-1.3,3.5c0.1,0.3,0.1,0.7,0.1,1.2c0,0.5,0,0.9,0.1,1.2c0,0.2,0.2,0.3,0.5,0.3
			c0.3,0,0.6,0,0.7,0c0.4-0.4,0.8-0.9,1.2-1.4c0.4-0.6,0.6-1,0.5-1.3c0.1-1.6,0-3.2-0.1-4.6C792.1,247.2,791.9,245.7,791.8,244.1z
			 M806.8,152.8c-0.2,0.9-0.4,1.8-0.5,2.8c-0.2,1-0.4,2-0.8,2.8c-0.6,2.1-1.5,4.1-2.5,6c-1,2-1.5,4.1-1.4,6.4
			c-0.2,1-0.3,2.1-0.4,3.1c-0.1,1.1-0.3,2.1-0.6,2.9c-1.7,3.9-2.7,7.8-3.2,11.7c-0.4,3.9-0.9,7.9-1.4,11.9c-0.2,1.7-0.3,3.3-0.3,5
			c0,1.6-0.5,3.3-1.5,4.9c-0.5,0.9-0.8,1.9-1,3.1c-0.1,1.2-0.3,2.3-0.5,3.3c0,1.8,0,3.6,0.1,5.3c0.1,1.7,0,3.5-0.4,5.3
			c-0.4,1.9-0.5,3.8-0.4,5.7c0.1,2-0.9,3.7-3,5.1c0.4,0.7,0.9,1.5,1.3,2.2c0.4,0.7,1,1.6,1.7,2.7c0.7-1.7,1.1-3,1.1-3.9
			c0.7-3.9,1.3-7.7,1.8-11.6c0.5-3.8,1.1-7.7,1.8-11.6l2.2-13.6c0.2-1,0.4-2,0.6-3c0.2-1,0.5-2,0.9-3.1c0.3-1.4,0.7-2.6,1.2-3.8
			c0.6-1.2,0.8-2.4,0.8-3.7c0-1.8,0.1-3.6,0.1-5.4c0-1.8,0.6-3.6,1.8-5.4c0.1-0.2,0.2-0.4,0.2-0.5c0-0.2,0-0.3,0.2-0.5
			c0.1-0.7,0.1-1.3,0.2-2c0.1-0.7,0.2-1.5,0.3-2.5c-0.4-0.7-0.5-2.1-0.2-4c0.3-1.9,1-3.6,1.9-5.1c1-1.6,1.4-3.3,1.2-5
			c-0.3-1.7-0.4-3.4-0.4-5.2C808.2,153.1,807.8,153,806.8,152.8z M794.8,169.7c0.1-1.2,0.3-2.3,0.6-3.3c0.2-1,0.4-2,0.6-3
			c0.3,0.1,0.6,0.1,0.8,0.1c0.2,0,0.4,0,0.8,0.1l-1.2,6.1c-0.3,0.1-0.6,0.1-0.7,0C795.4,169.7,795.1,169.7,794.8,169.7z
			 M799.2,227.2c1-1.1,2.2-2.4,3.6-3.8c-1.6-0.1-2.8,0.1-3.5,0.6C798.6,224.4,798.6,225.5,799.2,227.2z M810.3,151.3
			c-0.3-1.8-0.2-3.5,0.1-5.3c0.4-1.8,0.8-3.5,1.4-5.3c0.5-1.7,1-3.5,1.4-5.3c0.4-1.8,0.4-3.5,0.1-5.3c-1.1,2.1-2,4.7-2.7,7.6
			c-0.5,1.9-1,3.7-1.3,5.4c-0.4,1.7-0.8,3.4-1.4,5.1C806.7,150.5,807.5,151.6,810.3,151.3z"/>
		<path class="st0" d="M1125.8,14.5c1,1.2,1.4,2.4,1.2,3.9c-0.2,1.4-0.4,2.8-0.7,4.2c-0.1,1.3-0.3,2.6-0.6,3.8
			c-0.3,1.2-0.6,2.5-0.9,3.8c-0.1,0.3-0.2,0.7-0.4,1.2c-0.2,0.4-0.4,0.9-0.6,1.5l-0.9,3.8c0.1,0.8,0.1,1.4,0,1.7
			c-1,1.8-1.6,3.7-1.8,5.6c-0.2,1.9-0.5,3.8-1,5.7c-0.8,3.2-1.6,6.4-2.5,9.5c-0.9,3.1-1.7,6.3-2.5,9.5c-0.2,0.5-0.4,1.3-0.6,2.3
			c-0.1,0.3-0.1,0.7,0,1c0.1,0.3,0.1,0.6,0,1c-0.7,2.6-1.3,5.1-1.8,7.7c-0.5,2.5-1.1,5.1-1.8,7.7c-0.1,0.5-0.3,1-0.7,1.5
			c-0.4,0.5-0.7,1-1,1.5c0.1,0.6,0.2,1.3,0.4,2c0.2,0.7,0.2,1.5,0,2.3c-0.2,0.9-0.4,1.6-0.7,2.3c-0.3,0.7-0.6,1.5-1,2.4
			c0.5,0.9,0.8,1.9,0.8,2.9c0.1,1.1-0.4,2.2-1.5,3.6c-0.3,0.4-0.4,0.7-0.3,1c0.3,0.8,0.4,1.5,0.3,2.2c-0.1,0.7-0.1,1.3-0.2,2
			c0.2,1.1-0.3,2.3-1.4,3.4c-0.4,0.6-0.5,0.9-0.3,1c0.5,1.4,0.5,2.5-0.1,3.3c-0.6,0.8-1.3,1.7-2.1,2.7c-0.3,0.4-0.4,0.8-0.5,1.3
			c-0.1,0.5-0.3,0.9-0.5,1.3c-0.2,0.5-0.5,1-0.9,1.5c-0.3,0.5-0.6,1-0.8,1.7c0.2,0.1,0.4,0.3,0.7,0.5c0.3,0.2,0.4,0.5,0.3,0.8
			c-0.1,1.6-0.4,3.1-1,4.3c-0.5,0.9-1,1.8-1.5,2.7c-0.5,0.9-0.6,2.1-0.2,3.5c0.1,0.6-0.2,1.3-0.9,2.1c-0.7,0.8-1.1,1.7-1.3,2.7
			c-0.1,1.3-0.4,2.5-0.8,3.6c-0.4,1-0.7,2.2-0.8,3.6c0,0.8-0.3,1.6-0.8,2.3c-0.9,1.3-1.4,2.5-1.4,3.7c0.1,1.8-0.6,3.2-2.3,4.3
			c0.2,1.4,0.5,2.5,0.7,3.1c-0.7,0.9-1.3,1.8-1.8,2.7c-0.5,0.9-0.8,2.1-0.9,3.6c-0.2,1.8-1.1,3.6-2.6,5.3c-1.3,1.9-2.1,3.9-2.2,6.2
			c0.1,0.5,0,0.9-0.1,1.4c-0.2,0.4-0.4,0.8-0.7,1.2c0-0.2,0.4,0.2,1.2,1l-2.4,1.6c-0.1,1.6-0.4,3.1-0.9,4.4
			c-0.5,1.3-1.2,2.7-2.2,4.2c-0.9,1.5-1.7,2.9-2.4,4.4c-0.7,1.5-1.4,3-2.4,4.4l-2.5,4.6c-1.4,2.5-2.8,5.1-4.2,7.7
			c-1.4,2.6-2.8,5.2-4.4,7.7c-2,3.1-4,6.1-6.2,9c-2.2,2.9-4.1,5.9-5.9,8.9c-1.7,2.7-3.5,5.2-5.6,7.3c-2,2.1-4.1,4.3-6.2,6.4
			c-1.6,1.6-3.1,3-4.7,4.4c-1.6,1.4-3.2,2.7-4.8,4c-1.3,1-2.6,2-3.8,2.9c-1.2,0.9-2.7,1.5-4.3,1.6c-1.1,0.2-2.1,0.6-3,1.2
			c-4.1,2.3-8.1,3.6-12.1,3.9c-4,0.3-8.2,0.2-12.3-0.5c-6.2-0.8-12.4-2.8-18.7-6.1c-0.7-0.2-1.3-0.6-1.9-1c-0.6-0.5-1.1-1-1.7-1.6
			c-2.1-2-4.3-3.8-6.6-5.7c-2.3-1.8-4.1-4.2-5.6-7.1c-0.5-0.7-0.8-1.5-1.1-2.3c-0.3-0.8-0.6-1.5-0.9-2.3c-4.5-5.5-7.3-11.8-8.4-18.8
			c-0.4-2.7-0.7-5.3-0.8-7.9c-0.1-2.5-0.3-5.1-0.8-7.9c-0.7-3.2-0.8-6.2-0.5-9.2c0.3-3,0.2-6.1-0.3-9.3c-0.3-2.1,0.8-3.5,3.5-4.2
			c-1.4-1.4-2.2-2.8-2.4-4.2c-0.2-1.4-0.1-2.8,0.3-4.3c0.4-1.9,0.5-3.8,0.5-5.9c0-2,0.2-4.1,0.5-6.1c0.3-2.5,0.6-5,0.9-7.4
			c0.3-2.4,0.7-4.8,1.2-7.2c0.1-1.6,0.2-3.2,0.3-4.7c0.2-1.5,0.3-3,0.4-4.5c0.1-1.6,0.3-3.2,0.8-4.8c0.5-1.6,1.4-2.8,2.7-3.9
			c-1-1.3-1.6-2.6-1.6-4c-0.1-1.4,0.2-2.7,0.8-3.9c1.3-2.8,1.8-5.7,1.3-8.6c-0.1-0.6-0.1-1.1,0-1.5l6.9-31.8
			c0.8-3.4,1.5-6.9,2.1-10.4c0.7-3.5,1.4-7,2.1-10.4l1.9-8.2l4.1-17.4l4.3-15.9l0.3-2.7c0-2.8,0.6-5.2,1.7-7.3
			c1.1-2.1,3.2-3.4,6.3-4.1c0.5,1.2,1.3,1.9,2.4,1.9c1.1,0.1,2.2-0.2,3.4-0.9c1.2-0.8,2.6-0.9,4.1-0.2c2.7,1.5,5.5,2.8,8.5,3.9
			c3,1.1,5.9,2,8.8,2.9c2.5,0.4,4.1,2,4.7,4.9c0.4,1.3,1.2,2.7,2.4,4.3c1,1.1,1.5,2.3,1.5,3.3c0,1.1-0.2,2.3-0.6,3.7
			c-0.6,1.4-1.2,2.9-1.7,4.6c-0.6,1.6-1.2,3.2-2,4.6c-0.6,1.4-1.2,2.7-1.9,4c-0.7,1.3-1.4,2.6-2.2,4c-0.6,1.4-1.3,2.8-2,4.3
			c-0.8,1.4-1.5,2.9-2.3,4.3c0.2,1.4,0.1,2.7-0.3,3.7c-0.4,1-1,2.1-1.7,3.2c-0.7,1.1-1.4,2.2-1.9,3.3c-0.6,1.1-0.8,2.3-0.8,3.6
			c0,0.2-0.1,0.3-0.3,0.5c-0.2,0.2-0.3,0.4-0.3,0.5c0.5,0.9,0.6,1.8,0.4,2.6c-0.2,0.9-0.5,1.6-0.8,2.3c-0.4,0.7-0.8,1.5-1.3,2.3
			c-0.5,0.8-0.8,1.6-0.8,2.5c0,0.8-0.3,1.6-0.9,2.2c-0.5,0.7-1.1,1.4-1.6,2.3c0.2,0.3,0.5,0.5,1,0.7c0.4,0.2,0.9,0.5,1.5,0.9
			l-4.8,3.5c0.6,0.7,1,1.1,1.3,1.3c0.3,0.1,1-0.1,2.2-0.6c-0.1,1.3-0.2,2.5-0.4,3.6c-0.2,1.1-0.4,2.1-0.7,3.2
			c-0.2,1.7-1.1,2.7-2.7,3.1c-0.5,0.1-0.9,0.4-1.3,1.1c-0.4,0.6-0.9,1.2-1.5,1.6l2.5,2c-0.5,2.7-1.2,5.2-2,7.4
			c-0.2,0.7-0.5,1.3-0.9,1.7c-0.4,0.5-0.8,1.1-1.2,1.8l2.3,1.8c-0.4,0.6-0.5,0.8-0.4,0.8c-0.8,1-1.5,1.8-2.1,2.7
			c-0.6,0.8-0.8,2.1-0.5,3.9c0.2,1.4,0.1,3-0.2,4.6c-0.4,1.6-0.8,3.3-1.2,5c-0.5,2.2-1,4.4-1.5,6.5c-0.6,2.1-1.2,4.2-1.8,6.3
			c-0.2,0.7-0.6,1.3-1.1,1.8c-0.5,0.5-1,1.1-1.5,1.8c0.2,1.1,0.5,2.3,0.9,3.4c0.4,1.2,0.1,2.5-1,4c0.4,2.2,0.2,4.5-0.4,6.8
			c-0.6,2.3-0.6,4.6-0.1,7c0.2,1.1,0,2.2-0.5,3.3c-0.5,1.1-0.8,2.2-0.9,3.3c-0.1,0.7-0.1,1.3-0.1,2c0,0.7-0.1,1.3-0.3,2
			c-0.2,0.9-0.3,1.6-0.4,2.1c-0.1,0.6-0.1,1.3-0.2,2.1c-0.1,0.3-0.1,0.7,0.1,1.1c0.1,0.4,0.2,0.8,0.1,1.1c-0.3,2.3-0.6,4.6-0.9,6.6
			c-0.3,2.1-0.6,4.2-0.9,6.4c-0.2,1-0.3,1.9-0.3,2.7c0,0.8,0.1,1.7,0.4,2.6c0.4,1.4,0.5,2.9,0.3,4.4c-0.2,1.5-0.3,2.9-0.4,4.2
			c-0.1,0.5-0.1,1-0.1,1.4c0,0.4,0,0.9,0.1,1.3c-0.1,0.7,0,1.8,0.3,3.4c0,0.2,0,0.3-0.2,0.4c-0.1,0.1-0.1,0.2,0.1,0.4
			c0.8,1.2,1.2,2.4,1,3.7c-0.2,1.3-0.2,2.5,0,3.8c0,1.3,0.3,2.6,0.8,3.9c0.5,1.3,0.9,2.6,1.2,3.9c0.1,0.8,0.4,1.6,0.9,2.6l2.5,1.8
			l2.5,10.7c3.1-1,6.6-2.4,10.3-4.4c4.5-2.5,8.7-5.5,12.7-8.8c4-3.3,7.7-7.3,11.2-12l13.9-18.7c1-1.8,2-3.6,2.9-5.4
			c0.9-1.8,1.9-3.7,2.9-5.6c2.1-4.1,4.2-8.2,6.3-12.4c2.1-4.2,4.1-8.3,6.1-12.4c1.5-3,2.8-6.1,4-9.2s2.5-6.2,3.8-9.2
			c1.3-3.2,2.5-6.3,3.6-9.4c1.1-3.1,2.2-6.3,3.4-9.6c1.2-3.8,2.3-7.6,3.4-11.5c1.1-3.9,2.2-7.8,3.4-11.7l1-3.1
			c0.2-0.8,0.3-1.6,0.4-2.1c0.1-0.6,0.2-1.3,0.4-2.1l6.3-26.5c0.6-2.4,1.1-4.8,1.5-7.2c0.4-2.4,0.9-4.8,1.3-7.2
			c0.8-3.4,1.5-6.8,2.3-10.2c0.8-3.4,1.5-6.8,2.3-10.2c0.7-3.1,1.2-6.1,1.6-9.2c0.4-3.1,0.9-6.2,1.3-9.2l2.3-8.7l3-14.7l0.1-2.7
			c0.5-3,1.9-4.7,4.1-5.1c5.4-0.9,10.2-0.1,14.4,2.3c1.8,1,3.3,2.2,4.4,3.6c1.1,1.4,1.9,3.3,2.3,5.6
			C1125.1,13.7,1125.4,14.2,1125.8,14.5z M952,227.9c0,0.2,0.6,0.4,1.8,0.7c-0.4-4.2-0.6-8.3-0.7-12.2c-0.1-3.9-0.1-7.8,0.1-11.8
			c0.1-1.3,0.1-2.6,0-3.7c-0.1-1.1-0.1-2.4,0-3.7l1.1-12.7c0.2-3.6,0.5-7.2,0.9-10.7c0.3-3.5,0.7-7,1.1-10.5c0.3-3,0.8-5.9,1.4-8.8
			c0.6-2.9,1.2-5.7,1.7-8.6l2.5-15.1l3.3-20.7l5.3-26.4c0.5-1.7,1-3.4,1.3-5c0.3-1.6,0.6-3.3,1-5.2c0.5-2,0.9-4.1,1.3-6.1
			s0.8-4.1,1.3-6.3c0.2-0.8,0.4-1.7,0.7-2.7c0.3-0.9,0.5-1.9,0.6-2.9c0.1-0.3,0-0.7-0.3-1.1c-0.3-0.4-0.6-0.8-0.8-1.5
			c-1.1,1.3-1.8,2.6-2,3.9c-0.2,1.3-0.4,2.6-0.7,3.9c-0.7,4-1.5,8-2.5,11.9c-1,3.9-1.9,7.8-2.8,11.7c-0.5,2-0.9,4.1-1.1,6.2
			c-0.2,2.1-0.7,4.1-1.4,6c-0.8,2.1-1.3,4.3-1.4,6.5c-0.1,2.2-0.9,4.3-2.4,6.2l0.2,1.2c0.4,1.3,0.4,2.5,0.2,3.6
			c-0.2,1.2-0.5,2.4-0.7,3.8c-0.4,1.4-0.8,2.8-1.2,4.1c-0.4,1.4-0.7,2.8-0.9,4.3c-0.2,1-0.5,2-0.9,3c-0.4,1-0.5,2.1-0.3,3.4
			c0.2,1,0.1,2-0.3,3c-0.3,1-0.6,2.1-0.7,3.1l-0.4,2.3c-0.1,0.7,0,1.3,0.1,2c0.1,0.6,0,1.3-0.2,2l-2.2,13.9
			c-0.4,1.9-0.7,3.7-1.1,5.5c-0.4,1.8-0.6,3.6-0.6,5.4c0.1,1.5-0.7,2.7-2.4,3.6c1.4,0.4,2.1,1,2.2,1.7c0.1,0.7,0.1,1.5-0.1,2.4
			c-0.3,0.9-0.7,1.7-0.9,2.5c-0.3,0.8-0.4,1.6-0.5,2.4c0.2,1,0.1,1.9,0,2.9c-0.2,1-0.1,1.9,0.2,2.7c0.4,1.3,0.4,2.4,0,3.3
			c-0.3,1-0.5,2-0.5,3.1c0,1.3,0.1,2.7,0.2,4.1c0.1,1.5,0.1,2.9,0,4.4c0,0.8-0.2,1.6-0.6,2.3c-0.4,0.7-0.4,1.4-0.2,2
			c0.5,0.9,0.7,1.8,0.5,2.6c-0.1,0.8-0.2,1.7-0.2,2.5c-0.1,1.3-0.3,2.7-0.4,4.2c-0.2,1.5,0,2.9,0.5,4.1
			C951.3,222.7,951.9,225.1,952,227.9z M980.3,76.2c0.2-0.7,0.3-1.4,0.2-2c-0.1-0.6-0.7-1.1-1.7-1.4c-0.3,0.4-0.6,0.8-1.1,1.3
			c-0.5,0.5-0.9,1-1.1,1.5c-0.6,2.2-1.2,4.4-1.6,6.5c-0.5,2.1-0.9,4.3-1.4,6.5c-0.5,1.9-0.9,3.8-1.1,5.8c-0.3,2-0.6,3.9-1.1,5.8
			c-0.8,2.9-1.6,5.9-2.3,8.8c-0.7,3-1,6-1,9.1c0.1,0.5-0.1,1.2-0.6,2.3c-0.8,2.4-1.5,4.9-2.1,7.3c-0.7,2.5-1.3,4.9-1.9,7.3
			c-0.7,3.7-1.3,7.4-1.8,11.2c-0.5,3.8-1.1,7.4-1.8,11c-0.9,3.7-1.5,7.5-1.8,11.2c-0.3,3.7-0.7,7.4-1.3,11.1
			c-0.5,4.2-0.9,8.3-1.3,12.4c-0.4,4.1-0.4,8.2-0.1,12.4c0.1,2.8,0.1,5.5,0,8.2c-0.1,2.7-0.1,5.5,0,8.2c0.1,1.6,0.2,3.2,0.4,4.7
			c0.2,1.5,0.5,3.1,1.1,4.8c0.9-0.6,1.4-1.2,1.6-1.7c0.2-0.5,0.2-1.2,0.1-2c-0.6-3.8-1-7.7-1.1-11.6c0-1.1,0-2.2,0.1-3.2
			c0.1-1,1-1.6,2.8-1.7c-1.2-1.1-1.8-2-2-2.7c-0.2-0.7,0-1.6,0.7-2.7l2.8-5.4c0.2,0,0.4,0,0.7,0c0.3,0,0.7,0,1,0
			c0.5-1.7,0.3-3-0.6-3.8c-1-0.8-2-1.8-3.2-2.9l3.8-2.3l-2.5-0.3c0.6-1.1,0.6-2.1,0.1-3.1c-0.5-1-0.1-1.9,1.2-2.8l2,0.7
			c0.2-0.7,0.4-1.3,0.6-1.7c0.2-0.4,0.2-0.8,0.2-1.1c-0.3-0.6-0.6-1.2-1-1.7c-0.4-0.5-0.6-1-0.5-1.5c0.1-0.5,0.4-1,0.8-1.5
			c0.5-0.5,0.9-1,1.3-1.6c0.3-0.4,0.4-0.8,0.3-1.2c-0.1-0.4,0-0.8,0.3-1.2l-2.2-1.9c-0.6-0.6-0.4-1.2,0.4-2l0,0.2
			c0.2,0.1,0.5,0.2,1,0.1c0.2,0,0.3,0,0.5,0.2c0.2-0.7,0.4-1.3,0.6-1.9c0.2-0.6,0.4-1.2,0.4-1.9l1.7-10.3c0.1-0.3,0.1-0.6-0.1-0.8
			c-0.2-0.2-0.4-0.5-0.7-1l-2,3c-0.2,0-0.3,0-0.5-0.2l2-10.4c0.3-0.1,0.6,0,0.8,0.1l-1.2,6.6c1.1,0,1.8-0.3,2-0.8
			c0.2-0.5,0.3-1.1,0.6-1.8c0.2-1.8,0.2-3.6,0-5.4c-0.2-1.8,0.5-3.4,2-5c0.1-0.2,0.1-0.4,0-0.6c-0.1-0.2-0.1-0.4,0-0.6
			c0.3-3,0.6-6,0.9-9c0.3-3,0.8-5.9,1.7-8.6c0.6-2.2,1.2-4.4,1.6-6.6c0.5-2.2,0.9-4.4,1.4-6.6c0.7-2.9,1.3-5.9,1.9-8.9
			c0.6-3,1.3-6,2.1-8.9c0.4-1.4,0.5-2.3,0.3-2.7c-0.2-0.3-0.6-0.6-1.1-0.8c-0.5-0.2-1-0.5-1.4-0.8C978.4,82.4,978.8,79.1,980.3,76.2
			z M964.4,169.4l-0.2,0.3C964.2,169.5,964.2,169.4,964.4,169.4z M974.1,195.8c-0.3-0.8-0.4-1.6-0.3-2.4c0.1-0.8,0.2-1.7,0.3-2.5
			c0.1-0.8,0.1-1.7,0-2.6c-0.1-0.9-0.5-1.8-1.2-2.6c-0.5,2.2-0.9,4.3-1.3,6.2c-0.4,2-0.7,3.8-0.9,5.7c-0.3,2.3-0.3,4.6,0,6.8
			c0.3,2.2,0,4.4-0.8,6.6c-0.2,0.5-0.3,1.1-0.1,1.7c0.2,0.6,0.3,1.3,0.5,2.1c1.5-1.9,2.1-3.7,2-5.3c-0.2-1.7-0.2-3.3,0.1-4.8
			c0.4-1.5,0.9-3.1,1.5-4.7C974.3,198.5,974.4,197.1,974.1,195.8z M976.4,175.1c-0.2,0-0.4-0.1-0.8-0.4c-0.1,0.7-0.2,1.3-0.6,1.8
			c-0.3,0.5-0.6,1.1-1,1.6c-0.3,0.5-0.5,1.2-0.4,1.9c0,0.7,0.5,1.6,1.3,2.6L976.4,175.1z M975.7,166.3c1.6-0.1,2.3-0.5,2.2-1.1
			c-0.2-0.6-0.5-1.3-0.9-2.1C976.5,164.6,976.1,165.6,975.7,166.3z M978.1,161.5c0.1-1.3,0.3-2.5,0.5-3.5c0.2-1,0.5-2.1,0.8-3.3
			c-1.4,0.7-2.1,1.4-2.3,2C977,157.3,977.3,158.9,978.1,161.5z M980.7,150.1l-1.1-0.6c-0.8,1.4-1.2,2.5-1.5,3.2l1.7,1.7L980.7,150.1
			z M982.6,139.2c-1.5,0.9-2.1,1.9-1.7,2.9c0.3,1,0.1,1.9-0.6,2.7l1.1,0.6L982.6,139.2z M982.9,136.5l-0.6-0.4
			c-0.3,0.2-0.8,0.8-1.4,1.7c0.3,0.1,0.7,0.3,0.9,0.5c0.3,0.2,0.5,0.2,0.6,0c0.3-0.2,0.5-0.7,0.7-1.6L982.9,136.5z M1013.8,249.1
			c-2.9,2.4-5.6,5-8.2,7.7c-2.6,2.7-5.6,4.7-9,6.1c0.9-0.3,1.9-0.6,3.1-0.9c1.1-0.3,2.1-0.5,3.1-0.9c0.9-0.3,1.8-0.8,2.6-1.4
			c0.8-0.6,1.5-1.6,2.1-2.8c0.8-0.1,1.6-0.2,2.3-0.2c0.7,0,1.3-0.3,1.7-0.6c2.5-1.7,4.9-3.7,7.2-5.8c2.3-2.2,4.4-4.5,6.5-6.9
			l4.1-5.3c2.8-3.1,5.3-6.4,7.5-10c2.2-3.6,4.4-7.3,6.6-10.9c2.8-5,5.6-10.4,8.5-16.1c0.6-1.1,1.2-2.2,1.8-3.2s0.9-2.4,1-3.8
			c0.1-0.3,0.3-0.7,0.5-1.2c0.3-0.4,0.5-0.9,0.8-1.2l3.4-6.4c0.4-1.4,0.8-2.4,1.2-3.1c1-1.6,1.9-3.4,2.6-5.3c0.7-1.9,1.4-3.8,2-5.7
			c1.1-4.1,2.5-8.1,4-12.1c1.5-3.9,2.9-7.9,4.2-11.9c1.1-3.1,2.1-6.2,2.9-9.3c0.9-3.6,1.9-7.2,2.9-10.8c1.1-3.6,1.9-7.3,2.6-11
			c0.5-2.2,0.9-4.3,1.2-6.3c0.3-2,0.6-4.1,0.9-6.3c0.4-1.7,0.7-3.4,1-5.1c0.3-1.7,0.7-3.4,1.3-5.1c-0.9-0.2-1.4-0.1-1.5,0.4
			c-0.2,0.4-0.4,1-0.6,1.7c-0.7,3.6-1.4,7.1-2.1,10.5c-0.7,3.5-1.4,7-2.1,10.5c-0.5,1.9-1,3.8-1.5,5.8c-0.5,2-1,3.9-1.5,5.8
			l-3.2,10.6c-0.8,2.9-1.6,5.7-2.3,8.5c-0.7,2.7-1.5,5.5-2.4,8.2c-0.5,1.7-1.3,3.4-2.2,4.9c-0.9,1.5-1.6,3.2-2.1,5.1
			c-1.2,4-2.6,7.8-4.2,11.5c-1.6,3.7-3.3,7.4-5,11.1c-0.6,1.4-1.1,2.8-1.6,4.1c-0.4,1.3-1,2.4-1.7,3.3c-1.9,2.3-3.4,4.8-4.4,7.6
			c-1,2.8-2.6,5.2-4.7,7.1c-0.3,0.4-0.5,0.9-0.7,1.5c-0.2,0.6-0.5,1.2-0.7,1.7c-0.6,2.4-1.6,4.5-2.9,6.2c-1.4,1.8-2.7,3.7-4,5.7
			c-1.4,2.4-3,4.5-4.9,6.4c-1.8,1.9-3.6,3.9-5.4,6c-0.1,0.2-0.3,0.3-0.4,0.4c-0.1,0.1-0.3,0.3-0.4,0.7c-0.7,1.9-1.7,3.5-2.9,4.6
			c-1.3,1.2-2.6,2.4-3.8,3.6c-0.6,0.4-1.1,0.8-1.5,1.2C1014.9,248.2,1014.4,248.7,1013.8,249.1z M1092.7,86.8
			c0.9-1.5,1.3-2.8,1.1-4.1c-0.2-1.3-0.3-2.6-0.1-3.9l-1.5-0.2c-1,4.2-1.8,8.4-2.7,12.5c-0.8,4.1-1.5,8.2-2.2,12.4
			c-0.4,1.9-0.7,3.8-1.1,5.8c-0.4,2-0.8,4.1-1.1,6.1c-0.4,1.9-0.8,3.7-1.2,5.6c-0.4,1.9-1.3,3.6-2.5,5.3c-0.3,0.4-0.4,0.8-0.3,1.2
			c0.1,0.4,0,0.8-0.3,1.2c-0.5,2-0.9,4.1-1.3,6.2c-0.4,2.1-0.9,4.1-1.6,6c-0.4,1.5-0.9,3-1.4,4.4c-0.5,1.4-1,2.8-1.4,4.2
			c-0.9,2.4-1.8,5.4-2.5,8.8c-0.3,0.9-0.7,1.8-1,2.7c-0.3,1-0.6,1.9-0.8,2.7c-0.8,1.9-1.6,4-2.2,6.1c-0.6,2.2-1.4,4.2-2.2,6.1
			c-0.9,2.3-2.1,4.5-3.4,6.6c-1.3,2.1-2.2,4.4-2.8,7l-0.5,1.6c-1.2,2-2.2,3.9-3.3,5.7c-1,1.8-1.9,3.8-2.7,6.1
			c-0.1,0.3-0.3,0.6-0.5,0.7c-0.2,0.1-0.4,0.4-0.5,0.7c-0.4,0.7-0.8,1.3-1.2,1.8c-0.4,0.5-0.7,1.1-0.9,1.7c-0.8,1.4-1.4,2.9-2,4.5
			c-0.6,1.6-1.2,3.1-2,4.5c-1.9,3.4-3.9,6.7-6,9.9c-2.1,3.2-4.3,6.4-6.6,9.5l-2.9,4.6c-1.5,1.9-3,3.8-4.6,5.7
			c-1.6,1.9-3.2,3.7-4.9,5.5c-1.7,1.7-3.5,3.4-5.3,5c-1.9,1.6-3.8,3.2-5.8,4.9c-0.9,0.8-1.8,1.5-2.7,2.2c-1,0.6-1.9,1.4-3,2.2
			l-2.8,1.2c0.6,0.6,1.1,0.8,1.6,0.7c1.5-0.6,3-1.1,4.5-1.6c1.5-0.5,3-1,4.5-1.6c1.1-0.5,1.9-1.1,2.4-1.9c0.7-0.9,1.4-1.6,2.1-2.1
			c0.7-0.4,1.5-0.9,2.2-1.3c1.5-1.1,2.9-2.1,4.3-3.1c1.4-1,2.5-2.6,3.3-4.7c0.2-0.8,0.9-1.5,2.1-2.1c2-1,3.5-2.5,4.7-4.6
			c1.1-2.1,2.7-3.7,4.6-5l0.2-0.3c0.1-1.3,0.5-2.3,1.1-3c0.6-0.7,1.3-1.5,1.9-2.4c0.9-1.3,1.8-2.5,2.6-3.7c0.8-1.2,1.5-2.5,2.1-3.9
			c0.6-1.4,1.3-2.6,2.1-3.5c0.8-1,1.6-2,2.2-3.1c0.4-0.7,0.7-1.3,1.1-1.8c0.3-0.5,0.6-1.1,0.8-2c0.3-3.2,1.4-5.7,3.2-7.6
			c0.8-1.1,1.5-2.4,2.1-3.8c0.6-1.4,1.1-2.8,1.5-4.2c0.4-1.4,1.1-2.5,1.9-3.5c1.6-2.1,2.9-4.2,3.8-6.5c0.9-2.3,2.1-4.4,3.6-6.5
			l-1.8-1.9c0.7-0.9,1.3-1.8,1.8-2.7c0.5-0.9,0.9-1.8,1-2.6c0.2-1.5,0.7-2.8,1.4-3.9c0.7-1.1,1.6-2.1,2.6-3.1
			c-1.4-1.6-1.6-2.7-0.5-3.4c1-0.7,1.9-1.4,2.6-2.1c-0.2-0.3-0.4-0.7-0.4-1.2c0-0.2-0.1-0.3-0.3-0.4c0.6-1.4,1.2-2.6,1.8-3.6
			c0.6-1,1-2.1,1.1-3.2c0.2-1.8,0.6-3.5,1.1-5c0.5-1.5,1.5-2.7,3-3.8c-0.2-2.4-0.1-4.8,0.5-7.1c0.5-2.3,1.3-4.8,2.4-7.4l2.7-1.7
			l-3-0.3c0.3-1,0.7-2.1,1.2-3.1c0.5-1.1,0.7-2,0.5-2.8c-0.4-1.4-0.2-2.7,0.6-4c0.8-1.3,0.9-2.5,0.4-3.7c0.4-0.6,0.8-1.4,1.3-2.4
			c0-0.8,0.2-1.7,0.6-2.7c0.3-1,0.3-1.9-0.2-2.8c1-1.1,1.4-2.4,1.4-3.7c0-1.3,0.1-2.6,0.6-4c0.4-1.4,0.8-2.9,1-4.5
			c0.2-1.6,0.2-3.1,0-4.5C1091.3,90.1,1091.6,88.2,1092.7,86.8z M1025.6,262.6c-0.1-0.3-0.2-0.5-0.4-0.7l-1.3,1.2l0.3,0.4
			L1025.6,262.6z M1045.7,240c-1.9,0.3-3.4,0.8-4.3,1.4c-1,0.6-1.8,1.6-2.6,2.9c-0.1,0.3-0.5,1-1.2,1.9c-1.4,1.7-2.7,3.4-4,5.1
			c-1.3,1.7-2.5,3.4-3.7,5.3c0,0.2,0.1,0.3,0.2,0.3c0.1,0.1,0.2,0.2,0.2,0.3c0.4-0.4,0.9-0.7,1.3-0.9c0.5-0.2,1-0.6,1.6-1
			c0.4-0.4,0.9-0.8,1.3-1.1c0.4-0.3,0.9-0.6,1.3-0.8c1.3-0.9,2.4-1.8,3.3-2.9c0.9-1,1.5-2.5,1.9-4.4c0.1-0.3,0.3-0.7,0.5-1.2
			c0.3-0.4,0.5-0.9,0.8-1.2L1045.7,240z M1046.9,236.6c0.8-1,1.8-1.6,3-2c1.2-0.4,1.8-1.4,1.8-3.2c-0.8,0.3-1.6,0.5-2.5,0.8
			c-0.9,0.2-1.8,0.6-2.7,1c-0.2,0.5-0.5,1.1-0.7,1.7C1045.7,235.6,1046,236.1,1046.9,236.6z M1053.8,222.7c-1.3,0-2.1,0.3-2.3,0.7
			c-0.3,0.5-0.6,2-1,4.7L1053.8,222.7z M1051.9,231.1c0.3-0.2,0.7-0.4,1.1-0.7c0.5-0.2,0.8-0.8,1-1.6
			C1052.4,229.1,1051.7,229.9,1051.9,231.1z M1055.7,217.8c0.4-0.4,1-1.1,1.9-2.1c0.8-1,1.6-2.2,2.5-3.6c0.8-1.4,1.7-2.8,2.5-4.3
			c0.8-1.5,1.5-2.8,2-3.9c0.2-0.7,0.4-1.9,0.4-3.5c-1.9,2.8-3.6,5.5-5.3,8.2C1057.9,211.3,1056.6,214.4,1055.7,217.8z M1060.7,217.2
			c-2.1,0.3-2.8,1.1-2.1,2.3L1060.7,217.2z M1064.5,207c1.4-0.4,2.6-0.9,3.4-1.5l-1.1-3.8L1064.5,207z M1073.7,187.9
			c1.2-0.5,2.1-1.4,2.8-2.7c0.6-1.2,0.8-2.6,0.6-4c-1.2,0.8-1.9,1.8-2.2,2.9C1074.5,185.2,1074.1,186.5,1073.7,187.9z M1077.7,179.6
			c1.1,0,1.8-0.7,1.9-2c0-0.2-0.2-0.3-0.5-0.5c-0.3-0.2-0.6-0.2-0.9,0C1077.2,177.6,1077.1,178.4,1077.7,179.6z M1080.1,171.4
			c1.5-1.1,2.4-2,2.9-2.8c0.4-0.8,0.6-1.9,0.6-3.4c-1.4,0.4-2.2,1.2-2.3,2.5C1081.1,168.9,1080.7,170.1,1080.1,171.4z M1085.7,160.6
			c-0.3,0.1-0.7-0.1-1-0.3c-0.1,0.5-0.2,1-0.3,1.4c-0.1,0.4-0.2,0.8-0.3,1.2l0.8,0.4L1085.7,160.6z M1087.3,156.5
			c0.7-1.7,1.4-3.3,2.1-4.8c0.7-1.4,0.9-3,0.8-4.8c-1.8,1.8-3.1,4.3-3.7,7.5C1086.3,154.7,1086.6,155.4,1087.3,156.5z M1094.1,131.6
			l0.4-0.6l-0.3-0.4l-0.4,0.3c0,0.2,0.1,0.3,0.2,0.3C1094,131.3,1094,131.4,1094.1,131.6z M1093.8,69c1.3-1,2-1.8,2.1-2.2
			c0.1-0.4-0.1-1.4-0.7-3L1093.8,69z M1096.8,61.9l-0.8-0.6c-0.3,0.2-0.5,0.4-0.5,0.6c-0.1,0.2-0.2,0.4-0.5,0.8
			c0.3,0.1,0.6,0.2,0.7,0.4c0.1,0.1,0.2,0.2,0.4,0.2L1096.8,61.9z"/>
		<path class="st0" d="M1183.5,98.7c-1,1.1-1.8,2.1-2.6,2.9c-0.8,0.8-1.5,1.6-2.2,2.6c-0.3,0.4-0.5,0.8-0.7,1.2
			c-0.2,0.4-0.4,0.8-0.7,1.2c-1.4,2.4-2.9,4.7-4.4,7.1c-1.5,2.4-3,4.7-4.4,7.1c-0.2,0.5-0.6,1-1.1,1.4c-0.5,0.4-0.9,0.8-1.2,1.2
			c-0.8,1.1-1.6,2.3-2.3,3.4c-0.7,1.2-1.5,2.3-2.3,3.4c-0.5,0.9-1.4,1.9-2.7,3.1c-0.6,1.4-1.3,2.9-2,4.5c-0.7,1.6-1.5,3.2-2.2,4.8
			c-1.3,3-2.6,5.9-3.9,8.6c-1.3,2.7-2.6,5.6-3.9,8.6c-0.7,1.9-0.6,3.7,0.3,5.5c0.9,1.7,2.1,3.1,3.7,4.2c2.1,1,3.9,2.1,5.5,3.5
			c2.9,2.5,5.8,4.7,8.9,6.5c3.1,1.9,6.3,3.6,9.7,5.2c4.4,1.9,8.8,3.8,13.1,5.6c4.3,1.8,8.6,3.7,12.8,5.7c3,1.3,5.9,2.7,8.8,4.2
			c2.9,1.5,5.7,3.1,8.4,4.8c1.5,0.9,2.7,2,3.7,3.2c1,1.2,2,2.4,3,3.6c0.6,0.4,0.7,0.8,0.4,1.2c-0.7,0.9-1.3,1.9-1.7,2.9
			c-0.5,1-1.1,1.7-1.9,2.1c-2.4,1.2-4.9,2.3-7.3,3.1c-2.5,0.9-5.1,1.6-7.8,2c-1.9,0.3-3.8,0.9-5.6,1.8c-1.8,0.9-3.8,0.9-5.9,0.1
			c-0.4-0.3-0.8-0.3-1.4-0.1c-0.5,0.2-1.1,0.3-1.5,0.4l-18.4,4.4c-1.6,0.4-3.1,0.8-4.6,1.1c-1.5,0.3-3.1,0.5-4.7,0.6
			c-1.3,0-2.7,0-4.1-0.2c-1.4-0.2-2.8-0.3-4.1-0.4c-0.9-0.2-1.6-0.2-2.2,0c-0.6,0.2-1.4,0.3-2.2,0.2c-1.3,0-2.6,0.1-3.8,0.1
			c-1.2,0-2.5,0-3.8-0.1c-0.5,0.1-0.8,0.1-1-0.1c-2.5-1.4-5.2-2.2-8.1-2.4c-2.9-0.2-5.6-1-8.1-2.4c-2.3-1.1-4.6-2.1-6.8-3.1
			c-2.2-1-4.5-1.9-7-2.8c-1.6-0.6-3-1.4-4.3-2.4c-1.3-1-2.4-2.4-3.4-4.2c0.9,0.3,1.7,0.7,2.6,0.9c0.9,0.3,1.7,0.5,2.6,0.7
			c1.5,0.1,3,0.1,4.5,0c1.5-0.1,3.1-0.1,4.5,0c2.8-0.1,5.4-0.3,8-0.4c2.6-0.2,5.3-0.3,8-0.4c5-0.6,9.9-1.4,14.8-2.4
			c3.9-1,7.8-2,11.6-3.2c3.8-1.2,7.8-2.4,11.8-3.5c1.1-0.3,2.2-0.6,3.3-0.8c1.1-0.2,2.3-0.5,3.5-0.8c0.3-0.2,0.7-0.4,1.1-0.6
			c0.5-0.2,1.1-0.5,1.8-0.9c-0.7-0.4-1.3-0.7-1.6-1c-0.4-0.3-0.8-0.5-1.4-0.8c-3.1-1.8-6.1-3.6-9.2-5.3c-3.1-1.7-6.1-3.5-9.2-5.3
			c-2.9-1.8-5.8-3.6-8.6-5.4c-2.8-1.8-5.4-3.8-7.8-6.2c-2-2-4-3.8-6.1-5.4c-2.1-1.6-3.6-3.8-4.4-6.7c-0.3-0.8-0.8-1.5-1.6-2.1
			c-0.8-0.6-1.3-1.3-1.6-2.1c-1.2-2.3-2.1-4.6-2.9-7c-0.7-2.4-1.7-4.7-3.1-6.7c-1.4-2.4-1.8-4.6-1.2-6.7c0.6-2.1,1.3-4.1,2.3-6
			c1.1-2.3,2.2-4.6,3.4-6.8c1.2-2.2,2.4-4.5,3.7-6.9c1-2,2.1-3.8,3.3-5.6c1.2-1.7,2.4-3.6,3.5-5.6c1-2,2-3.9,3-5.9
			c1-2,2.1-3.9,3.3-5.7l21.9-33c1-1.6,2.1-3.3,3.3-4.9c1.1-1.7,2.2-3.2,3.3-4.7c2.7-3.4,6.1-4.3,10.1-2.9c1,0.3,2,0.7,3,1.1
			c1,0.4,2,0.9,3,1.4c0.4,0.3,0.7,0.4,1,0.3c3.5-0.9,6.4-0.6,8.7,0.9c2.4,1.5,4.6,3.4,6.6,5.7c1.4,1.6,2.6,3.1,3.7,4.6
			c0.2,0.5,0.2,1,0,1.7c0,1.1-0.2,2.3-0.5,3.5c-0.4,1.2-0.1,2.4,0.9,3.5l-0.3,1.3c-0.9,2.3-1.5,4.6-1.7,6.9
			c-0.2,2.3-0.7,4.7-1.4,7.1c-0.2,0.7-0.4,1.3-0.4,1.8c-0.1,0.5-0.5,0.8-1.3,1c-0.5,0.1-0.7,0.5-0.5,1.3c-0.8,2.9-1.6,5.9-2.4,9
			s-1.5,6.1-2.3,9.2c-0.6,2.4-1.2,4.8-1.7,7.1c-0.5,2.4-1,4.7-1.4,7.1c-0.2,0.7-0.5,1.3-0.9,1.9c-1.3,1-2.2,2.4-2.6,4
			c-0.4,1.6-0.9,3.2-1.4,4.8c-0.4,1.5-0.8,3.1-1.1,4.7c-0.3,1.6-0.8,3.1-1.4,4.5c-0.6,1.4-1.1,2.9-1.6,4.6c-0.5,1.6-0.9,3.2-1.3,4.8
			c-0.3,1.2-0.6,2.4-0.9,3.6c-0.3,1.2-0.2,2.4,0.3,3.6c0.6,1.5-0.2,2.1-2.2,1.6c-2.4-0.6-4.2-1.5-5.5-2.8c-1.3-1.3-2.2-2.7-2.9-4.3
			c-0.7-1.6-1.1-3.3-1.3-5.1c-0.2-1.8-0.4-3.6-0.5-5.6c-0.3-3.9-0.2-7.8,0.3-11.7c0.5-3.9,1.2-7.8,2-11.7c0.9-3.4,1.7-6.8,2.4-10.2
			c0.7-3.4,1.4-6.8,2.2-10.2c0.2-0.8,0.2-1.7,0.1-2.6C1183.4,101.2,1183.4,100.1,1183.5,98.7z"/>
	</g>
</g>
</svg>
