<?xml version="1.0" encoding="utf-8"?>
<!-- Generator: Adobe Illustrator 24.0.1, SVG Export Plug-In . SVG Version: 6.00 Build 0)  -->
<svg version="1.1" id="Layer_1" xmlns="http://www.w3.org/2000/svg" xmlns:xlink="http://www.w3.org/1999/xlink" x="0px" y="0px"
	 viewBox="0 0 504.8 239.5" style="enable-background:new 0 0 504.8 239.5;" xml:space="preserve">
<style type="text/css">
	.st0{fill:#1F464C;}
</style>
<g>
	<g>
		<g>
			<path d="M67.5,7.8c0.2,0.8,0.3,1.5,0.2,2.2c-0.1,0.7-0.2,1.4-0.3,2.1c0,0.1,0,0.2,0,0.2c0,0,0,0.1,0,0.2
				c-0.1,0.8-0.2,1.5-0.2,2.1c-0.1,0.7-0.1,1.4-0.2,2.1c-0.1,0.5-0.2,1-0.4,1.5s-0.3,1-0.5,1.5c-0.1,0.4-0.2,0.9-0.4,1.4
				c-0.2,0.9-0.5,1.4-1.1,1.7c-0.4,0.2-0.8,0.5-1.1,1.1c-0.1,0.4-0.3,0.8-0.5,1.1c-0.2,0.3-0.5,0.5-0.8,0.7c-0.4,0.3-0.8,0.6-1.1,1
				s-0.7,0.8-1.1,1.2c-0.5,0.7-1.2,1-1.9,1.1c-0.2,0.3-0.4,0.6-0.7,0.9c-0.2,0.3-0.5,0.3-1,0.1c-0.3,0.4-0.7,0.5-1,0.4
				c-0.3-0.1-0.7-0.2-1,0c0.2-0.8,0.4-1.4,0.8-1.8c0.4-0.5,0.8-1,1.1-1.7h-1.1c0.2-0.2,0.4-0.4,0.6-0.7s0.3-0.4,0.5-0.5
				c0.3-0.1,0.5-0.3,0.6-0.5c0.1-0.2,0.3-0.4,0.5-0.7c0.2-0.3,0.4-0.6,0.7-0.8c0.2-0.2,0.4-0.5,0.5-0.8c0.4-0.7,0.8-1.3,1.2-1.9
				s0.8-1.3,1.1-1.9c0.1-0.3,0.2-0.5,0.3-0.8s0.2-0.6,0.3-0.8c0.1-0.1,0-0.2,0-0.4c-0.1-0.2-0.1-0.3-0.1-0.5c0-0.3,0.1-0.5,0.1-0.7
				s0.1-0.4,0.2-0.6c0.2-1.2-0.1-1.6-0.8-1.4c-0.3,0.1-0.7,0.2-1,0.4c-0.3,0.1-0.7,0.3-0.9,0.4c-0.4,0.2-0.9,0.4-1.4,0.6
				s-1.1,0.3-1.7,0.2c-0.1,0-0.2,0-0.3,0s-0.2,0.2-0.2,0.3c-0.3,0.2-0.5,0.4-0.7,0.5c-0.2,0.1-0.4,0.3-0.7,0.4
				c-0.3,0.1-0.7,0.2-1,0.4c-0.3,0.2-0.7,0.3-0.9,0.6c-0.3,0.2-0.6,0.4-0.9,0.6c-0.3,0.2-0.6,0.4-0.8,0.7c-0.2,0.3-0.5,0.5-0.8,0.6
				c-0.3,0.1-0.7,0.2-1,0.3c-0.9,0.3-1.6,0.8-2.1,1.5c-0.1,0.2-0.3,0.4-0.5,0.5s-0.4,0.2-0.5,0.5c-0.3,0.3-0.7,0.5-1.1,0.6
				s-0.7,0.4-0.9,0.8c0,0-0.1,0-0.2,0.2c-0.3,0.1-0.5,0.2-0.8,0.4c-0.3,0.2-0.5,0.3-0.8,0.5v0.3c-0.2,0.3-0.3,0.4-0.3,0.5
				c-0.3,0.2-0.5,0.3-0.8,0.4s-0.5,0.2-0.8,0.4c-0.8,0.5-1.6,1-2.4,1.5l-0.1,0.1c-0.3,0.7-0.7,1.2-1.2,1.5s-1,0.8-1.5,1.2
				c-0.4,0.4-0.8,0.8-1.1,1.3c-0.3,0.5-0.7,0.9-1.1,1.1c-0.3,0.4-0.7,0.7-1,1c-0.3,0.3-0.7,0.6-1.1,0.9c-0.1,0.1-0.2,0.2-0.3,0.4
				s-0.2,0.3-0.3,0.6c-0.1,0.3-0.2,0.5-0.4,0.7c-0.3,0.4-0.6,0.7-0.7,0.9c-0.4,0.2-0.7,0.7-0.9,1.3c-0.2,0.6-0.4,1.2-0.6,1.7
				c-0.2,0.5-0.4,1-0.5,1.5c-0.3,0.8-0.2,1.3,0.3,1.7c0.2,0.1,0.4,0.2,0.6,0.3c0.2,0.1,0.4,0.2,0.5,0.3c0.1-0.1,0.2-0.2,0.3-0.4
				c0.1-0.1,0.2-0.3,0.3-0.5c0.4,0.6,0.9,0.9,1.3,0.9c0.5,0,1-0.1,1.5-0.3c0.1-0.1,0.2-0.2,0.3-0.2s0.2,0,0.3-0.1
				c0.5-0.2,1.1-0.4,1.6-0.7c0.5-0.2,1.1-0.5,1.7-0.7c0.5-0.2,1-0.3,1.5-0.5c0.5-0.1,1-0.3,1.5-0.4c0.2,0,0.3,0,0.3-0.1
				c0.4-0.3,0.8-0.5,1.3-0.7s0.9,0,1.4,0.5v-0.8c0.3-0.1,0.7-0.2,1.1-0.3c0.4-0.1,0.8-0.2,1.2-0.3c0.1,0.1,0.2,0.2,0.3,0.4
				c0.1,0.1,0.2,0.3,0.3,0.5c0.2-0.1,0.5-0.2,0.8-0.3c0.5-0.2,0.5-0.5,0-0.9c0.2-0.1,0.4-0.2,0.5-0.2c0.1,0,0.3,0.1,0.5,0.4
				c0,0.3,0.3,0.3,0.7,0.2c0.5-0.1,1-0.2,1.5-0.3c0.5-0.1,1-0.2,1.5-0.2c0.8,0,1.5,0,2.2,0c0.4,0,0.8,0,1.3,0s0.8-0.1,1.3-0.4
				c0,0,0.1-0.1,0.2,0s0.2,0,0.2,0c0.5,0.1,1.1,0.2,1.7,0.2c0.6,0,1.2,0,1.8,0.2c0.2,0,0.4,0,0.7,0.1c0.2,0,0.5,0.1,0.7,0.2
				s0.5,0,0.7,0s0.3-0.2,0.5-0.5c0.4-0.6,0.8-0.6,1.1-0.1c0.4,0.4,0.8,0.9,1.2,1.3s0.7,0.9,1,1.4c0.4,0.7,0.7,1.3,1.1,1.8
				c0.3,0.6,0.6,1.2,0.8,2c0.2,0.7,0.3,1.3,0.5,2s0.4,1.4,0.6,2.1c0.1,0.2,0.2,0.4,0.2,0.6c-0.4,0.4-0.5,0.9-0.3,1.3
				s0.3,0.9,0.3,1.3c0,0.3,0,0.7,0,1c0,0.3,0,0.7,0,0.9c0,0.5,0,1.1,0,1.7s0,1.2,0,1.8c0,2.1-0.4,3.8-1.3,5.4
				c-0.2,0.3-0.4,0.7-0.4,1.1c-0.1,0.4-0.2,0.8-0.4,1.1c-0.3,0.5-0.6,1.1-0.9,1.6c-0.3,0.5-0.6,0.9-1.1,1.2
				c-0.2,0.1-0.3,0.2-0.4,0.4c-0.2,0.4-0.4,0.8-0.6,1.1c-0.2,0.4-0.4,0.7-0.7,1c-0.3,0.3-0.6,0.5-0.8,0.8c-0.3,0.2-0.6,0.5-0.8,0.8
				c-0.3,0.3-0.5,0.6-0.7,0.8c-0.2,0.3-0.4,0.6-0.7,0.8l-1.9,1.9c-0.1,0.1-0.2,0.4-0.4,0.8c-0.4,0-0.8,0.2-1.2,0.6
				c-0.7,0.9-1.5,1.5-2.6,1.9c-0.2,0-0.2,0.1-0.2,0.2c-0.4,0.7-0.9,1.1-1.4,1.3s-1,0.4-1.5,0.8c-0.2,0.2-0.2,0.2-0.2,0.2
				c-0.3,0.6-0.7,0.9-1.2,0.9s-1,0.1-1.4,0.4c-0.1-0.3-0.2-0.6-0.3-0.8c-0.3,0.2-0.7,0.4-1.2,0.7c0.2,0.2,0.5,0.4,0.8,0.7
				c-0.3,0.3-0.6,0.6-0.9,0.9c-0.3,0.3-0.6,0.5-0.9,0.7c-0.1,0.1-0.2,0.1-0.4,0.1c-0.3-0.2-0.5-0.1-0.8,0.3
				c-0.3,0.2-0.5,0.4-0.7,0.6c-0.2,0.2-0.5,0.3-0.9,0.2c-0.1-0.1-0.2,0-0.3,0c-0.1,0.1-0.2,0.2-0.3,0.3c-0.4,0.3-0.9,0.6-1.4,0.8
				c-0.5,0.3-1,0.5-1.6,0.5c-0.1,0-0.2,0.1-0.4,0.2s-0.3,0.3-0.4,0.4c-0.4,0.3-0.6,0.5-0.7,0.5s-0.3,0-0.7-0.1
				c-0.3,0.7-0.8,1-1.5,1.1c-0.5,0.1-1,0.2-1.5,0.4c-0.5,0.2-1,0.4-1.6,0.5c-0.7,0.1-1.2,0.1-1.5-0.2c-0.4-0.3-0.8-0.3-1.2-0.2
				c-0.4,0.1-0.7,0.3-1.1,0.5c-0.3,0.2-0.6,0.3-0.9,0.3c-0.3,0-0.6,0-0.9,0c-0.5-0.1-1-0.1-1.4,0.1c-0.4,0.1-0.8,0.1-1.2,0.1
				c-0.4-0.1-0.8-0.1-1.2-0.2c-0.4-0.1-0.9-0.1-1.3-0.1c-0.5,0-1-0.1-1.5-0.2c-0.7-0.1-1.4-0.2-2-0.4c-0.6-0.2-1.2-0.4-1.8-0.7
				c-0.3-0.1-0.5-0.2-0.8-0.3c-0.3-0.1-0.5-0.3-0.8-0.6c-0.1-0.3-0.3-0.5-0.6-0.6c-0.3-0.1-0.6-0.3-0.9-0.5
				c-0.5-0.4-1.1-0.8-1.7-1.2S8.3,86,7.8,85.6C7.4,85.3,7,85,6.7,84.6c-0.3-0.4-0.6-0.9-1.1-1.3c-0.1-0.2-0.2-0.3-0.2-0.6
				c0-0.2-0.1-0.4-0.2-0.7c-0.2-0.2-0.3-0.3-0.5-0.5c-0.2-0.2-0.4-0.5-0.5-0.8c-0.3-0.5-0.6-1.1-0.9-1.7s-0.6-1.2-0.9-1.8
				c-0.1-0.1-0.1-0.3-0.1-0.4c0-0.2-0.1-0.3-0.1-0.4c-0.5-0.8-0.8-1.6-1-2.5C1,73,0.8,72,0.7,71.1c-0.2-0.5-0.3-1.1-0.4-1.7
				c-0.1-0.6-0.2-1.2-0.2-1.8C0,66.5,0,65.2,0,63.9c0-1.3,0.2-2.5,0.5-3.8C0.6,59.7,0.8,59.3,1,59s0.3-0.7,0.4-1.2
				c0.1-0.2,0.2-0.4,0.2-0.7c0.1-0.2,0.1-0.4,0.2-0.7c0.2-0.5,0.6-0.9,1.1-1.1c-0.1,0.3-0.2,0.6-0.3,0.9c-0.1,0.3-0.2,0.7-0.3,1
				c0.6,0.4,0.8,0.9,0.8,1.5c-0.1,0.6-0.2,1.2-0.3,1.8c-0.1,0.3-0.1,0.5-0.1,0.8c0,0.2,0,0.5,0,0.8c0.1,0.3,0.1,0.6,0,0.8
				c-0.1,0.3-0.1,0.6-0.1,0.9c0,0.8,0,1.5-0.1,2.1c-0.1,0.7,0,1.4,0.1,2.1c0.1,0.5,0.2,1.1,0.3,1.6c0.1,0.5,0.3,1,0.4,1.4
				c0,0.3,0.1,0.6,0.3,0.7c0.6,0.6,1.2,1.2,1.7,1.8s1.2,1,1.9,1.3c0.5,0.2,1,0.5,1.5,0.8c0.5,0.3,1,0.6,1.5,0.8
				c0.4,0.2,0.8,0.4,1.2,0.5c0.4,0.1,0.9,0.2,1.3,0.3c0.6,0.1,1.2,0.2,1.7,0.2c0.5,0.1,1.1,0.1,1.7,0.2c0.2,0.1,0.4,0.1,0.6,0.2
				c0.2,0.1,0.4,0.2,0.5,0.2c0.6,0.1,1.1,0.2,1.6,0.3c0.5,0.1,1,0.1,1.4,0c0.7-0.1,1.4-0.1,2,0c0.6,0.1,1.2,0.1,1.8-0.1
				c0.3-0.1,0.6-0.1,1-0.1s0.6,0,1,0c0.6-0.1,1.1-0.2,1.6-0.3c0.5-0.2,1-0.3,1.5-0.3c0.5-0.1,1-0.2,1.5-0.2c0.5-0.1,1-0.3,1.4-0.7
				c0-0.2,0.1-0.2,0.2-0.2c0.4,0.1,0.8,0,1.2-0.2s0.7-0.4,1.2-0.5c0.4-0.1,0.8-0.3,1.1-0.4s0.8-0.4,1.1-0.6c0.5-0.3,1.1-0.6,1.6-0.9
				c0.5-0.3,1-0.6,1.6-0.8c0.3-0.1,0.5-0.2,0.8-0.2c0.2-0.1,0.4-0.3,0.5-0.7c0.2,0.1,0.4,0.2,0.5,0.1c0.1,0,0.3-0.1,0.4-0.2
				s0.2-0.3,0.3-0.4s0.2-0.2,0.3-0.2c0.5-0.2,1-0.5,1.5-1c0.5-0.4,1-0.7,1.4-1c0.5-0.3,0.9-0.6,1.3-0.9c0.4-0.4,0.9-0.8,1.4-1.1
				s1-0.8,1.4-1.1l1.5-1.2c0.1-0.1,0.2-0.2,0.3-0.2s0.2-0.1,0.3-0.2c0.4-0.4,0.8-0.7,1.2-1.1s0.7-0.8,1.1-1.2
				c0.3-0.3,0.5-0.5,0.8-0.8s0.5-0.6,0.8-0.9c0.6-0.8,1.2-1.6,1.7-2.4c0.5-0.8,1.1-1.7,1.7-2.6c0.3-0.4,0.5-0.9,0.7-1.4
				c0.2-0.5,0.4-1,0.7-1.5c0-0.1,0.1-0.1,0.1-0.2c0-0.1,0-0.2,0.1-0.2c0.4-0.8,0.7-1.6,0.9-2.4c0.1-0.8,0.2-1.7,0.3-2.7
				c0-1-0.2-1.8-0.7-2.4c-0.3-0.4-0.5-0.8-0.8-1.2s-0.4-0.9-0.5-1.5c0-0.4-0.2-0.7-0.4-0.8S59.3,41,59,41c-0.2,0-0.3,0-0.5-0.1
				c-0.2-0.1-0.4-0.2-0.7-0.3c-1,0.5-2.1,0.6-3.3,0.2c-0.2-0.1-0.4-0.1-0.7,0s-0.6,0.2-0.9,0.3c-0.2,0-0.4,0.1-0.5,0.1
				c-0.1,0-0.3,0.1-0.5,0.1c-0.2,0-0.4,0.1-0.6,0c-0.2,0-0.4,0-0.5,0c-0.3,0-0.4,0-0.5,0.1c-0.2,0-0.3,0.1-0.5,0.2s-0.3,0.1-0.4,0.1
				c-0.3,0.1-0.5,0.1-0.8,0.1c-0.3,0-0.5,0.1-0.8,0.6c0,0-0.2,0.1-0.3,0.1c-0.5-0.1-1-0.1-1.4,0s-0.9,0.3-1.3,0.6
				c-0.2,0.1-0.5,0.2-0.7,0.3c-0.2,0.1-0.5,0.2-0.8,0.2c-0.4,0-0.9,0.1-1.3,0.4s-0.9,0.3-1.3,0.2c0,0-0.1,0-0.2,0s-0.1,0.1-0.1,0.2
				c-0.3,0.3-0.6,0.5-0.9,0.6c-0.2,0.1-0.4,0.2-0.6,0.2c-0.2,0-0.5,0.2-0.6,0.5c0,0-0.1,0.1-0.2,0.1c-0.4,0-0.7,0.1-1,0.2
				c-0.3,0.1-0.5,0.4-0.7,0.8c0,0.3-0.1,0.4-0.2,0.2c-0.3-0.1-0.6-0.1-0.8,0.1s-0.4,0.4-0.7,0.5c-0.2,0-0.3,0.1-0.5,0.1
				s-0.3,0-0.5,0c-0.3,0-0.5,0.1-0.7,0.2c-0.2,0.1-0.4,0.2-0.7,0.3c-0.3,0.1-0.6,0.2-0.8,0.3c-0.2,0.1-0.5,0.2-0.8,0.3
				c-0.4,0.3-0.8,0.2-1.2-0.2c-0.4-0.5-0.9-0.8-1.3-0.9c-0.4-0.1-0.9-0.2-1.5-0.1c-0.3,0.1-0.5,0-0.8-0.2c-0.9-0.8-1.6-1.8-2-3.1
				c-0.2-0.3-0.3-0.7-0.5-1C23.2,43,23,42.6,23,42.1c0-0.5-0.2-1.1-0.4-1.6c-0.2-0.5-0.2-1.1-0.1-1.8c-0.3-0.8-0.5-1.5-0.4-2.3
				s0.1-1.5,0.2-2.4c0.1-0.9,0.3-1.8,0.5-2.7c0.2-0.9,0.5-1.7,1.1-2.4v-0.2c0-0.5,0.1-0.9,0.4-1.2c0.3-0.3,0.5-0.7,0.7-1.1
				c0.1-0.4,0.3-0.8,0.5-1.1s0.4-0.6,0.6-0.8c0.5-0.7,1-1.3,1.4-1.9c0.5-0.6,0.9-1.2,1.3-1.8c0.1-0.1,0.2-0.2,0.2-0.3
				c0-0.1,0.1-0.2,0.2-0.2c0.3-0.1,0.5-0.2,0.8-0.3s0.4-0.5,0.3-1.1c0-0.1,0.1-0.2,0.3-0.3c1-0.9,2.1-1.8,3.1-2.7s2.1-1.8,3.2-2.8
				h0.1c0.4-0.2,0.8-0.4,1.2-0.8s0.7-0.7,1.1-1c0.3-0.1,0.5-0.2,0.7-0.4c0.2-0.2,0.4-0.3,0.6-0.4c0.3-0.3,0.6-0.5,1-0.7
				s0.7-0.4,1.1-0.6c0.3-0.2,0.5-0.5,0.8-0.7s0.6-0.5,0.9-0.6c0.4-0.1,0.8-0.3,1.1-0.6c0.3-0.3,0.6-0.5,1-0.6c0.3-0.1,0.7-0.3,1-0.6
				c0.3-0.3,0.7-0.5,1.1-0.7c0.4-0.2,0.7-0.4,1.1-0.6c0.3-0.2,0.7-0.4,1-0.6c0.9-0.4,1.8-0.8,2.6-1.3s1.7-0.8,2.6-0.9
				c0.5-0.1,1-0.3,1.4-0.5s0.9-0.4,1.3-0.6C59.8,0.2,60.6,0,61.4,0c0.8,0,1.6,0.1,2.4,0.3c0.3,0.1,0.5,0.1,0.6,0.3
				c0.1,0.1,0.3,0.3,0.4,0.4c0.4,0.5,0.8,1,1.1,1.5c0.3,0.5,0.6,1.1,0.8,1.7c0.4,0.8,0.6,1.7,0.6,2.7c0.1,0.1,0.1,0.2,0,0.4
				C67.4,7.5,67.4,7.7,67.5,7.8z M4.9,75.7c0.2-0.2,0.3-0.3,0.3-0.2c0-0.2-0.1-0.3-0.2-0.3c-0.1-0.1-0.1,0-0.2,0.1
				C4.8,75.4,4.8,75.5,4.9,75.7z M5.9,76c-0.1,0.1-0.1,0.2-0.1,0.3c0.5,0.1,1,0.4,1.5,0.8c0.5,0.4,1,0.7,1.5,0.9
				c0.2,0,0.3,0,0.4,0.1c-0.4-0.7-0.9-1.2-1.4-1.4c-0.5-0.2-0.9-0.5-1.4-0.7H6.4c-0.1,0-0.1,0-0.1,0s-0.1,0-0.1,0
				C6,75.9,5.9,76,5.9,76z M6.3,77.8c0.1,0,0.2,0,0.2-0.1c-0.1-0.1-0.1-0.1-0.1-0.2v-0.1c-0.1,0-0.2,0.1-0.3,0.2
				C6.1,77.7,6.2,77.8,6.3,77.8z M13.1,81.5c0.1-0.1,0.1-0.1,0.1-0.1c0,0,0-0.1,0.1-0.1c0-0.1,0-0.1,0.1-0.2
				c0.4,0.1,0.8,0.2,1.1,0.2c0.3,0.1,0.5,0.1,0.8,0.2c0.3,0.1,0.6,0.1,1,0c0.3-0.1,0.7,0,1.1,0.4c0,0.1,0,0.1,0,0.1s0,0,0-0.1
				c0.4-0.4,0.8-0.5,1.2-0.3c0.4,0.2,0.7,0.3,1.1,0.3c0.6-0.1,1.3-0.1,2-0.1c0.7,0.1,1.4,0.1,2.2,0.2c0,0,0.1,0,0.2-0.1
				c0.4-0.4,0.8-0.6,1.2-0.4c0.4,0.1,0.9,0.1,1.3,0c0.2-0.1,0.4-0.1,0.6-0.1s0.4-0.1,0.5-0.2c0.3-0.1,0.7-0.2,1.1-0.3
				s0.8-0.2,1.2-0.2c0.2-0.1,0.4-0.1,0.6-0.1c0.2,0,0.4-0.1,0.6-0.2c0.3-0.3,0.6-0.4,0.9-0.5s0.6,0.1,0.9,0.6c0.5-0.8,1-1.4,1.5-1.8
				s1.2-0.6,1.9-0.7c0-0.2,0.1-0.4,0.2-0.7c0.2,0.3,0.3,0.5,0.4,0.7c0.2-0.2,0.4-0.3,0.6-0.5c0.2-0.2,0.3-0.5,0.2-0.9
				c-0.5,0-1,0.1-1.5,0.4c-0.5,0.3-1,0.5-1.4,0.7c-0.2,0-0.3,0.1-0.3,0.2c-0.2,0.4-0.4,0.6-0.6,0.6s-0.5,0.1-0.8,0.2
				c-0.7,0.2-1.4,0.3-2,0.6c-0.7,0.2-1.3,0.4-2,0.7c-0.3,0.1-0.6,0.2-0.9,0.2c-0.3,0.1-0.6,0.1-0.9,0.2c-0.6,0.1-1.3,0.2-1.9,0.4
				s-1.2,0.2-1.8,0.1c-0.1,0-0.2,0-0.2,0c0,0-0.1,0-0.2,0s-0.2,0-0.4,0.1c-0.2,0.1-0.3,0.1-0.5,0.1c-0.3,0-0.6,0-1,0
				c-0.3,0-0.6,0-1,0c-0.4-0.1-0.8-0.1-1.1-0.1s-0.8,0-1.2,0c0.1-0.4,0.3-0.6,0.6-0.6c0.3,0,0.5-0.1,0.8-0.3c0-0.3-0.1-0.4-0.3-0.4
				c-0.1,0-0.3,0-0.5,0c-0.3,0.1-0.7,0.2-1,0.2c-0.4,0-0.7,0-1-0.2c-0.2-0.1-0.4-0.1-0.5,0s-0.2,0.3-0.3,0.5
				c-0.5,0.7-1.1,0.8-1.9,0.4c-0.3-0.2-0.6-0.3-0.7-0.2c-0.5,0.2-0.9-0.1-1.1-0.7c0.1-0.3,0.2-0.6,0.2-0.9c-0.8-0.4-1.5-0.7-2.3-0.7
				c-0.1,0-0.2,0-0.4,0c-0.2,0-0.3,0.1-0.3,0.2c-0.2,0.3-0.4,0.4-0.6,0.4s-0.4-0.1-0.6-0.2c-0.3-0.1-0.5-0.2-0.7-0.2
				c-0.2,0-0.5,0-0.7,0.1L8,79.7c0.5-0.2,1.1,0,1.5,0.6c0.2,0.3,0.4,0.4,0.6,0.5c0.5,0.1,1,0.2,1.5,0.4
				C12.1,81.2,12.6,81.4,13.1,81.5z M11.6,83c0.3,0.6,0.5,0.8,0.8,0.5c0.2-0.3,0.5-0.4,0.8-0.4c-0.3-0.2-0.5-0.3-0.8-0.4
				S11.8,82.7,11.6,83z M12.9,79.1c0,0.1,0,0.2-0.1,0.2l0.3,0.2c0.1,0,0.1-0.1,0.2-0.2c0-0.1,0-0.2-0.1-0.3L12.9,79.1z M13.9,83.8
				c0.3,0.4,0.5,0.6,0.9,0.5c0.3-0.1,0.6-0.1,0.9,0c-0.3-0.2-0.5-0.3-0.8-0.5C14.6,83.6,14.3,83.6,13.9,83.8z M14.1,79.3
				c0.3,0.4,0.5,0.6,0.6,0.6c0.1,0,0.3-0.2,0.6-0.5c-0.2-0.1-0.4-0.2-0.6-0.2c-0.2,0-0.4-0.1-0.6-0.1C14.1,79.1,14.1,79.3,14.1,79.3
				z M47.2,75c0.1-0.3,0.2-0.6,0.4-0.8c0.2-0.2,0.4-0.4,0.7-0.5l-0.2-0.2c-0.3,0.1-0.6,0.2-0.9,0.3c-0.3,0.1-0.6,0.2-0.8,0.4
				c0,0-0.1,0.1-0.1,0.2c0,0.2,0,0.3,0,0.4c0,0.5-0.2,0.7-0.6,0.5c-0.1-0.1-0.2-0.1-0.2-0.2c0-0.1-0.1-0.1-0.1-0.2
				c-0.2,0.1-0.3,0.2-0.5,0.4s-0.3,0.3-0.5,0.3c-0.5,0.2-0.9,0.4-1.3,0.7s-0.8,0.6-1.3,0.8c-0.6,0.4-1.2,0.7-1.7,1.1
				c-0.5,0.3-1.1,0.7-1.7,1.1c-0.7,0.4-1.3,0.7-2,0.9c-0.7,0.2-1.4,0.6-2,1c-0.1,0.1-0.3,0.2-0.5,0.2c-0.2,0.1-0.4,0.2-0.7,0.2
				c-0.2,0.1-0.4,0.1-0.7,0.2c-0.4,0.2-0.9,0.3-1.4,0.6s-1,0.4-1.5,0.7c-0.1,0.1-0.2,0.1-0.2,0.1s-0.1,0-0.2,0.1
				c-0.4,0.1-0.9,0.1-1.3,0.1c-0.4,0-0.8,0.1-1.3,0.2c-0.6,0.1-1.2,0.2-1.8,0.3s-1.2,0.2-1.7,0.2c-1.1,0.1-2.1,0.1-3.2,0
				s-2.1-0.1-3.3-0.3c-0.2,0-0.4,0.1-0.5,0.2c0.3,0.4,0.5,0.7,0.6,0.8c0.1,0.1,0.4,0.1,0.9,0.1h1.5c0.4-0.3,0.9-0.4,1.4-0.2
				c0.5,0.2,1,0.2,1.6,0.1c0.3-0.1,0.6,0,0.9,0s0.6,0.1,0.9,0.1l0.1,0.1c0,0.1-0.1,0.2-0.1,0.3s0,0.3-0.1,0.5
				c0.1-0.2,0.2-0.2,0.4-0.2c0.2,0,0.3,0.1,0.5,0.1c0.2,0,0.3,0,0.5,0c0.1,0,0.3-0.1,0.5-0.3c-0.3-0.2-0.6-0.3-0.7-0.3
				c0.7-0.4,1.4-0.5,2.1-0.4s1.3,0.2,2,0.3c0.2-0.2,0.3-0.4,0.4-0.7c0.2,0.1,0.4,0.3,0.4,0.5c0,0.2,0.2,0.3,0.6,0.2
				c0-0.3,0-0.6-0.1-0.8c0.3-0.1,0.5-0.1,0.6,0s0.4,0.2,0.8,0.4c0.3,0.1,0.5,0.1,0.6,0.1c0.1-0.1,0.2-0.3,0.2-0.7v-0.2
				c0.4-0.3,0.8-0.5,1.2-0.6C33.8,83,34,83,34.2,83s0.4-0.1,0.7-0.2c0.2-0.1,0.4-0.2,0.5-0.4c0.1-0.2,0.3-0.3,0.5-0.4
				c0.9,0.3,1.6,0,2-0.9c0.7-0.2,1.3-0.4,1.9-0.7c0.6-0.2,1.1-0.7,1.7-1.5c0,0.1,0.2,0.2,0.3,0.2c0.2,0.1,0.3-0.1,0.4-0.5
				c0-0.1,0.1-0.1,0.2-0.1s0.1,0,0.2-0.1c0.3-0.2,0.7-0.3,1-0.6c0.3-0.2,0.7-0.4,1.1-0.7c0.2-0.2,0.4-0.3,0.6-0.4
				c0.2-0.1,0.3-0.3,0.6-0.5c0.3-0.2,0.5-0.3,0.8-0.5C46.8,75.6,47.1,75.4,47.2,75z M21.9,79.5c-0.2-0.1-0.4-0.1-0.5,0
				c-0.1,0.1-0.3,0.2-0.5,0.2c0,0.1,0.1,0.1,0.1,0.2c0.4-0.1,0.8-0.2,1-0.2L21.9,79.5L21.9,79.5z M28.6,78.4
				C28.6,78.5,28.6,78.5,28.6,78.4c-0.1,0.1-0.2,0.1-0.2,0.2c0.1,0.2,0.2,0.4,0.3,0.6c0.2-0.2,0.2-0.2,0.2-0.2L28.6,78.4z
				 M28.8,85.8c0.3,0.2,0.4,0.3,0.5,0.3c0,0,0.1-0.2,0.2-0.5C29.2,85.6,29,85.7,28.8,85.8z M32.8,77.5c-0.3-0.3-0.4-0.4-0.5-0.4
				c0,0-0.2,0.2-0.4,0.6C32.4,77.9,32.7,77.9,32.8,77.5z M32.7,20.8c-0.1,0.1-0.2,0.2-0.2,0.2c0,0-0.1,0-0.1,0.2v0.2
				c0,0.1,0,0.2,0.1,0.2c0.2,0,0.2,0,0.2-0.2V20.8z M35,79.4c0-0.1,0-0.2-0.2-0.6c-0.1,0.1-0.2,0.2-0.3,0.2
				c-0.1,0.1-0.2,0.1-0.2,0.2c0,0.1,0,0.2,0.2,0.6C34.7,79.7,34.8,79.6,35,79.4z M35.4,84.1c0.1,0,0.2,0,0.3-0.1s0.2-0.1,0.4-0.2
				l-0.4-0.6c-0.3,0.2-0.4,0.3-0.4,0.3C35.4,83.9,35.4,84.1,35.4,84.1z M37.7,14.3c0.2,0.4,0.3,0.7,0.4,0.7s0.3-0.1,0.7-0.4
				C38.4,14.5,38.1,14.4,37.7,14.3z M38.5,75.6c-0.1,0.2-0.2,0.3-0.3,0.4c-0.1,0.1-0.2,0.3-0.4,0.4c0.5,0.4,0.9,0.3,1.1-0.2
				c0-0.1,0.1-0.1,0.1-0.2s0-0.2,0-0.3c-0.1,0-0.2,0-0.3,0C38.7,75.5,38.6,75.6,38.5,75.6z M40.3,75.6c0.3,0,0.4,0,0.5-0.1
				c0.1-0.2,0.2-0.3,0.2-0.5c0-0.2,0.1-0.4,0.2-0.6c0,0-0.1,0-0.1,0s0,0-0.1,0c-0.3,0.2-0.6,0.3-0.8,0.6V75.6z M50.1,73.2
				c0-0.1,0-0.3-0.1-0.7c-0.3,0.1-0.5,0.2-0.7,0.3c-0.2,0.1-0.3,0.2-0.6,0.3c0.3,0.3,0.5,0.4,0.7,0.3C49.6,73.5,49.8,73.4,50.1,73.2
				z M50.1,69.2v-0.2c-0.2,0-0.4,0-0.5,0.1v0.2C49.7,69.2,50.1,69.2,50.1,69.2z M50.5,68.7l0.2-0.1c0-0.2,0-0.3-0.2-0.4l-0.2,0.2
				C50.3,68.5,50.4,68.6,50.5,68.7z M51.9,69.8c0.3-0.2,0.5-0.4,0.8-0.6c0.3-0.2,0.5-0.3,0.8-0.6c-0.2-0.3-0.3-0.5-0.4-0.5
				c-0.1,0-0.2,0.1-0.5,0.4c-0.2,0.2-0.3,0.3-0.5,0.5s-0.3,0.4-0.5,0.6C51.8,69.6,51.8,69.7,51.9,69.8
				C51.9,69.7,51.9,69.7,51.9,69.8z"/>
			<path d="M106,66.8c0.2-0.3,0.5-0.5,0.8-0.6c0.3-0.1,0.8-0.1,1.3,0.2l-1.4,1.4c-0.6,0.6-1.2,1.2-1.7,1.7s-1,1.1-1.6,1.6
				c-0.1,0.1-0.2,0.2-0.4,0.2c-0.1,0-0.3,0.1-0.4,0.2s-0.2,0.2-0.3,0.3c-0.1,0.1-0.2,0.2-0.3,0.3l-0.7,0.7c0-0.1-0.1,0-0.2,0.2
				c-0.4,0.9-1,1.6-1.8,2.1c-0.7,0.5-1.4,1.1-2.1,1.8c-0.7,0.6-1.3,1.2-2,1.8s-1.4,1.2-2.1,1.8c-0.1,0.1-0.2,0.1-0.3,0.2
				s-0.2,0.1-0.3,0.2c-0.3,0.2-0.8,0.4-1.3,0.7s-1.1,0.7-1.7,1.1s-1.1,0.8-1.7,1.1c-0.5,0.3-0.9,0.6-1.2,0.8c-0.6,0.4-1.2,0.8-1.9,1
				c-0.7,0.2-1.3,0.4-2,0.5c-0.7,0.1-1.4,0.2-2.1,0.2c-0.7,0-1.3-0.2-1.9-0.7c-0.4-0.3-0.8-0.3-1.1,0.2c-0.2,0.4-0.4,0.6-0.7,0.6
				s-0.6,0-0.9-0.1c-0.3,0-0.6-0.1-0.8-0.2c-0.2-0.1-0.4-0.4-0.4-0.8c-0.1,0-0.1,0-0.1,0c0,0-0.1,0-0.1,0c0,0.1,0,0.2,0,0.4
				c0,0.1,0,0.3,0,0.5c-0.3-0.3-0.5-0.5-0.7-0.8s-0.3-0.5-0.6-0.8c0-0.1,0-0.1-0.1-0.2c0-0.1,0-0.1-0.1-0.2V84L73,83.5
				c-0.3-1-0.7-1.7-1.2-2.3c-0.2-0.2-0.4-0.4-0.4-0.6c-0.1-0.2-0.2-0.5-0.3-0.8c-0.2-0.3-0.3-0.5-0.5-0.8s-0.4-0.5-0.5-0.8
				c-0.2-0.3-0.3-0.5-0.4-0.8c-0.1-0.3-0.2-0.6-0.3-0.9c-0.2-0.8-0.4-1.5-0.5-2.2s-0.2-1.5,0-2.2c0.1-0.5,0.1-1.1,0.2-1.5
				c0.1-0.5,0.2-1,0.2-1.5c0.1-0.1,0.1-0.1,0.1-0.2c-0.1-0.9,0.1-1.8,0.4-2.6c0.3-0.8,0.6-1.6,0.9-2.3c0.1-0.2,0.2-0.3,0.5-0.4
				c-0.5-0.7-0.3-1.1,0.5-1.4c0.2-0.2,0.2-0.3,0.2-0.5c-0.2-0.6,0-1,0.5-1.2l0.2-0.7c0.2-0.1,0.4-0.1,0.6-0.2s0.2-0.4-0.1-0.8
				c-0.1-0.1,0-0.2,0.2-0.4c0.2-0.2,0.4-0.4,0.5-0.5c0.1-0.1,0.2-0.2,0.3-0.2c0.1-0.1,0.1-0.2,0-0.3l0.7-0.5
				c-0.1-0.2-0.3-0.3-0.5-0.6c0.8,0,1-0.2,0.7-0.7c0.3-0.3,0.5-0.5,0.7-0.8s0.4-0.5,0.6-0.8c0.1-0.2,0.2-0.4,0.4-0.7
				c0.1-0.2,0.3-0.5,0.4-0.7c0.1,0,0.1,0,0.1,0c0,0,0.1,0,0.1,0c0.6-0.3,0.9-0.5,1.1-0.6c0.1-0.1,0.1-0.5,0-1
				c0.1-0.1,0.2-0.1,0.4-0.1c0.1,0,0.3,0,0.4-0.1c-0.1-0.1-0.2-0.2-0.3-0.4c-0.1-0.1-0.2-0.3-0.3-0.4c0.8-1,1.7-2.2,2.7-3.4
				c-0.1,0.3-0.2,0.5-0.2,0.7c0.1,0,0.1,0,0.1,0c0,0,0.1,0,0.1,0c0.1-0.2,0.2-0.3,0.3-0.5c0.1-0.2,0.2-0.4,0.4-0.7
				c0.4-0.1,0.6-0.5,0.5-1.1c-0.1-0.3,0.1-0.7,0.6-1.1s0.9-0.7,1.3-0.8h0.3c-0.2-0.5-0.1-0.8,0.2-1.1c0.3-0.2,0.5-0.5,0.7-0.7
				c0.4-0.7,0.9-1.2,1.5-1.8s1.1-1.1,1.6-1.7c0.5-0.7,1.1-1.3,1.8-1.8c0.6-0.6,1.2-1.2,1.6-1.9c0.5-0.8,1.1-1.5,1.8-2.2
				c0.7-0.6,1.3-1.2,2.1-1.8c0.1-0.1,0.2-0.2,0.4-0.3c0.2-0.1,0.3-0.2,0.5-0.3c0.2-0.1,0.4-0.1,0.5-0.1l2.2,1c0.1,0,0.1,0,0.2,0
				c0.1,0,0.1,0,0.2,0c0.3,0.1,0.5,0.2,0.7,0.3s0.4,0.3,0.6,0.6c0.2,0.2,0.3,0.4,0.6,0.6s0.4,0.3,0.7,0.4c0.6,0.4,1,0.8,1.3,1.3
				c0.3,0.5,0.5,1,0.8,1.6c0,0,0,0.1,0.1,0.2c0.1,0.3,0.2,0.7,0.2,1.1s0.1,0.8,0.3,1.1c0.3,0.6,0.5,1.2,0.6,1.7
				c0.1,0.5,0.3,1.1,0.6,1.6c0.3,0.6,0.3,1.2,0.1,1.8c-0.2,0.6-0.2,1.2,0,1.8c0,0,0,0.1-0.1,0.2s-0.1,0.2-0.2,0.3
				c0.5,0.3,0.6,0.6,0.4,0.9c-0.2,0.3-0.4,0.6-0.5,0.9c-0.1,0.3-0.1,0.6-0.2,0.9c-0.1,0.3-0.1,0.6-0.2,0.9c-0.1,0.3-0.2,0.5-0.2,0.8
				c0,0.2-0.2,0.5-0.4,0.7c-0.1,0.1-0.2,0.2-0.2,0.4s0,0.3-0.1,0.4c-0.3,0.5-0.6,1.1-0.9,1.5c-0.5,0.9-1,1.6-1.5,2.3
				c-0.3,0.5-0.7,1-1,1.5s-0.7,0.9-1,1.4c-0.3,0.4-0.6,0.8-0.8,1.1c-0.3,0.3-0.6,0.7-0.8,1.1c-0.2,0.3-0.4,0.6-0.6,1.1
				c-0.1,0.3-0.2,0.4-0.4,0.5c-0.5,0.3-1,0.6-1.3,1.1s-0.6,0.9-1,1.3c-0.3,0.3-0.6,0.5-1,0.8c-0.4,0.3-0.7,0.5-1.1,0.8
				c-0.3,0.2-0.5,0.4-0.8,0.7s-0.5,0.4-0.8,0.7c-0.3,0.3-0.7,0.5-1,0.7c-0.3,0.2-0.7,0.5-1.1,0.7c-0.1,0-0.2,0-0.2,0.1
				c-0.8,0.6-1.6,1-2.4,1.3c-0.9,0.2-1.7,0.5-2.6,0.8c-0.3,0.1-0.6,0.2-0.7,0.2h-0.1c-0.7,0.2-1.7,0.3-2.8,0.3
				c-1.2,0.1-2.1,0-2.8-0.2l-0.1-0.1L77,70.7c0.1,0.5-0.1,1-0.7,1.3c-0.1,0.1-0.2,0.1-0.2,0.2c0,0.1-0.1,0.2-0.1,0.3
				c-0.1,0.1-0.2,0.2-0.2,0.3s-0.1,0.2-0.2,0.3c-0.3,0.3-0.3,0.4-0.1,0.5c0.2,0.1,0.3,0.2,0.4,0.3c-0.1,0.3-0.2,0.5-0.2,0.8
				c-0.1,0.3-0.1,0.5-0.2,0.8c-0.1,0.2-0.2,0.3-0.3,0.4c-0.5,0.5-0.5,1.1-0.2,1.7c0.2,0.3,0.1,0.6-0.1,0.9c-0.2,0.4-0.2,0.7,0.2,1
				c0.2,0.1,0.3,0.3,0.4,0.7l0.2,0.5c0.1,0.3,0.1,0.6,0.1,0.8c0,0.3,0.1,0.6,0.3,0.8c0.3,0.5,0.8,0.8,1.4,0.9
				c1.1,0.2,2.3,0.1,3.7-0.3c1.3-0.3,2.5-0.8,3.4-1.4c0.5-0.3,1.1-0.7,1.8-1.2c0.7-0.5,1.4-0.9,2.2-1.5s1.5-1,2.2-1.5
				s1.3-0.9,1.8-1.3c1.2-0.9,2.4-1.9,3.5-2.8c1.1-1,2.3-1.9,3.4-2.9c1-0.9,1.9-1.7,2.8-2.6c0.9-0.9,1.8-1.8,2.8-2.7
				c0.8-0.7,1.6-1.4,2.4-2.1c0.8-0.7,1.6-1.4,2.3-2.2c0.2-0.2,0.4-0.3,0.6-0.6c0.2-0.2,0.3-0.4,0.5-0.7c0.1,0.1,0.1,0.1,0.2,0.1
				c0.1,0,0.1,0.1,0.2,0.2c-1.3,1.4-2.6,2.8-3.9,4.1c-1.3,1.3-2.6,2.7-3.9,4.1c-0.1,0.2-0.2,0.3-0.3,0.4c-0.1,0.1-0.2,0.3-0.3,0.4
				c-0.3,0.4-0.7,0.8-1,1.1c-0.3,0.3-0.7,0.7-1,1c-0.1,0.1-0.1,0.1-0.2,0.1c-0.1,0-0.1,0.1-0.2,0.1c-0.1,0.1-0.2,0.1-0.2,0.2
				c0,0.1-0.1,0.1-0.2,0.2c0.1,0,0.2,0,0.4,0.1c0.1,0.1,0.3,0.1,0.4,0c0.2-0.1,0.3-0.2,0.4-0.4c0.1-0.1,0.3-0.3,0.4-0.4
				c0.8-0.7,1.6-1.3,2.4-2C104.6,68.3,105.3,67.6,106,66.8z M71.8,65.9C71.8,65.8,71.8,65.8,71.8,65.9c0.1-0.1,0.1-0.1,0.1-0.2
				c-0.1-0.3-0.2-0.6-0.3-0.8c-0.1-0.1-0.1-0.1-0.2-0.1c0,0.1,0,0.2-0.1,0.3s-0.1,0.2,0,0.3C71.3,65.5,71.5,65.6,71.8,65.9z
				 M72.1,64.2c0.2-0.1,0.4-0.2,0.7-0.4c-0.4-0.4-0.4-0.9,0.2-1.3c0.1-0.1,0.1-0.1,0-0.2s0-0.2,0-0.3c-0.1,0-0.1,0-0.1,0
				c0,0-0.1,0-0.1,0c-0.3,0.4-0.5,0.8-0.7,1.3c-0.2,0.4-0.5,0.8-0.7,1.3l0.2,0.2C71.7,64.4,71.9,64.3,72.1,64.2z M72.8,71.6
				c0.2-0.1,0.3-0.3,0.3-0.6c0-0.3,0-0.6-0.1-0.8c-0.1,0.2-0.2,0.4-0.2,0.6c-0.1,0.2-0.1,0.3-0.2,0.6c0,0.1,0,0.1,0,0.2s0,0.1,0,0.2
				C72.7,71.7,72.8,71.7,72.8,71.6z M72.8,61.2c0.1,0.1,0.2,0.2,0.4,0.3s0.3,0.2,0.5,0.3c0.1-0.2,0.2-0.3,0.3-0.5s0.2-0.3,0.2-0.6
				c0.1-0.1,0.1-0.3,0-0.4c0-0.2,0-0.4,0-0.5c0.1,0.1,0.2,0.1,0.2,0.1c0,0,0.1,0.1,0.2,0.1c0.3-0.3,0.5-0.5,0.7-0.8s0.4-0.5,0.6-0.8
				c0.1-0.1,0.1-0.2,0.1-0.2c0,0,0.1-0.1,0.1-0.2c0-0.1,0-0.1-0.1-0.2s-0.2-0.1-0.2,0c-0.1,0-0.2,0.1-0.4,0.2
				c-0.1,0.1-0.1,0.2-0.1,0.3c0,0.1-0.1,0.2-0.1,0.3c-0.1,0-0.1-0.1-0.2-0.2c0.1-0.2,0.2-0.4,0.4-0.7c0.1-0.2,0.3-0.4,0.5-0.5
				c0.5-0.2,0.8-0.4,0.8-0.5s0-0.4-0.3-0.9l0.5-0.2c0.2-0.1,0.4-0.2,0.7-0.3c0.2-0.1,0.4-0.2,0.4-0.3c0.1-0.5,0.2-0.9,0.6-1.1
				c0.3-0.2,0.6-0.4,0.9-0.7c-0.1-0.5-0.2-0.9-0.2-1.1c0.4-0.2,0.7-0.5,1-0.7c0.2-0.2,0.4-0.3,0.6-0.6c0.2-0.2,0.3-0.4,0.5-0.7
				c0.4-0.4,0.3-0.8-0.3-1.1c-1.7,1.7-3.2,3.6-4.5,5.7C75.2,57,74,59.1,72.8,61.2z M73.6,69.3c0.3-0.5,0.5-1,0.7-1.5
				c0.2-0.5,0.4-1,0.7-1.5c-0.1,0-0.2-0.1-0.2-0.2c-0.2,0.1-0.3,0.2-0.3,0.3c-0.1,0.3-0.3,0.6-0.4,0.9c-0.2,0.3-0.4,0.6-0.5,0.9
				c-0.1,0.2-0.2,0.5-0.2,0.9H73.6z M76,60.1c0.2-0.3,0.4-0.5,0.7-0.7c0.3-0.2,0.4-0.5,0.2-1c-0.3,0-0.4,0-0.5,0.1
				c-0.2,0.2-0.4,0.4-0.5,0.7s-0.3,0.4-0.4,0.7c-0.2,0.2-0.1,0.2,0.1,0.2C75.7,60.3,75.8,60.3,76,60.1z M76.9,62.5
				c0.3-0.4,0.6-0.8,0.9-1.2s0.6-0.7,0.9-1.2c-0.5,0.1-0.9,0.3-1.3,0.8C77,61.4,76.8,61.9,76.9,62.5z M86.5,55.2
				c-0.4,0.5-0.7,1-1.1,1.5s-0.7,1-1.1,1.5c-0.1,0.1-0.1,0.1-0.2,0.2c-0.1,0.1-0.2,0.1-0.2,0c-0.3-0.1-0.4,0-0.5,0.1
				c-0.1,0.1-0.1,0.3-0.2,0.5c0,0.2-0.1,0.4-0.2,0.7c-0.1,0.2-0.2,0.4-0.3,0.6c-0.1,0.2-0.2,0.4-0.3,0.6l-0.4,0.4
				c-0.1,0.2-0.2,0.3-0.4,0.5c-0.2,0.2-0.3,0.3-0.4,0.6c-0.3,0.5-0.5,1.1-0.7,1.6c-0.2,0.5-0.5,1-1,1.5l-0.2,0.2l-1.1,1.5
				c0.4,0,0.9,0.1,1.4,0.2s0.9,0.1,1.4-0.1c0.3-0.1,0.5-0.2,0.7-0.2c0.2-0.1,0.5-0.1,0.7-0.2c0.3-0.1,0.6-0.1,0.7-0.1
				c0.2,0,0.3-0.1,0.6-0.2c0.2-0.1,0.3-0.2,0.5-0.2c0.2-0.1,0.4-0.1,0.6-0.2c0.1,0,0.2-0.1,0.3-0.2l2.4-1.7c0.3-0.2,0.5-0.3,0.8-0.4
				c0.3-0.1,0.5-0.3,0.8-0.5c0.8-0.5,1.4-1.1,2.1-1.8c0.6-0.6,1.2-1.3,1.7-2.1l0.3-0.3c0.4-0.4,0.7-0.9,1.1-1.3
				c0.3-0.4,0.7-0.9,1-1.3c0.4-0.5,0.9-1.1,1.3-1.6s0.9-1.1,1.3-1.6c0.1-0.1,0.2-0.2,0.2-0.4c0.1-0.1,0.1-0.2,0.1-0.4
				c0-0.2,0.1-0.3,0.2-0.4c0.8-1.3,1.5-2.6,2.1-4c0.6-1.3,1-2.8,1.2-4.4c0.1-0.5,0.2-1.1,0.1-1.6c0-0.5,0-1.1,0-1.6
				c0-0.1,0-0.2-0.1-0.4c-0.1-0.2-0.2-0.2-0.3-0.2c-0.3,0-0.5,0.1-0.7,0.3c-0.1,0.1-0.3,0.3-0.7,0.7c-0.3,0.3-0.5,0.5-0.7,0.6
				c-0.2,0.2-0.4,0.4-0.6,0.6s-0.4,0.3-0.6,0.5c-0.3,0.2-0.6,0.5-0.9,0.7s-0.6,0.5-1,0.7c-0.4,0.3-0.8,0.6-1.1,1.1
				c-0.3,0.4-0.7,0.8-1.1,1.2c-0.2,0.2-0.3,0.3-0.6,0.5s-0.4,0.3-0.7,0.4c-0.2,0.2-0.3,0.4-0.4,0.5c-0.3,0.4-0.5,0.8-0.7,1.1
				s-0.4,0.8-0.7,1.1c-0.3,0.4-0.6,0.8-0.9,1.1s-0.7,0.7-1,1c-0.4,0.5-0.8,1-1.2,1.5c-0.4,0.5-0.9,0.9-1.6,1.1c0,0.2,0,0.3,0,0.4
				C86.6,55,86.6,55.1,86.5,55.2z M82.5,47.8c-0.5,0-1,0.3-1.3,1c0.2,0.1,0.5,0.3,0.8,0.5c-0.1-0.1-0.1-0.2-0.1-0.3
				c0-0.1-0.1-0.2-0.1-0.4c0.1,0,0.2,0,0.3,0c0.1,0,0.2,0,0.3,0c0.1,0,0.3-0.1,0.5-0.4c-0.1-0.1-0.2-0.1-0.2-0.2
				C82.7,47.9,82.6,47.8,82.5,47.8z M83.1,46.6c-0.1,0-0.2,0.2-0.4,0.3c-0.1,0.1-0.3,0.3-0.4,0.4c0.2,0.2,0.4,0.3,0.7,0.6
				c0,0.1,0.1,0.2,0.2,0.2c0.1-0.2,0.2-0.3,0.3-0.5c0.1-0.1,0.2-0.3,0.3-0.5c-0.1,0-0.1-0.1-0.2-0.2c-0.1,0-0.2-0.1-0.3-0.2
				C83.3,46.6,83.2,46.6,83.1,46.6z M84.6,45.4c-0.1,0.1-0.2,0.2-0.4,0.4c-0.1,0.2-0.3,0.3-0.4,0.4c0,0.1,0,0.2,0.1,0.2
				c0.1,0,0.2-0.1,0.3-0.1s0.2,0,0.2-0.2c0.1-0.1,0.2-0.2,0.2-0.4c0-0.1,0-0.3,0.1-0.4C84.7,45.4,84.6,45.4,84.6,45.4z M90.8,63.7
				c0.1-0.1,0.2-0.3,0.2-0.5c0-0.2,0.1-0.5,0.1-0.7c-0.4,0-0.7,0.2-0.9,0.7c-0.1,0.2-0.2,0.3-0.4,0.5c-0.2,0.2-0.3,0.3-0.4,0.5
				l-1,0.7l0.3,0.2c0.4-0.2,0.7-0.4,1.1-0.7C90.2,64.2,90.5,63.9,90.8,63.7z M92,62.3c0.1,0,0.2-0.1,0.3-0.3c0.1-0.1,0.1-0.1,0-0.2
				s-0.1-0.1-0.2-0.1c-0.2-0.1-0.4-0.1-0.6,0.1c-0.1,0.1-0.2,0.2-0.2,0.3s-0.1,0.2-0.2,0.3C91.6,62.4,91.8,62.3,92,62.3z
				 M119.3,52.1v0.3c-0.2,0.3-0.3,0.6-0.5,0.9c-0.2,0.3-0.4,0.6-0.7,0.7c-0.3,0.2-0.6,0.4-0.7,0.6c-0.1,0.2-0.3,0.5-0.5,0.7
				c-0.3,0.3-0.5,0.7-0.8,1.1s-0.5,0.8-0.8,1.1c-0.1,0.2-0.2,0.4-0.3,0.7c-0.1,0.2-0.2,0.4-0.3,0.6c-0.3,0.4-0.6,0.8-0.9,1.1
				s-0.7,0.7-0.9,1.1c-0.3,0.3-0.5,0.5-0.8,0.7s-0.5,0.5-0.7,0.8c-0.1,0.3-0.3,0.5-0.6,0.7c-0.3,0.2-0.5,0.5-0.7,0.7l-0.2,0.2
				c-0.1,0.5-0.3,0.8-0.7,1c-0.3,0.2-0.7,0.4-1.1,0.6c-0.3-0.3-0.5-0.5-0.5-0.6s0.2-0.3,0.6-0.5c0.1-0.1,0.2-0.2,0.3-0.4
				c0.1-0.2,0.2-0.3,0.4-0.4c0.2-0.2,0.3-0.3,0.5-0.5c0.2-0.2,0.4-0.3,0.6-0.5c0.3-0.3,0.6-0.6,0.9-0.9c0.3-0.3,0.6-0.6,0.9-0.9
				c0.3-0.3,0.5-0.6,0.8-0.9c0.2-0.3,0.5-0.6,0.8-0.9c0.3-0.4,0.5-0.8,0.7-1.3s0.5-0.8,0.7-1.2c0.2-0.3,0.5-0.5,0.7-0.7
				c0.3-0.2,0.5-0.5,0.8-0.7l-0.2-0.2c0.1-0.1,0.1-0.2,0.1-0.4c0-0.2,0.1-0.3,0.1-0.3c0.6,0,0.9-0.2,0.8-0.5c-0.1-0.3,0-0.7,0.1-0.9
				c0.1-0.2,0.2-0.4,0.2-0.6c0.1,0,0.1,0,0.1,0c0,0,0.1,0,0.1,0c-0.1-0.1-0.2-0.2-0.2-0.3c-0.1-0.1-0.1-0.2-0.2-0.3
				c-0.9,1.3-1.8,2.6-2.8,3.8c-0.9,1.2-1.9,2.4-3,3.5l-0.2-0.2c0.1-0.1,0.2-0.2,0.2-0.3s0.1-0.2,0.2-0.3c0.6-0.8,1.2-1.5,1.8-2.2
				s1.2-1.4,1.8-2.2c0.4-0.7,0.8-1.3,1.1-1.9c0.1-0.3,0.3-0.5,0.4-0.8c0.2-0.2,0.4-0.5,0.5-0.7c0.2-0.2,0.4-0.4,0.7-0.7l0.5,0.5
				c0.1,0.1,0.2,0.2,0.4,0.4c0.2,0.1,0.3,0.3,0.4,0.4c0,0.1,0,0.2,0,0.4C119.3,51.9,119.3,52,119.3,52.1z"/>
			<path d="M147.5,45.2c0.1,0.7,0.1,1.3,0,2s-0.1,1.3-0.1,2c0,0.2,0,0.3,0,0.5s0,0.4,0,0.5c-0.1,0.4-0.2,0.9-0.3,1.3
				s-0.2,0.9-0.4,1.3c-0.2,0.4-0.3,0.8-0.5,1.2c-0.2,0.4-0.2,0.8,0,1.3c0.3,0.5,0.2,1-0.1,1.4c-0.3,0.4-0.6,0.8-0.8,1.2
				c-0.3,0.5-0.5,1.1-0.8,1.6s-0.5,1.1-0.8,1.6c-0.1,0.1-0.2,0.2-0.3,0.3c-0.1,0.1-0.2,0.2-0.3,0.3c-0.4,0.5-0.7,1.1-1.1,1.6
				c-0.3,0.5-0.7,1.1-1.1,1.6c-0.3,0.4-0.7,0.9-1,1.3c-0.4,0.4-0.7,0.9-1,1.3c-0.1,0.1-0.2,0.2-0.2,0.4s-0.1,0.3-0.2,0.6
				c-0.1,0.1-0.3,0.2-0.7,0.4c0.3,0.3,0.5,0.5,0.6,0.7c-0.6,0.7-1.2,1.3-1.8,1.9s-1.1,1.3-1.8,1.9c-0.5,0.6-1,1.2-1.5,1.8
				s-1,1.2-1.5,1.8c-0.4,0.4-0.8,0.8-1.1,1.1s-0.8,0.7-1.2,1c-0.3,0.3-0.6,0.6-1,0.8c-0.3,0.3-0.7,0.6-1.1,0.8
				c-0.6,0.5-1.2,0.9-1.9,1.3c-0.7,0.4-1.2,0.9-1.8,1.4c-0.6,0.5-1.2,0.8-1.9,0.9s-1.3,0.3-1.9,0.7c-0.2,0.1-0.5,0.1-0.8,0.1
				c-0.3-0.1-0.6-0.1-0.8-0.2c-0.7-0.3-1.3-0.6-1.9-1c-0.3-0.2-0.6-0.3-0.9-0.4c-0.3,0-0.7-0.2-0.9-0.5c-0.4-0.4-0.8-0.9-1.2-1.3
				s-0.8-0.9-1.3-1.3c-0.5-0.5-0.9-1.2-1.2-1.9c-0.3-0.7-0.7-1.3-1-2c-0.3-0.7-0.6-1.4-0.9-2.2c-0.1-0.3-0.2-0.7-0.2-1
				c-0.1-0.3-0.1-0.7-0.2-1c0-0.8,0-1.5,0-2.2s0-1.5,0.1-2.2s0.3-1.5,0.4-2.4c0.2-0.8,0.4-1.6,0.6-2.4c0-0.1,0.1-0.2,0.2-0.3
				s0.2-0.2,0.2-0.2c0.1-0.3,0.1-0.5,0-0.7s0-0.3,0-0.5c0.5-1.6,1-3.2,1.6-4.6c0.2-0.5,0.3-1,0.6-1.4s0.4-0.9,0.7-1.3
				c0.2-0.4,0.4-0.9,0.6-1.3c0.2-0.5,0.4-0.9,0.7-1.3c0.3-0.7,0.7-1.4,1-2c0.3-0.7,0.7-1.3,1.1-2c0.9-1.8,1.9-3.5,2.8-5.2
				c0.3-0.4,0.5-0.8,0.8-1.3s0.5-0.8,0.8-1.3c0.1-0.1,0.2-0.2,0.2-0.4c0.1-0.2,0.1-0.3,0-0.3c-0.3-0.4-0.6-0.6-1-0.6
				c-0.3,0-0.6,0.1-0.8,0.2c-0.3,0.1-0.6,0.2-0.8,0.3c-0.3-0.4-0.6-0.6-0.9-0.6s-0.8,0.1-1.5,0.3c-0.5,0.2-1.1,0.3-1.8,0.3
				s-1.3-0.1-1.8-0.4c0.2-0.1,0.4-0.2,0.5-0.2c0.1-0.1,0.3-0.1,0.4-0.1c0.5,0,0.9-0.1,1.2-0.3s0.6-0.5,0.8-1
				c0.1-0.1,0.2-0.2,0.3-0.2c0.1,0,0.2-0.1,0.3-0.2c1.1-0.4,2.1-0.8,3.1-1.2c1-0.4,2-0.8,3.1-1.1c0.6-0.2,1.2-0.4,1.7-0.6
				c0.5-0.2,1.1-0.3,1.7-0.6c0.3-0.2,0.6-0.3,0.9-0.5s0.3-0.5,0.1-1c0.8-0.4,1.5-1,2-1.8c0.5-0.8,1-1.4,1.6-2
				c0.4-0.4,0.8-0.9,1.2-1.3s0.8-0.9,1.2-1.3c0.3-0.2,0.6-0.3,0.9-0.2c0.3,0.1,0.6,0.3,0.7,0.6c0.1,0.1,0.3,0.2,0.6,0.3
				c0.3,0,0.6,0.1,0.9,0.1c0.3,0,0.6,0.1,0.9,0.1c0,0-0.1,0.1-0.2,0.2c0.2,0.2,0.5,0.4,0.8,0.7c0.3,0.3,0.7,0.5,1,0.7
				c0.4,0.2,0.6,0.6,0.7,1.1c0,0.1,0.1,0.2,0.2,0.3c0.4,0.3,0.6,0.5,0.6,0.8c-0.1,0.3-0.1,0.6-0.2,0.9c-0.2,0.4-0.4,0.8-0.6,1.1
				c-0.2,0.4-0.3,0.8-0.4,1.2c-0.1,0.2,0,0.4,0.3,0.7c0.7,0.4,1.4,0.9,2.1,1.4c0.7,0.5,1.4,1,2.1,1.4c0.5,0.3,1,0.7,1.3,1.2
				c0.3,0.4,0.6,0.9,1,1.3c0.1,0.1,0.2,0.2,0.2,0.4c0,0.2,0,0.3,0.1,0.6c0.3-0.1,0.4,0,0.5,0.2c0.1,0.2,0.1,0.5,0.2,0.8
				c0.2,0.7,0.4,1.3,0.6,1.9C147.2,43.9,147.4,44.6,147.5,45.2z M144.4,47.9c0-0.4,0.1-0.8,0.2-1.2s0-0.7-0.5-0.8
				c-0.1-0.7-0.2-1.4-0.4-2c-0.1-0.6-0.2-1.2-0.3-1.8c-0.1-0.4-0.2-0.8-0.3-1.1c-0.2-0.3-0.5-0.7-0.9-1v1.5
				c-0.2-0.2-0.4-0.4-0.4-0.5c-0.2-0.4-0.3-0.8-0.4-1.1s-0.3-0.8-0.6-1.1c-0.3-0.3-0.6-0.6-1.1-0.9s-1-0.5-1.5-0.7s-1.1-0.3-1.6-0.3
				s-1,0-1.3,0.2c-0.2,0-0.3,0.2-0.3,0.3c-0.5,0.6-1,1.2-1.5,1.7s-0.9,1.1-1.4,1.7c-0.5,0.7-1.1,1.4-1.6,2.1c-0.5,0.7-1,1.4-1.6,2.1
				c-0.3,0.3-0.5,0.6-0.7,0.8c-0.2,0.3-0.4,0.6-0.6,0.8c-0.3,0.5-0.6,1-0.9,1.4c-0.3,0.5-0.6,0.9-0.9,1.4c-0.4,0.7-0.8,1.4-1.2,2.1
				c-0.4,0.7-0.8,1.4-1.2,2.2c-0.2,0.3-0.4,0.6-0.6,0.9c-0.2,0.3-0.4,0.6-0.5,0.9c-0.4,0.8-0.8,1.6-1.2,2.4s-0.7,1.6-1.1,2.3
				c-0.3,0.5-0.5,1.1-0.7,1.6s-0.4,1.1-0.7,1.7c-0.2,0.3-0.3,0.6-0.3,1c-0.1,0.4-0.4,0.5-1,0.4c-0.1,0.7-0.1,1.3,0,1.9
				c0.1,0.7-0.3,1.2-1,1.6v0.2c-0.1,0.6-0.2,1.2-0.3,1.9s-0.2,1.3-0.3,1.9c-0.1,0.3-0.1,0.6-0.2,0.8c-0.1,0.3-0.1,0.6-0.1,0.8
				c0,0.7,0,1.3,0,1.9s0.1,1.3,0.1,1.9c0.1,0.6,0.4,0.8,0.9,0.7c0.6-0.3,1.2-0.5,1.8-0.7s1.1-0.5,1.7-0.8c0.7-0.4,1.3-0.9,1.9-1.4
				c0.7-0.5,1.3-0.9,1.9-1.4c0.6-0.4,1.2-0.9,1.7-1.4c0.5-0.5,1.1-0.9,1.6-1.4c0.3-0.3,0.5-0.5,0.7-0.8s0.5-0.5,0.7-0.8
				c0-0.2,0.1-0.4,0.3-0.7c0.2-0.2,0.5-0.3,0.7-0.2h0.8c-0.1-0.2-0.1-0.3-0.1-0.4c0-0.1-0.1-0.3-0.1-0.4c0.1-0.1,0.3-0.2,0.4-0.4
				c0.2-0.2,0.4-0.3,0.6-0.5c0.2-0.2,0.4-0.3,0.6-0.4c0.3-0.1,0.4-0.3,0.4-0.4c0-0.6,0.1-0.8,0.4-0.8c0.3,0.1,0.6,0.1,1,0
				c-0.4,0.5-0.6,1-0.8,1.4c0.1,0.1,0.2,0.2,0.2,0.2c0.3-0.2,0.5-0.4,0.8-0.6s0.4-0.4,0.6-0.7c0.4-0.7,0.9-1.2,1.4-1.7
				c0.6-0.5,1-1,1.4-1.7c0.3-0.4,0.6-0.8,1.1-1.1c0.4-0.3,0.7-0.8,0.9-1.3c0.1-0.2,0.2-0.4,0.4-0.7c0.3-0.4,0.6-0.8,0.9-1.3
				s0.6-0.8,0.9-1.3c0.2-0.3,0.3-0.6,0.4-0.9c0.1-0.3,0.3-0.6,0.4-0.9c0.2-0.5,0.4-0.9,0.6-1.4c0.1,0,0.2-0.1,0.6-0.2
				c-0.1-0.1-0.1-0.1-0.1-0.1s-0.1,0-0.1-0.1c0.1-0.2,0.1-0.4,0.1-0.6s0.1-0.4,0.2-0.5c0.1-0.2,0.1-0.4,0.2-0.6
				c0.1-0.2,0.2-0.3,0.3-0.6c0.1-0.6,0.2-1.2,0.4-1.7C144.4,49,144.4,48.4,144.4,47.9z M118.1,36.9c0.6-0.3,1.2-0.6,1.8-0.9
				c-0.4-0.2-0.8-0.1-1.3,0.1C118.3,36.3,118.1,36.6,118.1,36.9z M133.5,65.3c0.4-0.5,0.9-1.1,1.3-1.6c0.5-0.5,0.9-1.1,1.3-1.6
				c0.1,0,0.1,0,0.1,0s0.1,0,0.1,0c-0.1,0.3-0.2,0.6-0.4,0.8c-0.1,0.3-0.3,0.6-0.5,0.8c-0.3,0.3-0.6,0.6-0.9,0.9
				c-0.4,0.3-0.7,0.5-0.9,0.8C133.6,65.5,133.5,65.4,133.5,65.3z M139.8,56.4c0,0.2-0.1,0.6-0.3,1.1s-0.5,1-0.9,1.6
				c-0.4,0.6-0.7,1.1-1.1,1.5s-0.8,0.8-1,0.9c0.6-0.9,1.2-1.7,1.7-2.6C138.7,58.2,139.2,57.3,139.8,56.4z M142.3,47.1
				c0-0.3,0-0.7,0-1c0-0.3,0-0.7,0-1.1c0.1,0,0.2,0.1,0.3,0.1c-0.1,0.3-0.1,0.7-0.1,1s0,0.7-0.1,1L142.3,47.1L142.3,47.1z"/>
			<path d="M180.8,53.2c0.5-0.5,1-1,1.5-1.4s1-0.9,1.5-1.4c0.4-0.4,0.9-0.9,1.3-1.3c0.4-0.4,0.9-0.9,1.3-1.3l0.2,0.2
				c-0.5,0.6-1.1,1.2-1.6,1.8c-0.5,0.6-1.1,1.2-1.7,1.8c0.2,0.2,0.4,0.3,0.5,0.2s0.2-0.2,0.3-0.3c0.1-0.1,0.2-0.3,0.4-0.4
				c0.1-0.1,0.3-0.1,0.4,0c-0.8,0.9-1.6,1.7-2.3,2.6c-0.7,0.9-1.6,1.6-2.5,2.2c-0.2,0.3-0.3,0.5-0.4,0.7s-0.3,0.4-0.4,0.6l-1,1.5
				c-0.2,0.2-0.3,0.3-0.5,0.5s-0.3,0.4-0.5,0.6s-0.3,0.4-0.5,0.7s-0.3,0.4-0.5,0.7c-0.3,0.3-0.5,0.6-0.8,0.9
				c-0.3,0.3-0.5,0.6-0.8,0.8c-0.2,0.2-0.3,0.3-0.4,0.6c-0.2,0.8-0.5,1.4-0.9,1.9c-0.5,0.5-0.9,1-1.3,1.5c-0.4,0.6-0.9,1.2-1.3,1.7
				c-0.4,0.5-0.8,1.1-1.3,1.7c-0.4,0.6-0.9,1.2-1.3,1.7c-0.4,0.5-0.9,1.1-1.3,1.7c-0.6,0.9-1.3,1.7-1.9,2.6c-0.6,0.8-1.3,1.7-2,2.5
				c-0.8,0.9-1.5,1.9-2.2,2.9s-1.6,1.9-2.6,2.7c-0.3,0.3-0.7,0.5-1.1,0.7s-0.8,0.4-1.1,0.7c-0.2,0.1-0.5,0.1-0.9,0
				c-0.4,0-0.8,0-1.2,0c-0.4,0-0.8-0.1-1.2-0.1c-0.1,0-0.2,0-0.3,0s-0.1,0-0.2,0c-1.2-0.9-2.3-1.8-3.2-2.9s-1.4-2.4-1.4-4.1
				c-0.1-0.8,0-1.5,0.1-2.2c0.1-0.7,0.2-1.4,0.3-2.2c0.1-0.8,0.2-1.5,0.3-2.2s0.3-1.5,0.5-2.2c0.4-1.3,0.9-2.7,1.3-4s0.8-2.7,1.3-4
				c0.3-0.9,0.6-1.7,0.9-2.6c0.3-0.8,0.6-1.7,1-2.6c0.4-0.8,0.7-1.6,1.1-2.4c0.4-0.8,0.7-1.7,1.2-2.5c0.8-1.7,1.5-3.3,2.4-5
				c0.8-1.7,1.6-3.3,2.4-5c0.8-1.7,1.6-3.4,2.5-5.1c0.8-1.7,1.7-3.3,2.5-5.1c0.1-0.3,0.2-0.5,0.4-0.8c0.2-0.2,0.4-0.5,0.6-0.7
				c0.3-0.3,0.6-0.5,0.9-0.4c0.3,0.1,0.6,0.2,0.9,0.5c0.2,0.1,0.5,0.2,0.9,0.2c0.3,0,0.5-0.1,0.7-0.1s0.4,0.2,0.4,0.7
				c0.1,0.3,0.4,0.4,0.7,0.4c0.2,0,0.4,0,0.6,0s0.4,0,0.6,0c0.8,0.1,1.4,0.5,1.9,1.1c0.5,0.7,0.8,1.3,1,2.1c0.1,0.7,0.1,1.3-0.1,2
				c-0.2,0.6-0.4,1.2-0.6,1.8c-0.3,0.8-0.6,1.5-1.1,2.2c-0.4,0.7-0.9,1.4-1.3,2.2c-0.4,0.7-0.9,1.4-1.4,2.1s-0.9,1.4-1.4,2.1
				c-0.2,0.3-0.4,0.6-0.7,0.9s-0.4,0.7-0.5,1c-0.1,0.4-0.3,0.7-0.5,1c-0.2,0.3-0.3,0.6-0.2,1.1c0,0.2-0.1,0.3-0.2,0.4
				c-0.7,0.5-1.2,1.2-1.4,2c-0.2,0.8-0.6,1.5-1.1,2.1c-0.4,0.5-0.8,1-1,1.7c-0.2,0.6-0.6,1.2-1,1.8c-0.1,0.2-0.2,0.3-0.2,0.6
				s-0.1,0.4-0.2,0.7c-0.3,0.7-0.6,1.3-0.9,1.9s-0.6,1.2-0.9,1.8c-0.1,0.2-0.2,0.4-0.2,0.6l-1.3,2.6l0.4,0.4c-0.2,0.3-0.3,0.7-0.5,1
				s-0.4,0.7-0.5,1.1c-0.1,0.1-0.1,0.2-0.2,0.2c-0.1,0.1-0.1,0.1-0.1,0.2c0.2,0.5,0.1,0.9-0.2,1.3c-0.3,0.4-0.5,0.8-0.6,1.2
				c-1.2,2.4-1.9,4.8-2.1,7.2c-0.1,0.4-0.1,0.8-0.2,1.1s-0.2,0.8-0.3,1.1c-0.1,0.1-0.1,0.2,0,0.4c0,0.2,0,0.3,0,0.4
				c0.1-0.1,0.2-0.2,0.4-0.2c0.1,0,0.3-0.1,0.4-0.2c1.1-1.3,2.1-2.7,3.2-4c1-1.3,2.1-2.6,3.2-3.9c0.9-1.2,1.9-2.4,2.8-3.6
				c1-1.2,1.9-2.3,2.9-3.4c0.9-1,1.7-2,2.6-3c0.9-1,1.7-1.9,2.6-2.9c0.2-0.3,0.4-0.5,0.6-0.8s0.4-0.5,0.6-0.8
				c0.1,0.1,0.1,0.1,0.2,0.1c0.1,0,0.1,0.1,0.2,0.1c-0.3,0.4-0.6,0.8-0.9,1.2c-0.3,0.4-0.6,0.8-0.9,1.1l0.2,0.2
				c0.2-0.2,0.4-0.3,0.7-0.4c0.2-0.1,0.4-0.3,0.6-0.5c0.3-0.4,0.6-0.8,0.9-1.2s0.5-0.8,0.8-1.2c0.3-0.3,0.6-0.6,0.9-0.9
				c0.3-0.3,0.6-0.5,0.9-0.8c0.4-0.4,0.8-0.8,1.1-1.3s0.7-0.8,1.1-1.3c0.3-0.3,0.5-0.6,0.7-0.8C180.4,53.7,180.6,53.5,180.8,53.2z
				 M154.2,62.9c-0.2,0-0.3,0-0.3-0.1c-0.4,0.4-0.7,0.9-0.9,1.6c-0.2,0.7-0.2,1.2,0,1.5c0.2-0.5,0.4-1.1,0.6-1.5
				C153.8,63.8,154,63.3,154.2,62.9z M155,59.4c0.1,0.2,0.2,0.3,0.4,0.3c0.2,0.1,0.3-0.1,0.4-0.4c0.2-0.4,0.3-0.9,0.5-1.4
				s0.3-0.9,0.5-1.4c0-0.1,0-0.1-0.1-0.2s-0.1-0.1-0.2-0.2c-0.3,0.6-0.5,1.2-0.8,1.7C155.6,58.3,155.3,58.8,155,59.4z M170.4,65.6
				c0.3-0.5,0.6-1,0.9-1.5c0.3-0.5,0.8-0.7,1.6-0.8c-0.3-0.2-0.5-0.4-0.6-0.5c-0.2-0.1-0.4-0.1-0.6,0.2c-0.3,0.3-0.5,0.5-0.7,0.8
				c-0.2,0.2-0.4,0.5-0.6,0.8C169.7,65,169.8,65.3,170.4,65.6z M176.2,57.5c-0.3,0.3-0.6,0.7-0.9,1c-0.3,0.3-0.6,0.7-1,1l-0.2-0.2
				c0.3-0.3,0.6-0.7,0.9-1c0.3-0.3,0.6-0.7,1-1L176.2,57.5z M178.7,54.2c-0.1,0.7-0.4,1.2-0.8,1.5c-0.4,0.4-0.9,0.8-1.3,1.1
				c-0.1,0-0.2-0.1-0.2-0.2c0.4-0.4,0.8-0.8,1.1-1.3C177.9,55,178.3,54.6,178.7,54.2z M183.7,85.5c-0.4-0.1-0.7-0.2-1-0.3
				s-0.6-0.2-0.9-0.3c-0.6-0.4-1.1-1-1.4-1.7c-0.3-0.7-0.6-1.4-1-2.1c-0.5-1.2-0.8-2.4-0.7-3.6c0.1-1.2,0.1-2.4,0.2-3.7
				c0.3-3.5,1.2-6.9,2.6-10.3c0.4-0.9,0.7-1.8,1-2.8c0.3-0.9,0.6-1.8,1-2.8c0.4-1.2,0.9-2.5,1.4-3.7s1-2.5,1.6-3.7
				c0.1-0.1,0.1-0.3,0-0.4c0-0.2,0-0.4,0-0.6c0.1-0.2,0.2-0.5,0.4-0.7c0.2-0.3,0.3-0.5,0.5-0.8c0.1-0.2,0.2-0.4,0.2-0.5
				c0.1-0.2,0.2-0.4,0.2-0.5c-0.2,0-0.4,0-0.5,0.1c-0.3,0-0.8,0-1.3,0.2c-0.1-0.1-0.1-0.2-0.1-0.4l1-0.2c-0.2-0.4-0.1-0.7,0.2-0.9
				s0.5-0.3,0.7-0.6c0.5-0.4,1-0.9,1.5-1.3s0.8-1,1-1.6c0.3-1,1-1.5,1.9-1.5c0.2,0,0.3,0,0.4-0.1c0.1-0.1,0.3-0.2,0.4-0.2
				c0.2,0,0.4,0,0.6-0.1c0.2,0,0.3,0,0.4,0.1c0.3,0.1,0.6,0.3,0.9,0.5c0.3,0.2,0.6,0.4,0.9,0.6c0.3,0.2,0.5,0.3,0.8,0.5
				s0.5,0.3,0.7,0.5c0.4,0.4,0.9,0.8,1.3,1.3c0.4,0.4,0.8,0.8,1.1,1.3c0.2,0.4,0.3,0.9,0.3,1.4c0,0.5-0.1,1-0.2,1.4
				c-0.1,0.6-0.3,1.2-0.6,1.7c-0.3,0.5-0.6,1-1,1.5c-0.3,0.6-0.7,1.1-1.1,1.6c-0.4,0.5-0.7,1.1-0.8,1.8c-0.1,0.2-0.2,0.3-0.4,0.4
				c-0.2,0.1-0.5,0.3-0.8,0.4c-0.9,1.8-1.8,3.7-2.8,5.5c-0.9,1.8-1.8,3.6-2.8,5.5l-0.1-0.1c0,0.4,0,0.8-0.1,1
				c-0.1,0.4-0.3,0.7-0.5,1c-0.2,0.3-0.2,0.6-0.1,1.1l-0.1,0.1c-0.6,0.4-1,0.9-0.9,1.5c0,0.6-0.1,1.2-0.4,1.8
				c-0.4,0.8-0.7,1.6-0.8,2.5c-0.1,0.9-0.3,1.8-0.6,2.7c-0.2,0.4-0.3,0.8-0.3,1.3s-0.1,0.8-0.2,1.3s-0.1,0.8-0.2,1.3
				s-0.3,0.8-0.6,1.1c-0.6,0.6-0.8,1.3-0.7,2.1c0,0.2-0.1,0.3-0.2,0.5C183.8,85.3,183.8,85.4,183.7,85.5z M180.8,53.1
				c-0.2,0.1-0.4,0.2-0.6,0.4s-0.5,0.3-0.7,0.4c-0.2,0.1-0.4,0.2-0.7,0.3c0.6-0.6,1.2-1.2,1.7-1.7c0.5-0.5,1.1-1.1,1.6-1.7
				c0.1,0,0.1,0,0.2,0.1c-0.2,0.3-0.4,0.5-0.6,0.7c-0.2,0.2-0.4,0.5-0.6,0.7C180.8,52.5,180.8,52.7,180.8,53.1z"/>
			<path d="M237.5,10.3c0.2,0.3,0.3,0.6,0.3,1c0,0.4,0,0.8-0.1,1.1c-0.1,1.1-0.3,2.1-0.8,3s-1.1,1.7-1.9,2.5
				c-0.2,0.2-0.4,0.4-0.6,0.7c-0.3,0.3-0.5,0.7-0.7,1c-0.2,0.3-0.5,0.6-1,0.7c-0.1,0-0.2,0-0.2,0.2s-0.1,0.2-0.2,0.3
				c-0.4,0.6-0.8,1.2-1.2,1.8c-0.4,0.6-0.8,1.2-1.1,1.8c-0.1,0-0.1,0.1-0.1,0.2s0,0.2-0.1,0.3c-0.1,0.2-0.1,0.3-0.2,0.5
				s-0.1,0.3-0.2,0.3c-0.9,0.3-1.4,0.8-1.6,1.5s-0.4,1.4-0.6,2c-0.1,0.3-0.2,0.4-0.2,0.4c-0.4,0.4-0.9,0.8-1.4,1.1
				c-0.1,0-0.1,0.1-0.1,0.1c0,0,0,0.1-0.1,0.1c-0.3,0.5-0.5,1.1-0.7,1.6c-0.2,0.5-0.5,1.1-0.7,1.7c-0.1,0.1-0.1,0.2-0.2,0.3
				c-0.1,0.1-0.2,0.2-0.3,0.3c-0.3,0.4-0.5,0.8-0.6,1.1c-0.1,0.2-0.2,0.3-0.2,0.5s-0.1,0.3-0.2,0.4c-0.2,0.4-0.4,0.8-0.6,1.3
				s-0.4,0.8-0.6,1.3c-0.1,0.1-0.1,0.2-0.1,0.3c0,0.1-0.1,0.2-0.1,0.2c-0.8,0.2-0.9,0.7-0.2,1.3c-0.3,0.1-0.5,0.2-0.6,0.4
				s-0.1,0.4-0.2,0.7c0,0.4-0.1,0.8-0.4,1.1s-0.5,0.7-0.7,1c-0.1,0.2-0.2,0.3-0.2,0.5s-0.1,0.3-0.2,0.5s-0.1,0.3-0.1,0.5
				s-0.1,0.4-0.2,0.6c-0.2,0.3-0.3,0.5-0.5,0.7s-0.2,0.5-0.1,0.9c0.1,0.3,0,0.6-0.2,0.9c-0.3,0.3-0.5,0.6-0.7,1
				c-0.1,0.3-0.2,0.5-0.3,0.7c-0.1,0.2-0.2,0.5-0.3,0.7c-0.1,0.3-0.3,0.6-0.6,0.7c-0.1,0.1-0.2,0.2-0.4,0.4s-0.4,0.3-0.6,0.4
				c0.2,0.1,0.3,0.2,0.4,0.2c0.1,0.1,0.3,0.1,0.5,0.2c-0.2,0.1-0.3,0.2-0.5,0.3s-0.3,0.2-0.4,0.3c0.1,0.2,0.1,0.5,0,0.9
				s-0.3,0.7-0.6,0.8c-0.3,0.2-0.4,0.5-0.5,1c-0.1,0.4,0.1,0.8,0.3,1.1c-0.2,0.3-0.3,0.6-0.4,0.9c-0.1,0.3-0.3,0.6-0.4,0.8
				c-0.4,0.1-0.7,0.2-1.1,0.2c-0.3,0-0.6,0.1-0.9,0.2c-0.1,0-0.2,0.1-0.3,0.2c-0.1,0.2-0.1,0.3,0,0.3c0.1,0.1,0.2,0.2,0.3,0.2
				c0.1,0.1,0.2,0.1,0.3,0.2c0.1,0,0.2,0,0.4-0.1c0.1-0.1,0.3-0.1,0.5,0c-0.3,0.5-0.6,1-0.9,1.5c0,0.3,0,0.5-0.1,0.8
				s-0.3,0.5-0.8,0.6c0.2,0.2,0.4,0.3,0.6,0.6c-0.2,0.3-0.4,1-0.6,1.9c-0.3,1-0.5,2.1-0.8,3.4s-0.6,2.7-0.9,4.1
				c-0.3,1.4-0.5,2.8-0.7,4s-0.3,2.3-0.4,3.1s-0.1,1.4,0,1.5l0.2,6.6l-0.2,0.1l0.1,0.5c0,0.4,0,0.8,0.1,1c0.1,0.3,0.2,0.7,0.3,1.1
				c0.1,0.4,0.2,0.8,0.2,1.2s0,0.7,0,1c0,0.3-0.1,0.4-0.3,0.4c-0.4-0.1-0.8-0.1-1.1-0.2s-0.6-0.3-0.8-0.7c0-0.1-0.1-0.2-0.2-0.2
				c-1-0.4-1.7-1.1-2.2-2c-0.5-0.9-1-1.8-1.4-2.8c-0.1-0.3-0.2-0.7-0.3-1c-0.1-0.3-0.2-0.7-0.3-1h-0.1c0-0.2,0-0.3-0.1-0.3
				c-0.1-0.2-0.1-0.4,0-0.7s0.1-0.4,0.2-0.7c-0.4,0.1-0.6,0-0.6-0.4c0-0.4,0-0.7-0.1-1c-0.2-1.7-0.3-3.5-0.3-5.2
				c0-1.7,0.1-3.5,0.3-5.2c0.1-1.1,0.2-2.1,0.4-3.2s0.3-2.1,0.5-3.1c0.3-1.3,0.5-2.7,0.8-4s0.6-2.6,0.8-3.9h0.3c0,0.3,0,0.7,0,1
				s0,0.7-0.1,1c-0.1,0.4-0.2,0.7-0.3,1.1c-0.1,0.3-0.2,0.7-0.3,1.1c-0.2,0.7-0.3,1.4-0.4,2c-0.1,0.7-0.2,1.3-0.4,2
				c-0.2,0.9-0.3,1.8-0.5,2.8c-0.2,0.9-0.3,1.8-0.5,2.8c-0.1,0.3-0.1,0.5-0.1,0.8s0,0.5,0,0.8c-0.1,0.2-0.1,0.4-0.2,0.7
				s-0.1,0.4-0.1,0.7c0,0.2,0,0.3,0.1,0.5c0.1,0.2,0.1,0.3,0.2,0.5h0.3c0.1-0.7,0.2-1.4,0.3-2c0.1-0.7,0.2-1.3,0.3-2h0.3v2.2
				c0,0.2,0,0.3,0,0.5s0,0.4,0,0.5c0,0.3,0,0.5,0,0.8s-0.1,0.5-0.4,0.8c-0.1,0.1-0.2,0.3-0.2,0.7c0.1,0.7,0.1,1.4,0.1,2
				s0.1,1.3,0.1,2c-0.3-0.1-0.6-0.2-0.9-0.3l-0.2,0.2c0.2,0.2,0.4,0.4,0.6,0.6c0.2,0.2,0.4,0.4,0.7,0.7c-0.2,0.1-0.4,0.2-0.5,0.2
				c-0.1,0-0.3,0.1-0.5,0.2c0.4,0.2,0.7,0.5,0.9,0.7c0.1,0.3,0.1,0.6,0,1c0,0.1,0.1,0.2,0.2,0.4s0.2,0.3,0.3,0.4
				c0.1-0.1,0.1-0.2,0.2-0.4c0.1-0.1,0.1-0.3,0.1-0.4c0-0.7-0.1-1.3-0.1-1.9c0-0.7-0.1-1.3-0.1-1.9c0-0.2,0-0.3,0.1-0.5
				c0.1-0.2,0.1-0.3,0.1-0.4c0.1-0.2,0.1-0.3,0-0.5c0-0.2,0-0.3,0-0.4c0-0.2,0-0.3,0-0.5c0-0.2,0-0.3,0-0.5c0.1-0.8,0.1-1.5,0.1-2.3
				c0-0.8,0.1-1.6,0.2-2.3c0.1-0.5,0.2-0.9,0.4-1.4c0.1-0.4,0.2-0.9,0.3-1.4c0.1-0.6,0.2-1.2,0.2-1.8s0.1-1.3,0.2-2.1
				c0.2,0.1,0.4,0.1,0.7,0.1c0.2,0,0.5,0,0.7,0.1c0.1-0.2,0.1-0.3,0.1-0.5c0-0.2,0-0.3,0.1-0.6c-0.1,0-0.1,0-0.1,0s-0.1,0-0.1,0
				c-0.1,0.1-0.2,0.2-0.3,0.2c-0.1,0.1-0.2,0.1-0.3,0.2c-0.3-0.7-0.3-1.3-0.1-1.8c0.1-0.6,0.5-0.8,0.9-0.8v1.6h0.2
				c0.1-0.3,0.2-0.6,0.4-0.9c0.1-0.3,0.3-0.7,0.4-1.1c-0.5-0.2-1-0.3-1.5-0.5c0.1-0.2,0.3-0.2,0.5-0.2c0.2,0,0.4,0.1,0.6,0.1
				c0.2,0,0.4,0,0.5-0.1s0.1-0.4,0-0.8c0.2-0.1,0.4-0.2,0.6-0.3c0.2-0.1,0.4-0.2,0.7-0.3c-0.2-0.1-0.4-0.1-0.6-0.2
				c-0.4,0.3-0.8,0.3-1.1,0.1s-0.6-0.4-0.9-0.5c-0.3,0.4-0.5,0.7-0.6,0.9c0.1,0.1,0.1,0.1,0.2,0.1c-0.1,0.3-0.2,0.5-0.2,0.7
				s-0.1,0.5-0.2,0.7c-0.1,0.1-0.1,0.2-0.1,0.4c0,0.2-0.1,0.3-0.1,0.4l-0.5,2.4c-0.2,0.6-0.4,1.2-0.5,1.7s-0.3,1.1-0.4,1.6
				c-0.1,0.3-0.1,0.5,0,0.8s0.1,0.5,0.1,0.8c-0.1,0.1-0.1,0.2-0.2,0.4s-0.1,0.3-0.2,0.4c-0.2-0.3-0.3-0.6-0.3-0.8
				c0.1-0.8,0.2-1.5,0.3-2.2s0.2-1.5,0.4-2.2c0.2-1,0.4-1.9,0.7-2.9c0.2-0.9,0.5-1.9,0.8-2.9c0.1-0.2,0.1-0.5,0.1-0.7
				s0.1-0.4,0.2-0.6c0.1-0.1,0.1-0.2,0.2-0.2c0.1-0.1,0.2-0.1,0.3-0.2c0.1,0.1,0.1,0.1,0.1,0.1s0.1,0,0.1,0.1
				c-0.1,0.2-0.1,0.5-0.2,0.9c0.4,0.1,0.7,0.2,0.9,0.2c0.2-0.7,0.4-1.3,0.6-2c0.3,0.2,0.7,0.3,1.2,0.5c0.8-0.4,0.7-1.2-0.3-2.2
				c-0.1,0.1-0.1,0.2-0.2,0.2c-0.1,0-0.1,0.1-0.1,0.1c0,0.4-0.1,0.7-0.4,0.8c-0.2,0.1-0.5,0.1-0.9,0c-0.6-0.1-0.8-0.5-0.6-1.2
				c0.3-0.8,0.7-1.6,1-2.4c0.4-0.8,0.7-1.6,1-2.4c0.1-0.2,0.2-0.3,0.2-0.5c0-0.2,0-0.3,0-0.3c0.3-0.1,0.5-0.1,0.6-0.1s0.3,0,0.5-0.1
				c-0.1-0.1-0.2-0.2-0.3-0.4c-0.1-0.2-0.2-0.3-0.3-0.6c0.2-0.2,0.3-0.4,0.3-0.7c0.1-0.3,0.1-0.5,0.2-0.8s0.1-0.5,0.2-0.7
				s0.3-0.4,0.6-0.6c0.1-0.4,0.2-0.9,0.3-1.3s0.2-0.9,0.4-1.3c0.3-0.6,0.6-1.2,0.9-1.8c0.3-0.6,0.6-1.3,0.9-1.9
				c0.2-0.3,0.3-0.7,0.4-1c0.1-0.3,0.2-0.7,0.3-1.1c0.2-0.3,0.4-0.5,0.6-0.6l-0.7,2c0.1,0,0.1,0,0.1,0c0,0,0.1,0,0.2,0
				c0.1-0.1,0.1-0.2,0.2-0.3s0.1-0.2,0.2-0.3c0.1-0.3,0.2-0.5,0.4-0.8c0.2-0.3,0.3-0.5,0.4-0.8c0.1-0.2,0.1-0.4,0.1-0.8h-0.6
				l-0.2-0.2c0.2-0.1,0.4-0.2,0.6-0.4c0.2-0.1,0.3-0.3,0.5-0.4c0.2-0.2,0.4-0.3,0.6-0.6c-0.2,0-0.4-0.2-0.8-0.5
				c0.2-0.3,0.4-0.7,0.6-1.1c0.2-0.4,0.4-0.8,0.7-1.3c0.1,0.1,0.2,0.2,0.2,0.2c0.1,0,0.1,0.1,0.2,0.2c-0.1-0.5-0.1-1.1-0.1-1.5
				s0.4-0.8,1.2-1c-0.3-0.4-0.4-0.8-0.2-1.4s0.5-1.4,1.1-2.7c-0.2,0.2-0.4,0.3-0.6,0.5s-0.4,0.3-0.5,0.5c-0.6,1.2-1.2,2.4-1.8,3.6
				s-1.1,2.4-1.8,3.7c-0.2,0.4-0.4,0.7-0.7,1s-0.4,0.6-0.6,0.9c-0.3,0.5-0.5,1-0.6,1.5s-0.4,1-0.6,1.5c-0.1,0.2-0.2,0.3-0.3,0.5
				s-0.2,0.3-0.2,0.6c-0.2,0.4-0.4,0.9-0.5,1.4s-0.3,1.1-0.5,1.7c-0.1-0.3-0.1-0.5-0.2-0.6c-0.1-0.1-0.1-0.3,0-0.4
				c0.2-0.4,0.3-0.8,0.5-1.2s0.3-0.8,0.5-1.1c0.5-1.1,1-2.3,1.5-3.4s1-2.3,1.5-3.4c0.5-1.1,1-2.2,1.5-3.2c0.5-1.1,1.1-2.1,1.6-3.2
				c0.9-1.8,1.8-3.6,2.7-5.3s1.8-3.5,2.7-5.2c0.8-1.5,1.7-3,2.6-4.4c0.9-1.4,1.8-2.8,2.8-4.2c0.3-0.5,0.6-0.9,1.1-1.2
				c0.4-0.3,0.9-0.5,1.4-0.4c0.4,0,0.8,0,1.3,0c0.5,0,0.9,0.2,1.2,0.7c0.1,0.2,0.3,0.3,0.6,0.3c0.3,0,0.6,0.1,0.9,0.2
				c0.8,0.4,1.5,0.8,2.2,1.2S237.1,9.6,237.5,10.3z M201.8,86.3l1.1,0.1l-0.1-0.5c-0.2,0.1-0.4,0.2-0.5,0.2S202,86.1,201.8,86.3
				L201.8,86.3z M204.3,56.7c-0.2,0.5-0.4,1.1-0.6,1.7l-0.3-0.2c0.2-0.5,0.3-1.1,0.5-1.6s0.4-1.1,0.5-1.7l0.3,0.2
				C204.6,55.6,204.4,56.1,204.3,56.7z M207,48.6c-0.3,1-0.6,2-1,3c-0.3,1-0.7,2-1.1,3c-0.1-0.1-0.1-0.1-0.2-0.1s-0.1,0-0.2-0.1
				c0.4-1,0.7-2,1.1-3c0.4-1,0.7-2,1.1-3c0.1,0,0.1,0.1,0.1,0.1C206.9,48.5,207,48.5,207,48.6z M207.3,61c0-0.1,0-0.2,0-0.2
				c0-0.1,0-0.1,0-0.2c0-0.3-0.1-0.5-0.2-0.7c0-0.1-0.1-0.1-0.2-0.1c-0.1,0-0.2,0-0.2,0.1c-0.1,0.1-0.1,0.2-0.2,0.4
				c-0.1,0.2-0.1,0.3,0,0.5C206.7,60.8,206.9,60.9,207.3,61z M210.2,55.2c0.1-0.4,0.2-0.7,0.4-1c0.1-0.3,0.3-0.6,0.4-0.8l-0.2-0.2
				c-0.2,0.2-0.4,0.3-0.6,0.5c-0.2,0.2-0.5,0.3-0.7,0.6c0-0.1,0-0.2-0.1-0.4c-0.1-0.1-0.1-0.3-0.1-0.4v-2.3
				c-0.4,0.1-0.6,0.4-0.6,0.9c0,0.2-0.1,0.3-0.2,0.5c-0.2,0.2-0.3,0.3-0.4,0.4s-0.2,0.2-0.3,0.2c-0.1,0.1-0.2,0.1-0.3,0.2
				c0,0.1,0,0.1,0.1,0.2c0.2,0.1,0.5,0.1,1,0.1V55c-0.1-0.1-0.2-0.2-0.3-0.3s-0.2-0.2-0.3-0.4c-0.1-0.1-0.2-0.2-0.4-0.2
				s-0.3,0-0.5,0.1c0.1,0.3,0.2,0.6,0.2,0.8c0.1,0.3,0.1,0.5,0.2,0.8c1.1,0.1,1.8-0.3,2-1.2c0.1,0.1,0.2,0.2,0.3,0.2
				C209.9,55,210,55.1,210.2,55.2z M208.6,44c0.1,0.2,0.1,0.4,0,0.8c-0.1,0.3-0.1,0.7-0.3,1.1c-0.1,0.4-0.3,0.8-0.5,1.2
				s-0.4,0.7-0.5,0.9c-0.1,0-0.2,0-0.2-0.1c0.3-0.6,0.5-1.2,0.8-1.9C208,45.4,208.3,44.7,208.6,44z M212.1,51.1
				c0.3-0.7,0.6-1.4,0.9-2.1c0.3-0.7,0.6-1.4,0.9-2.2c0.1-0.1,0.1-0.2,0-0.4c-0.1-0.2-0.1-0.3-0.2-0.4h-0.2c-0.2,0-0.2,0-0.2,0.2
				c-0.2,0.5-0.4,1.1-0.6,1.6c-0.2,0.5-0.4,1-0.6,1.6c-0.4,0-0.8-0.1-0.9-0.3c-0.2-0.2-0.2-0.5,0-1c0.2-0.5,0.1-0.8-0.3-0.9
				c-0.1,0.2-0.2,0.4-0.3,0.6c-0.1,0.2-0.2,0.3-0.3,0.6c-0.1,0.3-0.2,0.5-0.4,0.8s-0.3,0.5-0.4,0.8c-0.1,0.2-0.1,0.4,0,0.7
				c0,0.2,0,0.5,0,0.7c0.4,0.2,0.7,0.2,0.9-0.2c0.2-0.3,0.4-0.6,0.8-0.8c0.1,0.2,0.2,0.4,0.2,0.6s0.1,0.4,0.2,0.7
				c0.1-0.1,0.2-0.2,0.3-0.2C211.9,51.3,212,51.2,212.1,51.1z M211.4,56.9c0.2-0.2,0.4-0.4,0.6-0.6s0.4-0.4,0.6-0.7l-0.2-0.2
				c-0.1-0.1-0.2-0.1-0.3,0c-0.2,0.2-0.3,0.3-0.5,0.4s-0.3,0.3-0.5,0.4c-0.1,0.2-0.1,0.4,0,0.5c0.1,0.1,0.1,0.2,0.2,0.2
				C211.4,57,211.4,57,211.4,56.9z M211.6,45.1c-0.1,0.1-0.1,0.2,0,0.3c0,0.1,0,0.2,0,0.3c0.1,0,0.1,0,0.1,0s0.1,0,0.1,0
				c0.1-0.2,0.1-0.3,0.2-0.4c0.1-0.1,0.2-0.2,0.4-0.2c0.1,0,0.2-0.1,0.3-0.2c0.1-0.1,0.1-0.3,0-0.6c-0.1-0.2,0-0.4,0.1-0.6
				c0.1-0.2,0.3-0.4,0.4-0.5c0.5-0.2,0.7-0.4,0.6-0.8c-0.1-0.3,0-0.7,0.1-0.9c0.1-0.1,0-0.2,0-0.3s-0.1-0.2-0.2-0.3l-0.5,0.5
				c-0.1,0.1-0.1,0.2-0.1,0.4c0,0.2-0.1,0.3-0.2,0.4c-0.3,0.5-0.5,1-0.7,1.4C212,44.1,211.8,44.6,211.6,45.1z M213,54.1
				c0.6-0.1,0.8-0.4,0.6-1.1c-0.2,0.1-0.4,0.1-0.7,0.1c-0.2,0-0.5,0.1-0.9,0.2c0,0.1,0,0.2,0,0.4c0,0.2-0.1,0.4-0.1,0.7
				c0.2-0.1,0.4-0.2,0.6-0.2C212.6,54.1,212.8,54.1,213,54.1z M214.8,48.3c-0.1,0-0.1-0.1-0.1-0.1s-0.1,0-0.1-0.1
				c-0.2,0.2-0.3,0.4-0.5,0.6c-0.2,0.2-0.3,0.4-0.4,0.7c0,0.1,0,0.1,0.1,0.2c0.1,0.1,0.1,0.2,0.2,0.3c0.1-0.1,0.2-0.2,0.3-0.2
				s0.2-0.1,0.2-0.2L214.8,48.3z M214.6,47.8c0.5,0,0.9-0.4,1.3-1.1s0.6-1.4,0.4-2c-0.3,0.6-0.6,1.1-0.9,1.6
				C215.2,46.8,214.9,47.3,214.6,47.8z M216.8,43.5c0.7-0.4,1.1-0.7,1.1-0.8c0-0.1-0.2-0.4-0.6-0.7c-0.1,0.3-0.2,0.5-0.2,0.8
				C217,43,216.9,43.2,216.8,43.5z"/>
			<path d="M224.1,99.2c0.2-0.1,0.3-0.2,0.4-0.3s0.2-0.2,0.3-0.3c0.2-0.2,0.2-0.2,0.2-0.2c-0.1-0.5,0.1-1,0.5-1.3s0.6-0.7,0.7-1.2
				c0.1-0.4,0.4-0.8,0.9-1.1c0.5-0.3,0.8-0.8,0.9-1.6c0.1-0.3,0.4-0.8,0.8-1.5c0.4-0.8,0.7-1.3,0.8-1.5c0.4-0.8,0.7-1.6,0.9-2.5
				c0.2-0.8,0.4-1.7,0.6-2.6c0.2-1,0.8-1.6,1.8-1.8h0.2c0.7-0.6,1.4-0.8,2-0.5c0.6,0.3,1.3,0.5,2,0.6c0.4,0.1,0.8,0.3,1.2,0.5
				c0.4,0.2,0.7,0.6,0.9,1.1c0.1,0.1,0.1,0.1,0.1,0.2s0.1,0.1,0.2,0.2c0.4,0.3,0.6,0.8,0.8,1.3s0.1,1-0.1,1.5
				c-0.1,0.1-0.2,0.2-0.3,0.4c-0.8,0.3-1.4,0.9-1.8,1.6c-0.1,0.2-0.2,0.4-0.4,0.7c-0.2,0.3-0.4,0.6-0.6,0.9
				c-0.2,0.3-0.5,0.6-0.7,0.9s-0.4,0.5-0.4,0.6c-0.3,0.4-0.7,0.8-1.2,1.2c-0.5,0.4-0.9,0.8-1.2,1.3c-0.1,0.1-0.2,0.2-0.3,0.3
				c-0.1,0.1-0.2,0.1-0.3,0.1c-0.6,0.2-1,0.5-1.1,1.1c-0.4,1-1,1.6-1.9,1.6c-0.1,0.1-0.2,0.1-0.2,0.1s-0.1,0-0.2,0.1
				c-0.3,0.4-0.7,0.6-1.1,0.7s-0.8,0.2-1.3,0.3c-0.3,0.1-0.6,0.1-0.9,0.1c-0.3-0.1-0.5-0.1-0.8-0.2c-0.2-0.1-0.4-0.2-0.6-0.2
				C224.7,99.4,224.4,99.3,224.1,99.2z"/>
			<path d="M354,90c0.2-0.3,0.4-0.6,0.6-0.8c-0.1,0.7-0.2,1.3-0.3,1.9c-0.1,0.6-0.3,1.2-0.6,1.7c-0.4,0.4-0.7,0.9-1.1,1.3
				s-0.7,0.8-1.2,1.1c-0.3,0.3-0.7,0.5-1.1,0.7c-0.4,0.3-0.8,0.5-1.2,0.8s-0.7,0.4-1.1,0.6c-0.4,0.2-0.8,0.3-1.2,0.4
				s-0.8,0.2-1.2,0.2c-0.9,0.1-1.8,0.2-2.6,0.3s-1.7,0.2-2.6,0.2c-0.1,0.1-0.2,0.1-0.4,0c-0.2-0.1-0.3-0.1-0.4,0
				c-0.3-0.1-0.6-0.1-0.7,0.1c-0.1,0.3-0.3,0.4-0.5,0.4s-0.5-0.1-0.8-0.2s-0.7-0.2-1.1-0.2c-0.4,0-0.8-0.3-1.1-0.7l-0.2-0.1
				c-0.2,0.2-0.4,0.2-0.6,0.2c-0.2-0.1-0.4-0.1-0.6-0.2c-0.2-0.1-0.4-0.2-0.6-0.3s-0.4-0.2-0.6-0.2c-0.3,0.1-0.6,0-0.9-0.2
				c-0.3-0.2-0.6-0.3-0.9-0.5c-1.6-0.8-3.1-1.7-4.6-2.6s-3-2-4.3-3.2c-0.8-0.7-1.5-1.3-2.3-1.9c-0.8-0.6-1.6-1.2-2.3-1.9
				c-1.6-1.5-3.1-3-4.5-4.5c-1.5-1.5-2.9-3.1-4.3-4.7c-0.5-0.7-1.1-1.3-1.6-2c-0.5-0.7-1-1.4-1.6-2.1c-0.5-0.8-1.1-1.5-1.5-2.3
				c-0.5-0.8-1-1.5-1.5-2.3c-0.8-1.3-1.5-2.6-2.3-3.9s-1.5-2.6-2.2-3.9c-0.2-0.4-0.4-0.7-0.6-1.1c-0.2-0.3-0.3-0.7-0.5-1.1
				c-0.2-0.3-0.5-0.9-0.9-1.8c-0.4-0.9-0.8-1.9-1.2-2.9l-0.1,0.3c0-0.1-0.1,0-0.2,0.3c-0.1,0.3-0.2,0.4-0.3,0.3c0,0.1,0,0.2,0.3,0.2
				c0.2,0.1,0.3,0.1,0.3,0.2c-0.1,0.3-0.2,0.5-0.3,0.7c-0.1,0.2-0.2,0.4-0.3,0.7c0,0.1-0.1,0.1-0.4,0.2c-0.1,0.1-0.2,0.2-0.4,0.4
				c-0.1,0.2-0.3,0.3-0.5,0.5l0.6,0.2c0,0.1,0.1,0.1,0.2,0.2s0.1,0.2,0,0.2c0,0.3-0.1,0.4-0.3,0.4c-0.4-0.1-0.6,0-0.7,0.2
				c-0.1,0.2-0.2,0.4-0.3,0.7c-0.1,0.3-0.2,0.7-0.4,1.1c-0.2,0.4-0.2,0.7-0.1,1.1c0.1,0.4,0,0.8-0.2,1.1c-0.2,0.3-0.4,0.6-0.4,1
				c0,0.1-0.1,0.2-0.2,0.2c-0.1,0-0.3,0.1-0.4,0.1c-0.1,0-0.2,0-0.3-0.1c-0.1-0.1-0.2-0.1-0.4-0.2l-0.2,2.5c0.1,0.1,0.2,0.1,0.3,0.1
				c0.1,0,0.3,0.1,0.6,0.1c-0.6,0.2-1.1,0.5-1.4,0.8c-0.3,0.3-0.2,0.8,0.2,1.4c-0.6,0.4-1,0.9-1.1,1.4c-0.1,0.5,0.1,1,0.6,1.3h-0.5
				c-0.1,0-0.2,0-0.4,0c-0.1,0-0.3,0-0.4,0c0,0.1,0.1,0.2,0.1,0.3s0,0.2,0.2,0.3c0.3,0.4,0.2,0.9-0.1,1.3l-0.2-0.4l-0.2-0.3
				l-0.2,0.2l-0.4,1.5h0.7c0,0.3,0.1,0.5,0.1,0.8s0,0.5,0,0.8c0,0.2-0.2,0.4-0.6,0.7c-0.1,0.1-0.3,0.2-0.5,0.2s-0.4,0-0.5,0.1V78
				h1.1c0.1,0.2,0.2,0.4,0.2,0.6s0.1,0.4,0.2,0.5c0.1,0.4,0,0.6-0.2,0.8c-0.2,0.1-0.4,0.3-0.6,0.4l-0.6,0.4l0.6,0.7l-0.4,0.2
				l0.3,1.2v0.3c-0.3,0.2-0.4,0.3-0.4,0.5s0,0.4-0.1,0.6c0,0.5,0,1,0.2,1.4c0,0.2,0,0.5-0.1,0.9l-0.2,1.9c-0.7-0.1-1.3-0.3-1.7-0.7
				c-0.4-0.4-0.8-0.9-1-1.5c-0.2-0.5-0.4-1.1-0.6-1.6s-0.4-1-0.5-1.6c-0.1-0.8-0.2-1.5-0.3-2.2s-0.2-1.4-0.2-2.2
				c0-0.9,0-1.8,0.1-2.8c0.1-0.9,0.2-1.9,0.3-2.8c0-0.3,0-0.5,0-0.8s0-0.5,0.2-0.8c0.3-0.8,0.4-1.6,0.5-2.4s0.2-1.7,0.5-2.5
				c0.3-0.9,0.5-1.8,0.6-2.7c0.1-0.9,0.3-1.8,0.5-2.7c0.1-0.3,0.2-0.7,0.3-1s0.2-0.7,0.3-1c0-0.3,0.1-0.5,0.2-0.7
				c0-0.2,0.1-0.4,0.2-0.7s0.2-0.5,0.2-0.7s0.1-0.4,0.2-0.7c0-0.1,0-0.3,0-0.4s0-0.3-0.2-0.4c-0.4-0.3-0.9-0.4-1.3-0.4
				c-0.5,0.1-1,0.1-1.4,0.2s-0.9,0.1-1.3,0.1c-0.6,0.1-1.2,0.1-1.8,0.1c-0.6,0-1.1,0-1.8-0.1s-1.2-0.2-1.8-0.4
				c-0.6-0.2-1.2-0.3-1.8-0.6c-0.2-0.1-0.3-0.2-0.4-0.4c-0.1-0.2-0.2-0.3-0.4-0.4l-2.3-1.6c-0.5-0.4-1.1-0.7-1.5-1s-1-0.6-1.5-0.9
				l-0.2-0.2c-0.3-0.6-0.6-1.2-0.9-1.7s-0.7-1-1.1-1.5c-0.2-0.2-0.3-0.4-0.3-0.5c0.1-0.6,0-1.1-0.4-1.5c-0.4-0.4-0.6-0.8-0.8-1.3
				c-0.1-0.3-0.2-0.5-0.3-0.7s-0.1-0.5-0.1-0.7c0-0.2,0.1-0.3,0.2-0.5c0.1-0.2,0.3-0.4,0.5-0.5c0,0,0.1-0.1,0.2,0
				c0.1,0,0.2,0.1,0.3,0.1c0.2,0.3,0.3,0.5,0.5,0.8s0.3,0.5,0.3,0.8c0.1,0.6,0.3,1.1,0.6,1.4s0.7,0.7,1.1,1c0.3,0.2,0.5,0.3,0.8,0.5
				s0.6,0.2,0.9,0c0.2-0.1,0.3-0.1,0.4,0c0.5,0.5,1.1,0.8,1.8,0.8c0.7,0,1.3,0.1,1.9,0.3c0.8,0.3,1.5,0.3,2.3,0.2
				c0.8-0.1,1.5-0.2,2.3-0.2c0.8,0,1.6,0,2.4-0.1c0.8-0.1,1.6-0.3,2.3-0.5c1.4-0.3,2.7-0.6,4-1c0.8-0.2,1.6-0.6,2.5-1.1
				c0.2-0.1,0.3-0.3,0.4-0.5c0.1-0.2,0.2-0.4,0.3-0.6l1.5-3.9c0.3-0.8,0.5-1.5,0.9-2.4s0.6-1.6,0.9-2.4c0.3-0.7,0.5-1.3,0.8-2
				c0.3-0.7,0.5-1.3,0.8-2l1.8-4.3l2.5-5.6l1.6-3.7c0.3-0.7,0.6-1.4,0.9-2.1c0.3-0.7,0.6-1.4,1-2.1c0.3-0.7,0.7-1.4,1.1-2
				c0.4-0.6,0.8-1.3,1.2-2c0.2-0.4,0.4-0.7,0.6-1.1c0.2-0.3,0.3-0.7,0.5-1.1c0.2-0.6,0.4-1.1,0.8-1.4c0.4-0.3,0.8-0.6,1.2-0.9
				c0.5-0.4,1.1-0.4,1.6-0.1c0.2,0.2,0.5,0.3,0.7,0.3s0.5,0.1,0.8,0.1c0.4-0.1,0.8,0,1.2,0.2c0.4,0.2,0.7,0.4,1.1,0.5
				c0.3,0.1,0.5,0.2,0.5,0.2s0.2,0.2,0.5,0.3c0.6,0.3,0.9,0.6,1,1.1c0.2,0.2,0.2,0.2,0.2,0.2c0.4,0.3,0.5,0.6,0.3,0.9
				c-0.2,0.3-0.2,0.6-0.2,0.9c0,0.4,0,0.7-0.1,0.8c-0.1,0.1-0.2,0.3-0.3,0.6c-0.1,0.7-0.3,1.3-0.7,1.8s-0.7,0.9-1.1,1.3
				c0,0.1-0.1,0.2-0.2,0.2c-0.1,0-0.1,0.1-0.1,0.1c0,0.6-0.2,1.1-0.6,1.5c-0.3,0.4-0.6,0.8-0.9,1.3c-0.2,0.4-0.4,0.9-0.5,1.3
				c-0.1,0.5-0.3,0.9-0.5,1.3c-0.2,0.3-0.4,0.5-0.6,0.8s-0.4,0.5-0.6,0.8c-0.2,0.4-0.4,0.9-0.6,1.3s-0.4,0.9-0.6,1.3l-1.5,2.8
				c-0.1,0.2-0.2,0.4-0.2,0.7s-0.2,0.4-0.3,0.6c-0.5,0.7-1,1.4-1.2,2.2c-0.3,0.8-0.6,1.6-1,2.3c-0.1,0.3-0.2,0.6-0.3,0.9
				s-0.3,0.6-0.6,0.7c0,0-0.1,0.1-0.1,0.2c0.2,0.4,0.1,0.8-0.1,1.1s-0.5,0.5-0.7,0.8l-0.2,0.6c0.1,0,0.2-0.1,0.3,0s0.2,0,0.3,0
				l5.6-2.9l6.3-3.4l4.8-2.6l3.4-2l2.8-1.9c0.6-0.4,1.3-0.9,2-1.4c0.6-0.5,1.3-1,2-1.5L333,18c0,0,0.1,0,0.2-0.1l3-2.8
				c0.8-0.8,1.6-1.7,2.4-2.6c0.8-0.9,1.4-1.9,2-2.9c0.5-0.8,1.1-0.8,1.9-0.1c0.3,0.3,0.5,0.6,0.6,0.9c0.2,0.3,0.4,0.6,0.6,0.8
				c0.2,0.2,0.4,0.4,0.5,0.4c0.1,0,0.2,0.1,0.3,0.1s0.2,0.1,0.2,0.2s0.2,0.2,0.3,0.5c0.2,0.3,0.2,0.7,0.1,1.1c0,0.3-0.1,0.5-0.2,0.7
				c-0.1,0.2-0.2,0.5-0.3,0.7c0,0,0,0.1,0,0.1s0,0.1,0,0.1c0.1,0.3,0.2,0.5,0.4,0.7c0.1,0.2,0.3,0.5,0.5,0.7l-1.1,2.6
				c-0.1,0.2-0.2,0.3-0.3,0.5c-0.1,0.2-0.2,0.3-0.3,0.6c-0.4,0.9-1,1.6-1.6,2.3c-0.6,0.7-1.3,1.3-1.9,2c-1,1.2-2.2,2.1-3.4,2.6
				c-0.4,0.2-0.8,0.4-1.1,0.6c-0.3,0.2-0.6,0.5-0.9,0.8l-0.6,0.5c-0.4,0.3-0.9,0.6-1.3,0.9s-0.9,0.6-1.3,1.1
				c-0.7,0.8-1.5,1.4-2.3,1.9c-0.8,0.5-1.6,1-2.4,1.6c-0.4,0.3-0.8,0.5-1.2,0.7s-0.9,0.4-1.3,0.6c-0.3,0.2-0.6,0.5-0.9,0.7
				c-0.3,0.3-0.6,0.4-0.9,0.4c-0.4,0-0.8,0.2-1.1,0.4c-0.3,0.2-0.6,0.4-0.9,0.7l-0.6,0.2l-0.6,0.2c-0.5,0.6-1.1,1.1-1.8,1.5
				c-0.7,0.4-1.4,0.7-2.1,1c-0.3,0.1-0.6,0.2-0.9,0.4c-0.3,0.2-0.6,0.3-0.9,0.4c-0.4,0.2-0.8,0.3-1.1,0.5s-0.7,0.3-1,0.5l-0.5,0.2
				c-0.6,0.5-1.2,0.6-1.8,0.2c-0.4,0.7-0.9,1.1-1.5,1.4s-1.2,0.6-1.8,0.8c-0.2,0.1-0.5,0.3-0.9,0.5c-0.4,0.2-0.7,0.5-1.1,0.8
				c-0.2,0.3-0.2,0.8-0.1,1.6c0.1,0.8,0.3,1.6,0.5,2.5s0.4,1.7,0.6,2.5c0.2,0.8,0.4,1.3,0.5,1.4c0.3,0.4,0.5,0.9,0.7,1.4
				s0.4,0.9,0.6,1.4c0.1,0.3,0.2,0.5,0.3,0.8s0.3,0.4,0.6,0.5c0.1,0.1,0.2,0.2,0.2,0.4s0.1,0.3,0.1,0.4c0.2,0.5,0.4,1,0.6,1.6
				c0.3,0.4,0.5,0.8,0.8,1.2s0.3,0.8,0,1.3c0,0.1,0,0.2,0,0.4c0.1,0.2,0.2,0.3,0.3,0.4c0.3,0.3,0.5,0.6,0.9,0.9
				c0.3,0.3,0.4,0.8,0.2,1.3c0.3,0.1,0.6,0.2,1,0.5c0.3,0.3,0.6,0.6,0.9,0.9c0.3,0.3,0.5,0.7,0.6,1.1c0.2,0.3,0.2,0.6,0.2,0.8
				c0.3,0.4,0.5,0.7,0.7,1.1s0.5,0.7,0.7,1c0.6,0,1.1,0.3,1.2,1.1c0,0.1,0.1,0.2,0.3,0.3c0.1,0.1,0.3,0.2,0.4,0.3
				c0.9,0.6,1.4,1.3,1.7,2.2c0.1,0.4,0.2,0.8,0.3,1.1s0.5,0.6,1.1,0.7l0.1,0.1c0,0.1,0,0.1,0.1,0.1c0.5,0.6,1.1,1.2,1.6,1.8
				c0.5,0.6,1.1,1.1,1.7,1.7c0.2,0.3,0.5,0.5,0.8,0.7c0.3,0.2,0.5,0.5,0.6,0.7c0.3,0.5,0.7,1.1,1.4,1.6c0.2,0.2,0.5,0.3,0.7,0.4
				c0.5,0,0.8,0.2,1,0.7c0.1,0.1,0.2,0.2,0.3,0.3c0.1,0.1,0.2,0.2,0.3,0.3s0.2,0.2,0.3,0.3s0.2,0.2,0.3,0.3c0,0,0.1,0,0.1,0.1
				s0,0.2,0.2,0.2c0.8,0.3,1.5,0.8,2.1,1.4c0.6,0.6,1.4,1.1,2.2,1.5c0.7,0.3,1.4,0.6,2,0.9s1.3,0.7,2,1.1c0.3,0.1,0.6,0.3,0.9,0.5
				c0.3,0.2,0.7,0.4,1.1,0.5c0.6,0.2,1.2,0.4,1.9,0.4c0.7,0.1,1.3,0.2,1.9,0.4c0.8,0.3,1.6,0.4,2.7,0.1c1-0.2,1.9-0.4,2.6-0.4
				c0.1,0,0.2,0,0.3,0c0.1,0,0.2,0,0.3,0c0.9,0.1,1.6-0.2,2-0.8c0.4-0.6,0.6-1.4,0.6-2.3c0-0.1,0-0.2,0-0.3s0.1-0.2,0.1-0.4
				c0.1,0.1,0.2,0.2,0.4,0.3c0.1,0.1,0.3,0.2,0.4,0.3c0,0.1,0.1,0.1,0.2,0.1c0,0,0.1,0,0.2,0.1v-0.5c0-0.1,0.1-0.2,0.2-0.3
				c0-0.1,0.1-0.2,0.2-0.3c0,0.2,0,0.3,0.2,0.6C353.8,89.8,353.9,89.9,354,90z M270.6,48.2c0.5,0,1,0.2,1.4,0.5c0.5,0.2,1,0.3,1.5,0
				c0,0,0.1,0,0.1,0c0,0,0.1,0,0.1,0c0.3,0,0.6,0.1,0.9,0.1c0.3,0,0.6,0,0.9,0l2.8-0.3c0,0,0.1,0,0.2,0.2c0.5,0.2,0.8,0,1-0.7
				l-1.5,0.2c-0.4,0-0.7,0-1.1,0c-0.3,0-0.7,0-1.1,0c-0.2,0-0.3,0-0.5,0c-0.2,0-0.4,0-0.5,0l-2.7-0.2c-0.2,0-0.3,0-0.5-0.1
				s-0.3-0.2-0.4-0.2c-0.3-0.1-0.7-0.2-1.2-0.3l-0.8-0.2c0,0.1,0,0.2-0.2,0.3c0.3,0.1,0.5,0.3,0.7,0.5
				C270.1,48.1,270.4,48.2,270.6,48.2z M285.4,48.7c0.5-0.2,1.1-0.4,1.6-0.6s1-0.5,1.4-1c0.1,0,0.2-0.2,0.2-0.5l-0.5,0.2
				c-0.4,0.2-0.8,0.4-1.1,0.7s-0.8,0.3-1.2,0.2c-0.1,0-0.2,0-0.3,0.1c-0.1,0-0.2,0.1-0.3,0.2c-0.5,0.3-0.8,0.2-1.1-0.3
				c0-0.1-0.1-0.2-0.2-0.3c-0.1-0.1-0.3-0.1-0.4,0c-0.2,0-0.4,0.2-0.6,0.6c0,0-0.1,0.2-0.1,0.4c0.1,0.2,0.2,0.2,0.4,0
				c0.1,0,0.2-0.1,0.3-0.1s0.2-0.1,0.3-0.2c0,0,0,0.1,0,0.1c0,0,0,0.1,0,0.1c-0.3,0.1-0.5,0.3-0.6,0.5c-0.1,0.2-0.4,0.2-0.9,0
				c0,0-0.1,0-0.2,0.1c-0.1,0-0.2,0.1-0.3,0.2c-0.2,0-0.4,0.1-0.6,0.2c-0.2,0.1-0.4,0.2-0.6,0.2c-0.4,0-0.8,0-1.1,0s-0.8,0-1.1,0
				c-0.6,0.1-1.2,0.2-1.8,0.3s-1.2,0.2-1.8,0.2c-0.5-0.1-1,0-1.5,0.1s-1-0.1-1.5-0.5c-0.2,0-0.3,0-0.3,0.1c0,0.3,0,0.4,0.1,0.4
				c0.2,0.2,0.3,0.3,0.5,0.4s0.4,0.2,0.7,0c0.3-0.1,0.6-0.1,1-0.1c0.3,0.1,0.6,0.2,0.9,0.5c0,0.1,0.2,0.2,0.6,0.2h0.7
				c0.1-0.3,0.3-0.5,0.5-0.4c0.2,0.1,0.4,0.2,0.5,0.4c0.1-0.1,0.2-0.2,0.3-0.2s0.2-0.1,0.3-0.2c0.2,0.3,0.3,0.5,0.3,0.6
				c0.4-0.1,0.9-0.2,1.3-0.4c0.4-0.2,0.8-0.3,1.2-0.4s0.8-0.2,1.1-0.3s0.8-0.2,1.1-0.3c0.4-0.1,0.9-0.2,1.3-0.4
				C284.5,49.1,285,48.9,285.4,48.7z M280.4,48c-0.2,0.2-0.2,0.3-0.2,0.4c0,0.2,0.1,0.2,0.2,0.2c0.5,0,1.1-0.2,1.8-0.4
				c0.1,0,0.2-0.1,0.3-0.4L280.4,48z M283,77.8h-0.2c0,0.3,0,0.7-0.1,1s0,0.7,0.4,1L283,77.8L283,77.8z M283.3,75.5
				c-0.8,0.7-0.8,1.3-0.2,1.9L283.3,75.5z M283.1,75.2c0-0.4,0.2-0.7,0.5-1c0.3-0.3,0.3-0.6,0-1.1c0-0.1-0.1-0.1,0-0.2s0-0.2,0-0.2
				c0.1-0.4,0.2-0.9,0.3-1.3s0.2-0.9,0.3-1.3c0.1-0.5,0.2-1,0.3-1.4s0.2-0.9,0.3-1.3l0.2-1.1h-0.2c0.1-0.3,0.2-0.6,0.3-0.8
				c0.1-0.3,0.2-0.6,0.3-0.8c0.1-0.3,0.2-0.5,0.3-0.8c0.1-0.3,0.1-0.6-0.1-0.9v-0.3l0.9-2.4c0.1-0.3,0.2-0.5,0.3-0.7
				c0.1-0.2,0.1-0.5,0.1-0.7c0-0.7,0.1-1.3,0.4-1.9c0.1-0.2,0.2-0.5,0.2-1c0-0.1,0-0.2,0-0.3s-0.1-0.2-0.1-0.2
				c-0.2-0.1-0.4-0.1-0.5,0.2c-0.1,0.3-0.2,0.5-0.2,0.8l-0.3,2.3l-0.2,0.2c-0.1,0.3-0.2,0.5-0.4,0.7c-0.2,0.2-0.3,0.4-0.3,0.7
				l-0.4,3c0,0.1,0,0.2,0,0.2c0,0,0,0.1,0,0.1l-0.6,1.2l-0.4,2c-0.1,0.5-0.3,1-0.5,1.5c-0.2,0.5-0.2,1-0.1,1.5c0,0.6,0,1.2-0.2,1.8
				s-0.3,1.2-0.3,1.8c0,0.4-0.1,0.8-0.1,1.1C282.9,74.5,283,74.8,283.1,75.2z M284.4,79.3c0-0.2,0-0.4,0-0.6s0-0.4,0-0.7
				c-0.4,0.2-0.7,0.4-0.7,0.7c0,0.2,0,0.5,0,0.8c0,0.5,0,0.9,0.1,1.1c0,0.2,0,0.4,0.1,0.5h0.2c0.1-0.2,0.2-0.4,0.2-0.5
				c0-0.3,0.1-0.5,0.1-0.7C284.4,79.8,284.4,79.6,284.4,79.3z M289.2,60.3c0.2,0.1,0.4,0.1,0.5,0s0.1-0.3,0.1-0.6h-0.3
				c-0.2,0-0.4-0.1-0.7-0.2l0.2-0.7c0-0.1,0.1-0.2,0.2-0.2c0.1-0.1,0.1-0.1,0.1-0.2l0.2-2.8c-0.3-0.1-0.5-0.1-0.5,0
				c-0.1,0.1-0.2,0.3-0.3,0.7c-0.1,0.6-0.2,1.2-0.4,1.7c-0.2,0.5-0.3,1.1-0.5,1.7l-0.5,2c-0.1,0.3-0.2,0.7-0.3,1s-0.2,0.7-0.2,1.1
				c0,0.8-0.3,1.3-0.9,1.5c0,0.2,0.1,0.3,0.1,0.4s0,0.2,0,0.3l-0.6,3c0,0.3-0.1,0.6-0.2,0.9c-0.1,0.3-0.2,0.6-0.3,0.9l-0.4,3
				c0,0.2,0,0.4,0,0.6c0,0.2,0,0.3,0,0.6l-0.2,1.1l-0.2,1.1c0,0.2,0,0.4-0.2,0.7c0.8-0.2,1.1-0.7,0.9-1.3c0-0.1,0-0.3,0.1-0.7
				c0.1-0.4,0.2-0.8,0.3-1.1s0-0.8-0.4-1.2c0.4-0.1,0.7-0.3,0.7-0.5c0-0.2,0-0.5-0.1-0.8c0-0.1,0-0.3,0.2-0.5
				c0.1-0.3,0.2-0.6,0.4-0.9c0.2-0.3,0.2-0.7,0.2-0.9c0-0.4,0-0.7,0.1-1c0.1-0.3,0.2-0.6,0.3-0.8c0-0.3,0.1-0.5,0.2-0.8
				c0.1-0.3,0.2-0.5,0.3-0.8c0.1-0.3,0.2-0.7,0.2-1s0-0.6,0.2-0.9l1.1-3.3c0-0.1,0-0.1,0-0.2c-0.1-0.4-0.1-0.7,0.1-0.7
				C288.7,60.2,288.9,60.2,289.2,60.3z M288.4,65c0.4-0.2,0.4-0.5,0-1l-0.5,1.1C288.2,65.1,288.4,65.1,288.4,65z M291.6,55.4
				c0-0.1,0.1-0.2,0.1-0.4c-0.2,0-0.4,0-0.4,0.1c-0.1,0.1-0.2,0.2-0.3,0.4c-0.1,0.2-0.2,0.3-0.3,0.4l0.2,0.2L291.6,55.4z M294,41.4
				c0,0,0.2,0,0.4,0.2c0.1-0.4,0.2-0.8,0.3-1l-0.3-0.2L294,41.4z M294.6,55.1c0-0.1,0-0.1,0-0.1c0,0,0-0.1,0-0.1L294.6,55.1z
				 M300.3,40.2c0,0.1,0,0.2,0,0.3c0,0.1,0.1,0.2,0.1,0.3l0.6-0.2c0,0,0.1-0.1,0.1-0.2s0.1-0.1,0.1-0.2l0.2-0.2
				c0.2,0.2,0.4,0.2,0.5,0.1c0.1-0.1,0.3-0.2,0.5-0.4c0.2-0.1,0.3-0.2,0.5-0.2c0.1,0,0.3,0.1,0.5,0.3l0.1-0.1l0.2-0.6
				c0,0,0,0.1,0,0.1s0,0,0,0.1l2.5-1.7l0.4,0.6h0.2c0-0.2-0.1-0.5-0.1-0.7c0.1,0,0.2-0.1,0.4-0.2c0.1-0.1,0.3-0.2,0.4-0.2
				c0.2,0,0.3-0.1,0.5,0s0.3,0,0.5,0c0,0,0.1,0,0.1-0.1c0,0,0-0.1,0.1-0.1l1.3-0.9c0.1,0,0.2-0.1,0.3-0.1s0.2,0,0.3-0.2
				c0.7-0.9,1.6-1.5,2.8-2c0.4-0.1,0.7-0.3,1.1-0.5c0.3-0.2,0.6-0.5,1-0.7c0,0,0.1-0.3,0.1-0.7l-0.6,0.2c-0.3,0.2-0.5,0.3-0.7,0.6
				s-0.4,0.4-0.7,0.5c-0.4,0.3-0.9,0.5-1.3,0.6s-0.9,0.3-1.3,0.5l-3,1.7c-0.6,0.3-1.3,0.7-1.9,1c-0.6,0.3-1.3,0.7-1.9,1.1
				c-0.3,0.1-0.6,0.2-1,0.3c-0.3,0.1-0.6,0.2-0.9,0.4c-0.3,0.2-0.7,0.3-1.1,0.5C300.6,39.5,300.4,39.8,300.3,40.2z M303.9,41.3
				c0.4,0.1,0.6,0.1,0.7,0c0.1-0.1,0.2-0.3,0.3-0.7L303.9,41.3z M317.9,83.3c0.1-0.5,0.1-0.9,0-1c-0.1-0.1-0.5-0.1-1.1,0
				c0.2,0.2,0.4,0.3,0.6,0.5C317.5,83,317.7,83.2,317.9,83.3z M321,85.7c-0.2-0.2-0.4-0.4-0.6-0.6s-0.3-0.4-0.5-0.6
				c0-0.1-0.1-0.1-0.2-0.1c-0.1,0-0.2,0-0.3,0c0,0.2,0,0.4,0.1,0.5c0.2,0.2,0.4,0.3,0.6,0.5c0.2,0.2,0.4,0.3,0.7,0.6L321,85.7z
				 M321.7,86.9c0.8,0.7,1.6,1.3,2.4,1.9c0.8,0.6,1.6,1.3,2.5,1.9c0-0.2-0.2-0.6-0.7-1s-1-0.9-1.5-1.3c-0.6-0.4-1.1-0.8-1.6-1.2
				c-0.5-0.3-0.8-0.5-1-0.5c0,0.1-0.1,0.1-0.1,0.1S321.8,86.8,321.7,86.9z M323,90.6c0.3,0.3,0.7,0.6,1,0.8c0.4,0.3,0.7,0.6,1.1,0.8
				c0-0.5-0.3-0.9-0.8-1.3C323.8,90.7,323.4,90.5,323,90.6z M325.4,92.3c0.9,1,1.7,1.4,2.4,1.2C326.9,92.6,326.1,92.2,325.4,92.3z
				 M332.7,94.7c0.3,0.2,0.7,0.3,1.2,0.4c0.5,0,0.9-0.1,1.2-0.3c-0.6-0.3-1.2-0.5-1.8-0.7s-1.2-0.5-1.7-0.9c-0.5-0.4-1-0.7-1.6-0.8
				c-0.6-0.1-1.1-0.4-1.7-0.8l-0.2,0.2c0.1,0.1,0.2,0.2,0.3,0.4c0.1,0.1,0.2,0.2,0.4,0.3C330.4,93,331.7,93.8,332.7,94.7z"/>
			<path d="M368,45.2c0.1,0.7,0.1,1.3,0,2s-0.1,1.3-0.1,2c0,0.2,0,0.3,0,0.5s0,0.4,0,0.5c-0.1,0.4-0.2,0.9-0.3,1.3s-0.2,0.9-0.5,1.3
				c-0.2,0.4-0.3,0.8-0.5,1.2c-0.2,0.4-0.2,0.8,0,1.3c0.3,0.5,0.2,1-0.1,1.4c-0.3,0.4-0.6,0.8-0.8,1.2c-0.3,0.5-0.5,1.1-0.8,1.6
				s-0.5,1.1-0.8,1.6c-0.1,0.1-0.2,0.2-0.3,0.3c-0.1,0.1-0.2,0.2-0.3,0.3c-0.4,0.5-0.7,1.1-1.1,1.6c-0.3,0.5-0.7,1.1-1.1,1.6
				c-0.3,0.4-0.7,0.9-1,1.3c-0.4,0.4-0.7,0.9-1,1.3c-0.1,0.1-0.2,0.2-0.2,0.4s-0.1,0.3-0.2,0.6c0,0.1-0.3,0.2-0.7,0.4
				c0.3,0.3,0.5,0.5,0.6,0.7c-0.6,0.7-1.2,1.3-1.8,1.9s-1.1,1.3-1.8,1.9c-0.5,0.6-1,1.2-1.5,1.8s-1,1.2-1.5,1.8
				c-0.4,0.4-0.8,0.8-1.1,1.1s-0.8,0.7-1.2,1c-0.3,0.3-0.6,0.6-1,0.8c-0.3,0.3-0.7,0.6-1.1,0.8c-0.6,0.5-1.2,0.9-1.9,1.3
				c-0.6,0.4-1.2,0.9-1.8,1.4c-0.6,0.5-1.2,0.8-1.9,0.9s-1.3,0.3-1.9,0.7c-0.2,0.1-0.5,0.1-0.8,0.1c-0.3-0.1-0.6-0.1-0.9-0.2
				c-0.7-0.3-1.3-0.6-1.9-1c-0.3-0.2-0.6-0.3-0.9-0.4c-0.4,0-0.7-0.2-0.9-0.5c-0.4-0.4-0.8-0.9-1.2-1.3s-0.8-0.9-1.3-1.3
				c-0.5-0.5-0.9-1.2-1.2-1.9c-0.3-0.7-0.6-1.3-1-2c-0.3-0.7-0.6-1.4-0.9-2.2c-0.1-0.3-0.2-0.7-0.2-1c0-0.3-0.1-0.7-0.2-1
				c0-0.8,0-1.5,0-2.2s0-1.5,0.1-2.2s0.3-1.5,0.5-2.4c0.2-0.8,0.4-1.6,0.6-2.4c0-0.1,0-0.2,0.2-0.3c0.1-0.1,0.2-0.2,0.2-0.2
				c0-0.3,0.1-0.5,0-0.7s0-0.3,0-0.5c0.5-1.6,1-3.2,1.6-4.6c0.2-0.5,0.4-1,0.6-1.4s0.4-0.9,0.6-1.3c0.2-0.4,0.4-0.9,0.6-1.3
				s0.4-0.9,0.6-1.3c0.3-0.7,0.6-1.4,1-2c0.3-0.7,0.7-1.3,1.1-2c0.9-1.8,1.9-3.5,2.8-5.2c0.3-0.4,0.5-0.8,0.8-1.3s0.5-0.8,0.8-1.3
				c0.1-0.1,0.2-0.2,0.2-0.4c0-0.2,0-0.3,0-0.3c-0.3-0.4-0.6-0.6-1-0.6c-0.3,0-0.6,0.1-0.9,0.2c-0.3,0.1-0.6,0.2-0.9,0.3
				c-0.3-0.4-0.6-0.6-0.9-0.6s-0.8,0.1-1.5,0.3c-0.5,0.2-1.1,0.3-1.8,0.3s-1.3-0.1-1.8-0.4c0.2-0.1,0.4-0.2,0.5-0.2
				c0.1-0.1,0.3-0.1,0.4-0.1c0.5,0,0.9-0.1,1.2-0.3s0.6-0.5,0.9-1c0.1-0.1,0.2-0.2,0.3-0.2c0.1,0,0.2-0.1,0.3-0.2
				c1.1-0.4,2.1-0.8,3.1-1.2c1-0.4,2-0.8,3-1.1c0.6-0.2,1.2-0.4,1.7-0.6c0.5-0.2,1.1-0.3,1.7-0.6c0.3-0.2,0.5-0.3,0.9-0.5
				c0.3-0.2,0.3-0.5,0.1-1c0.8-0.4,1.5-1,2-1.8c0.5-0.8,1-1.4,1.6-2c0.4-0.4,0.8-0.9,1.2-1.3s0.8-0.9,1.2-1.3
				c0.3-0.2,0.6-0.3,0.9-0.2c0.3,0.1,0.6,0.3,0.7,0.6c0,0.1,0.3,0.2,0.6,0.3c0.3,0,0.6,0.1,0.9,0.1c0.3,0,0.6,0.1,0.9,0.1
				c0,0,0,0.1-0.2,0.2c0.2,0.2,0.5,0.4,0.8,0.7c0.3,0.3,0.7,0.5,1,0.7c0.4,0.2,0.6,0.6,0.7,1.1c0,0.1,0,0.2,0.2,0.3
				c0.4,0.3,0.6,0.5,0.6,0.8s-0.1,0.6-0.2,0.9c-0.2,0.4-0.4,0.8-0.6,1.1c-0.2,0.4-0.3,0.8-0.5,1.2c-0.1,0.2,0,0.4,0.3,0.7
				c0.7,0.4,1.4,0.9,2.1,1.4s1.4,1,2.1,1.4c0.5,0.3,1,0.7,1.3,1.2c0.3,0.4,0.6,0.9,1,1.3c0.1,0.1,0.2,0.2,0.2,0.4
				c0,0.2,0,0.3,0.1,0.6c0.3-0.1,0.4,0,0.5,0.2c0,0.2,0.1,0.5,0.2,0.8c0.2,0.7,0.4,1.3,0.6,1.9C367.7,43.9,367.9,44.6,368,45.2z
				 M364.9,47.9c0-0.4,0.1-0.8,0.2-1.2s0-0.7-0.5-0.8c-0.1-0.7-0.2-1.4-0.4-2c-0.1-0.6-0.2-1.2-0.3-1.8c0-0.4-0.2-0.8-0.3-1.1
				c-0.2-0.3-0.5-0.7-0.9-1v1.5c-0.2-0.2-0.4-0.4-0.4-0.5c-0.2-0.4-0.3-0.8-0.4-1.1c-0.1-0.4-0.3-0.8-0.6-1.1
				c-0.3-0.3-0.6-0.6-1.1-0.9s-1-0.5-1.5-0.7s-1.1-0.3-1.6-0.3s-1,0-1.3,0.2c-0.2,0-0.3,0.2-0.3,0.3c-0.5,0.6-1,1.2-1.5,1.7
				s-1,1.1-1.4,1.7c-0.5,0.7-1.1,1.4-1.6,2.1c-0.5,0.7-1,1.4-1.6,2.1c-0.3,0.3-0.5,0.6-0.7,0.8c-0.2,0.3-0.4,0.6-0.6,0.8
				c-0.3,0.5-0.6,1-0.9,1.4c-0.3,0.5-0.6,0.9-0.9,1.4c-0.4,0.7-0.8,1.4-1.2,2.1c-0.4,0.7-0.8,1.4-1.2,2.2c-0.2,0.3-0.4,0.6-0.6,0.9
				c-0.2,0.3-0.4,0.6-0.5,0.9c-0.4,0.8-0.8,1.6-1.2,2.4s-0.7,1.6-1.1,2.3c-0.3,0.5-0.5,1.1-0.7,1.6s-0.4,1.1-0.7,1.7
				c-0.2,0.3-0.3,0.6-0.3,1c0,0.4-0.4,0.5-1,0.4c-0.1,0.7-0.1,1.3,0,1.9c0.1,0.7-0.3,1.2-1,1.6v0.2c-0.1,0.6-0.2,1.2-0.3,1.9
				s-0.2,1.3-0.3,1.9c0,0.3-0.1,0.6-0.2,0.8c-0.1,0.3-0.1,0.6-0.1,0.8c0,0.7,0,1.3,0,1.9s0.1,1.3,0.1,1.9c0.1,0.6,0.4,0.8,0.9,0.7
				c0.6-0.3,1.2-0.5,1.8-0.7s1.1-0.5,1.7-0.8c0.6-0.4,1.3-0.9,2-1.4c0.6-0.5,1.3-0.9,1.9-1.4s1.2-0.9,1.7-1.4
				c0.5-0.5,1.1-0.9,1.6-1.4c0.3-0.3,0.5-0.5,0.7-0.8s0.5-0.5,0.7-0.8c0-0.2,0.1-0.4,0.3-0.7c0.2-0.2,0.5-0.3,0.7-0.2h0.8
				c0-0.2-0.1-0.3-0.1-0.4c0-0.1-0.1-0.3-0.1-0.4c0.1-0.1,0.3-0.2,0.5-0.4c0.2-0.2,0.4-0.3,0.6-0.5c0.2-0.2,0.4-0.3,0.6-0.4
				c0.3-0.1,0.4-0.3,0.4-0.4c0-0.6,0.1-0.8,0.4-0.8c0.3,0.1,0.6,0.1,1,0c-0.4,0.5-0.6,1-0.8,1.4c0.1,0.1,0.2,0.2,0.2,0.2
				c0.3-0.2,0.5-0.4,0.8-0.6s0.5-0.4,0.6-0.7c0.4-0.7,0.9-1.2,1.4-1.7c0.6-0.5,1-1,1.4-1.7c0.3-0.4,0.6-0.8,1.1-1.1
				c0.4-0.3,0.7-0.8,0.9-1.3c0-0.2,0.2-0.4,0.4-0.7c0.3-0.4,0.5-0.8,0.9-1.3c0.3-0.4,0.6-0.8,0.9-1.3c0.2-0.3,0.3-0.6,0.5-0.9
				c0.1-0.3,0.3-0.6,0.4-0.9c0.2-0.5,0.4-0.9,0.6-1.4c0,0,0.2-0.1,0.6-0.2c0-0.1-0.1-0.1-0.1-0.1s-0.1,0-0.1-0.1
				c0-0.2,0.1-0.4,0.1-0.6s0-0.4,0.2-0.5c0-0.2,0.1-0.4,0.2-0.6c0.1-0.2,0.2-0.3,0.3-0.6c0.1-0.6,0.2-1.2,0.4-1.7
				C364.9,49,364.9,48.4,364.9,47.9z M338.6,36.9c0.6-0.3,1.2-0.6,1.8-0.9c-0.4-0.2-0.9-0.1-1.3,0.1
				C338.8,36.3,338.6,36.6,338.6,36.9z M354,65.3c0.4-0.5,0.9-1.1,1.3-1.6c0.5-0.5,0.9-1.1,1.3-1.6c0,0,0.1,0,0.1,0s0.1,0,0.1,0
				c-0.1,0.3-0.2,0.6-0.4,0.8c-0.1,0.3-0.3,0.6-0.5,0.8c-0.3,0.3-0.6,0.6-0.9,0.9s-0.7,0.5-0.9,0.8C354,65.5,354,65.4,354,65.3z
				 M360.2,56.4c0,0.2-0.1,0.6-0.3,1.1s-0.5,1-0.9,1.6c-0.4,0.6-0.7,1.1-1.1,1.5s-0.8,0.8-1,0.9c0.6-0.9,1.2-1.7,1.7-2.6
				C359.2,58.2,359.7,57.3,360.2,56.4z M362.8,47.1c0-0.3,0-0.7,0-1c0-0.3,0-0.7,0-1.1c0,0,0.2,0.1,0.3,0.1c0,0.3-0.1,0.7-0.1,1
				s0,0.7-0.1,1L362.8,47.1L362.8,47.1z"/>
			<path d="M392.7,46.6c0.4,0.9,0.3,1.7-0.4,2.2c-0.2,0.1-0.3,0.2-0.4,0.4c-0.1,0.2-0.2,0.4-0.3,0.7c-0.3,0.2-0.5,0.4-0.8,0.7
				c-0.3,0.2-0.5,0.5-0.8,0.8c0.2,0.3,0.3,0.5,0.3,0.7s-0.2,0.4-0.6,0.6c-0.2,0.1-0.3,0.3-0.4,0.6c-0.1,0.3-0.2,0.6-0.4,1
				c0.7-0.1,1.1-0.2,1.1-0.2c0.4-0.6,0.8-1.2,1.2-1.8s0.8-1.2,1.2-1.8c0.3-0.4,0.6-0.9,1-1.3c0.3-0.4,0.7-0.9,1.1-1.3
				c0.1-0.2,0.3-0.4,0.5-0.6c0.2-0.2,0.3-0.4,0.3-0.6c0-0.6,0.2-1,0.6-1.3c0.4-0.2,0.7-0.5,1-0.9c0.3-0.4,0.5-0.8,0.8-1.2
				s0.5-0.7,0.8-1.2c0.3-0.4,0.6-0.8,0.9-1.3c0.3-0.4,0.6-0.8,0.9-1.2c0.9-1,1.8-1.9,2.8-2.9c0.9-1,1.8-1.9,2.8-2.8
				c0.2-0.2,0.3-0.4,0.5-0.6s0.4-0.3,0.6-0.5l0.2,0.2c-0.8,0.8-1.5,1.5-2.2,2.3c-0.7,0.8-1.4,1.5-2.2,2.3c0,0,0,0.1,0.2,0.2
				c0.4-0.1,0.7-0.2,0.9-0.4c0.6-0.6,1.3-1.2,1.9-1.9c0.6-0.7,1.2-1.3,1.8-1.9c0.6-0.5,0.7-1,0.3-1.5c0.3-0.3,0.5-0.7,0.8-1
				c0.2-0.3,0.5-0.7,0.8-1c0.1-0.1,0.1-0.2,0.1-0.3c0-0.1,0-0.2,0-0.3c-0.3,0-0.5,0-0.7,0.2c-0.5,0.4-1,0.7-1.4,1.1
				c-0.5,0.3-1,0.6-1.5,0.9c0,0,0.1-0.1,0.1-0.2s0.1-0.1,0.1-0.2c0.8-0.7,1.6-1.3,2.4-1.9s1.6-1.3,2.3-2c0.2-0.2,0.4-0.4,0.5-0.7
				c0.1-0.3,0.2-0.5,0.4-0.7c0.2-0.3,0.4-0.5,0.6-0.7s0.5-0.4,0.7-0.6c0.1,0,0.2-0.1,0.4-0.1c0.1,0,0.2,0,0.2,0.1
				c0.2,0.5,0.5,0.7,0.9,0.5s0.7-0.2,1,0c0.4,0.2,0.7,0.3,1.1,0.5c0.3,0.2,0.7,0.4,1.1,0.6c0.2,0.1,0.4,0.2,0.6,0.4
				c0.2,0.2,0.4,0.3,0.7,0.6c0,0.5,0.4,1,1.1,1.4c0.3,0.1,0.5,0.3,0.6,0.7c0.1,0.3,0.2,0.7,0.4,1c0.1,0.3,0.2,0.6,0.3,0.8
				c0.1,0.3,0.1,0.6,0,1c-0.1,0.4-0.2,0.9-0.2,1.3c0,0.5-0.1,0.9-0.2,1.3c0,0.2-0.1,0.4-0.3,0.7c-0.1,0.2-0.3,0.4-0.4,0.7
				c-0.8,1.1-1.5,2.2-2.3,3.2c-0.8,1.1-1.5,2.2-2.3,3.2c-0.2,0.2-0.3,0.5-0.3,0.7c0,0.2-0.1,0.5-0.2,0.7c-0.2,0.4-0.3,0.8-0.5,1.2
				s-0.5,0.7-0.9,1c-0.2,0.2-0.4,0.4-0.5,0.8c-0.1,0.3-0.2,0.7-0.4,0.9c-0.2,0.4-0.4,0.8-0.6,1.2c-0.2,0.3-0.4,0.7-0.6,1.1
				c-0.3,0.4-0.5,0.8-0.5,1.2s-0.2,0.8-0.4,1.2c-0.3,0.6-0.4,1.2-0.3,1.9c0.1,0.7,0,1.3-0.5,2c-0.2,0.3-0.3,0.8-0.2,1.3
				s0.1,1.1,0,1.6c0,0.2,0,0.3,0,0.5s0,0.4,0,0.6c0.2,0.4,0.4,0.9,0.6,1.3c0.2,0.5,0.4,0.9,0.6,1.4c-0.9,0.7-1.8,0.7-2.8,0
				c-2.1-1.4-3.5-3.1-4.3-5.2s-1.2-4.2-1.2-6.6c0-3.8,0.9-7.6,2.4-11.3c0.2-0.4,0.4-0.9,0.5-1.4c0.1-0.5,0.3-1,0.5-1.5l-0.2-0.2
				c-0.1,0.1-0.3,0.2-0.5,0.3s-0.3,0.2-0.5,0.3c-0.6,0.7-1.2,1.3-1.7,2c-0.5,0.7-1.1,1.3-1.7,2c-0.3,0.4-0.5,0.8-0.7,1.2
				c-0.2,0.4-0.5,0.8-0.7,1.3c-0.2,0.3-0.3,0.5-0.5,0.7s-0.4,0.5-0.6,0.7c-0.5,0.7-1,1.4-1.5,2.1c-0.5,0.7-1,1.4-1.4,2.2
				c-1.1,1.7-2.2,3.5-3.3,5.2c-1.1,1.8-2.2,3.5-3.2,5.3c-0.9,1.6-1.8,3.2-2.6,4.8c-0.8,1.6-1.6,3.2-2.4,4.8c-0.7,1.3-1.4,2.6-2,3.9
				s-1.2,2.6-2,3.9c-0.3,0.7-0.7,1.3-1.1,1.8s-0.8,1.2-1,1.8c-0.3,0.7-0.7,1.3-1.2,1.8c-0.5,0.5-0.9,1.1-1.3,1.7
				c-0.8,1.2-1.8,1.4-3.1,0.6c-0.3-0.2-0.7-0.4-1-0.5s-0.7-0.4-0.9-0.8c-0.6-0.9-1.1-1.9-1.5-2.9c-0.3-1-0.5-2.1-0.6-3.2
				c-0.2-2.8,0-5.6,0.5-8.4c0.8-3.8,1.8-7.6,3.2-11.1c0.4-1.1,0.9-2.3,1.3-3.4c0.5-1.2,0.9-2.3,1.4-3.4c0.5-1.2,1.1-2.5,1.6-3.7
				c0.5-1.2,1.1-2.4,1.6-3.7c0.3-0.5,0.5-1.1,0.8-1.5s0.5-1,0.6-1.5c0.3-1,0.7-1.9,1.3-2.7s1-1.7,1.4-2.6c0.4-1,0.8-1.9,1.3-2.8
				s1-1.8,1.4-2.7c0.4-1.2,1.3-2,2.6-2.3c0.1,0.3,0.3,0.5,0.5,0.7s0.4,0.2,0.6,0.1c0.2,0,0.4,0,0.6-0.1c0.2,0,0.5,0,0.6,0v0.7
				c0.6-0.2,1.1-0.2,1.4,0s0.7,0.6,1.1,0.9c0.4,0.4,0.9,0.9,1.3,1.3c0.5,0.4,0.8,1,1.1,1.6c0,0.1,0.1,0.2,0.2,0.4
				c0,0.2,0.1,0.3,0.1,0.4c-0.2,0.8-0.4,1.7-0.5,2.5s-0.5,1.7-1.1,2.4c-0.5,0.6-1,1.2-1.4,1.8c-0.5,0.6-0.8,1.2-1.1,2
				c0,0.3-0.2,0.5-0.5,0.7c-0.2,0.2-0.4,0.4-0.5,0.7c-0.3,0.6-0.6,1.2-0.9,1.9c-0.3,0.7-0.6,1.3-0.9,1.9c-0.2,0.3-0.4,0.6-0.6,0.9
				c-0.2,0.3-0.5,0.6-0.7,0.8c-0.8,0.5-1.3,1.1-1.7,1.8c-0.4,0.7-0.7,1.4-0.9,2.2c-0.2,0.5-0.4,0.9-0.6,1.3
				c-0.2,0.4-0.7,0.7-1.3,0.8c0.3,0.6,0.4,1.2,0.2,1.7c-0.2,0.5-0.5,1-0.9,1.4c-0.2,0.3-0.4,0.6-0.6,0.8c-0.2,0.3-0.3,0.7-0.2,1.2
				c0,0.2,0,0.4-0.3,0.7c-0.2,0.2-0.4,0.5-0.5,0.8c-0.3,0.6-0.7,1.2-1.1,1.8c-0.4,0.6-0.6,1.2-0.8,1.8c-0.1,0.6-0.3,1.2-0.6,1.8
				s-0.3,1.2,0,1.8c0.1,0.2,0,0.4-0.2,0.7c-0.2,0.3-0.4,0.5-0.5,0.8c-0.2,0.3-0.3,0.7-0.4,1.1c-0.1,0.4-0.2,0.8-0.4,1.3
				c0.2-0.1,0.3-0.2,0.5-0.2c0.1-0.1,0.3-0.1,0.4-0.2l5.9-10.7c0.6-1.1,1.3-2.3,2-3.4c0.6-1.1,1.3-2.3,2-3.4c0.5-0.8,1-1.6,1.5-2.4
				c0.5-0.8,1.1-1.7,1.6-2.5c0.3-0.4,0.5-0.9,0.9-1.4c0.3-0.5,0.6-1,0.9-1.4c0.1-0.2,0.2-0.4,0.4-0.6
				C392.3,47.1,392.4,46.9,392.7,46.6z M373.9,67.3c0.1,0.1,0.2,0.1,0.2,0.1c0,0,0.1,0.1,0.2,0.1c0.1-0.2,0.2-0.4,0.3-0.6
				s0.2-0.4,0.3-0.5c0,0-0.1,0-0.2-0.1c0-0.1-0.1-0.1-0.1-0.1s-0.1,0-0.1-0.1C374.3,66.4,374.1,66.8,373.9,67.3z M389.2,55.4
				c0-0.1-0.1-0.1-0.2-0.1c0,0-0.1-0.1-0.2-0.1c-0.1,0.1-0.2,0.2-0.4,0.2c-0.2,0.1-0.3,0.1-0.4,0.2s-0.2,0.2-0.2,0.4
				c0,0.2-0.1,0.3-0.2,0.4c0.2,0,0.3,0,0.5,0s0.3,0,0.5-0.1c0.1-0.1,0.2-0.3,0.3-0.4C389,55.7,389.1,55.5,389.2,55.4z M405.1,32.7
				c-0.7,0.7-1.4,1.4-2.1,2c-0.7,0.7-1.4,1.3-2,2.1c-0.3,0.3-0.6,0.7-0.9,1.1c-0.2,0.4-0.5,0.8-0.8,1.2c0,0-0.1,0.1-0.1,0.2
				s-0.1,0.2-0.2,0.2c-1,0.5-1.8,1.2-2.3,2.1s-1.1,1.8-1.7,2.6c-0.2,0.3-0.4,0.5-0.6,0.8s-0.3,0.6-0.2,1.1c0,0.1-0.1,0.2-0.4,0.2
				c-0.3,0-0.5,0.1-0.8,0.1c3.4-5.2,7.3-9.9,11.9-14C404.8,32.5,404.9,32.7,405.1,32.7z"/>
			<path d="M450.9,66.8c0.2-0.3,0.5-0.5,0.9-0.6c0.4-0.1,0.8-0.1,1.3,0.2l-1.4,1.4c-0.6,0.6-1.1,1.2-1.7,1.7c-0.5,0.5-1,1.1-1.6,1.6
				c-0.1,0.1-0.2,0.2-0.4,0.2c-0.1,0-0.3,0.1-0.4,0.2s-0.2,0.2-0.3,0.3c-0.1,0.1-0.2,0.2-0.3,0.3l-0.7,0.7c0-0.1-0.1,0-0.2,0.2
				c-0.4,0.9-1,1.6-1.8,2.1c-0.7,0.5-1.4,1.1-2.1,1.8c-0.6,0.6-1.3,1.2-2,1.8s-1.4,1.2-2.1,1.8c-0.1,0.1-0.2,0.1-0.3,0.2
				s-0.2,0.1-0.3,0.2c-0.3,0.2-0.8,0.4-1.3,0.7c-0.5,0.3-1.1,0.7-1.7,1.1s-1.1,0.8-1.7,1.1c-0.5,0.3-1,0.6-1.2,0.8
				c-0.6,0.4-1.2,0.8-1.9,1c-0.6,0.2-1.3,0.4-2,0.5c-0.7,0.1-1.4,0.2-2.1,0.2c-0.7,0-1.4-0.2-2-0.7c-0.4-0.3-0.8-0.3-1.1,0.2
				c-0.2,0.4-0.4,0.6-0.7,0.6s-0.6,0-0.9-0.1c-0.3,0-0.6-0.1-0.9-0.2c-0.2-0.1-0.4-0.4-0.5-0.8c0,0-0.1,0-0.1,0c0,0-0.1,0-0.1,0
				c0,0.1,0,0.2,0,0.4c0,0.1,0,0.3,0,0.5c-0.3-0.3-0.5-0.5-0.6-0.8s-0.4-0.5-0.6-0.8c0-0.1,0-0.1-0.1-0.2c0-0.1,0-0.1-0.1-0.2V84
				l-0.2-0.5c-0.3-1-0.7-1.7-1.2-2.3c-0.2-0.2-0.4-0.4-0.5-0.6c-0.1-0.2-0.2-0.5-0.3-0.8c-0.2-0.3-0.3-0.5-0.5-0.8s-0.4-0.5-0.5-0.8
				s-0.3-0.5-0.4-0.8c-0.1-0.3-0.2-0.6-0.3-0.9c-0.2-0.8-0.4-1.5-0.5-2.2c-0.1-0.7-0.1-1.5,0-2.2c0-0.5,0.1-1.1,0.2-1.5
				c0.1-0.5,0.1-1,0.2-1.5c0-0.1,0.1-0.1,0.1-0.2c0-0.9,0.1-1.8,0.4-2.6c0.3-0.8,0.6-1.6,0.9-2.3c0-0.2,0.2-0.3,0.5-0.4
				c-0.5-0.7-0.3-1.1,0.5-1.4c0.2-0.2,0.2-0.3,0.2-0.5c-0.2-0.6,0-1,0.5-1.2l0.2-0.7c0.2-0.1,0.4-0.1,0.6-0.2
				c0.2-0.1,0.1-0.4-0.1-0.8c0-0.1,0-0.2,0.2-0.4c0.2-0.2,0.4-0.4,0.5-0.5c0.1-0.1,0.2-0.2,0.3-0.2c0.1-0.1,0.1-0.2,0-0.3l0.7-0.5
				c-0.1-0.2-0.3-0.3-0.5-0.6c0.8,0,1-0.2,0.7-0.7c0.3-0.3,0.5-0.5,0.7-0.8s0.4-0.5,0.6-0.8c0.1-0.2,0.2-0.4,0.4-0.7
				c0.1-0.2,0.3-0.5,0.4-0.7c0,0,0.1,0,0.1,0s0.1,0,0.1,0c0.6-0.3,1-0.5,1.1-0.6c0.1-0.1,0.1-0.5,0-1c0.1-0.1,0.2-0.1,0.4-0.1
				c0.1,0,0.3,0,0.4-0.1c-0.1-0.1-0.2-0.2-0.3-0.4c-0.1-0.1-0.2-0.3-0.3-0.4c0.8-1,1.7-2.2,2.7-3.4c-0.1,0.3-0.2,0.5-0.2,0.7
				c0,0,0.1,0,0.1,0c0,0,0.1,0,0.1,0c0.1-0.2,0.2-0.3,0.3-0.5c0.1-0.2,0.2-0.4,0.4-0.7c0.4-0.1,0.6-0.5,0.5-1.1
				c0-0.3,0.1-0.7,0.6-1.1s0.9-0.7,1.3-0.8h0.3c-0.2-0.5-0.1-0.8,0.2-1.1c0.3-0.2,0.5-0.5,0.7-0.7c0.4-0.7,0.9-1.2,1.5-1.8
				c0.5-0.5,1.1-1.1,1.6-1.7c0.5-0.7,1.1-1.3,1.8-1.8c0.6-0.6,1.1-1.2,1.6-1.9c0.5-0.8,1.1-1.5,1.8-2.2c0.6-0.6,1.4-1.2,2.1-1.8
				c0.1-0.1,0.2-0.2,0.4-0.3c0.2-0.1,0.3-0.2,0.5-0.3c0.2-0.1,0.4-0.1,0.5-0.1l2.2,1c0,0,0.1,0,0.2,0c0,0,0.1,0,0.2,0
				c0.3,0.1,0.5,0.2,0.7,0.3s0.4,0.3,0.6,0.6c0.2,0.2,0.4,0.4,0.6,0.6c0.2,0.2,0.4,0.3,0.6,0.4c0.6,0.4,1,0.8,1.3,1.3
				c0.3,0.5,0.5,1,0.8,1.6c0,0,0,0.1,0.1,0.2c0.1,0.3,0.2,0.7,0.2,1.1s0.1,0.8,0.3,1.1c0.3,0.6,0.5,1.2,0.6,1.7
				c0.1,0.5,0.3,1.1,0.6,1.6c0.3,0.6,0.3,1.2,0.1,1.8c-0.2,0.6-0.2,1.2,0,1.8c0,0,0,0.1-0.1,0.2s-0.1,0.2-0.2,0.3
				c0.5,0.3,0.6,0.6,0.4,0.9c-0.2,0.3-0.4,0.6-0.5,0.9c0,0.3-0.1,0.6-0.2,0.9c0,0.3-0.1,0.6-0.2,0.9c-0.1,0.3-0.2,0.5-0.2,0.8
				c0,0.2-0.2,0.5-0.5,0.7c-0.1,0.1-0.2,0.2-0.2,0.4s0,0.3-0.1,0.4c-0.3,0.5-0.6,1.1-0.9,1.5c-0.5,0.9-1,1.6-1.5,2.3
				c-0.3,0.5-0.6,1-1,1.5s-0.6,0.9-1,1.4c-0.3,0.4-0.6,0.8-0.9,1.1c-0.3,0.3-0.6,0.7-0.9,1.1c-0.2,0.3-0.4,0.6-0.6,1.1
				c-0.1,0.3-0.2,0.4-0.4,0.5c-0.5,0.3-1,0.6-1.3,1.1c-0.3,0.5-0.6,0.9-1,1.3c-0.3,0.3-0.6,0.5-1,0.8c-0.4,0.3-0.7,0.5-1.1,0.8
				c-0.3,0.2-0.5,0.4-0.8,0.7s-0.5,0.4-0.8,0.7c-0.3,0.3-0.7,0.5-1,0.7c-0.4,0.2-0.7,0.5-1.1,0.7c-0.1,0-0.2,0-0.2,0.1
				c-0.8,0.6-1.6,1-2.4,1.3c-0.9,0.2-1.7,0.5-2.6,0.8c-0.3,0.1-0.6,0.2-0.7,0.2h-0.1c-0.7,0.2-1.6,0.3-2.8,0.3
				c-1.2,0.1-2.1,0-2.8-0.2l-0.1-0.1l-0.5,0.2c0.1,0.5-0.1,1-0.7,1.3c-0.1,0.1-0.2,0.1-0.2,0.2c0,0.1-0.1,0.2-0.1,0.3
				c-0.1,0.1-0.2,0.2-0.2,0.3s-0.1,0.2-0.2,0.3c-0.3,0.3-0.3,0.4-0.1,0.5s0.3,0.2,0.5,0.3c-0.1,0.3-0.2,0.5-0.2,0.8
				s-0.1,0.5-0.2,0.8c-0.1,0.2-0.2,0.3-0.3,0.4c-0.5,0.5-0.5,1.1-0.2,1.7c0.2,0.3,0.1,0.6-0.1,0.9c-0.2,0.4-0.2,0.7,0.2,1
				c0.2,0.1,0.3,0.3,0.4,0.7l0.2,0.5c0,0.3,0.1,0.6,0.1,0.8c0,0.3,0.1,0.6,0.3,0.8c0.3,0.5,0.8,0.8,1.4,0.9c1.1,0.2,2.3,0.1,3.7-0.3
				c1.4-0.3,2.5-0.8,3.4-1.4c0.5-0.3,1.1-0.7,1.8-1.2c0.7-0.5,1.4-0.9,2.2-1.5s1.5-1,2.1-1.5s1.3-0.9,1.8-1.3
				c1.2-0.9,2.4-1.9,3.5-2.8c1.1-1,2.3-1.9,3.4-2.9c1-0.9,1.9-1.7,2.8-2.6c0.9-0.9,1.8-1.8,2.8-2.7c0.8-0.7,1.6-1.4,2.4-2.1
				c0.8-0.7,1.6-1.4,2.3-2.2c0.2-0.2,0.4-0.3,0.6-0.6s0.3-0.4,0.5-0.7c0,0.1,0.1,0.1,0.2,0.1c0,0,0.1,0.1,0.2,0.2
				c-1.3,1.4-2.6,2.8-3.9,4.1c-1.3,1.3-2.6,2.7-3.9,4.1c-0.1,0.2-0.2,0.3-0.3,0.4c-0.1,0.1-0.2,0.3-0.3,0.4c-0.3,0.4-0.7,0.8-1,1.1
				c-0.4,0.3-0.7,0.7-1,1c0,0.1-0.1,0.1-0.2,0.1c0,0-0.1,0.1-0.2,0.1c-0.1,0.1-0.2,0.1-0.2,0.2c0,0.1-0.1,0.1-0.2,0.2
				c0.1,0,0.2,0,0.4,0.1c0.1,0.1,0.3,0.1,0.4,0c0.2-0.1,0.3-0.2,0.5-0.4c0.1-0.1,0.3-0.3,0.5-0.4c0.8-0.7,1.6-1.3,2.4-2
				C449.5,68.3,450.2,67.6,450.9,66.8z M416.7,65.9C416.7,65.8,416.7,65.8,416.7,65.9c0.1-0.1,0.1-0.1,0.1-0.2
				c-0.1-0.3-0.2-0.6-0.3-0.8c0-0.1-0.1-0.1-0.2-0.1c0,0.1,0,0.2-0.1,0.3s0,0.2,0,0.3C416.1,65.5,416.3,65.6,416.7,65.9z M417,64.2
				c0.2-0.1,0.4-0.2,0.7-0.4c-0.4-0.4-0.4-0.9,0.2-1.3c0-0.1,0.1-0.1,0-0.2s0-0.2,0-0.3c0,0-0.1,0-0.1,0c0,0-0.1,0-0.1,0
				c-0.3,0.4-0.5,0.8-0.7,1.3c-0.2,0.4-0.5,0.8-0.7,1.3l0.2,0.2C416.6,64.4,416.8,64.3,417,64.2z M417.7,71.6
				c0.2-0.1,0.3-0.3,0.3-0.6c0-0.3,0-0.6-0.1-0.8c-0.1,0.2-0.2,0.4-0.2,0.6c0,0.2-0.1,0.3-0.2,0.6c0,0.1,0,0.1,0,0.2s0,0.1,0,0.2
				C417.6,71.7,417.7,71.7,417.7,71.6z M417.7,61.2c0.1,0.1,0.2,0.2,0.4,0.3s0.3,0.2,0.5,0.3c0.1-0.2,0.2-0.3,0.3-0.5
				s0.1-0.3,0.2-0.6c0-0.1,0.1-0.3,0-0.4c0-0.2,0-0.4,0-0.5c0.1,0.1,0.2,0.1,0.2,0.1c0,0,0.1,0.1,0.2,0.1c0.3-0.3,0.5-0.5,0.7-0.8
				s0.4-0.5,0.6-0.8c0-0.1,0.1-0.2,0.1-0.2s0.1-0.1,0.1-0.2c0-0.1,0-0.1-0.1-0.2s-0.1-0.1-0.2,0c-0.1,0-0.2,0.1-0.4,0.2
				c0,0.1-0.1,0.2-0.1,0.3c0,0.1-0.1,0.2-0.1,0.3c0,0-0.1-0.1-0.2-0.2c0.1-0.2,0.2-0.4,0.4-0.7c0.1-0.2,0.3-0.4,0.5-0.5
				c0.5-0.2,0.8-0.4,0.9-0.5c0.1-0.1,0-0.4-0.3-0.9l0.5-0.2c0.2-0.1,0.5-0.2,0.7-0.3s0.4-0.2,0.5-0.3c0-0.5,0.2-0.9,0.6-1.1
				c0.3-0.2,0.6-0.4,0.9-0.7c-0.1-0.5-0.2-0.9-0.2-1.1c0.4-0.2,0.7-0.5,1-0.7c0.2-0.2,0.4-0.3,0.6-0.6s0.3-0.4,0.5-0.7
				c0.4-0.4,0.3-0.8-0.3-1.1c-1.7,1.7-3.2,3.6-4.5,5.7C420.1,57,418.9,59.1,417.7,61.2z M418.5,69.3c0.3-0.5,0.5-1,0.7-1.5
				c0.2-0.5,0.4-1,0.7-1.5c-0.1,0-0.2-0.1-0.2-0.2c-0.2,0.1-0.3,0.2-0.3,0.3c-0.1,0.3-0.3,0.6-0.5,0.9c-0.2,0.3-0.4,0.6-0.5,0.9
				c-0.1,0.2-0.2,0.5-0.2,0.9H418.5z M420.8,60.1c0.2-0.3,0.4-0.5,0.7-0.7c0.3-0.2,0.4-0.5,0.2-1c-0.3,0-0.4,0-0.5,0.1
				c-0.2,0.2-0.4,0.4-0.5,0.7c-0.1,0.2-0.3,0.4-0.5,0.7c-0.2,0.2-0.1,0.2,0.1,0.2C420.5,60.3,420.7,60.3,420.8,60.1z M421.7,62.5
				c0.3-0.4,0.6-0.8,0.9-1.2c0.3-0.3,0.6-0.7,0.9-1.2c-0.5,0.1-0.9,0.3-1.3,0.8C421.8,61.4,421.7,61.9,421.7,62.5z M431.4,55.2
				c-0.4,0.5-0.7,1-1.1,1.5s-0.7,1-1.1,1.5c0,0.1-0.1,0.1-0.2,0.2c-0.1,0.1-0.2,0.1-0.2,0c-0.3-0.1-0.4,0-0.5,0.1
				c0,0.1-0.1,0.3-0.2,0.5c0,0.2,0,0.4-0.2,0.7c-0.1,0.2-0.2,0.4-0.3,0.6c-0.1,0.2-0.2,0.4-0.3,0.6l-0.4,0.4
				c-0.1,0.2-0.2,0.3-0.4,0.5c-0.2,0.2-0.3,0.3-0.4,0.6c-0.3,0.5-0.5,1.1-0.7,1.6c-0.2,0.5-0.5,1-1,1.5l-0.2,0.2l-1.1,1.5
				c0.4,0,0.9,0.1,1.4,0.2s1,0.1,1.4-0.1c0.3-0.1,0.5-0.2,0.7-0.2c0.2-0.1,0.5-0.1,0.7-0.2c0.3-0.1,0.6-0.1,0.7-0.1
				c0.2,0,0.4-0.1,0.6-0.2c0.2-0.1,0.3-0.2,0.5-0.2c0.2-0.1,0.4-0.1,0.6-0.2c0.1,0,0.2-0.1,0.3-0.2l2.4-1.7c0.3-0.2,0.5-0.3,0.8-0.4
				c0.3-0.1,0.5-0.3,0.8-0.5c0.8-0.5,1.5-1.1,2.1-1.8c0.6-0.6,1.2-1.3,1.7-2.1l0.3-0.3c0.4-0.4,0.7-0.9,1.1-1.3
				c0.4-0.4,0.7-0.9,1-1.3c0.4-0.5,0.9-1.1,1.3-1.6s0.9-1.1,1.3-1.6c0.1-0.1,0.2-0.2,0.2-0.4c0-0.1,0.1-0.2,0.1-0.4
				c0-0.2,0.1-0.3,0.2-0.4c0.8-1.3,1.5-2.6,2.1-4c0.6-1.3,1-2.8,1.2-4.4c0.1-0.5,0.1-1.1,0.1-1.6c0-0.5,0-1.1,0-1.6
				c0-0.1,0-0.2-0.1-0.4c-0.1-0.2-0.2-0.2-0.3-0.2c-0.3,0-0.5,0.1-0.7,0.3c-0.1,0.1-0.3,0.3-0.6,0.7c-0.3,0.3-0.5,0.5-0.6,0.6
				c-0.2,0.2-0.4,0.4-0.6,0.6c-0.2,0.2-0.4,0.3-0.6,0.5c-0.3,0.2-0.6,0.5-0.9,0.7c-0.3,0.3-0.6,0.5-1,0.7c-0.4,0.3-0.8,0.6-1.1,1.1
				c-0.3,0.4-0.7,0.8-1.1,1.2c-0.2,0.2-0.4,0.3-0.6,0.5s-0.4,0.3-0.6,0.4c-0.2,0.2-0.4,0.4-0.4,0.5c-0.3,0.4-0.5,0.8-0.7,1.1
				s-0.4,0.8-0.7,1.1s-0.6,0.8-0.9,1.1s-0.7,0.7-1,1c-0.4,0.5-0.8,1-1.2,1.5s-0.9,0.9-1.6,1.1c0,0.2,0,0.3,0,0.4
				C431.5,55,431.5,55.1,431.4,55.2z M427.3,47.8c-0.5,0-1,0.3-1.3,1c0.2,0.1,0.5,0.3,0.8,0.5c0-0.1-0.1-0.2-0.1-0.3
				c0-0.1-0.1-0.2-0.1-0.4c0.1,0,0.2,0,0.3,0c0.1,0,0.2,0,0.3,0c0.1,0,0.3-0.1,0.5-0.4c-0.1-0.1-0.2-0.1-0.2-0.2
				C427.5,47.9,427.5,47.8,427.3,47.8z M428,46.6c-0.1,0-0.2,0.2-0.4,0.3c-0.1,0.1-0.3,0.3-0.4,0.4c0.2,0.2,0.4,0.3,0.7,0.6
				c0,0.1,0,0.2,0.2,0.2c0.1-0.2,0.2-0.3,0.3-0.5c0.1-0.1,0.2-0.3,0.3-0.5c0,0-0.1-0.1-0.2-0.2c-0.1,0-0.2-0.1-0.3-0.2
				C428.1,46.6,428.1,46.6,428,46.6z M429.5,45.4c-0.1,0.1-0.2,0.2-0.4,0.4c-0.1,0.2-0.3,0.3-0.4,0.4c0,0.1,0,0.2,0.1,0.2
				c0.1,0,0.2-0.1,0.3-0.1s0.2,0,0.2-0.2c0.1-0.1,0.2-0.2,0.2-0.4c0-0.1,0-0.3,0.1-0.4C429.6,45.4,429.5,45.4,429.5,45.4z
				 M435.7,63.7c0.1-0.1,0.2-0.3,0.2-0.5c0-0.2,0.1-0.5,0.1-0.7c-0.4,0-0.7,0.2-0.9,0.7c-0.1,0.2-0.2,0.3-0.4,0.5
				c-0.2,0.2-0.3,0.3-0.4,0.5l-1,0.7l0.2,0.2c0.4-0.2,0.7-0.4,1.1-0.7S435.4,63.9,435.7,63.7z M436.9,62.3c0.1,0,0.2-0.1,0.3-0.3
				c0-0.1,0-0.1,0-0.2s-0.1-0.1-0.2-0.1c-0.2-0.1-0.4-0.1-0.6,0.1c-0.1,0.1-0.2,0.2-0.2,0.3s-0.1,0.2-0.2,0.3
				C436.4,62.4,436.7,62.3,436.9,62.3z M464.1,52.1v0.3c-0.2,0.3-0.3,0.6-0.5,0.9c-0.2,0.3-0.4,0.6-0.6,0.7
				c-0.3,0.2-0.6,0.4-0.7,0.6c-0.1,0.2-0.3,0.5-0.5,0.7c-0.3,0.3-0.5,0.7-0.8,1.1s-0.5,0.8-0.8,1.1c-0.1,0.2-0.2,0.4-0.3,0.7
				c-0.1,0.2-0.2,0.4-0.3,0.6c-0.3,0.4-0.6,0.8-0.9,1.1s-0.7,0.7-0.9,1.1c-0.3,0.3-0.5,0.5-0.8,0.7s-0.5,0.5-0.7,0.8
				c-0.1,0.3-0.3,0.5-0.6,0.7c-0.3,0.2-0.5,0.5-0.7,0.7l-0.2,0.2c-0.1,0.5-0.3,0.8-0.7,1c-0.4,0.2-0.7,0.4-1.1,0.6
				c-0.3-0.3-0.5-0.5-0.5-0.6s0.2-0.3,0.6-0.5c0.1-0.1,0.2-0.2,0.3-0.4c0.1-0.2,0.2-0.3,0.4-0.4c0.2-0.2,0.3-0.3,0.5-0.5
				c0.2-0.2,0.4-0.3,0.6-0.5c0.3-0.3,0.6-0.6,0.9-0.9c0.3-0.3,0.6-0.6,0.9-0.9c0.3-0.3,0.5-0.6,0.8-0.9c0.2-0.3,0.5-0.6,0.8-0.9
				c0.3-0.4,0.5-0.8,0.7-1.3s0.5-0.8,0.7-1.2c0.2-0.3,0.5-0.5,0.7-0.7c0.3-0.2,0.5-0.5,0.8-0.7l-0.2-0.2c0-0.1,0.1-0.2,0.1-0.4
				c0-0.2,0.1-0.3,0.1-0.3c0.6,0,0.9-0.2,0.8-0.5c0-0.3,0-0.7,0.1-0.9c0.1-0.2,0.2-0.4,0.2-0.6c0,0,0.1,0,0.1,0s0.1,0,0.1,0
				c-0.1-0.1-0.2-0.2-0.2-0.3s-0.1-0.2-0.2-0.3c-0.9,1.3-1.8,2.6-2.8,3.8s-1.9,2.4-3,3.5l-0.2-0.2c0.1-0.1,0.2-0.2,0.2-0.3
				s0.1-0.2,0.2-0.3c0.6-0.8,1.2-1.5,1.8-2.2s1.1-1.4,1.8-2.2c0.4-0.7,0.8-1.3,1.1-1.9c0.1-0.3,0.3-0.5,0.5-0.8s0.4-0.5,0.5-0.7
				c0.2-0.2,0.4-0.4,0.6-0.7l0.5,0.5c0.1,0.1,0.2,0.2,0.4,0.4c0.2,0.1,0.3,0.3,0.4,0.4c0,0.1,0,0.2,0,0.4
				C464.1,51.9,464.1,52,464.1,52.1z"/>
			<path d="M490,81.4c0.1,0.6,0.3,1.1,0.7,1.5s0.7,0.7,1,0.9s0.6,0.4,0.7,0.6s0.1,0.3-0.2,0.4c-0.3,0-0.5,0.1-0.7,0.2
				c-0.5,0.3-1,0.4-1.4,0.2c-0.5-0.2-0.9-0.3-1.3-0.5c-0.4-0.1-0.8-0.3-1-0.6s-0.4-0.5-0.6-0.8c-0.3-0.4-0.6-0.7-0.9-1
				c-0.4-0.3-0.6-0.6-0.9-1c-0.7-1.3-1.3-2.8-1.8-4.5c-0.6-1.8-0.7-3.7-0.4-5.4s0.8-3.6,1.4-5.3c0.6-1.9,1.2-3.7,2-5.6
				c0.7-1.8,1.5-3.6,2.3-5.3c0.4-0.9,0.9-1.7,1.3-2.6s0.9-1.7,1.3-2.6c0-0.1,0-0.1,0-0.1c0,0,0-0.1,0-0.2h-0.3
				c-0.5,0.5-1.1,1.1-1.6,1.6c-0.5,0.5-1,1-1.5,1.6c-0.4,0.4-0.8,0.9-1.1,1.3c-0.3,0.4-0.7,0.9-1.1,1.3c-0.5,0.5-1,1.1-1.5,1.6
				c-0.5,0.5-1,1-1.5,1.6c-0.4,0.5-0.9,1-1.3,1.4s-0.8,0.9-1.3,1.4c-0.2,0.3-0.3,0.5-0.5,0.7c-0.2,0.2-0.4,0.4-0.6,0.7
				c-0.1,0.1-0.2,0.2-0.4,0.2c-0.2,0-0.3,0-0.3,0c-0.1,0.3-0.2,0.5-0.2,0.7c0,0.2-0.1,0.3-0.2,0.4c-0.6,0.8-1.2,1.5-1.8,2.3
				s-1.3,1.5-1.9,2.3l-0.1,0.1c-0.1,0.7-0.4,1.3-0.8,1.8s-0.8,1-1.2,1.5c-0.4,0.6-0.9,1.1-1.3,1.6c-0.5,0.5-0.9,1-1.3,1.5
				c-0.4,0.4-0.7,0.9-1,1.4c-0.3,0.5-0.7,1-1.1,1.3c-0.4,0.3-0.7,0.6-0.9,1.1c-0.1,0.5-0.5,0.8-0.9,0.9c-0.1,0-0.2,0-0.3,0.1
				c-0.1,0.1-0.1,0.2,0,0.3c0.1,0.4,0,0.7-0.2,0.8c-0.2,0.2-0.5,0.4-0.7,0.7c-0.7,0.6-1.4,1.4-2,2.4c-0.5,0.7-1.1,1-1.9,1.1
				c-0.8,0.1-1.4-0.2-2-0.8c-0.4-0.3-0.7-0.7-0.9-1c-0.2-0.3-0.4-0.8-0.5-1.3c0-0.1,0-0.1-0.2-0.2c-0.6-0.3-1.1-0.7-1.4-1.3
				c-0.3-0.6-0.6-1.2-0.9-1.8c-0.1-0.3-0.2-0.6-0.3-0.8c-0.1-0.3-0.2-0.6-0.2-0.8c-0.5-2.7-0.4-5.3,0.3-8c0.3-1.3,0.7-2.6,1.1-3.8
				s0.8-2.5,1.3-3.7c0-0.2,0.1-0.3,0.2-0.4c0.1-0.1,0.1-0.2,0.2-0.3c0.1-0.3,0.2-0.5,0.2-0.7s0.1-0.5,0.2-0.7
				c0.2-0.4,0.4-0.9,0.6-1.3s0.4-0.9,0.6-1.3c0.2-0.4,0.3-0.8,0.5-1.1s0.3-0.8,0.5-1.1c0.3-0.6,0.6-1.2,0.9-1.8
				c0.3-0.6,0.6-1.2,0.9-1.8c0.6-1,1.2-2,1.7-3c0.5-1,1.1-2,1.7-3c1.1-1.9,2.4-3.7,3.7-5.6c0.8-1.1,1.5-2.2,2.4-3.2
				c0.8-1.1,1.7-2.2,2.6-3.2c0.6-0.7,1.2-1.4,1.9-2c0.7-0.6,1.3-1.2,2-1.8c1.6,0.3,3,0.8,4.1,1.7s2.4,1.8,3.5,2.7
				c0.6,0.5,1.2,1,1.8,1.5c0.6,0.5,1.2,1,1.8,1.5c0.3,0.2,0.5,0.3,0.6,0.5s0.4,0.4,0.6,0.6c0.6,0.6,1.3,1.2,2,1.8
				c0.7,0.6,1.3,1.2,2,1.8c0.1,0.1,0.2,0.2,0.4,0.3s0.4,0.2,0.6,0.3c-0.2,0-0.4,0.1-0.6,0.2v0.2c0.3,0.2,0.5,0.2,0.6,0.1
				c0.4-0.2,0.7-0.4,1.1-0.6c0.3-0.2,0.7-0.4,1.1-0.6c0.2-0.2,0.4-0.3,0.6-0.2c0.3,0.1,0.7,0.2,1.1,0.2c0.4,0,0.7,0.3,0.8,0.9
				c0,0.1,0.2,0.2,0.4,0.2c0.2,0,0.4,0.1,0.6,0.2s0.3,0.2,0.5,0.2c0.1,0,0.3,0.1,0.5,0.2c0.1,0,0.2,0.1,0.3,0c0.1,0,0.2,0,0.3,0.1
				c0.4,0.4,0.8,0.8,1.1,1.2c0.4,0.4,0.7,0.8,1.1,1.2c0.3,0.4,0.3,1,0.2,1.7c-0.1,0.7-0.4,1.2-0.9,1.5c-0.2,0.2-0.2,0.3-0.2,0.3
				c-0.1,0.2-0.2,0.3-0.2,0.5c0,0.2-0.1,0.3-0.2,0.4c-0.8,0.8-1.4,1.7-1.8,2.7c-0.1,0.3-0.3,0.5-0.6,0.8c-0.3,0.3-0.5,0.5-0.7,0.8
				c-0.3,0.4-0.5,0.9-0.8,1.3s-0.5,0.9-0.7,1.3c-0.4,0.8-0.9,1.6-1.3,2.5c-0.4,0.8-0.9,1.6-1.6,2.3c-0.3,0.3-0.5,0.6-0.6,0.9
				s-0.3,0.7-0.5,1.1c-0.4,0.7-0.7,1.4-0.9,2c-0.1,0.4-0.2,0.8-0.3,1.1s-0.2,0.7-0.4,1c-0.1,0.3-0.2,0.5-0.4,0.8
				c-0.2,0.2-0.2,0.5-0.1,0.8l-0.1,0.2c-0.6,0.3-0.9,0.7-0.8,1.2c0,0.5,0,1-0.2,1.4c-0.1,0.3-0.3,0.6-0.5,0.8
				c-0.2,0.3-0.3,0.6-0.5,0.9c-0.2,0.8-0.3,1.6-0.5,2.4s-0.2,1.6-0.3,2.4c0,0.4,0,0.8,0,1.3C489.9,80.7,489.9,81,490,81.4z
				 M456.3,72.4c-0.4-0.2-0.6-0.3-0.6-0.5s0-0.4,0-0.6c0.1-0.2,0.2-0.4,0.3-0.7c0.1-0.2,0.1-0.4,0.1-0.7c-0.9,0.7-1.2,1.4-0.7,2.2
				c0,0.1,0.2,0.2,0.3,0.2c0.2,0.1,0.3,0.1,0.4,0.2L456.3,72.4z M456.8,68.1c0.2-0.3,0.3-0.7,0.5-1c0.1-0.3,0.3-0.7,0.5-1.1
				c-0.2,0.1-0.3,0.2-0.5,0.3s-0.3,0.2-0.4,0.3c-0.4,0.7-0.7,1.3-0.9,1.9c-0.1,0.2-0.1,0.3-0.1,0.6s0,0.4,0,0.6
				c0,0.1,0.2,0.1,0.3,0.1c0.1-0.3,0.2-0.5,0.3-0.8C456.5,68.6,456.6,68.3,456.8,68.1z M458.4,64.3c0.1-0.2,0.1-0.4-0.1-0.6
				c-0.1-0.2-0.3-0.2-0.5-0.2c-0.3,0.2-0.4,0.3-0.4,0.6c0,0.2,0,0.3,0.2,0.6c-0.2,0.2-0.5,0.3-0.8,0.6c0.1,0.2,0.2,0.3,0.4,0.4
				c0.2,0.1,0.3,0.2,0.4,0.3c0.1-0.3,0.2-0.5,0.4-0.8C458.2,64.8,458.3,64.6,458.4,64.3z M458.6,63.3c0.1-0.1,0.2-0.2,0.2-0.3
				s0-0.2,0.2-0.3c0.1-0.2,0.2-0.3,0.2-0.5s0.1-0.4,0.2-0.5c0.3-0.4,0.5-0.8,0.8-1.2s0.5-0.7,0.7-1.2c0.3-0.8,0.5-1.5,0.8-2.2
				s0.6-1.4,1.1-2.2c0.1-0.1,0.1-0.2,0.1-0.4c0-0.1,0-0.3,0.1-0.4c0.4-0.8,0.9-1.4,1.3-2c0.1-0.2,0.2-0.4,0.3-0.6s0.2-0.4,0.3-0.6
				c-0.1-0.1-0.2-0.2-0.2-0.2c-0.1,0.1-0.2,0.2-0.3,0.2c-0.1,0-0.2,0.1-0.3,0.2c-0.4,0.5-0.7,1.1-1.1,1.6c-0.3,0.5-0.7,1.1-1.1,1.7
				c0,0.1-0.1,0.2-0.1,0.3s0,0.2-0.1,0.2c-0.6,0.4-1,0.8-1.1,1.4s-0.3,1.1-0.4,1.6c0,0.1-0.1,0.2-0.1,0.2c0,0.1,0,0.1-0.1,0.2
				c-0.3,0.3-0.5,0.6-0.7,0.8c-0.2,0.3-0.3,0.7-0.2,1.1c0.2,0.2,0.1,0.2-0.1,0.2c-0.5,0.2-0.7,0.5-0.7,0.9s-0.1,0.8-0.4,1.1
				c-0.1,0.1-0.1,0.2-0.1,0.4c0,0.2,0.1,0.4,0.2,0.5c0,0.1,0,0.1,0.2,0.1C458.6,63.3,458.6,63.3,458.6,63.3z M459.3,68.5
				c0,0.1,0.1,0.1,0.2,0.1c0.1-0.3,0.2-0.5,0.3-0.7s0.2-0.5,0.3-0.7c0,0-0.1,0-0.2,0c0,0-0.1,0-0.2,0c-0.1,0.3-0.2,0.5-0.2,0.7
				C459.5,67.9,459.4,68.2,459.3,68.5z M488.4,49.9c1.1-1.1,2.3-2.2,3.4-3.3c1.1-1.1,2.3-2.2,3.4-3.3c-0.1-0.1-0.2-0.2-0.2-0.2
				c-0.8,0.6-1.5,1.2-2.2,1.8c-0.7,0.6-1.4,1.2-2.2,1.8c-0.3,0.3-0.5,0.5-0.8,0.8s-0.6,0.4-1.1,0.4c0.9-0.8,1.7-1.5,2.6-2.2
				s1.7-1.5,2.6-2.2c-0.3-0.1-0.5-0.2-0.6-0.2c-0.2,0-0.3-0.1-0.5-0.2c-0.3-0.1-0.5-0.2-0.8-0.4c-0.2-0.1-0.5-0.3-0.8-0.4
				c-0.2-0.1-0.4-0.2-0.6-0.4c-0.2-0.2-0.4-0.3-0.7-0.4c-0.2-0.1-0.3-0.2-0.5-0.2c-0.2,0-0.4-0.1-0.5-0.2c-0.6-0.4-1.3-0.9-1.9-1.4
				c-0.6-0.5-1.3-1-1.9-1.4c-0.3-0.2-0.6-0.3-0.8-0.2c-0.6,0.3-1.2,0.7-1.7,1.2c-0.8,0.8-1.5,1.5-2.2,2.4c-0.7,0.8-1.4,1.6-2.2,2.4
				c-0.2,0.2-0.4,0.4-0.6,0.6s-0.4,0.4-0.6,0.7c-0.3,0.4-0.6,0.7-1,0.9s-0.7,0.6-0.9,1.1c-0.2,0.4-0.4,0.8-0.7,1.2s-0.6,0.8-0.9,1.2
				l-0.2,0.1c-0.3,0.4-0.5,0.8-0.8,1.2c-0.2,0.3-0.5,0.7-0.8,1.1c-0.1,0.2-0.2,0.3-0.2,0.5c0,0.2-0.1,0.3-0.2,0.5
				c-0.5,0.8-1,1.6-1.5,2.4c-0.5,0.8-1,1.6-1.5,2.5c-0.5,0.9-1,1.8-1.4,2.8c-0.4,0.9-0.8,1.9-1.3,2.8c-0.5,1.2-1.1,2.4-1.5,3.5
				c-0.5,1.2-1,2.3-1.5,3.5c-0.1,0.3-0.2,0.7-0.3,1c-0.1,0.3-0.4,0.5-0.8,0.6c0,0.2,0,0.3,0.1,0.4s0,0.3-0.1,0.4
				c-0.3,0.4-0.5,0.9-0.6,1.4c-0.1,0.5-0.1,1-0.2,1.5c0,0.1-0.1,0.2-0.1,0.4s0,0.3-0.1,0.4c-0.2,0.6-0.3,1.2-0.4,1.9s0,1.3,0.1,1.9
				c0,0.1,0.1,0.4,0.2,0.8c3.8-5.4,7.7-10.4,11.9-15.2s8.5-9.5,13-14.1c-0.3,0.4-0.6,0.8-0.9,1.1c-0.3,0.3-0.6,0.7-0.9,1.1
				c-0.5,0.5-1,1.1-1.4,1.5c-0.5,0.5-0.9,1-1.3,1.5c-0.3,0.3-0.6,0.6-0.7,0.8c-0.1,0.1-0.2,0.2-0.3,0.4c-0.1,0.2-0.2,0.3-0.3,0.5
				c0,0.1-0.1,0.1-0.2,0.2C479,58.9,479,59,479,59c0.1,0.4,0.1,0.6-0.1,0.7c-0.2,0.1-0.4,0.1-0.6,0.2c-0.2,0.1-0.4,0.2-0.5,0.3
				c-0.3,0.4-0.6,0.8-0.9,1.1c-0.3,0.3-0.6,0.8-0.9,1.2c0,0.1-0.1,0.2-0.1,0.3s0,0.2,0,0.3c-0.2,0.1-0.3,0.2-0.5,0.3
				c-0.2,0.1-0.3,0.2-0.5,0.3c0,0.1-0.1,0.1-0.1,0.2c0,0.1,0,0.2,0,0.2c0,0.1,0.1,0.1,0.2,0.2c0.1,0.1,0.1,0.1,0.2,0
				c0.3,0,0.6-0.1,0.7-0.4c0.3-0.3,0.6-0.7,0.9-1c0.3-0.3,0.6-0.7,0.9-1.1c0.1-0.2,0.2-0.3,0.4-0.5c0.2-0.2,0.3-0.3,0.3-0.5
				c0-0.5,0.3-0.7,0.7-0.6c0.3,0,0.5-0.2,0.6-0.6c0.3-0.7,0.6-1.2,1-1.5c0.4-0.4,0.9-0.9,1.3-1.3s0.9-0.9,1.3-1.3
				c0.2-0.2,0.3-0.3,0.4-0.6c0.1-0.2,0.2-0.4,0.3-0.7c0.1-0.1,0.2-0.2,0.4-0.2c0.2-0.1,0.3-0.1,0.4-0.2c0.2-0.2,0.4-0.3,0.6-0.6
				s0.3-0.4,0.5-0.7s0.3-0.4,0.5-0.6s0.3-0.4,0.5-0.6c0.2-0.3,0.4-0.5,0.8-0.7c0.4-0.2,0.7-0.2,1-0.1c0.5,0.3,1,0.2,1.4-0.5
				c-0.3,0-0.5,0-0.8,0s-0.5,0.1-0.8,0.1c0-0.1,0-0.1,0-0.2C488.5,50,488.4,50,488.4,49.9z M463.3,60.6c0-0.1,0-0.1,0-0.2
				s-0.1-0.2-0.2-0.3c0,0.1-0.1,0.1-0.2,0.1c-0.1,0-0.1,0.1-0.2,0.1c-0.3,0.3-0.5,0.6-0.6,0.9c0,0.1,0,0.1,0,0.1c0,0,0,0.1,0,0.1
				C462.7,61.2,463,60.9,463.3,60.6z M464,54.6c0.5-0.3,0.7-0.5,0.8-0.6s-0.1-0.2-0.5-0.4c0,0.2-0.1,0.3-0.2,0.5
				C464.1,54.2,464,54.3,464,54.6z M472.8,66.5c0.5-0.3,1-0.5,1.2-0.6c-0.3-0.3-0.5-0.4-0.6-0.3C473.2,65.7,473,66,472.8,66.5z
				 M474,65.5c0.2-0.3,0.4-0.6,0.5-0.7c0-0.1,0-0.2-0.1-0.2c-0.1-0.1-0.1-0.1-0.2-0.2c-0.2,0.2-0.4,0.4-0.4,0.5
				C473.7,64.9,473.8,65.2,474,65.5z M485.5,54.9c0-0.1-0.1-0.1-0.1-0.2s0-0.1,0-0.2s0-0.1,0-0.2c-0.2,0.1-0.3,0.2-0.5,0.3
				s-0.3,0.2-0.5,0.3c0.1,0.2,0.2,0.3,0.2,0.4L485.5,54.9z"/>
		</g>
		<g>
			<path class="st0" d="M160,119.8v35.8c0,3.2-1,5.9-3,8c-1,1.1-2.2,1.9-3.6,2.5s-3,0.9-4.8,0.9c-2.1,0-3.9-0.5-5.4-1.4
				c-1.4-0.9-2.6-1.9-3.4-2.8l5.3-4.2c0.5,0.5,1,0.9,1.7,1.2s1.3,0.5,2,0.5c0.4,0,0.9-0.1,1.4-0.2c0.5-0.1,1-0.4,1.5-0.9
				c0.5-0.4,0.9-0.9,1.2-1.7c0.3-0.7,0.5-1.7,0.5-2.9v-34.9L160,119.8L160,119.8z"/>
			<path class="st0" d="M185.5,133.3v33.3h-6.7v-3.2h-0.1c-0.7,1.1-1.6,1.9-2.5,2.6c-1,0.7-2.2,1-3.8,1c-0.8,0-1.7-0.1-2.5-0.4
				c-0.8-0.3-1.6-0.8-2.2-1.4c-0.7-0.7-1.2-1.5-1.6-2.5s-0.6-2.3-0.6-3.8v-25.6h6.7v23.1c0,1.2,0.3,2.2,0.9,2.9s1.4,1.1,2.4,1.1
				c1.3,0,2.1-0.4,2.6-1.2c0.5-0.8,0.7-1.9,0.7-3.4v-22.4L185.5,133.3L185.5,133.3z"/>
			<path class="st0" d="M190.7,119.8h6.7v37.4c0,1.3,0.2,2.1,0.7,2.6s1.3,0.8,2.6,0.9v6.3c-1.5,0-2.9-0.1-4.1-0.4
				c-1.2-0.2-2.3-0.7-3.2-1.4c-0.9-0.7-1.6-1.6-2-2.8c-0.5-1.2-0.7-2.8-0.7-4.8L190.7,119.8L190.7,119.8z"/>
			<path class="st0" d="M200.5,133.3h7.1l4.6,20.8h0.1l4.5-20.8h6.9l-9.6,39.1c-0.4,1.5-0.8,2.7-1.5,3.7c-0.6,1-1.4,1.8-2.2,2.4
				c-0.8,0.6-1.7,1-2.7,1.3s-1.9,0.4-2.9,0.4H203v-6.3h1.5c0.7,0,1.2-0.1,1.7-0.3c0.5-0.2,0.9-0.6,1.3-1.2c0.4-0.6,0.7-1.5,1-2.6
				s0.7-2.7,1.1-4.6L200.5,133.3z"/>
			<path class="st0" d="M249.9,166.6v-7h-13.4v-6.3l9.7-33.5h7.1l-10.1,33.5h6.6V140h6.7v13.4h3.2v6.3h-3.2v7H249.9z"/>
			<path class="st0" d="M263.1,171.5v-11.6h6.7v6.7L263.1,171.5z"/>
			<path class="st0" d="M287.1,166.6v-6.3l12.1-22.8c0.6-1.1,1-2.1,1-3c0.1-0.9,0.1-1.9,0.1-3.2c0-0.6,0-1.2,0-1.8
				c0-0.6-0.1-1.2-0.4-1.7c-0.2-0.5-0.5-0.9-1-1.2s-1.1-0.5-1.9-0.5c-1,0-1.8,0.3-2.4,0.9s-0.9,1.4-0.9,2.5v3.8h-6.7v-3.7
				c0-1.4,0.3-2.7,0.8-3.9s1.2-2.3,2.2-3.2c0.9-0.9,1.9-1.6,3.2-2.2s2.5-0.8,4-0.8c1.8,0,3.2,0.3,4.5,0.9c1.2,0.6,2.3,1.5,3.1,2.6
				c0.8,1.1,1.4,2.4,1.7,3.8s0.6,2.9,0.6,4.5c0,1.1,0,2.1-0.1,2.9c0,0.8-0.1,1.5-0.3,2.2s-0.4,1.4-0.7,2.1c-0.3,0.7-0.7,1.6-1.2,2.6
				l-9.9,19h12.1v6.7L287.1,166.6L287.1,166.6z"/>
			<path class="st0" d="M311.6,129.4c0-1.6,0.3-3,0.8-4.2c0.5-1.2,1.3-2.3,2.2-3.2s2-1.6,3.2-2c1.2-0.5,2.5-0.7,3.8-0.7
				s2.6,0.2,3.8,0.7c1.2,0.5,2.3,1.1,3.2,2c0.9,0.9,1.6,1.9,2.2,3.2c0.5,1.2,0.8,2.6,0.8,4.2v27.5c0,1.6-0.3,3-0.8,4.2
				c-0.5,1.2-1.3,2.3-2.2,3.2s-2,1.6-3.2,2c-1.2,0.5-2.5,0.7-3.8,0.7s-2.6-0.2-3.8-0.7c-1.2-0.5-2.3-1.1-3.2-2
				c-0.9-0.9-1.7-1.9-2.2-3.2c-0.5-1.2-0.8-2.6-0.8-4.2V129.4z M318.3,156.9c0,1,0.3,1.8,0.9,2.4c0.6,0.6,1.4,0.9,2.4,0.9
				c1,0,1.8-0.3,2.4-0.9c0.6-0.6,0.9-1.4,0.9-2.4v-27.5c0-1-0.3-1.8-0.9-2.4c-0.6-0.6-1.4-0.9-2.4-0.9c-1,0-1.8,0.3-2.4,0.9
				c-0.6,0.6-0.9,1.4-0.9,2.4V156.9z"/>
			<path class="st0" d="M336,166.6v-6.3l12.1-22.8c0.6-1.1,1-2.1,1-3c0.1-0.9,0.1-1.9,0.1-3.2c0-0.6,0-1.2,0-1.8
				c0-0.6-0.1-1.2-0.4-1.7c-0.2-0.5-0.5-0.9-1-1.2s-1.1-0.5-1.9-0.5c-1,0-1.8,0.3-2.4,0.9s-0.9,1.4-0.9,2.5v3.8H336v-3.7
				c0-1.4,0.3-2.7,0.8-3.9s1.2-2.3,2.2-3.2c0.9-0.9,1.9-1.6,3.2-2.2s2.5-0.8,4-0.8c1.8,0,3.2,0.3,4.5,0.9c1.2,0.6,2.3,1.5,3.1,2.6
				c0.8,1.1,1.4,2.4,1.7,3.8s0.6,2.9,0.6,4.5c0,1.1,0,2.1-0.1,2.9c0,0.8-0.1,1.5-0.3,2.2s-0.4,1.4-0.7,2.1c-0.3,0.7-0.7,1.6-1.2,2.6
				l-9.9,19H356v6.7L336,166.6L336,166.6z"/>
			<path class="st0" d="M360.5,129.4c0-1.6,0.3-3,0.8-4.2c0.5-1.2,1.3-2.3,2.2-3.2s2-1.6,3.2-2c1.2-0.5,2.5-0.7,3.8-0.7
				s2.6,0.2,3.8,0.7c1.2,0.5,2.3,1.1,3.2,2c0.9,0.9,1.6,1.9,2.2,3.2c0.5,1.2,0.8,2.6,0.8,4.2v27.5c0,1.6-0.3,3-0.8,4.2
				c-0.5,1.2-1.3,2.3-2.2,3.2s-2,1.6-3.2,2c-1.2,0.5-2.5,0.7-3.8,0.7s-2.6-0.2-3.8-0.7c-1.2-0.5-2.3-1.1-3.2-2
				c-0.9-0.9-1.7-1.9-2.2-3.2c-0.5-1.2-0.8-2.6-0.8-4.2V129.4z M367.2,156.9c0,1,0.3,1.8,0.9,2.4c0.6,0.6,1.4,0.9,2.4,0.9
				c1,0,1.8-0.3,2.4-0.9c0.6-0.6,0.9-1.4,0.9-2.4v-27.5c0-1-0.3-1.8-0.9-2.4c-0.6-0.6-1.4-0.9-2.4-0.9c-1,0-1.8,0.3-2.4,0.9
				c-0.6,0.6-0.9,1.4-0.9,2.4V156.9z"/>
		</g>
	</g>
</g>
<g>
	<path d="M355.8,151c-7.3-0.9-15-1.6-22.9-2.5c-7.9-0.7-16-1.6-24.2-2.2c-16.3-1.3-32.7-2.1-47.5-1.9c-17.8,0.3-36.3,1-54.7,2.4
		c-18.4,1.5-36.8,3.6-54.2,6.6c-0.1-0.4,2.7-1.6-0.2-1.3c-11.8,1.4-11.9,0.6-12.1-0.3c-0.1-0.5,8.8-1.7,5.8-1.6
		c8.8-1.7,23.5-4,14.6-3.1c-3-0.1-14.7,2.4-17.7,2.4c-3.1-0.1,2.7-1.9-0.4-2c-1.5,0.3-3.7,0.7-5.9,1.2c-2.2,0.4-4.4,0.9-5.9,1.2
		c-3,0.2,2.6-2-0.3-1.3c-4.5,0.7-9.6,1.9-15.1,3.3c-2.7,0.7-5.6,1.5-8.4,2.4c-2.9,0.9-5.7,1.8-8.7,2.8c-0.1-0.2-0.9-0.2-0.9-0.4
		c0-0.1,0.1-0.2,0.6-0.5c0.6-0.3,1.5-0.7,2.9-1.2c12.7-4.2,25.6-7.2,38.6-9.9c13-2.6,26.2-4.7,39.4-6.3c13.2-1.6,26.5-2.8,39.8-3.6
		c13.3-0.7,26.7-1.1,40-1.1c53.4,0.1,106.6,6.4,158,17.4c11.7,2.6,2.7,1.7-6.2,0.6c3,0.4,2.8,1,5.8,1.4c-0.1,0.3-1.6,0.5-4.6,0.3
		c-1.5-0.1-3.4-0.3-5.6-0.6c-1.1-0.2-2.3-0.3-3.6-0.5c-1.3-0.2-2.7-0.4-4.2-0.6l4.4,0.8l4.4,0.9c2.9,0.8-0.1,0.7-0.2,1.1
		c-2.9-0.6-5.9-1.2-5.9-0.9c0,0.2-0.1,0.7-0.2,0.9c2.9,0.5,8.8,1.8,11.7,2.3c-2.9-0.6-5.8-1.2-5.9-1c0,0.2-0.1,0.7-0.2,0.9
		c-1.5-0.2-3.1-0.6-4.8-0.9c-1.7-0.3-3.6-0.7-5.4-1c-3.7-0.7-7.3-1.4-10.3-1.8l-0.1,0.7c2.9,0.6,6.6,1.3,10.2,1.9
		c1.8,0.3,3.7,0.6,5.4,0.9c1.7,0.3,3.4,0.6,4.8,0.9c-3-0.4-3-0.1-3.1,0.3c-4.4-0.7-8.8-1.6-13.1-2.5c-2.2-0.4-4.4-0.8-6.6-1.2
		c-2.2-0.3-4.4-0.6-6.6-0.8c2.9,0.5,5.9,0.9,8.8,1.4C379.2,155.2,364.7,151.9,355.8,151z"/>
</g>
<g>
	<path class="st0" d="M234.6,196.9v8.5H228v34h-11.1v-34h-6.5v-8.5H234.6z"/>
	<path class="st0" d="M237.1,196.9h11c3.5,0,6.1,0.3,7.9,0.8c1.8,0.5,3.2,1.6,4.3,3.3c1.1,1.7,1.7,4.3,1.7,8c0,2.5-0.4,4.2-1.2,5.2
		s-2.3,1.7-4.6,2.3c2.6,0.6,4.3,1.5,5.2,2.9c0.9,1.3,1.4,3.4,1.4,6.2v3.9c0,2.9-0.3,5-1,6.4s-1.7,2.3-3.1,2.8
		c-1.4,0.5-4.4,0.8-8.8,0.8h-12.8V196.9z M248.2,204.2v9.5c0.5,0,0.8,0,1.1,0c1.1,0,1.8-0.3,2.1-0.8s0.4-2.1,0.4-4.6
		c0-1.3-0.1-2.3-0.4-2.8c-0.2-0.5-0.6-0.9-1-1C250.1,204.3,249.3,204.2,248.2,204.2z M248.2,220.3v11.9c1.6-0.1,2.6-0.3,3-0.7
		c0.4-0.4,0.6-1.5,0.6-3.2v-4c0-1.8-0.2-2.9-0.6-3.3C250.8,220.6,249.8,220.3,248.2,220.3z"/>
	<path class="st0" d="M266.8,196.9h8.3c5.3,0,9,0.2,10.8,0.7c1.9,0.5,3.3,1.3,4.3,2.4c1,1.1,1.6,2.4,1.8,3.7
		c0.2,1.4,0.4,4.1,0.4,8.1v14.9c0,3.8-0.2,6.4-0.5,7.7c-0.4,1.3-1,2.3-1.9,3c-0.9,0.7-2,1.2-3.3,1.5c-1.3,0.3-3.3,0.4-5.9,0.4h-14
		V196.9z M277.9,204.2v28c1.6,0,2.6-0.3,2.9-1c0.4-0.6,0.6-2.4,0.6-5.2v-16.5c0-1.9-0.1-3.2-0.2-3.7c-0.1-0.5-0.4-0.9-0.8-1.2
		C279.9,204.3,279.1,204.2,277.9,204.2z"/>
</g>
</svg>
