<?xml version="1.0" encoding="utf-8"?>
<!-- Generator: Adobe Illustrator 21.0.2, SVG Export Plug-In . SVG Version: 6.00 Build 0)  -->
<svg version="1.1" id="Layer_1" xmlns="http://www.w3.org/2000/svg" xmlns:xlink="http://www.w3.org/1999/xlink" x="0px" y="0px"
	 viewBox="0 0 2032 2032" style="enable-background:new 0 0 2032 2032;" xml:space="preserve">
<style type="text/css">
	.st0{fill:#FFFFFF;}
</style>
<path d="M1016,78.8C455.1,78.8,0.4,437.3,0.4,879.6c0,285.9,190.1,536.8,476.1,678.5c-15.6,53.7-100,345.2-103.3,368.1
	c0,0-2,17.2,9.1,23.8c11.1,6.6,24.2,1.5,24.2,1.5c32-4.5,370.5-242.3,429.1-283.6c58.5,8.3,118.8,12.6,180.4,12.6
	c560.9,0,1015.6-358.5,1015.6-800.8C2031.6,437.3,1576.9,78.8,1016,78.8L1016,78.8z"/>
<path class="st0" d="M454.5,1159.1c-32.3,0-58.6-25.1-58.6-56V755h-91.4c-31.7,0-57.5-25.7-57.5-57.4c0-31.6,25.8-57.4,57.5-57.4
	h300c31.7,0,57.5,25.7,57.5,57.4c0,31.6-25.8,57.4-57.5,57.4h-91.4v348.1C513.1,1134,486.8,1159.1,454.5,1159.1z M968.3,1158.3
	c-24.4,0-43.1-9.9-48.8-25.9l-29-76l-178.7,0l-29,76c-5.6,15.9-24.3,25.8-48.7,25.8c-12.9,0-25.6-2.7-37.2-8.1
	c-16.2-7.5-31.7-27.9-13.9-83.2l140.2-368.9c9.9-28.1,39.9-57,78-57.8c38.3,0.9,68.3,29.8,78.2,57.9l140.1,368.7
	c17.8,55.4,2.3,75.9-13.8,83.3C993.8,1155.6,981.1,1158.3,968.3,1158.3C968.3,1158.3,968.3,1158.3,968.3,1158.3L968.3,1158.3z
	 M859.7,952.7l-58.5-166.3l-58.5,166.3L859.7,952.7L859.7,952.7z M1113.7,1150.6c-31,0-56.2-24.1-56.2-53.7V698.9
	c0-32.3,26.8-58.6,59.8-58.6s59.8,26.3,59.8,58.6v344.2h124.5c31,0,56.2,24.1,56.2,53.7c0,29.6-25.2,53.7-56.2,53.7H1113.7z
	 M1439.2,1158.3c-32.3,0-58.6-26.3-58.6-58.6V698.9c0-32.3,26.3-58.6,58.6-58.6s58.6,26.3,58.6,58.6v125.9l163.5-163.5
	c8.4-8.4,20-13,32.5-13c14.6,0,29.3,6.3,40.3,17.3c10.3,10.3,16.4,23.4,17.2,37.1c0.8,13.8-3.8,26.5-12.9,35.7L1604.8,872
	l144.2,191.1c9.4,12.4,13.5,28,11.2,43.4c-2.1,15.4-10.3,29.3-22.7,38.6c-10.1,7.7-22.5,11.9-35.2,11.8
	c-18.4,0.1-35.8-8.6-46.8-23.3l-137.4-182.1l-20.3,20.3v127.8C1497.8,1132.1,1471.5,1158.3,1439.2,1158.3L1439.2,1158.3z"/>
</svg>
