<?xml version="1.0" encoding="utf-8"?>
<!-- Generator: Adobe Illustrator 21.0.2, SVG Export Plug-In . SVG Version: 6.00 Build 0)  -->
<svg version="1.1" id="Layer_1" xmlns="http://www.w3.org/2000/svg" xmlns:xlink="http://www.w3.org/1999/xlink" x="0px" y="0px"
	 viewBox="0 0 843 843" style="enable-background:new 0 0 843 843;" xml:space="preserve">
<g>
	<path d="M537.8,57.9c-6.9,6.9-13.9,13.7-20.8,20.6c-23,23-46,45.9-68.9,69c-3.1,3.1-6.1,4.3-10.5,4.4
		c-63.8,0.3-127.7,0.7-191.5,1.1c-5.8,0-11.7,0.5-17.5,0.6c-33.8,0.8-58,18.1-76.3,45.1c-9.3,13.6-12.9,28.7-13.2,45.3
		c-1.9,121.3-1.7,242.6,0,364c0.5,38.2,21.1,62,52.7,78.8c6.9,3.6,14.5,5.8,21.9,8.5c1.7,0.6,3.6,0.7,5.4,0.7
		c117.8,0.2,235.7,0.4,353.5,0.5c16.7,0,33.4,0,49.9-1.4c35.5-3.2,71.9-35.4,79.8-70.1c1.5-6.7,1.8-13.9,1.9-20.9
		c0.5-63.7,0.9-127.3,1.2-191c0-4.4,1.3-7.4,4.4-10.4c28.6-28.4,57.1-56.9,85.6-85.5c1.3-1.3,2.3-2.9,4.2-5.4c0.6,2.6,1,3.6,1,4.6
		c-0.3,99-0.4,198-1.1,297c-0.3,50.3-22.5,91.1-57.7,125.5c-28.9,28.3-63.9,45.3-103.6,51.2c-18.3,2.7-37.2,2.3-55.9,2.3
		c-117.3,0-234.7-0.7-352-0.2c-79.9,0.4-160-57.3-182.5-138.5c-3.9-14.1-6.2-28-6.2-42.7c0.1-112.3-0.3-224.7-0.2-337
		c0-21.1-0.2-42.7,3.8-63.2c9.9-51.3,38.4-91.2,81.1-120.9c23.6-16.4,49.7-26.9,78.2-31.2c3.1-0.5,6.3-0.6,9.5-0.6
		c102.5-0.4,205-0.9,307.5-1.3c5.1,0,10.3,0,15.4,0C537.3,57.1,537.5,57.5,537.8,57.9z"/>
	<path d="M442.1,491.9c-5.5,1.5-9.3-1.1-13-5c-22.8-23.4-45.8-46.5-68.8-69.8c-2.1-2.1-4.1-4.4-5.9-6.8c-4.5-5.9-4.6-11.7,0.5-17.1
		c19-20.1,38-40.2,57.5-59.8c73.2-73.1,146.6-146,220-218.9c3.5-3.5,7.2-7,10.8-10.4c7.5-6.9,14.2-7.4,21.6-0.3
		c15.9,15.2,31.6,30.6,47.1,46.2c9.8,9.8,19.2,19.9,28.5,30.1c6.8,7.5,6.9,12.3-0.1,19.5c-34.9,35.8-69.7,71.6-104.9,107.1
		c-59.8,60.1-119.9,119.9-179.8,180C451.6,490.6,447.8,493.4,442.1,491.9z"/>
	<path d="M841.3,71.9c-0.4,13.4-3.5,26.9-12.4,38.1c-8.1,10.1-17.1,19.5-26.3,28.7c-6.3,6.2-16.9,5.2-23.1-1
		c-24.9-24.8-49.7-49.7-74.6-74.5c-4.9-4.9-6.5-13.7-2-18.9c16.7-19.8,34.4-38.5,62.4-41.4c23-2.4,42.2,5.9,57.8,22.5
		C834.9,38.2,841.1,53.6,841.3,71.9z"/>
	<path d="M385.8,527.8c-0.3,7.4-2.2,12.4-8,14.9c-34,14.6-67.9,29.1-101.9,43.6c-6.5,2.8-11.3-0.7-15.5-5c-3.9-4-6.3-8.4-3.8-14.4
		c14.3-33.2,28.5-66.4,42.7-99.6c2.9-6.8,8.1-10.5,15.3-9.2c3.8,0.7,7.8,3.1,10.6,5.8c12.2,11.5,24.2,23.4,36.1,35.3
		c7.3,7.3,14.3,14.9,21.1,22.6C384.2,523.8,385.1,526.6,385.8,527.8z"/>
</g>
</svg>
