<?xml version="1.0" encoding="utf-8"?>
<!-- Generator: Adobe Illustrator 21.0.2, SVG Export Plug-In . SVG Version: 6.00 Build 0)  -->
<svg version="1.1" id="Layer_1" xmlns="http://www.w3.org/2000/svg" xmlns:xlink="http://www.w3.org/1999/xlink" x="0px" y="0px"
	 viewBox="0 0 740.5 810.9" style="enable-background:new 0 0 740.5 810.9;" xml:space="preserve">
<style type="text/css">
	.st0{fill:#FFFFFF;}
</style>
<g id="DxcFTy_1_">
	<g>
		<path class="st0" d="M518.6,55.6c-20,0-38.8,0-57.7,0c-49.5,0-99,0-148.5,0c-82.8,0-165.6-0.1-248.4-0.1c-2.3,0-4.7-0.1-7,0.3
			C22.8,61.4,0,90.4,0,122.4c0.3,206.7,0.2,413.3,0.1,620c0,20.9,7.1,38.1,22.4,51.9c10.7,9.7,23.4,16,37.9,16.2
			c37.5,0.5,75,0.3,112.5,0.3c140.3,0,280.6,0,421-0.2c7,0,14.2-1.1,20.9-3.1c26-7.5,45.5-34,45.5-61.1c0-152.5,0-305,0.1-457.5
			c0-4.7,0-9.4,0-15.2c-2,2.4-3.1,3.7-4.3,5.1c-9.6,11.8-19.4,23.6-28.9,35.5c-1.5,1.9-2.8,4.6-2.8,6.9
			c-0.5,87.6-0.9,175.2-1.1,262.8c0,21.3,0.8,42.6,0.9,63.8c0.2,31.3,0,62.7,0,94c0,19.7-13.1,32.7-32.7,32.7
			c-174.5,0-349,0-523.5,0c-18.2,0-31.8-13.5-31.8-31.6c0-206.5,0-413,0-619.5c0-18.6,13.4-31.9,32.1-31.9
			c137.8,0,275.7,0,413.5,0.1c5.4,0,9.1-1.1,12-5.9c1.8-3,4.5-5.3,6.7-8C506.3,70.8,512.1,63.6,518.6,55.6z M555.3,85.1
			c-6.3,7.7-12.3,15-18.2,22.3c-19,23.2-38.1,46.5-57.1,69.7c-15.6,19.1-31.1,38.4-46.7,57.5c-12.8,15.7-25.7,31.3-38.5,46.9
			c-10.8,13.2-21.6,26.5-32.5,39.7c-14.3,17.5-28.6,34.9-42.9,52.3c-11,13.5-21.9,27.1-33,40.5c-7.4,8.9-14.8,17.8-18.9,28.9
			c-14.8,39.7-29.6,79.3-44.3,119c-4.4,11.9-8.9,23.8-12.3,36c-3.5,12.6,4.2,28,21,25.7c5.8-0.8,11.9-3,16.9-6.1
			c34-20.7,67.8-41.8,101.5-63c12.7-8,25.3-16.2,37.4-25c14.5-10.5,23.7-26,35-39.4c15.7-18.6,30.8-37.8,46.2-56.7
			c13.8-17,27.8-33.9,41.6-50.8c13.9-17.1,27.7-34.3,41.7-51.4c17.2-21.1,34.5-42.1,51.8-63.2c15.5-19,31-38.1,46.5-57.1
			c7.6-9.4,15.3-18.7,23.1-28.3C634.1,150,594.8,117.7,555.3,85.1z M577.1,58c39.9,32.4,79.5,64.7,119.2,97c4.9-6,9.6-11.4,14-17
			c8-10.2,16.6-19.9,23.5-30.8c11.9-18.8,7.4-40.4-9.9-54.4C706.2,38.7,688.6,24.3,671,10c-15.1-12.3-34.1-13.5-49.7-1.9
			c-6.9,5.2-12.7,12-18.4,18.6C594.1,36.9,585.8,47.5,577.1,58z"/>
		<path d="M518.6,55.6c-6.5,8-12.3,15.2-18.2,22.3c-2.2,2.7-4.9,5.1-6.7,8c-2.8,4.7-6.6,5.9-12,5.9C344,91.7,206.2,91.7,68.3,91.7
			c-18.6,0-32.1,13.3-32.1,31.9c0,206.5,0,413,0,619.5c0,18.1,13.6,31.6,31.8,31.6c174.5,0,349,0,523.5,0
			c19.7,0,32.7-13.1,32.7-32.7c0-31.3,0.1-62.7,0-94c-0.1-21.3-0.9-42.6-0.9-63.8c0.2-87.6,0.6-175.2,1.1-262.8c0-2.3,1.3-5,2.8-6.9
			c9.5-11.9,19.2-23.7,28.9-35.5c1.1-1.4,2.3-2.8,4.3-5.1c0,5.8,0,10.5,0,15.2c0,152.5,0,305-0.1,457.5c0,27.1-19.5,53.5-45.5,61.1
			c-6.7,1.9-13.9,3.1-20.9,3.1c-140.3,0.2-280.6,0.2-421,0.2c-37.5,0-75,0.2-112.5-0.3c-14.5-0.2-27.2-6.5-37.9-16.2
			C7.1,780.5,0,763.3,0.1,742.4c0.2-206.7,0.2-413.3-0.1-620c0-32,22.8-61.1,57-66.6c2.3-0.4,4.7-0.3,7-0.3
			c82.8,0,165.6,0.1,248.4,0.1c49.5,0,99,0,148.5,0C479.8,55.6,498.6,55.6,518.6,55.6z"/>
		<path d="M555.3,85.1c39.6,32.6,78.8,64.9,118.4,97.5c-7.8,9.6-15.5,18.9-23.1,28.3c-15.5,19-31,38.1-46.5,57.1
			c-17.2,21.1-34.6,42.1-51.8,63.2c-14,17.1-27.7,34.3-41.7,51.4c-13.8,17-27.8,33.9-41.6,50.8c-15.4,18.9-30.5,38-46.2,56.7
			c-11.3,13.4-20.5,28.9-35,39.4c-12.1,8.8-24.7,17-37.4,25c-33.7,21.2-67.5,42.2-101.5,63c-5,3.1-11.1,5.2-16.9,6.1
			c-16.8,2.3-24.5-13.1-21-25.7c3.4-12.2,7.9-24.1,12.3-36c14.7-39.7,29.6-79.3,44.3-119c4.1-11.1,11.5-19.9,18.9-28.9
			c11.1-13.5,22-27,33-40.5c14.3-17.5,28.6-34.9,42.9-52.3c10.8-13.2,21.6-26.5,32.5-39.7c12.8-15.6,25.7-31.2,38.5-46.9
			c15.6-19.1,31.1-38.4,46.7-57.5c19-23.3,38.1-46.5,57.1-69.7C543,100.1,548.9,92.8,555.3,85.1z M365,499.2
			c-19.8-16.3-38.8-32-58.6-48.3c-2,5.3-3.7,9.9-5.5,14.6c-6.6,17.7-13.3,35.5-19.9,53.2c-1.2,3.1-1.6,6.1,1.4,8.5
			c4.1,3.3,8.1,6.8,12.2,10.2c2.6,2.2,5.1,2.6,8.1,0.7c7.1-4.5,14.3-9,21.4-13.5C337.5,516.3,351,507.9,365,499.2z"/>
		<path d="M577.1,58c8.6-10.6,16.9-21.2,25.7-31.3c5.7-6.6,11.5-13.5,18.4-18.6C636.9-3.6,655.9-2.4,671,10
			c17.6,14.4,35.2,28.7,52.9,42.9c17.3,14,21.8,35.6,9.9,54.4c-6.9,10.9-15.5,20.6-23.5,30.8c-4.4,5.6-9,11-14,17
			C656.7,122.7,617,90.5,577.1,58z"/>
	</g>
</g>
<g>
</g>
<g>
</g>
<g>
</g>
<g>
</g>
<g>
</g>
<g>
</g>
</svg>
